<?xml version="1.0" encoding="utf-8"?>
<!-- Generated by IcoMoon.io -->
<!DOCTYPE svg PUBLIC "-//W3C//DTD SVG 1.1//EN" "http://www.w3.org/Graphics/SVG/1.1/DTD/svg11.dtd">
<svg version="1.1" xmlns="http://www.w3.org/2000/svg" xmlns:xlink="http://www.w3.org/1999/xlink" width="31" height="32" viewBox="0 0 31 32">
<path fill="#444444" d="M30.929 12.521h-8.336c-0.005 0.072-0.010 0.145-0.014 0.216-0.030 0.453-0.058 0.88-0.098 1.315-0.207 2.302-0.819 4.505-1.818 6.548-2.441 4.991-6.333 8.463-11.567 10.318-1.687 0.598-3.498 0.946-5.381 1.036-0.022 0.001-0.064 0.010-0.105 0.019-0.033 0.007-0.066 0.014-0.099 0.020l-0.040 0.007h-3.47l2.869-0.891c0.238-0.074 0.479-0.141 0.712-0.206 0.513-0.142 0.997-0.277 1.449-0.478 1.516-0.674 2.897-1.785 4.22-3.396 1.9-2.313 3.191-5.092 3.948-8.497 0.431-1.936 0.653-3.949 0.661-5.984h-8.267l0.615-0.746c0.034-0.041 0.061-0.076 0.085-0.106 0.051-0.064 0.094-0.119 0.149-0.174l2.899-2.9c2.74-2.74 5.572-5.574 8.356-8.363 0.078-0.078 0.26-0.26 0.534-0.26s0.462 0.188 0.523 0.25c3.061 3.068 6.176 6.184 9.19 9.197l2.129 2.129c0.027 0.027 0.053 0.055 0.094 0.102 0.019 0.021 0.042 0.048 0.073 0.081l0.69 0.762zM6.484 30.696c0.792-0.161 1.562-0.374 2.307-0.637 5.001-1.773 8.72-5.090 11.053-9.859 0.95-1.943 1.532-4.038 1.729-6.229 0.038-0.424 0.066-0.846 0.096-1.293 0.014-0.211 0.028-0.425 0.044-0.644l0.030-0.423h7.073l-1.518-1.518c-2.973-2.973-6.046-6.047-9.068-9.076-2.748 2.753-5.542 5.548-8.245 8.251l-2.369 2.369h7.154v0.794c0 2.142-0.23 4.261-0.683 6.3-0.789 3.547-2.141 6.451-4.133 8.878-1.099 1.338-2.242 2.357-3.47 3.089z"></path>
</svg>
