<?xml version="1.0" standalone="no"?>
<!DOCTYPE svg PUBLIC "-//W3C//DTD SVG 1.1//EN" "http://www.w3.org/Graphics/SVG/1.1/DTD/svg11.dtd" >
<svg xmlns="http://www.w3.org/2000/svg">
<metadata></metadata>
<defs>
<font id="wild_youthregular" horiz-adv-x="1228" >
<font-face units-per-em="2048" ascent="1638" descent="-410" />
<missing-glyph horiz-adv-x="409" />
<glyph unicode=" "  horiz-adv-x="409" />
<glyph unicode="&#x09;" horiz-adv-x="409" />
<glyph unicode="&#xa0;" horiz-adv-x="409" />
<glyph unicode="!" horiz-adv-x="532" d="M342 498q2 4 2 8q3 26 16 49q14 29 19 47q9 35 6 70q0 5 -1 14t-1 14q2 27 2 82q4 36 4 56q0 12 2.5 44.5t1.5 49.5q-2 25 -2 69q4 92 8 136q0 25 7 69q9 66 16 97q5 22 35 129q2 10 7 29.5t7 29.5q3 9 -3 14.5t-17 5.5q-4 -1 -16.5 -3.5t-17.5 -2.5t-18 2 q-2 1 -7.5 -0.5t-6.5 -1.5q-6 18 -8 21q-6 6 -12 6q-2 0 -15.5 2.5t-17.5 -0.5q-13 -5 -19 12q0 8 -6 10q-19 -10 -61 -18q-25 -4 -35 -10q-10 6 -14 5.5t-11 -7.5q-2 0 -6 1t-6 1q-7 -4 -29 -8q-5 -1 -22 -5t-27 -4q-17 -2 -20 -24v-6v-164q0 -27 2 -39q4 -57 4 -172v-47 q0 -32 -4 -94q0 -49 -2 -74q-1 -27 -4 -80.5t-4 -79.5q-1 -21 -2.5 -62t-2.5 -61v-63q23 -13 37 -27q4 -4 15.5 -11.5t15.5 -10.5q18 -9 21 -15q3 -4 16 -4h18l13 -8q29 8 39 10q9 5 14 2q2 0 10 -8q5 16 25 16q4 -4 6 -4q4 1 11 4.5t11 4.5q16 4 27 4zM135 6q2 2 6 9t9 8 l6 -15q2 2 6 5t6 5q2 -4 6 -8q12 4 14 4q9 -3 33 2q4 2 13 5t16.5 6.5t13.5 7.5q27 18 39 18q0 22 4 62q3 73 12 147q3 18 3 39v31q-5 5 -11 6.5t-15 2.5t-11 1q-16 -16 -19 -20q-1 3 -2 9.5t-2 10.5q-13 -4 -31 -8q-6 -19 -12 -21v27q-13 3 -45 -6l-6 -6l-6 -13 q-2 -2 -6 -2q-4 12 -4 19l-9 2q-19 -8 -43 -8q-10 0 -18 -15l-6 -30l-6 -136q-3 -49 -9 -102v-8q0 -12 13 -12l28 -7q6 -6 9 -2q1 2 4 1.5t4 -1.5t4 -3t4 -3q2 -2 8 -2z" />
<glyph unicode="&#x22;" horiz-adv-x="731" d="M135 928q1 1 5.5 8t9.5 8l6 -14q2 2 6 5t6 5q2 -4 6 -8q12 4 14 4q9 -3 33 2q1 0 18 6t25 12q28 19 39 19q0 21 4 61q1 13 2.5 89.5t4 144.5t5.5 90q3 18 3 39v31q-5 5 -11 6.5t-15 2.5t-11 1q-13 -13 -19 -21q-1 3 -2 10t-2 11q-13 -4 -31 -8q-6 -19 -12 -21v27 q-13 3 -45 -6q-1 0 -2 -1.5l-2 -3t-2 -2.5l-6 -12q-2 -2 -6 -2q-4 12 -4 19l-9 2q-21 -9 -43 -9q-11 0 -18 -14q-2 -6 -4 -18t-2 -13q-1 -23 -3 -155.5t-3 -155.5q-3 -49 -9 -102v-9q0 -12 13 -12q4 0 28 -6q6 -6 9 -2q1 2 4 1.5t4 -1.5t4 -3t4 -3q2 -2 8 -2zM483 922 q1 1 5.5 8t9.5 8l6 -14q2 2 6 5t6 5q2 -4 6 -8q12 4 15 4q8 -3 32 2q1 0 18 6t25 12q28 19 39 19q0 21 4 61q0 11 2.5 89.5t5 145.5t5.5 89q2 12 2 39v30q-7 6 -37 11q-13 -13 -19 -21q-1 3 -2 10t-2 11q-22 -8 -30 -9q-6 -17 -13 -20v27q-11 3 -45 -7l-6 -6l-6 -12 q-2 -2 -6 -2q-4 12 -4 18l-8 2q-19 -8 -43 -8q-12 0 -19 -14q-2 -6 -4 -18t-2 -13q-1 -22 -3 -155.5t-3 -155.5q-4 -70 -8 -103v-8q0 -12 12 -12q5 0 29 -6q5 -5 8 -2q1 2 4 1.5t4 -1.5t4 -3t4 -3q2 -2 8 -2z" />
<glyph unicode="#" horiz-adv-x="1392" d="M1061 956q2 8 2 19l31 92q10 28 16 53q2 8 -2 25q0 1 -2 3.5t-4 2.5l-16 -1q-16 0 -23 -5q-2 -2 -6 -2q-4 4 -13 4q-5 0 -16 1t-16 1q-4 -1 -11.5 -0.5t-13.5 -0.5t-10 -5q-1 -1 -6 1q-4 1 -6 1q-13 3 -19 -8q-2 0 -4 -2q-2 4 -8 10q-13 -4 -43 -8q-16 -3 -23 -17 q-1 -3 -4.5 -12t-5.5 -14q-8 -22 -23.5 -62t-21.5 -57q-3 -9 -6 -12q-28 -7 -45 -2l-60 6h-61q-6 0 -10 2q1 12 9.5 68t6.5 87q-20 7 -37 4q-19 -4 -28 -2q-6 0 -18 -1t-22 -1t-18 2q-2 0 -6 -1t-6 -1q-9 -4 -14 -2q-13 4 -25 -8q-36 6 -72 -10q-4 -16 -15 -63.5t-19 -73.5 q-9 -1 -27.5 -2t-26.5 -2q-90 -10 -102 -11q-34 -5 -39 -4q-22 0 -39 -24l-6 -13v-4q2 -2 7 -5t7 -5q-2 -6 -10.5 -7.5t-9.5 -2.5q-5 -6 -12.5 -21.5t-12.5 -21.5q-10 -10 -2 -21q-2 -2 -5.5 -4.5t-4.5 -3.5q-1 -10 11 -16.5t14 -10.5q-2 0 -6 -1t-5 -1q-6 2 -16 2 q-13 0 -10 -12q0 -1 1.5 -4t1.5 -5t-3 -3q-4 -3 -2.5 -8t0.5 -6q0 -7 4 -15l6 -14q24 -19 63 -12l21 2q20 2 60 5t61 5q2 0 5.5 -1t6.5 -1q-8 -34 -21 -76q-19 -4 -61 -8q-7 -1 -29.5 -6.5t-35.5 -7.5q-1 0 -15 -7q-3 -4 -10 -12t-11 -14.5t-5 -14.5q2 -2 10 -6q-4 -4 -6 -4 q-15 -7 -15 -16q0 -3 -1.5 -5.5t-3.5 -5.5t-3 -4q-1 -2 -2 -7t-2 -7q-6 -4 -10 -16q0 -13 -6 -19q-11 -14 -7 -24v-15q-2 -8 -2 -26q3 -14 9 -25q2 -3 5 -4t7.5 -1t7.5 -1q12 -4 23 -4q63 0 94 4h16q0 -10 -2 -12q-10 -40 -20 -70q-6 -21 -6 -43q19 0 41 -18q1 -1 4 -2t4 -2 l26 -13q1 0 5 1t6 1q10 0 29.5 4.5t29.5 4.5h6q6 3 20 7.5t24.5 10t17.5 14.5q2 2 4 2q7 1 18 9.5t12 9.5q13 9 15 24l4 16t4 19q4 22 12 39l154 12q4 0 6 -2q-22 -85 -25 -120q4 -2 13 -11q0 -8 -2 -10q8 -4 20 -12q2 0 10 -4h4q1 1 3.5 3t3.5 3q4 -4 12 -8q24 12 29 14 q1 -2 4.5 -7t5.5 -7q32 0 82 20q33 11 51 29q1 1 5.5 2t6.5 2q16 3 19 18l6 25l9 36l9 36q16 4 23 4q12 1 39.5 4.5t48.5 5t41 0.5q22 0 41 16q14 14 20 17t13 8t11 9t11 11.5t10 10.5q8 8 10 12q7 20 23 33q-1 1 -1.5 3.5t-1 3.5t-1.5 1l20 37q0 3 -4.5 6.5t-3.5 7.5l6 3 q7 3 11 5q-12 12 -9 17q2 6 2 18q-10 10 -20 8q0 -3 -14 -1l-15 1q-16 2 -49 2q-34 0 -104 -4q-22 0 -35 8q2 35 18 66l25 6q86 12 131 14q31 0 53 19q7 7 21 14q13 3 16 12q8 13 18 23q4 2 9 18q2 1 13.5 6.5t16.5 10.5q-1 4 -8 14q3 2 10.5 5.5t10.5 4.5v11q1 2 2 5.5 t2 4.5q-10 5 -13 8q15 9 27 18q4 2 3.5 5.5t-3.5 5.5q-9 5 -10 6q-2 9 -14 12q-40 8 -64 4h-12q-8 1 -17.5 1t-21.5 -0.5t-19 -0.5q-25 0 -75 4q-9 0 -33 4zM727 719v-6l-18 -60h-15q-5 -1 -17 -1t-18 -1q-53 -7 -106 4q0 15 14 52q12 6 27 6q65 9 133 6z" />
<glyph unicode="$" d="M1141 430q0 -140 -103 -255t-252 -165q0 -9 1 -26t1 -25q3 -21 3 -39v-164v-6q0 -24 -21 -24q-10 0 -27 -4t-22 -5q-21 -4 -29 -10q-8 4 -12 4q-7 -7 -11 -7.5t-14 5.5q-11 -6 -32 -10q-43 -7 -64 -18q-1 1 -6 10q-6 17 -18 12q-3 -3 -17 -0.5t-16 2.5q-1 0 -13 6 q-2 3 -8 21q-1 0 -6.5 -1.5t-7.5 -0.5q-13 2 -18 2t-17 -2.5t-16 -3.5q-11 -2 -17.5 4.5t-3.5 15.5q2 10 7.5 29.5t7.5 29.5q4 14 12 40.5t14 48t10 40.5l13 78q-6 2 -17.5 6.5t-17.5 6.5q-65 27 -88 38q-82 40 -152 107q-81 81 -123 180l-12 33q-8 19 -2 41q5 18 8 25 q0 9 6 12q22 17 39 47q8 10 27 29q2 2 6 2q1 0 11.5 3t15.5 9q3 7 22 16h8q9 9 11 13h32l62 -84q44 -61 84 -99q36 -34 84 -55q46 -26 88 -39q31 -9 63 0q69 21 111 78q31 46 49 84q16 25 4 51q-1 2 -12 29q-19 51 -72 88q-2 1 -5 4t-5 4q-34 27 -88 37q-26 4 -77 11t-75 11 q-53 6 -143 41q-8 4 -24.5 11.5t-24.5 11.5q-53 25 -98 76q-51 53 -66 129q-11 60 0 161q10 67 66 152q4 6 36 49q30 34 70 58q80 50 86 53q8 5 24.5 10.5t20.5 7.5q6 3 18.5 8.5t18.5 8.5q9 6 21 12q-1 13 -2.5 39t-2.5 39q-2 12 -2 39v163v7q2 12 6.5 17t16.5 5 q8 1 23.5 5t23.5 5q18 4 29 9q2 0 12 -5q8 8 11 8.5t14 -5.5q10 8 34 12q47 9 62 16q6 0 6 -8q6 -17 18 -12q7 1 18.5 -0.5t14.5 -1.5q7 0 12 -9q5 -4 9 -18q1 0 6.5 1.5t7.5 0.5q15 -2 17.5 -2.5t17 2t16.5 2.5q11 2 17.5 -3.5t5.5 -14.5q-15 -50 -17 -60 q-30 -107 -35 -129q-5 -17 -9.5 -48.5t-6.5 -39.5q4 -1 11.5 -4t11.5 -4q16 -3 20 -12q2 -2 8 -2q0 -4 11 -4q15 -18 36 -13q5 -11 14.5 -20t23 -18t20.5 -15q12 -3 33 -29l30 -32q42 -47 51 -115l2 -4q1 -5 5 -16.5t4 -16.5v-31q-3 0 -11 4q-3 -3 -7.5 -11.5t-8.5 -12.5 q-2 -1 -5 -6t-7 -8.5t-10 -2.5l-13 -14q-3 0 -10.5 1t-11.5 1q-5 0 -8 -6q-1 -1 -3 -5t-4 -7l-10 16q-2 3 -5 4t-5.5 -0.5t-3.5 -5.5q-5 -5 -8 -14q-2 0 -2 2q-9 9 -15 8q-6 -3 -6 -12q-2 -2 -2 -8q-2 2 -5 4.5t-5 4t-4 1.5q-10 4 -33 4q-1 0 -2.5 -1.5t-3.5 -2.5 q-12 18 -13 20q-3 -2 -7 -6t-7 -6q-5 1 -15 4.5t-18.5 5.5t-15.5 2q-16 11 -27 37q-24 55 -96 68q-8 2 -29 2q-84 0 -145 -58q-24 -18 -45 -39q-36 -31 -39 -75q-3 -18 14 -27l35 -16q40 -14 86 -17q66 -4 103 -8q75 -6 145 -24q7 -1 19 -4.5t16 -4.5q39 -10 82 -41 q82 -61 129 -118q77 -96 106 -205q11 -44 13 -74q0 -1 3 -35t3 -51z" />
<glyph unicode="%" horiz-adv-x="1861" d="M356 848q-42 0 -82 6q-35 8 -71 33q-48 34 -90 92q-36 54 -47 141q0 9 -5 39v51q1 8 4.5 25t4.5 25v12q11 39 26 104q11 37 33 56l41 36q27 30 68 43q40 15 81 27q20 5 64 14q8 4 12 4t11 4.5t12 4.5q66 0 84 -4l30 -13q3 -1 14.5 -6.5t18.5 -7.5q54 -21 125 -96 q36 -36 58 -103q22 -68 22 -137q5 -56 -29 -123q-27 -58 -65 -94q-34 -30 -72 -51q-8 -5 -25.5 -14.5t-25.5 -14.5q-47 -24 -113 -41q-40 -12 -84 -12zM1036 846q-24 -46 -43 -76q-8 -12 -22.5 -34t-22.5 -34q-9 -14 -26 -34q-15 -18 -21 -43l-6 -15q-11 -16 -41 -65 q0 -1 -3.5 -6t-4.5 -9q-4 -8 -8 -10q-15 -14 -33 -53q-6 -11 -18 -31t-15 -26q-29 -44 -41 -54q-5 -6 -12.5 -18.5t-9.5 -15.5q-23 -37 -31 -48l-23 -28q-12 -16 -12 -29q0 -6 -10 -16q-4 -2 -21 -19q-12 -19 -8 -28q0 -7 -2 -9q-9 -4 -15.5 -12t-13.5 -21.5t-10 -17.5 q-18 -27 -39 -51q-12 -12 -28 -12q-18 -2 -62 -15q-31 -9 -43 -14q-1 0 -2.5 1t-4 2.5t-5.5 2.5q-1 0 -6 -3.5t-8 -4.5q-10 5 -11 6v4q8 7 16 24t13 23q-10 -2 -27 -12t-22 -12l14 20q-2 0 -31 -12q-4 -2 -12 -2q-1 0 -3 1t-3 1q2 9 13.5 21t13.5 16q-1 2 -7 8h-4l-2 -2h2 q2 0 4 2q-7 -8 -12 -6q-11 2 -28 -6q-8 -4 -11 -4q-8 6 0 14q8 12 29 33q1 1 2 4t2.5 6t3.5 6q-8 2 -18 -8q-2 -1 -5.5 -3t-6.5 -3t-7 0q1 6 8.5 14t8.5 14l-17 -6q2 5 9.5 12.5t9.5 12.5q0 17 -2 20q-5 13 8 43q1 6 6 17.5t6 17.5q0 6 2 8q5 4 12 17t13 18q4 0 4 6 q2 8 24 47l50 82q16 22 18 25q4 7 21 31.5t24 38.5q2 4 7 13.5t7 16.5q3 14 19 27q18 18 24 37q5 15 23 22q0 1 -1 3t-1 3q17 17 20 37q0 2 11 19q8 12 10 18q7 18 26 45q8 8 11 17q0 8 12 24q29 52 31 58q7 17 18 28q8 8 17.5 27t11.5 22q5 7 12 21.5t10 19.5 q73 125 76 131q23 41 103 162q86 132 135 195q14 17 30 28q4 2 11 9q12 19 45 26q0 -2 1 -5.5t1 -4.5q12 2 14.5 0t7.5 -12q29 0 39 -8q23 -14 29 -15q2 0 3.5 -1.5t2.5 -3.5t2 -3v-10q2 1 5 2t5 2q1 -1 3.5 -5t4 -3.5t7.5 0.5q2 -4 10 -6.5t10 -6.5q4 -4 8 -4q6 1 25 -8 q2 -6 -4 -45q-5 -16 -39 -102q-18 -45 -64 -131q-13 -31 -20 -39q-4 -4 -4 -9q-2 -18 -23 -47l-14 -28q-9 -27 -31 -49q-2 -1 -5 -6t-5 -7q-19 -39 -37 -69q-10 -17 -20 -41l-6 -19q-3 -8 -11 -16zM365 1274q-17 3 -27 -6.5t-8 -24.5q0 -20 8 -33q11 -3 37.5 -6t40.5 -10 q12 15 24 27q8 11 2 26q-8 13 -26.5 22.5t-32.5 6.5q-12 -4 -18 -2zM1776 614q21 -53 24 -110q0 -101 -24 -174q-16 -46 -54 -94q-29 -43 -59 -76q-6 -8 -23 -25q-40 -40 -81 -61l-52 -21q-4 -2 -12 -2q-18 0 -35 -10q-14 -6 -43 -10l-57 -15q-6 -1 -16.5 -3t-19.5 -3t-17 0 l-41 6q-34 8 -76 21q-79 30 -117 72l-49 49q-5 7 -15.5 21.5t-15.5 21.5q-11 19 -14 35q-7 30 -14 45q-18 41 -15 84l6 75q2 10 11 39q20 53 39 78q2 2 6 10q15 37 47 66q44 49 53 63q4 8 33 41q4 4 9 10t11 13.5t9 11.5q12 16 24 23q5 4 16.5 13.5t17.5 14t16.5 11 t19.5 10.5q72 34 135 39q29 4 90 -9q94 -24 168 -86q67 -58 115 -174zM580 682l-2 2l-5 -2h7zM573 668q4 8 0 12v-12q-1 0 -3.5 -1t-4 -2t-2.5 -4t0 -8zM545 625q0 2 2 4h-4v-4h2zM1452 463q12 35 -2 63q-22 51 -90 33l-4 -4q-3 -3 -27.5 -24t-36.5 -33q-10 -10 -10 -21 q0 -5 -1 -15.5t-1 -15.5q0 -12 2 -16l25 -51q12 -22 34 -31q4 -2 14.5 -5t14.5 -5q21 8 39 33q37 71 43 92zM414 422q0 -4 2 -6q0 6 -2 8v-2zM395 393l-2 -2l2 -2v4zM379 369h4l-2 2z" />
<glyph unicode="&#x26;" horiz-adv-x="1482" d="M94 281q12 0 19 -15q4 -8 4 -10q4 -18 24 -45q44 -57 86 -94q53 -45 88 -62q21 -12 62 -26q93 -32 170 -29q5 1 15.5 2t15.5 2q104 10 174 51q11 5 12 8q1 4 4 7l5 5t7 5t6 4l111 86q25 19 68 57l4 4q0 7 14 21q24 -18 45 -39q53 -53 100 -92q34 -28 35 -29q3 -3 23 -18 q6 10 9 11.5t15 -1.5q8 -4 13 -2h12q4 -2 12 -2l4 6q7 20 25 20q14 0 22 15q8 11 25 14q4 0 8 2q3 0 5 3.5t1 6.5q-9 14 2 37q1 1 4.5 7t6.5 8q4 0 4 6q1 2 3 8t3 11t0 9q-3 9 8 13q4 0 4 2q2 4 15.5 24.5t15.5 24.5q6 13 -2 18q-2 3 -7.5 8.5t-7.5 8.5q-19 15 -35 28 t-22 17.5t-14 11t-9.5 7.5t-10 9t-13.5 13.5t-22.5 22.5t-34.5 34q5 9 43 47q1 1 25.5 26t31 32.5t24 29t28.5 41t22 43.5q3 8 9 28t11 30q4 6 0 18h-4q-5 -5 -8 -2q-2 0 -2 6q-2 4 -2 12l-8 7q2 4 2 12q-4 0 -8 4q-13 -8 -15 -12q0 5 1 10t1 6q-6 6 -14 10v25q-6 0 -10 4 q-15 -15 -21 -23l-20 5v24q-1 1 -5 2t-6 2q6 6 9 12l6 7q4 8 4 12l-23 -21q-6 0 -10 2q-34 -40 -72 -81q-4 -4 -15.5 -18t-15.5 -18.5t-14.5 -16.5t-16 -17.5t-16.5 -16t-19.5 -17.5t-20.5 -16t-25 -18q-12 -8 -16 -8q-5 0 -11.5 -4t-7.5 -4q-17 9 -49 37l-67 55 q-48 44 -78 70q-4 4 -6 8q4 2 10 8q51 31 90 70q42 42 68 90q45 85 57 180q6 43 -2 84q-9 45 -27 86q-23 64 -86 111q-20 15 -74 49q-26 18 -67 29q-6 2 -17 2q-12 3 -22 -7q-13 -10 -27 -10h-49q-82 3 -168 -41q-11 -6 -32.5 -20.5t-28.5 -18.5q-50 -33 -86 -88 q-48 -70 -53 -143q0 -1 -1.5 -4.5t-1.5 -5.5q-17 -80 3 -170q9 -46 47 -144l6 -12q-7 -5 -18.5 -14.5t-12.5 -10.5q-60 -43 -135 -118q-6 -6 -6 -9q-1 -4 -4 -8t-5 -6l-5.5 -5.5l-4.5 -4.5q-2 -3 -13.5 -15.5t-16.5 -19.5q-33 -39 -58 -90q-13 -22 -24.5 -80.5t-8.5 -73.5 l5 -20q0 7 1 21.5t1 21.5v2h2q2 -12 4 -35t4 -35q9 -58 14 -73zM672 1038l-8 29q-9 27 -13 41q-2 6 -2 16q-2 10 -2 29q0 15 2 21q2 14 19 24q31 20 57 31q7 3 16 -6q19 -27 11 -52q-10 -45 -29 -79q-19 -32 -51 -54zM557 608q4 -3 8.5 -7.5t9 -10t7.5 -8.5q6 -5 15 -15 t11 -12q4 -4 9 -8.5t10 -10t8 -8.5l29 -24q4 -4 13 -12.5t13 -12.5q25 -20 29 -24l16 8q55 -43 66 -53q0 -4 -2 -4q-9 -7 -32 -29.5t-36 -32.5q-16 -12 -47 -27q-34 -13 -76 -26q-42 -11 -94 2q-38 13 -53 22q-48 29 -68 62q-11 15 -8 29q4 24 4 38q0 15 12 27q5 5 32 34.5 t44 43.5z" />
<glyph unicode="'" horiz-adv-x="382" d="M135 922q1 1 5.5 8t9.5 8l6 -14q2 2 6 5t6 5q2 -4 6 -8q12 4 14 4q9 -3 33 2q1 0 18 6t25 12q28 19 39 19q0 21 4 61q1 13 2.5 89.5t4 144.5t5.5 90q3 18 3 39v30q-7 6 -37 11q-13 -13 -19 -21q-1 3 -2 10t-2 11q-21 -7 -31 -9q-6 -18 -12 -20v27q-11 3 -45 -7l-6 -6 l-6 -12q-2 -2 -6 -2q-4 12 -4 18l-9 2q-19 -8 -43 -8q-11 0 -18 -14q-2 -6 -4 -18t-2 -13q-1 -22 -3 -155t-3 -156q-3 -52 -9 -103v-8q0 -12 13 -12q4 0 28 -6q6 -6 9 -2q1 2 4 1.5t4 -1.5t4 -3t4 -3q2 -2 8 -2z" />
<glyph unicode="*" horiz-adv-x="641" d="M578 1284q-16 -16 -37 -31q-71 -52 -146 -98q11 -7 27 -16.5t27 -16.5t16 -10q12 -7 36 -22.5t36 -22.5q2 -1 6.5 -4.5t7.5 -5.5q0 -1 1 -5q3 -8 -1 -8q-2 0 0 -2q3 -3 -2 -8q-5 0 -2 -6t-4 -6q-2 0 0 -2q3 -3 0.5 -6t-2.5 -4l-6 -4q-1 -1 -4.5 -5t-6.5 -4l-4 -6 q0 -8 -8 -8q-13 4 -43 21q-59 33 -98 57q-2 -35 -2 -82q0 -10 -1 -32t-1 -32l-5 -2h-2q-12 -4 -16 -4q-15 -6 -33 -6h-2q-1 0 -3 -1t-3 -1h-18q-11 0 -15 -2q0 25 2 37q0 47 4 133l-57 -43q-4 -2 -28.5 -20.5t-38.5 -26.5l-17 -10q-10 2 -10 4t-2 2q-8 -3 -8 4q0 4 -4 4 q-7 0 -5 6h-2q-2 0 -8 6q-2 2 -2 9q-5 10 -4 12l-4 4q-6 6 -4 12q9 11 35 33l114 90q-18 14 -50.5 39.5t-39.5 30.5q-10 9 -31.5 26.5t-31.5 26.5q-9 6 -15 12q0 1 -0.5 4.5t0 5t3.5 0.5v3q-4 6 4 10q2 0 2 4q-2 3 -1 5t5 1v2q-2 5 4 10l6 4q2 1 4.5 4.5t5.5 4.5q2 0 3 2 q0 1 1 2q4 8 11 8q11 -5 41 -27q41 -29 122 -92l5 92q0 26 4 84q0 2 1 8t1 9q8 8 9 8q2 0 3 -2q5 7 10 2q2 0 4 2q6 6 8 0h3q3 4 10 4q2 0 6 -4q8 0 12 -4h8q8 0 11 -4q2 -14 2 -47q2 -33 -2 -138q17 10 42.5 27t30.5 20l70 43q3 2 8 5.5t8 5.5q1 -1 4.5 -1t5.5 -1t1 -4 q0 -3 2 -3q6 2 7 -2q0 -1 -1 -2q0 -4 6 -4q8 0 2 -6l2 -2q4 0 5 -1t1.5 -2.5t1.5 -2.5q2 -2 2 -8q5 -10 4 -13q0 -2 4 -6q6 -6 3 -10z" />
<glyph unicode="+" horiz-adv-x="1011" d="M868 840q-16 4 -22 -2q-4 -4 -21 -4q-76 -3 -151 -3q-24 0 -37 9q-2 6 -2 20q0 27 1 79t1 77q0 48 -12 80q-22 6 -23 6q-20 8 -29 -10q-9 10 -12.5 12t-13.5 0q-10 -3 -21 2q-4 2 -9 3t-11.5 1.5t-9.5 1.5q-2 0 -6 -2t-5 -2q-2 0 -5 3t-5 3t-10 -4q-2 -10 -2 -29 q-6 4 -9.5 16t-9.5 15h-16q-3 -4 -6 -4t-6.5 2t-5.5 2q-4 0 -4 -2q-2 -2 -6.5 -5.5t-7 -6t-5 -6.5t-2.5 -9q2 -7 -2 -26q0 -17 -1 -50t-1 -49q-2 -18 -2 -57v-45q1 -3 1 -6t-0.5 -6t-0.5 -4q-9 -17 -21 -17q-7 0 -21 -1.5t-25.5 -1t-22.5 4.5q-4 0 -6 -2q-23 -10 -45 -2h-9 q-37 -2 -112 -10q-5 0 -23 -6q-6 -12 -28 -21q0 -9 -1.5 -26t-1.5 -25q0 -11 9 -22l-11 -11l11 -18v-4l-11 -12q1 -3 2.5 -10.5t4.5 -12.5t8 -8q-8 -8 -8 -27q1 -2 1 -6.5t1 -7.5q0 -21 2 -31q5 -16 22 -14q22 1 64 6t63 6q21 0 129 10q11 0 15 -2q4 -9 4 -45 q0 -22 -1 -63.5t-1 -61.5q-1 -9 -2.5 -28t-2.5 -29q-3 -26 7 -55l18 -6q5 -7 16 -7q7 -17 19 -24q6 0 10 -4q3 -6 10.5 -3.5t10.5 -0.5q2 0 10 4l6 6h6l6 -16q17 4 37 -5q4 5 17 7t16 8q5 0 11 -1t7 -1q9 9 21 14q28 11 31 41q2 4 2 12q-2 25 -2 74v37q2 6 -0.5 20.5 t0.5 20.5q-2 8 0 25t0 26q-1 6 0 18.5t0 18.5q0 2 2 6.5t2 5.5q21 7 84 12q50 3 84 -6q1 1 4 6t4.5 6l4.5 3t7 2q6 0 6 2q2 4 4.5 5t6.5 1.5t6 1.5h16q18 -3 31 10q1 1 4 2t4 2q0 2 -0.5 4.5t-1 3.5t0.5 2.5t3 2.5q1 1 7.5 2.5t6.5 7.5q0 4 6 8t5 8l-7 4q-6 6 0 9q1 0 17 16 q4 6 16 14l-6 33q-1 4 1 9t6 10.5t5 7.5q-6 12 -9 14t-13 2q-4 2 -13 2v4q19 0 27 2q-2 3 -6.5 13.5t-9.5 15.5q-1 1 -5 12.5t-12 13.5h-24q-15 0 -25 5q1 1 3 1.5t3 1t2 1.5zM317 584l-2 -2q-1 0 -3 1t-3 1l2 2q1 0 3 -1t3 -1z" />
<glyph unicode="," horiz-adv-x="378" d="M279 291q-18 -21 -15 -47q0 -13 -2 -19q0 23 -2 33q0 2 0.5 7.5t0.5 9t-2 8.5t-5 8q-1 0 -4.5 -1t-5.5 -1h-13q-3 -3 -5 -13t-9 -12l-6 23q-6 1 -16 -0.5t-13 -1.5q-21 -3 -24 -25q0 -2 -4 -2q-6 2 -8.5 12t-4.5 13h-2q-24 -7 -39 -7q-18 0 -18 -16q-4 -16 -4 -24 q-1 -13 -1 -38.5t-1 -37.5q-13 -110 -15 -148q0 -1 1 -2t1 -2q2 1 5.5 3t5.5 3.5t4 3.5q5 -14 8 -15t18 3q8 -8 9 -10l12 12q25 -4 35 4l14 -8q2 -1 3.5 -5.5t4.5 -4.5l4 4q2 0 2 4q9 9 15 6q4 -2 8 -10q7 2 15.5 10.5l9.5 9.5q0 1 1.5 1t2.5 1q0 -1 1 -3.5t1 -4.5l28 4 q-4 -39 -18 -55q-15 -18 -21 -41q-7 -28 -38 -63q-4 -4 -9 -4q-24 -2 -47 -33v-4q3 0 9 -1t10 -1q-2 -4 -5.5 -12.5t-5.5 -12.5q3 2 11.5 5t11.5 5q1 -2 2 -6t2 -6q23 9 49 35q18 20 49 59q29 37 29 66q0 2 1 6t1 6q10 50 14 156q2 33 2 96q3 38 -6 76q-6 3 -18 3t-14 1z " />
<glyph unicode="-" horiz-adv-x="1187" d="M1120 631q3 -4 4 -8t1 -9t1 -8q-5 -5 -12.5 -8.5t-16 -6.5t-12.5 -5q-33 -10 -108 -21q-30 -6 -143 -16q-21 -5 -46 -2q-6 0 -8 -2q-19 -10 -53 -6q-5 0 -16 -1t-15 -1q-28 -6 -57 0q-3 1 -8 1t-8 1q-68 -5 -78 -4q-43 -5 -121 -3q-19 0 -31 -6q-5 -4 -18 0q-4 2 -25 9 q-27 -4 -31 -11q-2 -2 -8 -2q-6 4 -14.5 6t-15 1.5t-17 -1t-16.5 -0.5l-66 7q-16 8 -24 16q-8 12 -43 47q-6 4 -18.5 14.5t-18.5 14.5v12q-4 3 -17 8q0 8 2 12l3 3q3 -4 26.5 -1t28.5 3q-7 7 -24.5 15t-22.5 11h24q-3 4 -7 7.5t-10 7t-9 6.5q-1 0 -4 3.5t-5 4.5v6 q9 2 25.5 -1t20.5 -3q2 6 2 10v4h-2v-2v-2q-9 0 -9 8q-6 14 -20 21q-2 1 -4.5 3.5t-3.5 2.5q0 8 9 8h3q5 0 41 -6q2 -1 9.5 0.5t10.5 1.5q-2 5 -18 10q-1 1 -7 4.5t-7 6.5q6 3 17 2t17 2q-2 0 -4 1t-3.5 2t-3.5 2.5t-3 2.5q5 1 15 -1t16 -1q11 5 14 12q4 6 9.5 9t9 4t13.5 2 t11 1q5 3 17 4.5t18 4.5q4 4 6 2q6 -2 22 -0.5t23 0.5l6 -2q12 4 54 4l215 18q33 1 192 -4q138 0 236 -10q40 -11 41 -12q10 -5 12 -5q23 0 47 -24q-1 0 -4 -3t-4 -3q9 -9 9.5 -12.5t-7.5 -12.5q15 -29 12 -39q1 -4 1.5 -14t2.5 -16q3 -6 -4 -13l-6 -6q2 -1 4 -3t4 -3l-2 -4 l-1.5 -3t0 -3t3.5 -4q-4 -4 -0.5 -14t2.5 -13q-4 -4 0 -8zM111 731h-2h2z" />
<glyph unicode="." horiz-adv-x="382" d="M135 6q2 2 6 9t9 8l6 -15q2 2 6 5t6 5q2 -4 6 -8q12 4 14 4q9 -3 33 2q4 2 13 5t16.5 6.5t13.5 7.5q27 18 39 18q0 22 4 62q3 73 12 147q3 18 3 39v31q-5 5 -11 6.5t-15 2.5t-11 1q-16 -16 -19 -20q-1 3 -2 9.5t-2 10.5q-13 -4 -31 -8q-6 -19 -12 -21v27q-13 3 -45 -6 l-6 -6l-6 -13q-2 -2 -6 -2q-4 12 -4 19l-9 2q-19 -8 -43 -8q-10 0 -18 -15l-6 -30l-6 -136q-3 -49 -9 -102v-8q0 -12 13 -12l28 -7q6 -6 9 -2q1 2 4 1.5t4 -1.5t4 -3t4 -3q2 -2 8 -2z" />
<glyph unicode="/" horiz-adv-x="1179" d="M1116 1454q2 -6 -4 -45q-4 -16 -39 -102q-21 -52 -63 -131q-12 -28 -21 -39q-4 -4 -4 -9q-2 -19 -22 -47q-3 -4 -15 -28q-10 -28 -30 -49q-2 -1 -6 -6.5t-5 -6.5q-19 -39 -37 -69q-10 -17 -20 -41l-6 -19q-3 -9 -10 -16q-24 -46 -43 -76l-23 -34.5t-23 -33.5 q-9 -14 -26 -34q-15 -18 -21 -43l-6 -15q-11 -16 -41 -65q0 -1 -3.5 -6t-4.5 -9q-4 -8 -8 -10q-15 -14 -33 -53q-6 -11 -18 -31t-15 -26q-29 -44 -41 -54q-5 -6 -12.5 -18.5t-9.5 -15.5q-23 -37 -31 -48l-22 -28q-13 -17 -13 -29q0 -6 -10 -16q-2 -1 -20 -19q-12 -20 -9 -28 q0 -7 -2 -9q-9 -5 -15.5 -12.5t-13.5 -21t-10 -17.5q-21 -32 -38 -51q-12 -12 -29 -12q-18 -2 -62 -15q-31 -9 -43 -14q-1 0 -2.5 1t-4 2.5t-5.5 2.5q-1 0 -5.5 -3.5t-8.5 -4.5q-8 4 -10 6v4q8 7 15.5 24t12.5 23q-10 -2 -27 -12t-22 -12l14 20l-30 -12q-4 -2 -13 -2 q-1 0 -3 1t-3 1q2 9 13.5 21t13.5 16q-2 4 -6 8h-4l-2 -2h2q2 0 4 2q-8 -8 -13 -6q-11 2 -28 -6q-8 -4 -10 -4q-8 6 0 14q10 15 28 33q1 1 2 4t2.5 6t3.5 6q-8 2 -18 -8q-2 -1 -5 -3t-6 -3t-7 0q1 6 8 14t8 14l-16 -6q2 5 9 12.5t9 12.5q0 17 -2 20q-5 13 8 43q1 6 6 17.5 t6 17.5q0 6 2 8q5 4 12 17t13 18q4 0 4 6q2 8 6 16t10.5 17.5t8.5 13.5l49 82q17 22 18 25q4 7 21 31.5t24 38.5q2 4 7.5 13.5t7.5 16.5q3 15 18 27q19 19 25 37q5 15 22 22q0 1 -1 3t-1 3q18 18 21 37q0 4 10 19q8 12 10 18q6 15 27 45q6 7 10 17q0 8 12 24q29 52 31 58 q7 17 18 28q8 8 17.5 27t11.5 22q5 7 13 22.5t10 18.5q50 86 75 131q23 41 103 162q86 132 135 195q13 16 31 28q2 1 10 9q12 19 45 26q0 -2 1 -5.5t1 -4.5q12 2 15.5 0t7.5 -12q28 0 38 -8q23 -14 29 -15q2 0 3.5 -1.5t2.5 -3.5t2 -3v-10q2 1 5.5 2t5.5 2q1 -1 3 -4 q4 -7 11 -4q2 -4 10 -6.5t10 -6.5q4 -4 9 -4q6 1 24 -8z" />
<glyph unicode="0" horiz-adv-x="1310" d="M1253 807q0 114 -34 235q-26 89 -50 142q-47 92 -100 159q-70 77 -135 119q-45 31 -105 54q-53 20 -116 14q-93 -9 -181 -51q-19 -12 -53 -27q-48 -18 -94 -47q-76 -53 -111 -96q-6 -9 -16 -19q-63 -69 -102 -149q-34 -80 -47 -146q-18 -71 -33 -141q-28 -143 -2 -276 q3 -22 10 -46q18 -83 59 -157q46 -93 158 -223q34 -40 78 -64q14 -7 39.5 -21t36.5 -20q2 -2 6.5 -7.5t9 -8.5t10.5 -2q22 -17 62 -17q8 0 16 -4q30 -6 59 -6q42 -4 62 2q3 1 8.5 2t7.5 2h15q18 -1 24 -1t23 2t24 3q34 3 66 19q1 1 4.5 2t5.5 2q22 3 45 16q5 3 18 11 t19.5 12.5t16 12t16.5 15.5q13 7 35 37q19 24 24 27q15 12 39 41q16 16 19 20q13 25 14 27q5 3 10.5 14t7.5 13q8 12 8 18q5 10 9 14q22 36 24 56q0 4 4 8q4 7 13 29t16 32q12 20 12 35q6 24 6 27q0 5 5 11t6 11q2 2 2 10q29 134 26 275zM414 760q0 3 4 51t8 74 q20 109 88 205q7 10 21 20q87 49 104 57q3 1 19 6.5t24 6.5q44 8 88 -21q54 -40 82 -80q34 -57 39 -84q20 -79 22 -92q10 -79 5 -137l-7 -88q-4 -37 -14 -60q-15 -36 -27 -65q-29 -72 -84 -133q-31 -34 -55 -53q-14 -10 -22 -5q-34 14 -60 11q-28 -2 -67 18q-60 31 -86 82 q-3 6 -12 19.5l-13 19.5q-26 51 -37 84q-18 61 -20 109v55z" />
<glyph unicode="1" horiz-adv-x="819" d="M514 1386q-9 0 -10 -2q-10 -10 -15 -10q-3 3 -0.5 9.5t0.5 9.5q-2 4 1 11t2 11v-2q-1 1 -4.5 1t-5 1t-1.5 4q-6 -3 -14 2h-6q-11 2 -31 -8q-16 -12 -24 -16q-88 -46 -170 -125q-108 -108 -205 -182q-1 -2 -8 -9q-2 -2 -11 -5t-10 -9q0 -4 -1 -12.5t-1 -12.5q0 -6 2 -6 q6 -4 2 -12q-1 -1 -2 -4.5t-2 -5.5q6 0 14 -4l-6 -23q8 2 19 2q-6 -6 -9 -12l19 -6q-5 -7 -8 -17l12 -10q0 -3 -1 -9t-1 -9q0 -8 2 -8q4 -2 9.5 -10.5t12.5 -8.5q5 0 5 -8v-10q2 -1 10 -9q0 -6 -4 -14l10 -16q10 0 14 -2q-3 -10 8 -13l13 -8q17 2 51 19q64 41 111 80 q8 6 20 18q36 40 53 57q9 13 19 13v-13q0 -17 1 -49t1 -49q0 -34 -1 -101.5t-1 -101.5v-108q0 -58 -4 -172q0 -41 -4 -123q-1 -19 -2.5 -56t-2.5 -55q-4 -54 -4 -80q0 -17 4 -45q0 -15 15 -18q3 -1 5.5 -3t3.5 -4t2 -4.5t1 -3.5q10 0 16 -2t18.5 -7t18.5 -7q17 -10 31 4 q11 -6 33.5 -6t30.5 -2l8 2q16 4 20 4q3 1 10 4.5t11 3.5q36 4 49 19q18 6 22 37q2 16 2 49q1 13 2.5 40.5t2.5 41.5l6 92q0 1 6 61q1 25 4.5 102t3.5 119q2 0 1 111l-1 111q0 13 -1 41t-1 43q-1 12 -2 37t-2 38l-6 86q-2 41 -7.5 120.5t-7.5 117.5q-3 42 -14 76l-6 14 q-42 0 -53 -4h-7q-4 4 -7.5 5t-8.5 0t-6 -1q-11 0 -16 8q-5 0 -5 2l-14 -6l-12 4z" />
<glyph unicode="2" horiz-adv-x="983" d="M856 305q0 -4 4 -12q6 -11 -2 -19q-3 -3 -5 -9.5t-5 -8.5l6 -4l2 -2q-1 -5 -4 -12t-4 -9q6 -1 4 -9t-2 -9q0 -13 -8 -21q6 -3 6 -6l2 -4q-2 -4 -5.5 -13.5t-8.5 -14.5q0 -3 -6 -15t-3 -20q1 -2 0.5 -5.5t-2.5 -5.5q-8 -9 -16 -38l-43 -27q-20 -8 -29 -6q-12 -6 -14 -6 q-29 -6 -86 -6q-22 0 -68 4q-39 6 -116 10q-47 3 -93 0q-79 -7 -129 -19q-7 -2 -19.5 -5t-22 -6t-17.5 -7q-12 0 -16 2q-3 0 -9.5 1t-9.5 1q-12 3 -12 12q1 4 -1 6t-5.5 3.5t-5.5 3.5q4 6 12 14l-16 10q4 6 6 11.5t2 13t-0.5 11t-3 13t-2.5 11.5h-9q-2 2 -2 4q-1 3 -3.5 12 t-2.5 12.5t2 12.5v10q-8 14 -4 43q6 65 6 67q1 8 4 25t4 25q1 3 3.5 12.5t2.5 13t-1 12.5q4 10 5.5 29t4.5 27q6 25 16 51q12 40 33 94q15 34 31 58q2 3 49 71l20 25q5 5 26.5 27.5t33.5 33.5l65 58q59 49 103 102q36 53 43 92q5 41 -27 78q-6 9 -16 12q-41 10 -68 -6 q-34 -20 -74 -55q-42 -42 -80 -103q-8 -16 -24 -32q-19 -27 -43 -29q-4 4 -6 8q-12 10 -25 31l-12 18q-14 9 -16 15q-2 3 -6 10t-5 10q-1 1 -2.5 4t-3.5 4q-8 4 -8 9q1 5 -3 12.5t-3 11.5q0 4 -2.5 5t-5.5 1t-5 2q-5 27 -12 35q-1 1 -6 10q-13 33 2 60q30 57 62 104 q27 37 71 74q72 53 121 82q94 50 203 31q74 -14 121 -43q72 -47 108 -101l12 -14q60 -79 76 -193q6 -65 -6 -127q-14 -80 -43 -135q-30 -61 -88 -129q-35 -38 -137 -123q-46 -34 -82 -73q-20 -23 -43 -66q-21 -39 -31 -72q-2 -4 -2 -14q4 -3 8 -4t9 -1t8 -1q19 -2 56 -5 t56 -5q20 0 35 -9q8 -4 14 -4q95 -8 140 6q7 2 21 2.5t20 2.5q4 1 17 4.5t20 3.5q10 0 8 -8q2 0 6 -1t6 -1v-17zM791 313l2 2h-2l-3 -2h3zM754 307h16q-12 4 -16 0q-15 5 -37 -6q4 1 12 0.5t14.5 0.5t10.5 5zM649 303v2h-2z" />
<glyph unicode="3" horiz-adv-x="1044" d="M152 614q3 -13 8 -20q3 -10 12 -10q33 0 47 2q1 0 25 6q2 5 5.5 8t11.5 5t9 3q15 6 32 12t38 12.5t33 10.5q52 18 106 12q56 -3 82 -45q8 -16 14 -24q21 -32 17 -74.5t-25 -71.5q-19 -25 -51 -53q-11 -7 -22 -25q-18 -34 -58 -34q-52 0 -106 26q-49 22 -105 72 q-24 24 -61 53q-6 5 -33 21h-6l-6 -8q1 -2 3 -11.5t3 -13.5q-4 -3 -12 -2.5t-9 -3.5q0 -6 2 -8q-10 0 -16 2q2 -5 5 -16t5 -17h-4q-16 3 -16 -10q4 -12 4 -17q0 -4 -2 -4q-3 -1 -8.5 4t-10.5 4v-14q1 -3 4.5 -8t4.5 -8q-2 -2 -2 -4q-2 -1 -6.5 -2.5t-6.5 -2.5l-12 11v-35 q-6 -4 -15.5 -12t-11.5 -9q0 -10 2 -14h-10q0 -2 1 -7t1 -7q-10 -10 -11.5 -16t3.5 -21q14 -31 45 -70q75 -90 201 -143l18 -6q46 -12 90 -21q59 -14 125 -8q123 11 240 94l55 45q36 32 88 99q23 30 35 59q30 72 47 168q13 88 -18 197q-10 42 -51 118q-36 67 -70 101 q-4 4 -8 12q4 8 6 10q26 62 33 101q11 57 8 124q-4 40 -8 56q-14 72 -68 139q-73 90 -184 131q-89 30 -178 12q-33 -6 -95 -26q-59 -15 -106 -53q-3 -3 -21 -15q-13 -10 -40.5 -29.5t-41.5 -29.5q-17 -14 -30 -37q-6 -11 0 -25q1 -3 8 -17.5t6 -23.5q0 -2 4 -6q4 -2 15 -18 l6 -12q1 -3 1 -9t1 -8q4 -3 9 -15t13 -14q0 -6 7.5 -10.5t9.5 -7.5q1 -1 2.5 -7t3.5 -9q1 -2 5.5 -5.5t4.5 -5.5q2 -7 11.5 -12t11.5 -8q5 -5 9.5 -5.5t12 0.5t10.5 1q19 4 33 12q5 3 16.5 8.5t16.5 8.5q6 2 18 10q56 35 92 41q42 6 43 6q34 3 37 -31q3 -32 -6 -63 q-8 -24 -35 -62q-1 0 -4.5 -1t-5.5 -1q-14 -3 -40 -8t-40 -8q-31 -6 -63 -19q-93 -28 -162 -86q-22 -22 -25 -34q6 -12 9 -15q-1 -2 -4.5 -5t-4.5 -5l11 -10l-7 -8q2 -5 6 -10.5t5 -6.5q-5 -3 -1.5 -10t3.5 -8t-3.5 -6t1.5 -7q4 2 10 2q2 0 2 -2l-14 -24v-6q2 -1 5.5 -1.5 t6.5 -1.5t6 -3l-14 -15q1 -1 4.5 -2t5 -2.5t0.5 -5.5q5 -5 14 -8q-7 -6 -8.5 -18t-3.5 -15q4 -2 12.5 0.5t12.5 -0.5q-1 -2 -9 -9t-8 -14q5 0 13 -4z" />
<glyph unicode="4" horiz-adv-x="1064" d="M977 1421q13 -49 16 -116q0 -70 -14 -166q-4 -28 -13.5 -85.5t-13.5 -86.5q-4 -21 -7 -45t-6 -52.5t-5 -44.5l-12 -90q-2 -15 -6.5 -42t-6.5 -42l-20 -143q-15 -110 -17 -127q-6 -43 -14 -129l-6 -88q0 -17 -2 -25l-1 -15q-1 -15 1 -15q4 -15 -2 -27q-2 -3 -3 -6t-1.5 -7 t-1.5 -6q-6 0 -10 -3t-6.5 -8t-4.5 -7q-3 -2 -5 -5.5t-4 -9t-3 -7.5h-27q-7 -4 -10 -9q-4 1 -11 4.5l-9 4.5q-15 -2 -39 -9q-2 -2 -2 -6q-16 4 -21 -2h-4q-3 5 -13.5 2.5t-13.5 -0.5q-6 2 -16 2q-12 -4 -33 0q-5 2 -15 4t-11 2q-1 -2 -4 -5t-4.5 -5.5t-2.5 -5.5q-13 3 -20 8 q-21 13 -23 23q-1 1 -2 3q-1 3 -2 3q-6 5 -9 12t-4 11t-2 15t-1 13q0 16 3 46.5t3 35.5q0 39 8 109q2 33 10 96t9 76q8 65 10 90q-4 2 -14 2q-52 -5 -133 -19q-78 -12 -117 -16q-13 -1 -39.5 -5t-40.5 -5q-103 -12 -205 6q-14 2 -37 10q0 29 -8 37l16 8q0 4 -2.5 5.5t-6 2 t-5.5 2.5l2 4q8 4 4 17q5 0 13 4v4q-7 3 -10.5 13.5t-6.5 13.5q2 3 8.5 4t8.5 4q1 3 -2.5 6t-4.5 4q-8 8 2 14q9 0 13 2l-11 11q3 12 5.5 14.5t13.5 7.5q-1 2 -3 4.5t-3.5 5t-1.5 3.5q1 4 -3 7.5t-3 6.5l12 6q-1 2 -2 7t-2 7l12 6q0 5 -2 5q-4 3 -4.5 6.5t1 7.5t1.5 6 q0 8 10 8q5 2 16.5 5t16.5 5l33 64q17 30 50 89.5t50 90.5q38 75 105 178l86 146q4 6 12 19.5t12 19.5l14 18q5 8 19 8q5 0 35 6q10 0 14 -2q4 -4 6 -2q5 2 18.5 0.5t16.5 3.5h8q9 -3 25 -3t20 -1q2 0 11 -1t14 0t10 5q35 0 51 -8q8 -3 8 -10q3 -18 3 -37q-11 -67 -37 -139 q-5 -8 -9 -23q-18 -45 -26 -61l-43 -94q-2 -4 -6 -12.5t-6 -12.5q-21 -52 -64 -129q-9 -15 -22 -49q13 -1 69 4t84 10q8 11 8 29q2 27 27 149q36 155 53 259l12 81l7 31q0 2 4 6q16 0 30 6q1 -1 11 -16q2 8 8 23l12 -17l10 10q3 -9 9 -18q5 8 8 16q3 1 9 2.5t9 2.5 q2 -2 5.5 -8.5t4.5 -8.5l11 21q2 -4 6 -11.5t6 -11.5q3 2 5 10.5t9 10.5q2 -1 8.5 -2.5t8.5 -2.5q15 -9 28 11l13 -13q6 6 8 7q1 0 4.5 -2.5t5.5 -3t6 3.5q5 -1 14.5 -4.5t14.5 -4.5zM850 283q1 0 2 1t2 1l-4 4q0 -1 -1 -2t-1 -2zM850 231v15q-6 -14 -6 -49q6 18 6 34z M840 150l2 2q0 2 -2 4v-2v-4z" />
<glyph unicode="5" horiz-adv-x="1126" d="M109 575q11 -3 36 5q4 1 86 41q13 7 36.5 19t42.5 22t36 18q42 19 76 35q44 23 108 33q11 4 21 0q17 -1 72 -25q26 -11 39 -45q25 -66 20 -117q-3 -79 -45 -129q-3 -4 -19 -20q-35 -39 -77 -60q-9 -6 -29 -11.5t-23 -6.5q-30 -9 -59 -6h-33q-2 0 -6 1t-6 1q-61 24 -88 61 q-11 15 -27 15q-12 2 -24 14l-10 10h-5q0 -8 -2 -12q-2 2 -5.5 4.5t-4.5 3.5l-6 -6q0 3 -1 7.5t-1 6.5q-7 -5 -12 1.5t-6 6.5q0 -1 -4 -6.5t-5 -9.5q-2 -2 -3.5 -8t-4.5 -8q-10 10 -24 0q-6 -6 -9 -4q-8 6 -14 0q-5 -5 -10 -3q-6 3 -15 3q-2 -2 -4.5 -7.5t-6 -9t-9.5 -2.5 q0 -6 -2 -8q-1 0 -4.5 -1t-5.5 -1q0 -2 1 -4.5t1 -3.5q-9 -9 -2 -13q6 -10 6 -32q-7 11 -10 22q-1 2 -5 11t-6 12q-3 3 -18 8l-10 6l-6 -6q-3 -2 -11.5 -5t-11.5 -5v-17q2 -9 7.5 -31.5t8.5 -33.5q5 -15 15 -35l8 -8q19 -11 29 -35q18 -32 51 -70q3 -3 7 -6t9 -6.5t8 -5.5 q1 -1 11 -6q11 -13 51 -35q4 -3 20 -12.5t25 -14.5q33 -15 55 -22q19 -6 47 -9q20 -3 84 -16q27 -4 37 6q4 2 12 2q40 4 64 4h26q3 -2 3 -4q-2 -2 -12 -3.5t-15 -8.5q19 4 27 2q18 -6 36 6h7q11 0 41 10q15 3 30 9q63 21 103 55l69 55q9 8 28 26.5t28 26.5q36 32 47 60l2 2 q5 5 18 31q0 1 9.5 26t15.5 37q3 6 5.5 16t4.5 13q34 89 31 166q0 25 -4 65q-9 62 -13 82q-7 40 -37 107q-43 102 -102 161q-41 41 -59 52q-34 24 -82 41q-2 1 -21 7t-28 11q-32 12 -101 20q-64 3 -121 -8q-12 -3 -26 0q1 11 2 33t2 33q0 1 1 26t5 37q4 2 14 2q57 6 172 2 q19 0 56 -2t55 -2q149 -5 178 -8q7 -4 14 0q7 7 15 19q-1 4 2 15t-2 13q-3 5 2 15q4 2 10 8q-2 5 -0.5 8t6 5.5t6.5 4.5v4q-1 1 -3 2t-3 2q-2 0 -6 4q0 2 1 6.5t1 6.5q-11 0 -14 10q3 1 9.5 2t8.5 2q4 3 13 16q-2 3 -8 5.5t-7 5.5q8 4 15 4q-5 15 -5 18q0 11 -2 13 q-6 3 0 14q4 12 0 47q0 10 -6 16q-36 27 -55 27q-7 0 -21.5 1t-21.5 1l-86 6q-75 6 -78 6q-36 4 -149 9q-28 0 -140 -5q-19 0 -28 7q-5 2 -15.5 4t-11.5 2q-7 0 -8.5 0.5t-6 -3.5t-5.5 -5q-14 4 -21 8q-4 2 -11 -0.5t-11 -1.5q-5 0 -7 2q-2 -2 -3.5 -4t-3.5 -5.5t-3 -5.5 q-2 3 -5.5 7t-4.5 6q-3 -1 -8.5 -1t-9 -1t-5.5 -4q-4 -3 -12 -1t-10 -2l-8 1q-9 0 -9 -1q-28 -8 -45 -8q-18 0 -24 -12q-7 -17 -21 -41q9 -6 13 -10q-4 -8 -4 -10q0 -3 2 -5q10 -7 10 -20q-1 -3 -1 -10.5t-1.5 -13t-5.5 -9.5q-10 -10 -2 -18q6 -6 2 -13q0 -19 -6 -40 q-2 -16 -7.5 -48.5t-7.5 -48.5q-16 -106 -22 -159q-17 -101 -19 -146q0 -27 -14 -47q-4 -3 -10 -20q0 -19 4 -27t0 -25v-6q2 0 5.5 -1t4.5 -1q2 -4 2 -8q-7 -20 -4 -39q0 -4 -4 -16q0 -9 4 -13q5 -5 2 -12v-6q4 -1 4 -6.5t2 -7.5q4 0 16 -4q-5 -5 -8 -11q0 -1 -1 -3t-1 -3 q4 -3 1.5 -11t0.5 -11v-13q-2 -2 -2 -10q2 0 5.5 -1t4.5 -1q0 -4 1.5 -12t1.5 -11zM190 426v-2h-2v2h2zM53 346h2v-2zM434 14q-2 0 -4 2h2h4z" />
<glyph unicode="6" d="M481 1057l-2 4l19 31q20 37 63 71q59 43 123 78q21 12 86 43q44 20 104 51q11 3 21 13q11 4 8 14l-24 18q4 12 4 15q3 15 -15 22q3 3 9 15q-9 18 -19 22q-4 2 0 10q1 3 5.5 5t4.5 6q-4 3 -13 2.5t-13 3.5q1 4 9 7t9 7q-4 2 -13 1.5t-13 2.5q1 3 4 5.5t5.5 3.5t5.5 2.5 l5 2.5l-31 19q3 2 12 6t13.5 8.5t5.5 12.5q-2 1 -6.5 2t-7.5 1t-5.5 2.5t-3.5 6.5q1 2 5.5 5.5t5.5 4.5v27q-34 3 -56 -2q-5 -1 -32 -9t-43 -10q-49 -8 -72 -22q-4 -4 -6 -4q-27 -7 -47 -21q-8 -4 -25 -4q-15 0 -43 -4q-33 -2 -76 -23q-31 -10 -53 -24q-105 -64 -190 -166 q-3 -3 -9 -10t-11.5 -12t-10.5 -9q-4 -2 -8 -10q-15 -26 -27 -43q-48 -75 -80 -199q-21 -76 -39 -200q-9 -60 -12 -125q-7 -102 14 -248l11 -47q26 -79 49 -129q23 -49 61 -97q65 -76 162 -129q4 -3 51 -26q13 -6 96 -31q29 -10 58 0q36 13 82 10q38 0 127 13l16 6 q67 24 135 51q32 16 47 29q72 57 86 71q44 38 64 84l22 43q18 32 29 60q14 33 35 121q12 58 14 86q6 61 0 122q-10 97 -49 166q-12 25 -37 60q-61 94 -162 149q-60 34 -133 37q-84 6 -176 -10q-43 -10 -72 -23q-9 -6 -27 -12.5t-24 -9.5zM782 631q-2 -12 -4.5 -35t-5.5 -40 t-8 -32l-6 -26q-8 -35 -37 -72q-16 -20 -27 -31q-29 -33 -71 -47q-4 -2 -17 -2q-73 12 -129 62q-34 34 -37 38q-11 19 -16 33q-16 45 -23 103q-3 17 9 32q46 53 77 82q47 41 111 60q15 5 53 14q31 6 60 -10q51 -28 63 -84q4 -15 8 -45z" />
<glyph unicode="7" horiz-adv-x="983" d="M324 31l4 2q4 6 10 24q2 -10 2 -18l10 6q0 -4 -0.5 -10t-1 -10t0.5 -9.5t3 -9.5q4 1 6 3.5t4 7t3 6.5l10 10q2 -7 1 -13t1 -12t10 -8q3 3 7 12t5 11q7 22 15 32q2 2 18.5 26t28.5 34q20 17 20 43v35q1 11 2 33t2 32q3 24 10.5 71t10.5 70q1 5 2 15.5t2 15.5q13 79 27 176 q19 120 28 152q28 103 86 178q59 72 107 123l8.5 8.5l10.5 10.5l9 9q54 46 78 70q50 47 99 96q37 37 53 68q10 25 10 33q0 19 12 43q1 4 4.5 13.5t5.5 16.5t1 13q0 8 6 14q8 8 12 33q5 30 8 39q-16 8 -33 12.5t-42.5 7.5t-32.5 4q-4 11 -17 15v12q-15 3 -21 2t-19 -6t-19 -6 q-38 15 -76 18q-66 4 -100 4h-242q-27 0 -41 -2l-129 -6q-78 -4 -127 -18q-6 -2 -20 -2q-18 0 -54 1t-55 1q-23 -31 -16 -60l-2 -6q-4 -6 -6.5 -13.5t-4 -16.5t-2.5 -13q-2 -6 -2 -21.5t-6 -23.5l4 -35q-15 -4 -12 -14q2 -8 2 -25q6 -34 37 -39q3 -1 43 -10.5t61 -13.5 q47 -8 109 -21q64 -12 162 -12h12q11 0 14 -4l-8 -8q-49 -57 -78 -88q-25 -32 -45 -64q-53 -100 -69 -145q-26 -79 -33 -115q-29 -141 -31 -174q-2 -18 -10 -59q-10 -63 -21 -113q-4 -38 -8 -57q-2 -9 -4 -29t-4 -29q-4 -15 -5.5 -31t-1.5 -37.5t-1 -31.5q0 -8 2 -12 q3 -3 8 -23l16 -59q1 -2 2.5 -6.5t2.5 -6.5q12 -12 16 -49q0 -1 1 -3t1 -3q1 -1 5 1.5t7 -1.5q0 -19 2 -29q4 3 9 13q0 13 6 16q6 -4 7 -16t3 -17l6 27q0 4 4 8l4 2l6 -2l2 -20q-3 -19 0 -37q5 7 9 20t12 19q1 -9 4 -23t4 -20l6 3q5 3 6.5 5t1.5 6q0 2 5 12q0 3 6 9 q-2 -12 -2 -31q2 4 4 7t4.5 6t3.5 5l4 -22l8 16q3 -11 6 -14q10 0 11 -4z" />
<glyph unicode="8" horiz-adv-x="1085" d="M995 328q4 31 13 41l6 14q3 21 6 45q1 12 2 36t2 36v12q-4 14 -4 45q0 3 -1 8.5t-1 7.5q-1 12 -6 33.5t-6 30.5q-5 36 -23 80q-10 20 -16 35q-33 77 -80 127q-8 8 -10 14q-2 1 -9 8l2 4q8 8 9 10q47 53 61 117q4 9 8 35q18 78 2 162q-1 10 -6.5 29.5t-7.5 27.5 q-18 71 -62 133q-74 101 -163 142q-108 53 -236 34q-64 -9 -113 -49q-15 -13 -43.5 -40t-44.5 -40q-14 -14 -32 -43q-5 -11 -21 -42t-24 -48q-25 -57 -25 -129q2 -31 10 -98q3 -24 13 -55q23 -56 41 -86q10 -13 10 -25l-15 -8q-28 -14 -47 -33l-57 -55q-3 -3 -8 -9.5 t-8 -9.5q-66 -85 -91 -178q-17 -57 -20 -125v-16v-45q0 -11 6 -15q2 -2 2 -10q-4 -20 4 -57q5 -18 29 -82q14 -38 39 -74q9 -12 19.5 -25t22.5 -27.5t19 -23.5q31 -37 80 -65q31 -18 45 -23q43 -19 58 -22q53 -18 88 -25l57 -8q61 -9 121 0q17 2 100 27q33 9 62 28 q2 2 5.5 5t4.5 4q38 20 57 47l4 4q20 10 29 31q21 27 47 53q3 4 23 24q0 8 11 13l11 6l4 4q4 5 14 18t16.5 23.5t10.5 21.5zM598 1028q-24 0 -78 -4q-34 53 -39 76q-16 55 -18 78q-3 57 29 92q3 4 10 11t10 11q6 10 33 23q6 2 18 2q55 -19 78 -66q15 -30 18 -63 q2 -43 -22 -94q-12 -22 -31 -52zM532 733q-1 -2 -2 -5.5t-2 -4.5q5 -3 15 2l5 1q6 1 8 -1t3 -8h4q9 4 21 -8q9 -6 18 -15q24 -28 39 -43v-2q4 -2 7.5 -5t5.5 -5.5t4.5 -7t3.5 -6.5t3 -8t3 -7q8 -20 10 -30q2 -4 2 -15q2 -14 2 -43q-1 1 -4 2t-4 2q0 -10 -6 -22 q-4 -14 -2 -21q2 -28 -15 -59q-1 -2 -9.5 -21.5t-14.5 -27.5q-44 -78 -131 -72q-37 3 -74 19q-48 18 -86 73q-11 14 -14 31q-12 46 -9 94q6 54 35 96q10 15 12 17q18 34 52 55q3 3 28 23q21 15 47 18q28 4 45 4zM961 520h2l-2 -2v2z" />
<glyph unicode="9" horiz-adv-x="1208" d="M682 428l2 -2q-8 -19 -16 -33q-30 -45 -66 -69q-55 -43 -123 -80l-86 -43q-18 -8 -52.5 -24.5t-51.5 -24.5l-21 -13q-8 -5 -8 -16q18 -7 27 -19q-1 -3 -3.5 -7.5t-2.5 -6.5q0 -14 14 -20q-1 -4 -4.5 -9t-3.5 -6q1 -2 3 -5.5t3 -6t3 -5t5 -3.5l6 -2q7 -3 0 -10 q-1 -3 -6.5 -6t-5.5 -7q4 -2 14.5 -1.5t12.5 -2.5q-1 -5 -8.5 -8t-8.5 -8q4 -2 12.5 -1.5t12.5 -2.5q-1 -5 -9 -9t-10 -6q4 -3 29 -18q-3 -2 -9 -5t-10 -4.5t-7 -5.5t-3 -10q2 -1 8 -2t10 -3.5t5 -8.5q-2 -1 -5 -4t-5 -4v-27q37 -4 55 2q7 2 33.5 9.5t40.5 9.5q49 7 73 22 q0 2 6 2q16 4 46 21q12 6 24 6q14 -2 43 2q39 6 76 22q41 18 55 27q100 60 191 164q17 26 28 31q7 3 11 12l24 43q48 74 80 197q21 76 39 200q7 47 14 127q5 105 -16 248q-2 16 -10 47q-15 55 -47 127q-22 49 -62 98q-63 71 -164 129q-6 3 -23.5 12.5t-27.5 14.5 q-13 6 -96 31q-29 7 -58 -2q-37 -11 -81 -11q-50 2 -127 -12q-5 0 -17 -4q-7 -3 -133 -53q-19 -7 -47 -27q-40 -30 -88 -71q-47 -43 -64 -84q-8 -18 -22 -43q-4 -10 -14.5 -30t-14.5 -30q-14 -33 -35 -121q-12 -58 -14 -88q-5 -51 2 -123q6 -92 47 -163q27 -45 37 -60 q60 -92 162 -149q63 -34 135 -37q84 -6 174 10q39 6 74 23q8 5 49 20zM383 856q9 82 16 107q2 4 7 24q8 37 36 72l27 33q29 29 72 45q12 4 16 2q72 -9 129 -60q29 -25 37 -41q8 -10 16 -30q19 -53 25 -103q3 -20 -10 -33q-46 -54 -78 -81q-46 -41 -109 -60q-9 -3 -53 -14 q-36 -6 -61 10q-48 26 -64 84q-2 8 -4 25.5t-2 19.5z" />
<glyph unicode=":" horiz-adv-x="382" d="M135 764q1 1 5.5 8t9.5 8l6 -14q2 2 6 5t6 5q2 -4 6 -8q12 4 14 4q9 -3 33 2q4 2 13 5t16.5 6.5t13.5 7.5q27 18 39 18q0 21 4 61q3 75 12 148q3 18 3 39v31q-5 5 -11 6.5t-15 2.5t-11 1q-13 -13 -19 -21q-1 3 -2 10t-2 11q-14 -4 -31 -8q-6 -19 -12 -21v27q-13 3 -45 -6 q-1 0 -2 -1.5l-2 -3t-2 -2.5l-6 -12q-2 -2 -6 -2q-4 12 -4 19l-9 2q-21 -9 -43 -9q-11 0 -18 -14q-2 -6 -4 -18t-2 -13l-6 -135q-3 -49 -9 -102v-8q0 -13 13 -13q4 0 28 -6q6 -6 9 -2q1 2 4 1.5t4 -1.5t4 -3t4 -3q2 -2 8 -2zM135 6q2 2 6 9t9 8l6 -15q2 2 6 5t6 5q2 -4 6 -8 q12 4 14 4q9 -3 33 2q4 2 13 5t16.5 6.5t13.5 7.5q27 18 39 18q0 22 4 62q3 73 12 147q3 18 3 39v31q-5 5 -11 6.5t-15 2.5t-11 1q-16 -16 -19 -20q-1 3 -2 9.5t-2 10.5q-13 -4 -31 -8q-6 -19 -12 -21v27q-13 3 -45 -6l-6 -6l-6 -13q-2 -2 -6 -2q-4 12 -4 19l-9 2 q-19 -8 -43 -8q-10 0 -18 -15l-6 -30l-6 -136q-3 -49 -9 -102v-8q0 -12 13 -12l28 -7q6 -6 9 -2q1 2 4 1.5t4 -1.5t4 -3t4 -3q2 -2 8 -2z" />
<glyph unicode=";" horiz-adv-x="382" d="M135 764q1 1 5.5 8t9.5 8l6 -14q2 2 6 5t6 5q2 -4 6 -8q12 4 14 4q9 -3 33 2q4 2 13 5t16.5 6.5t13.5 7.5q27 18 39 18q0 21 4 61q3 75 12 148q3 18 3 39v31q-5 5 -11 6.5t-15 2.5t-11 1q-13 -13 -19 -21q-1 3 -2 10t-2 11q-14 -4 -31 -8q-6 -19 -12 -21v27q-13 3 -45 -6 q-1 0 -2 -1.5l-2 -3t-2 -2.5l-6 -12q-2 -2 -6 -2q-4 12 -4 19l-9 2q-21 -9 -43 -9q-11 0 -18 -14q-2 -6 -4 -18t-2 -13l-6 -135q-3 -49 -9 -102v-8q0 -13 13 -13q4 0 28 -6q6 -6 9 -2q1 2 4 1.5t4 -1.5t4 -3t4 -3q2 -2 8 -2zM279 291q-18 -21 -15 -47q0 -13 -2 -19 q0 23 -2 33q0 2 0.5 7.5t0.5 9t-2 8.5t-5 8q-1 0 -4.5 -1t-5.5 -1h-13q-3 -3 -5 -13t-9 -12l-6 23q-6 1 -16 -0.5t-13 -1.5q-21 -3 -24 -25q0 -2 -4 -2q-6 2 -8.5 12t-4.5 13h-2q-24 -7 -39 -7q-18 0 -18 -16q-4 -16 -4 -24q-1 -13 -1 -38.5t-1 -37.5q-13 -110 -15 -148 q0 -1 1 -2t1 -2q2 1 5.5 3t5.5 3.5t4 3.5q5 -14 8 -15t18 3q8 -8 9 -10l12 12q25 -4 35 4l14 -8q2 -1 3.5 -5.5t4.5 -4.5l4 4q2 0 2 4q9 9 15 6q4 -2 8 -10q7 2 15.5 10.5l9.5 9.5q0 1 1.5 1t2.5 1q0 -1 1 -3.5t1 -4.5l28 4q-4 -39 -18 -55q-15 -18 -21 -41q-7 -28 -38 -63 q-4 -4 -9 -4q-24 -2 -47 -33v-4q3 0 9 -1t10 -1q-2 -4 -5.5 -12.5t-5.5 -12.5q3 2 11.5 5t11.5 5q1 -2 2 -6t2 -6q23 9 49 35q18 20 49 59q29 37 29 66q0 2 1 6t1 6q10 50 14 156q2 33 2 96q3 38 -6 76q-6 3 -18 3t-14 1z" />
<glyph unicode="=" d="M999 1018q-22 12 -69 8h-17q-45 -2 -135 -2q-27 -2 -80 -2q-16 -1 -47 -2t-47 -2l-137 -12q-29 -3 -89 -9.5t-89 -9.5q-41 -5 -86 -22l-13 -23q-2 -4 -2 -14q0 -3 1 -8.5t1 -8.5t-1 -6t-2.5 -6.5t-2.5 -5.5q-5 -9 -2 -12q1 -6 -4 -21q-4 -8 -4 -24q0 -3 2 -7.5t2 -7.5 l-6 -14q3 -4 12 -5.5t11 -4.5l-15 -13q-13 -13 -4 -22q2 -3 2 -6t-1 -6.5t-1 -4.5t19 -24q20 -4 36 -4q71 -2 211 6q26 1 77 4t77 4q17 1 47.5 1t46.5 1h80h94q6 0 18.5 -0.5t20 -0.5t19 2t20.5 7h6q14 0 33 19q4 4 6 4q5 1 21 12q0 2 -0.5 4t-1 3.5t0.5 2.5t3 2q4 1 8 8 t6 9v14q16 12 23 19q5 7 10 26q8 4 10 4q1 3 -1 7.5t-1 7.5q6 9 0 22q-4 12 2 15q4 4 5 7.5t0 9.5t-1 7q0 4 -4 4q-2 -2 -4 -2q0 -1 -1 -3t-1 -3q0 -6 -6 -6l-4 4q0 8 -9 12q11 4 23 25l-27 4q16 4 21 4q0 5 -1 13t-1 12q-29 8 -43 -2q-8 0 -10 2zM160 334l37 -6 q50 -4 77 -4q75 -5 179 2q81 4 235 16q8 1 24 2t23 2q25 0 73 1t71 1q31 2 96 2q6 0 8 2q22 0 41 19q33 26 47 59q3 2 6 3.5t6 2.5t4 2q2 4 2.5 21t8.5 24q-1 4 -4 12.5t-4 12.5q14 14 8 35l-13 8q-3 2 -4 4t0 2q3 6 -3 17t-5 16q-4 4 6 18q-24 7 -39 19q-8 4 -24 4 q-10 0 -31 -1t-31 -1q-20 0 -58 -1t-56 -1q-55 0 -82 -2q-28 -1 -86 -4.5t-88 -4.5q-5 -1 -17 -2t-18 -2q-35 -2 -104.5 -7t-104.5 -7q-12 -1 -35 -3t-41.5 -4t-34.5 -5q-10 -1 -29 -6.5t-24 -6.5q-15 -3 -18 -20v-4q-1 -6 -0.5 -17t-0.5 -20.5t-5 -17.5l6 -13 q-18 -25 -8 -45q2 -5 -3 -10q-3 -7 3 -10l12 -6q-20 -20 -12 -41v-4q3 -4 4.5 -15.5t5.5 -15.5z" />
<glyph unicode="?" horiz-adv-x="899" d="M61 1202q44 -44 52 -51q5 -5 12.5 -15t11.5 -14q1 -1 4.5 -7t5.5 -8.5t5.5 -6.5t8 -5.5t9.5 -2.5q2 -3 2 -5q3 -13 16 -20q5 -3 11 -14q1 -6 4.5 -10.5t6 -6.5t9.5 -5.5t8 -4.5q21 -9 31 10l12 31l4 13q5 14 9 20q15 28 30 84q19 64 72 90q12 8 23 8q20 1 37.5 -12 t23.5 -33q7 -24 4 -43q0 -41 -10 -70q-22 -59 -64 -98l-24 -27q-55 -65 -96 -141q-34 -67 -46 -139q-8 -74 -14 -109q-6 -29 2 -51q9 -37 15 -47q9 -22 14 -29q12 -28 8 -43q0 -2 4 -10q5 5 8 19t9 18q2 -6 5 -18.5t5 -18.5l12 -8q4 0 5.5 7t6.5 7q5 -14 6 -22l9 24l6 6 q3 -18 5.5 -22t14.5 -10q1 1 6 9t11 9q0 -3 1 -9t1 -9q5 1 8 8.5t8 7.5q2 -8 2 -25q16 12 17 13q4 -2 8 -6l10 10q4 -2 8 -6q1 1 3 4t3.5 4.5t3.5 1.5h15q3 13 21.5 24t21.5 15q1 1 6.5 0t7.5 0q5 2 6 2.5t6.5 -2t6.5 -2.5q3 1 4 4t1 5.5t2 4.5t5 2v6q-4 8 4 11q4 4 4 8 q0 8 1 26t1 27v27q2 54 25 131q7 25 18 41q26 40 76 80q34 27 61 61q3 7 17 25q36 51 43 71l18 45q17 36 21 94q5 51 -2 127q-7 53 -29 93q-4 7 -9 15.5t-12 18t-10 15.5q-56 80 -121 121q-50 35 -125 59q-39 8 -59 10q-73 6 -137 -18q-12 -4 -33 -13.5t-33 -13.5 q-34 -14 -71 -51q-49 -52 -78 -109q-8 -18 -21 -38q-28 -54 -35 -144zM330 -43q2 2 5.5 8.5t8.5 7.5l6 -14q2 2 6 5t6 5q1 -2 7 -8q12 4 14 4q9 -3 33 2q4 2 13 5t16.5 6.5t13.5 7.5q27 18 39 18q0 22 4 62q3 74 12 147q2 12 2 39v31q-5 5 -11 6.5t-15 2.5t-11 1 q-9 -9 -18 -21q-1 3 -2 10t-2 11q-13 -5 -31 -8q-6 -19 -12 -21v27q-13 3 -45 -6q-1 0 -7 -6l-6 -13q-2 -2 -6 -2q-4 12 -4 19l-8 2q-21 -9 -43 -9q-12 0 -19 -14q-2 -6 -4 -18t-2 -13l-6 -135q-4 -68 -8 -102v-8q0 -13 12 -13q5 0 29 -6q5 -5 8 -2q4 3 17 -6q2 -2 8 -2z " />
<glyph unicode="@" horiz-adv-x="1540" d="M1462 938q26 -111 13 -233q-1 -7 -2.5 -23t-2.5 -23q0 -2 -1 -6t-1 -6q-6 -9 -6 -18v-13q0 -1 -1 -3t-1 -3v-2q-10 -35 -12 -41l-12 -41q-1 -1 -1.5 -3t-1 -3t-1.5 -2q-1 -3 -4.5 -9t-4.5 -9q-36 -67 -84 -131q-9 -13 -10 -17q-2 0 -2 -2h-2q-1 -2 -3 -5t-3 -5l-27 -31 l-45 -39q-4 -4 -12 -8l-8 -4h-2q-15 -6 -33 -12q-19 -6 -99.5 6.5t-109.5 32.5q-56 40 -86.5 102t-26.5 129q0 4 -4 12q-8 16 -6 25q1 3 -4 8q-9 3 -18 0h-25q-28 0 -33 -2q-4 -2 -10 -2q-18 -2 -57 -2h-4q-7 -2 -21 -2.5t-18 -1.5q-6 -1 -19.5 -1t-19.5 -1q-4 -2 -13 -2 l-6 -15q-30 -67 -39 -96q-2 -5 -7 -15t-7 -15q-6 -9 -16 -9h-4q-4 6 -13 2h-4q-1 1 -4.5 5t-5.5 6q0 -3 -4 -7q-6 -1 -23 3q-12 6 -22 6q-9 4 -31 8q-12 0 -12 14q1 3 2 11t2 12q2 7 7 26.5t7 30.5l13 37q2 4 5 12t5 12q4 15 13 42.5t13 41.5q12 32 17 52q4 11 11 34t11 35 q1 4 5 16.5t6 18.5q8 19 10 33q0 4 4 8q7 9 13.5 32t8.5 27l9 21q2 4 4 11.5t2 8.5q2 2 2 9q10 15 14 39q1 2 2 5.5t2 4.5q2 3 6 14t9 16q2 3 0 3q0 4 6 22q1 2 4 10.5t6 10.5q2 0 2 4q3 19 10 41q9 30 21 57l6 12h18q0 6 2 8q6 0 17 7q1 0 4.5 1t5.5 1q10 0 12 4 q5 -1 14.5 1t14.5 1q3 -3 8 2t12 -2q7 11 17 4h10q12 2 17.5 -1.5t9.5 -15.5q11 -30 16 -49q14 -41 21 -69l18 -60q5 -24 8 -32q4 -14 10.5 -41.5t10.5 -40.5q11 -57 22 -91l19 -67q0 -6 4 -14q5 -26 16 -62l10 -51h-2q12 -40 24.5 -82t16.5 -55q0 -6 2 -8q4 -18 8 -25v10 q-4 11 -8 33q6 -6 6 -12q3 -17 9 -31v-10q3 -4 8.5 -12t9 -13t8.5 -11.5t10 -11.5t11 -8q11 -9 28.5 -8t24.5 15q3 6 10 6q6 11 19.5 32.5t19.5 32.5q69 135 74 242q1 19 4 59.5t4 61.5q6 138 -74 260q-33 51 -80 74q-4 2 -19.5 12.5t-23.5 13.5q-77 38 -141.5 63.5 t-109.5 39.5t-85.5 15t-63 -0.5t-48.5 -16t-35.5 -22t-31 -29l-27.5 -27.5q-12 -11 -34 -30.5t-39.5 -36t-31.5 -32.5q-44 -55 -55 -79l-43 -72q-69 -135 -74 -242q-1 -19 -4 -59.5t-4 -61.5q-6 -138 74 -260q32 -50 80 -73q5 -3 20 -13.5t23 -13.5q93 -47 166.5 -75 t125 -37.5t87 -7t63.5 14.5q7 0 21.5 1.5t21.5 1.5h10q11 -11 17 -13q4 -3 10.5 -31.5t3.5 -31.5q-3 -5 -16 -23q0 -1 -1 -3t-1 -3q-160 -62 -316 -37q-36 4 -55 4q-12 1 -24.5 3.5t-28.5 7t-23 6.5q-20 7 -56.5 23t-51.5 22q-24 12 -39 22q-6 4 -88 60q-9 7 -18 15 t-15.5 14.5t-16 17t-14.5 16t-15 18.5t-14 17q-44 59 -71 127q-24 67 -39 135q-25 108 -12 234q1 7 2 22.5t2 22.5q6 43 22 94l19 55q12 45 45 105l59 92q37 56 78 92q66 55 104 84q43 31 115 63q106 49 194.5 66t186.5 0q36 -4 55 -4q5 0 74 -17q22 -7 60 -23.5t51 -21.5 q20 -10 38 -22q13 -7 89 -60q38 -30 92 -98q39 -53 69 -127q25 -62 41 -135zM809 709q7 3 4 12q-8 13 -12 33q0 8 -4 24q-1 3 -2 9.5t-2 9.5l-7 18q-4 8 -4 16q1 4 -4 19q0 4 -3 9t-3 7q-8 28 -8 45q-4 18 -10 27q-1 -2 -2 -5.5t-2 -4.5q-2 -7 -7.5 -20.5t-7.5 -20.5 l-18 -47q-2 -6 -6.5 -17.5t-7.5 -21t-5 -17.5q-5 -20 -8 -26q-11 -37 -14 -45q0 -9 -2 -11q7 -2 17.5 -1.5t17.5 -0.5q6 0 10 2h2h4q5 -1 13.5 1t11.5 2q5 0 15 1t15 1q5 1 14.5 1t14.5 1zM920 911v4h-2v-4h2zM924 895v4h-2v-4h2zM926 887q0 -9 2 -10q0 6 -2 10zM928 874 q0 -2 2 -4q0 4 -2 4zM942 819l2 -8v8h-2zM950 793q2 10 -4 16h-2q2 -4 6 -16zM954 776q0 7 -2 8q0 -2 1 -4.5t1 -3.5zM971 715q2 -9 7 -28t7 -28q1 -5 4 -11.5t4 -8.5q0 13 -8 33q-2 10 -7.5 28.5t-6.5 24.5q-1 7 -4 18t-4 15q0 4 -5 4q2 9 -4 12q0 -4 4 -12z" />
<glyph unicode="A" horiz-adv-x="1239" d="M1075 426l-12 37q-21 75 -29 100q-3 16 -10.5 44.5t-9.5 39.5q-1 5 -4.5 13.5t-3.5 9.5q0 10 -2 18q6 -6 2 -18q7 -4 8.5 -8.5t-0.5 -14.5q5 0 8 -6q2 -10 7 -29.5t7 -29.5q15 -57 27 -95q13 -45 12 -61h4q1 -3 4 -10t4 -10l19 -52q0 -7 6 -4q-8 28 -25.5 83t-25.5 83 q-23 80 -29 107q-3 6 -8 26q-15 61 -33 123q-9 30 -23.5 89t-17.5 69q-4 17 -15.5 67t-19.5 78q-3 10 -8 29.5t-8 28.5q-5 23 -29 106l-36 123q-23 67 -31 86q-7 23 -15 27.5t-32 1.5q-16 0 -19 2q-15 7 -28 -9q-16 22 -21 12q-1 -3 -2 -7q-3 -10 -14 -5q-8 2 -24 -2.5 t-23 -3.5q-10 -8 -25 -4l-18 -6q-20 -10 -29 -8q-4 -12 -4 -16h-33q-2 -4 -5 -11.5t-5 -11.5q-16 -36 -35 -98q-16 -51 -20 -76q0 -6 -2 -6q-7 -5 -11.5 -19t-5.5 -16q-14 -22 -12 -41v-4q-8 -9 -15 -28t-12 -27l-6 -17q-10 -42 -25 -67l-4 -17q-2 -6 -5 -18.5t-5 -18.5 q-12 -24 -16 -36q-5 -12 -11 -34t-13 -39.5t-17 -31.5l-6 -16q-3 -15 -17 -56q-4 -10 -10 -30.5t-10 -30.5q-7 -20 -19.5 -62t-19.5 -63q-6 -23 -29 -90l-49 -150q-9 -30 -16 -43q-13 -27 -23 -67l-24 -101q-1 -6 -3.5 -19t-3.5 -19q0 -24 21 -27q10 0 28 -4.5t25 -5.5 q2 -1 18 -5t23 -8q28 -8 39 -6l10 10q14 -14 17 -16h6q18 4 24 -2q0 -2 4 -2q26 4 29 16q3 7 13 26t14 30q35 99 67 170q1 3 4 7t4.5 7.5t2.5 7.5q4 1 12.5 2t11.5 2q13 2 36.5 2.5t31.5 1.5q7 1 21.5 1.5t26 1.5t21.5 4h7q17 1 51 2t51 2q8 0 16 4q12 3 34.5 3t27.5 1 q7 1 21.5 1t21.5 1q20 0 30 -4q11 -4 11 -13q-6 -23 10 -45q8 -11 8 -28q-2 -11 2 -31q0 -6 3 -18t3 -15q10 -34 11 -43q3 -8 8 -35q3 -2 7.5 -4t6.5 -4q4 -2 12 -10q2 1 6 2t5 2q21 -24 39 -24q10 1 41 -3q24 -4 34 -4q9 0 11 2q4 5 24 5q14 -2 23 -9q20 20 24 23l10 -10 q3 3 9 7.5t8 6.5q3 0 7 -5t7 -5q-4 16 2 39q9 0 15 -2q-4 16 0 20q0 30 -2 35q-1 5 -6.5 24t-6.5 29q-5 19 -12 23l14 -58v-18q-7 15 -14 45q-1 2 -2 6.5t-2 7.5l-49 168q-4 13 -11.5 38t-11.5 38zM512 541q0 12 2 18l25 80q13 34 16 47q3 20 16.5 54t16.5 44l30 84 q4 11 12.5 35t12.5 35q1 3 2.5 6t4 7t3.5 7q15 -30 15 -47q6 -39 18 -77q1 -6 5 -17.5t5 -15.5q0 -4 3.5 -14t2.5 -17q0 -8 9 -31l8 -32q4 -9 8 -31q2 -7 5 -21.5t5 -21.5q3 -27 21 -60q7 -13 -10 -20q-9 -2 -27 -2.5t-23 -1.5q-9 0 -27.5 -2t-27.5 -2q-3 0 -21.5 -3.5 t-21.5 1.5h-8q0 -2 -4 -2q-12 -4 -19 -2t-27.5 -0.5t-29.5 2.5zM942 918h2v-7zM950 889l2 -8h-2v8zM961 848q-9 7 -5 18q5 -15 5 -18q1 -1 2 -4.5t2 -5.5q-4 4 -4 10zM698 821v2h2zM977 784h-2v2zM983 766l-2 -2v2v4q2 -2 2 -4zM987 733l6 -2q10 -20 6 -29l-12 31v15h2 q0 -11 -2 -15zM1065 434v-2h-2zM1137 47v-2l-2 2q0 2 2 2v-2z" />
<glyph unicode="B" horiz-adv-x="1085" d="M86 1186v-25q0 -13 -1 -40t-1 -40q-8 -156 -4 -237v-121q1 -25 1 -71.5t1 -84t4 -71.5q4 -57 4 -170q1 -21 2 -62t2 -61v-56q-2 -15 2 -43q0 -13 17 -43l5 -1q5 -2 5 -7q0 -2 1 -4.5t1 -3.5l12 6q1 -7 5 -11.5t6.5 -5.5t8.5 -2t7 -1q22 -18 35 -27q14 0 16 4q10 10 21 2 l12 -10q1 1 3 2l3 1.5t2 0.5q2 0 10 -0.5t11.5 0t8.5 2.5t9 6h14q1 0 31 -2t45 -4q31 -2 92 2q3 0 9.5 1t11 0.5t8.5 -3.5h10q8 1 21 4t24 5t21 3q44 2 100 23q11 5 33.5 14.5t34.5 14.5l24 14q43 19 76 45l24 25q35 31 54 63q11 15 16 27q36 61 43 82l6 22q27 67 29 109 q5 61 -8 139l-6 35q-10 45 -25 76q-17 39 -57 90q-16 20 -35 32q-18 13 -21 23q1 1 2 5.5t2 6.5q9 19 11 27q4 13 20 88q10 68 10 121q0 76 -32 123l-6 10q-44 77 -136 135q-43 26 -145 59q-6 3 -12 3q-41 8 -125 8q-33 0 -99 -4q-58 -4 -86 -4q-7 0 -33.5 -4t-41.5 -3 q-28 -6 -80 -2l-13 13q-10 7 -18 4q-5 -2 -8 -6.5t-2 -8.5q4 -5 0 -16q0 -17 -6 -29q-4 -13 -2 -22q0 -2 1 -7t0.5 -8t-3.5 -6q-2 -1 -2 -5t2 -5q5 -7 2 -16q-2 -2 -2 -9q4 -4 -1.5 -9.5t-5.5 -8.5q11 -16 7 -25v-24q0 -2 1.5 -10.5t0.5 -14.5q-5 -13 16 -22zM373 895 q-3 19 -8 135t-3 133q12 4 17 4q36 4 63 9q31 3 62 -11q11 -3 41 -16q5 -1 12.5 -6t9.5 -6q36 -32 31 -70q-2 -11 -4 -33t-2 -24q-3 -20 -14 -33q-19 -23 -39 -33q-11 -7 -54 -26l-7 -4q-8 -3 -13 -3q-64 -13 -84 -16h-8zM391 303q-6 99 -6 100q0 34 -4 100.5t-4 100.5 q45 10 51 10q9 1 57 6.5t74 6.5q41 4 62 2q44 0 73 -29q24 -24 27 -51q4 -22 8 -64q0 -23 -10 -43l-19 -41q-4 -7 -11.5 -18.5t-8.5 -13.5q-36 -52 -102 -78q-6 -2 -17 -2h-45q-35 2 -110 10q-3 0 -15 4z" />
<glyph unicode="C" horiz-adv-x="1185" d="M922 1010l4 -4q1 0 6 -5q9 8 11.5 8.5t10.5 -5.5l13 -7q7 10 12 19q3 0 7.5 1t6.5 1q10 10 11 12q3 -1 8.5 -2t7.5 -2q12 8 16 12q24 14 39 35l10 10q2 4 11 14t12 17q10 16 16 35q-2 3 -7.5 17.5t-10.5 21.5q-28 44 -90 102q-1 0 -2 1t-2 1q-65 46 -111 70 q-60 28 -137 41h-41q-5 1 -15.5 2t-15.5 2q-20 4 -61 4l-47 -6q-59 -7 -105 -29q-15 -7 -88 -47q-53 -35 -80 -57q-56 -50 -100 -109q-2 -4 -6 -8q-34 -36 -55 -84q-5 -12 -14.5 -34t-14.5 -33q-24 -65 -41 -152q-6 -18 -6 -39l-13 -164q-2 -57 5 -143q0 -13 2 -19 q22 -88 36 -118q3 -12 9 -21q34 -75 49 -102q28 -54 57 -70l4 -4q15 -24 39 -39q11 -8 35 -23.5t35 -23.5q51 -34 139 -63q37 -12 96 -19q10 -1 30.5 -2t29.5 -2q22 -1 60.5 5t51.5 7q3 0 21 6q2 2 6 2q7 -1 33 9q26 11 45 22q6 4 26 14.5t29 18.5q15 14 66 49q5 3 14 10.5 t14 10.5q8 3 13.5 15t9.5 15q2 1 2.5 5.5t1.5 5.5q3 2 0.5 16.5t-2.5 17.5q3 35 -10 72q-19 48 -19 64q0 12 -8 16l-8 -19q-1 7 -1.5 19t-2.5 20t-8 13q-1 -1 -3 -1.5t-5 -1t-5 -1.5q0 14 -2 20q0 8 -8 4q-2 0 -4.5 -2t-3.5 -2h-4q-2 6 -2 16q-1 0 -9 -4q-1 3 -2 8t-2 7 q-3 9 -10 4q-1 0 -4.5 1t-5.5 1q-2 -2 -8 -14q-2 8 -2 18v16q-1 -2 -2.5 -7.5t-2.5 -7.5t-2.5 -6.5t-3 -6.5t-4 -4.5t-5.5 -4t-7 -2.5q-3 -1 -7 -7.5t-7 -8.5l-56 -45q-40 -27 -55 -35q-30 -18 -41 -21t-47 -5h-27q-40 0 -75 18q-46 23 -58 31q-48 27 -71 88 q-4 13 -11.5 38.5t-11.5 37.5q-9 24 -6 49q0 22 -2 34q-7 33 -4 78q3 76 16 168q9 46 27 90q19 45 71 105q5 5 11 8q42 30 63 33q1 0 7 3t10 3q32 11 41 12q133 15 217 -82q2 -2 7 -7.5t7.5 -8t7.5 -6t10 -4.5q1 -5 8.5 -4.5t10.5 -1.5q5 -11 20 -11q5 5 13 17z" />
<glyph unicode="D" horiz-adv-x="1218" d="M1155 838q6 -94 -10 -197q-12 -78 -12 -80t-23 -78q-31 -90 -66 -157q-2 -2 -7 -11.5t-10 -15t-11 -10.5q-2 -1 -6.5 -6.5t-5.5 -6.5q-9 0 -13 -2q-23 -3 -37 -20q-61 -70 -137 -109l-25 -15t-30 -17q-84 -44 -174 -68q-5 -1 -18.5 -5t-20.5 -5q-79 -21 -187 -31 q-15 0 -43 -4q-42 -2 -124 10l-60 13q-28 4 -45 16l4 10l-2 2l-4 2q-8 0 -8 8q0 1 8 9q0 5 -7 7t-7 7l24 6q-1 4 -3.5 5.5t-6 1.5t-4.5 1t-1 4.5t-1 6t-4 2.5l-6 4q2 7 -4 12t-7 8q2 1 5.5 4t5.5 4q0 1 -4 9q3 1 6 2.5t7 4t7 3.5q-22 9 -27 10q1 6 7.5 9t7.5 5l-6 29 q2 2 7.5 5.5t8.5 6.5l-16 6q1 1 2 3.5t2 3.5t2 3q3 3 2 7q-6 19 14 31q8 8 8 18v190q0 28 -1 87.5t-1 89.5q0 34 4 112q0 52 4 158q0 18 -1 51t-1 51q0 30 5 183v43q4 98 6 145v12q-3 25 16 41q10 2 74 17q7 1 21.5 2t21.5 2q3 1 9 2t9 2h10q10 -2 12 -2.5t11.5 2t11.5 2.5 q3 1 6 1t7 -0.5t6 -0.5q81 6 84 6q12 0 51 3t51.5 2.5t52.5 -3.5q13 -2 40 -5t40 -5q52 -11 111 -41q76 -36 160 -103q48 -41 104 -122q63 -88 100 -207q25 -90 31 -176zM817 731q8 57 2 123q-9 105 -63 188q-24 43 -51 70q-48 45 -105 74q-25 11 -59 18q-16 4 -33.5 4.5 t-40.5 -1t-33 -1.5q-8 -2 -22 -2q-11 -4 -11 -12v-14q5 -58 5 -66l6 -133q1 -14 2.5 -36.5t2.5 -41.5t1 -35l-6 -276v-121v-137q0 -9 2 -15q58 11 145 41q21 8 105 56q29 19 71 55q15 18 21 39q2 18 14 49q18 37 23 49q20 58 20 86q0 7 2 20t2 19zM1069 412v2q0 -1 -1 -3 t-1 -3l-3 -6q-4 -5 -5 -9h2q4 1 5 8l1 7q0 1 1 2t1 2zM1032 332q12 12 15 35l-9 -15q-4 -6 -12 -22q-4 -4 -4 -11l-4 -6q-6 -3 -6 -8q10 0 6 8q7 3 8.5 5.5t-0.5 11.5q1 1 3 1t3 1zM104 307l2 4l-2 2v-4v-2z" />
<glyph unicode="E" horiz-adv-x="1017" d="M406 571q2 1 5 2l4.5 1.5t2.5 0.5q141 6 155 5q15 0 19 4l12 12q2 4 2 18q22 7 25 25q3 17 16 59v11q-2 22 6 63q0 15 -6 19q-8 4 -12 24q-8 26 -35 29q-12 2 -37 2q-94 -4 -145 -4q-15 0 -19 4q0 188 4 282q0 5 3 11h18q14 2 41 2q3 0 9.5 0.5t12 0.5t9.5 -1h116 q8 0 21.5 0.5t25.5 0.5t23 -1q12 0 38 -1t38 -1q26 -4 37 -2q5 2 13.5 10.5t12.5 11.5q18 18 35 45q12 19 21 23q4 2 8 10q0 3 4 14.5t2 18.5l2 10q13 26 22 47q-9 21 -20 53q-5 15 -29 23q-5 2 -15 4t-11 2q-19 3 -113 8q-49 2 -145 2q-18 0 -55 1t-56 1q-39 0 -117 -4 q-44 0 -67 -2q-1 0 -35 -3t-51 -3q-28 0 -47 -16l-7 -23q-6 -18 -6 -20q0 -7 -4 -23q-2 -12 4 -24q-18 -18 -10 -29q0 -2 -2 -2q-4 -4 -4.5 -8.5t1 -10.5t1.5 -8v-8q-1 -2 -2.5 -5.5t-2.5 -6.5t-1 -6l2 -21q0 -12 4 -18q11 -11 8 -25q0 -17 -4 -57l-12 -154q-2 -45 -6 -139 q-5 -73 -2 -168q6 -189 6 -193q2 -62 -2 -184q0 -12 -2 -16q-3 -8 -5.5 -24.5t-5.5 -24.5q0 -3 3 -11.5t4 -11.5v-6q-5 -7 0 -16q9 -10 0 -19q-7 -7 -3 -10q3 -3 3.5 -7t0.5 -9.5t1 -8.5q2 -6 2.5 -16.5t1.5 -13.5q0 -4 10 -29v-8q3 -18 18 -21q65 -14 142 -4q21 4 65 8 q47 0 70 2l123 6q139 4 209 -2q27 -4 39 13q1 2 4 3.5t4 2.5q8 4 10 8q28 32 41 80q10 29 2 49q0 2 1 6t1 6v45q-15 15 -16 19q-2 8 -11.5 19t-11.5 16q-2 2 -10 6q-25 14 -49 14l-50 1q-49 0 -49 -1q-118 -3 -239 -12q-1 0 -2.5 1.5t-3.5 2.5q-1 15 0 44.5t0 43.5 q0 63 -2 94q0 30 -4 92z" />
<glyph unicode="F" horiz-adv-x="1085" d="M1024 1260q-1 1 -2 4t-2 4q-16 25 -12 45q2 4 -2 16q-12 18 -15 21q-4 4 -7 9t-6 11.5t-5 9.5q-5 17 -10 21q-13 19 -43 22l-82 7q-96 6 -191 0q-106 -9 -143 -9q-36 0 -66 -6l-202 -16q-20 -2 -70 -19q-12 -3 -12 -16q-2 -8 -2 -29q0 -14 -11 -32q-15 -18 -18 -43 q-3 -38 2 -68q5 -27 2 -66q-2 -18 -2 -53l-6 -74q-4 -53 0 -79q2 -38 -2 -115l-6 -113q0 -8 -1 -23.5t-1 -23.5v-98q0 -15 1 -47t1 -47q0 -13 1 -37t1 -43t-2 -35v-16q7 -17 2 -58v-28q-2 -39 -2 -115q-3 -30 0 -60q0 -36 22 -61q4 8 12 20q16 0 31 3l12 -13q7 6 70 21.5 t66 19.5q9 9 22 0q5 -5 14 0l19 12q1 -1 4 -2t4 -2q23 12 35 21q2 0 8 6q13 21 16 31q5 10 5 14q0 21 -1 65t-1 66q0 27 2 41v76v108l2 9h2q5 0 16.5 -0.5t17.5 -0.5t14.5 1.5t14.5 5.5h6q25 2 74 2q12 0 34 -1t34 -1q29 0 43 2q9 0 11.5 3.5t2.5 12.5v8q-6 22 10 41 q6 6 6 11q0 3 2.5 21.5t-0.5 23.5q0 10 2 12q5 8 5 33q0 12 4 28q4 23 8 33q-2 2 -12 17q-16 16 -5 32q6 10 -2 29q-10 18 -39 47q-12 12 -28 12q-28 -6 -60 -2h-22q-92 -8 -133 -10h-15v64q0 10 -1 31.5t-1 31.5q-1 6 -3.5 20t-3 21.5t0.5 22.5q23 -5 31 -3q10 0 78 5 q4 0 8 4q4 6 18 6h17q49 0 147 4q31 0 178 -10l50 -6q20 0 26 18q0 2 1 7.5t1 8.5q4 22 15 31q9 12 6 27q-2 20 -2 57q-3 23 6 41q4 9 8 23z" />
<glyph unicode="G" horiz-adv-x="1314" d="M1169 1096q1 5 3.5 10.5t3.5 7.5q0 6 8 6q4 0 4 4q4 5 10 17.5t10 17.5q5 7 12.5 24.5t12.5 24.5q6 12 2 27q-9 33 -18 43l-35 49q-30 45 -95 92q-62 37 -88 43q-92 26 -149 33q-90 13 -164 -12q-24 -8 -65 -19q-74 -23 -115 -45q-8 -4 -23.5 -13t-23.5 -13 q-97 -50 -187 -150q-44 -49 -108 -147q-36 -49 -60 -123q-15 -45 -24 -94q-25 -108 -17 -187q5 -40 5 -47q0 -19 8 -59q12 -56 16 -80l12 -49q10 -35 46 -101q56 -101 151 -196q24 -24 45 -37q35 -29 115 -70q2 -1 9.5 -6t12.5 -6q16 -7 41 -14l76 -21q27 -6 78 -6 q27 3 55 0q19 0 29 4l12 4t13.5 5t11 6t10.5 10q1 1 5.5 2t6.5 2l58 6q126 25 194 74q29 19 37 22q14 5 25 19l12 12q11 15 41 49q13 16 4 37q-1 1 -2 4.5t-2 5.5q6 11 35 35q15 13 22 39q0 6 2 10q6 14 6 45q-2 47 -2 144q0 21 0.5 60t0.5 72t-1 62q0 71 -22 145 q-7 21 -12 31q-40 4 -60 4l-135 6q-147 3 -264 -10q-67 -4 -105 -20q-10 -8 -10 -39q-1 -1 -3.5 -1.5t-4 -2t-0.5 -4.5q2 -5 -1 -10t-3 -7q4 -8 8 -12q-12 -15 -12 -35q0 -4 -4 -12l10 -10l-10 -7q-1 -9 3.5 -13.5t12 -7.5t10.5 -7q-2 -3 -12.5 -6t-11.5 -11q2 -2 10 -6 l-14 -18q4 -4 10.5 -11t9.5 -10q-4 -4 -4 -8q-3 -13 10 -20q19 -9 25 -11q4 0 27.5 -3t37.5 -3q94 -3 193 0h14q-2 -35 -5 -105t-5 -106q-89 -44 -154 -39q-17 1 -53 1t-53 1q-62 0 -117 52q-19 19 -47 59q-32 46 -45 90l-12 47q-15 44 -15 92q-2 34 11 117q12 48 24 74 q24 53 66 111q13 18 47 61q37 42 98 72q41 23 82 20q38 0 76 -6q54 -10 80 -51q1 -1 8 -10t9.5 -12t8 -9.5t11 -10.5t12.5 -7l18 -15q14 6 21 23q10 -10 16 -19q9 5 12 2q3 -6 9 -6q11 2 16 21q4 0 4 2q1 -1 3 -1.5t3 -1t2 -1.5q4 6 12 14q4 -3 7 -13t8 -14q0 3 1 7t1 6v20 q1 0 3 1t3 1q4 0 4 -2q3 -6 6 -18q2 4 4 12.5t4 11.5q0 2 11 23q14 -9 14 -12q0 -2 4 -2l6 16q1 -2 3 -5t3 -5z" />
<glyph unicode="H" horiz-adv-x="1202" d="M115 1438q-11 -37 -11 -66l-6 -78q-4 -47 -8 -141q-1 -21 -2 -62.5t-2 -62.5q-1 -33 -2 -98.5t-2 -98.5l-6 -194q0 -45 -2 -68q-1 -12 -2.5 -33t-2.5 -38t-1 -33q-5 -170 -5 -203v-33q-4 -69 3 -108q0 -19 14 -25l43 -24q4 -4 10 -4q12 -2 23 -17q16 8 24 10q1 -1 3 -2 q3 -1 3 -2q10 -12 39 -12h23q3 0 9 -1t9 -1q8 0 24.5 1t24.5 1q12 -2 29 2q15 6 18 21q0 8 5 28q12 63 16 193q1 25 1 75.5t1 75.5v11q0 40 4 118v41q6 2 14 2h27q73 6 156 9h98q56 0 109 -3q4 0 12 -1t12 -1q2 -10 2 -30q0 -78 -2 -117v-53q-10 -170 -12 -205 q-5 -72 -4 -86q0 -40 12 -62q46 -32 59 -40q7 -7 13 -7q6 2 10.5 -2.5t7.5 -5.5l6 10q30 -5 37 -12q4 -2 6 -2q8 -1 24.5 -2t24.5 -2q12 6 21 12q8 -8 12 -6q5 1 15.5 2.5t19 3.5t14.5 6l25 13q1 7 4 21.5t4 21.5q5 27 0 35q-2 4 -2 10q1 15 4 46t4 48q10 120 11 149 q0 42 6 82q4 25 0 35q-4 12 -4 33q2 8 2 27q0 46 -2 69q0 66 -2 80q-5 59 -5 141l-2 59q-1 58 2 58v6q0 14 -1 44t-1 44q-2 80 -2 244q-4 82 -14 121q-2 10 -10 35q-4 14 -17 14q-22 0 -32 2h-15q-4 2 -26 2q-21 5 -27 2q-4 -1 -11 1t-11 1q-9 -8 -17 0q-5 5 -10 -4 q0 -2 -4 -10q-4 4 -19 14l-18 -6q-32 -3 -35 -35q0 -6 -18 -149q-3 -25 -13 -160l-6 -166q0 -4 -1 -11t-1 -11q0 -9 -4 -25h-63q-105 9 -211 6q-20 -1 -61 -2t-62 -2q-21 0 -31 4q-2 6 -2 17q-1 15 -2 42t-2 42q0 32 -4 98q-4 70 -2 106q0 36 -2 52q-1 18 -4 51t-4 51 q-2 27 -13 68q-3 9 -5.5 10.5t-12.5 3.5q-7 1 -19.5 1t-22.5 1t-18 4h-4q-49 4 -73 0q-8 -1 -29.5 -0.5t-28.5 -1.5q-11 -2 -24 -12z" />
<glyph unicode="I" horiz-adv-x="450" d="M133 1378q0 -6 -4 -18q-1 -13 -4 -41t-4 -43q0 -1 -6 -92q-3 -38 -9 -72q-2 -25 -7 -70.5t-7 -66.5q-6 -72 -14 -223q-1 -29 -2 -88.5t-2 -88.5q-2 -51 -2 -157q-4 -82 -4 -125q0 -103 -2 -154q0 -8 -3 -14q-6 -25 9 -43q1 -2 2 -6t2 -6q16 -24 28 -31q12 -4 19 -14 q5 -9 22.5 -14.5t22.5 -10.5q3 3 10.5 3.5t9.5 4.5q9 9 19 2q8 -4 14 0q11 0 15 -2q14 -7 32 4q1 0 8 4.5t8.5 4t10.5 -0.5l24 19q1 1 4.5 2t4.5 2q9 3 14 8q8 8 14 12q20 10 17 31q0 12 1 34t1 34q0 3 3 35t3 49q1 19 2 54t2 54v92q0 16 1 48t1 47q0 32 -4 98v66 q2 37 2 108q0 54 -4 160q0 41 4 123v57q4 50 4 76q0 52 -6 104q0 31 -10 49q-7 4 -31 4h-23q-8 3 -34 3q-12 4 -19 4q-23 0 -30 -4q-5 -2 -7 0q-7 7 -18 0q-9 -3 -16 -3q-18 5 -27 -2q0 -2 -4 -2q-7 2 -10 2t-10 -2.5t-11 -3.5z" />
<glyph unicode="J" horiz-adv-x="1030" d="M825 1415q-25 12 -37 4q-2 -2 -8 -2q-7 1 -22.5 -1.5t-22.5 -0.5q-1 1 -2.5 0.5t-3.5 -1.5t-4 -1l-14 -6q-26 -7 -29 -29q-4 -17 -8 -55l-12 -121q-1 -17 -4.5 -48t-4.5 -48q-2 -26 -5 -79t-5 -79q-1 -20 -4 -61t-4 -62q-8 -123 -10 -192q-3 -81 -29 -178 q-14 -56 -49 -109q-11 -14 -27 -14q-35 0 -53 4l-29 6q-33 2 -82 31q-6 3 -26 15t-31 18q-18 9 -27 24q-18 31 -26 41t-25 27q-8 5 -16 0q-1 -2 -4 -9t-4 -12h-17q-11 -19 -28 -43q-5 -5 -5 -14l-2 -8q-8 -4 -14 -6q-1 -1 -2 -5t-2 -6l-4 -6q-10 0 -10 -10v-10q-8 -4 -11 -4 q-1 -5 -4.5 -13.5t-3.5 -9.5h-10v-10q-6 0 -10 -2v-15l-8 -4v-14q-7 -11 2 -33l12 -37q4 -8 12 -28q18 -40 60 -82q92 -92 184 -109q74 -15 117 0q6 4 18 0q12 -6 25 -6q54 -3 116 10q26 7 80 33q46 23 88 61q44 39 94 123q45 83 68 195q11 65 14 151q6 129 9 267 q1 38 2 113t2 112q0 96 -2 145q-3 99 -21 168l-6 27q-6 14 -22 14h-21h-33q-10 -7 -24 0q-6 3 -15 -6z" />
<glyph unicode="K" horiz-adv-x="1169" d="M711 182q0 -1 -1 -3t-1 -3q3 -28 16 -61q10 0 16 -2q1 -3 4.5 -13t4.5 -16l-2 -2q-3 0 -7 5t-8 5l6 -45l4 -6q5 0 11.5 -6.5t11.5 -7.5q1 -3 2.5 -4t3 -1t3 0.5t3.5 1.5t4 1l21 -21h10q10 -5 12 -4q2 2 9.5 2t9.5 4q8 -2 24 -2q20 0 23 2q4 2 27 8q4 1 12 1.5t13 3t9 8.5 q0 2 4 2q2 1 6 2t5 2q3 2 8.5 7t8.5 6.5t10 3.5t12 -1h2q12 8 14 10q6 6 6 21l31 16q-1 4 -2 13t-2 12q6 6 8 10q4 4 0 8q-13 51 -21 64q-5 10 -9.5 21.5t-9.5 26t-9 23.5q-15 33 -40.5 97t-37.5 92q-61 138 -82 182l-43 88q-5 11 -15.5 32.5t-15.5 33.5l-8 14 q-7 6 -10.5 14t-5 22t-2.5 17q3 3 3.5 7t0 6.5t-2 8t-1.5 7.5q-2 7 4 16q12 16 35.5 48t35.5 47l58 67q18 20 52.5 62.5t53.5 62.5q37 37 103 115q7 7 10 16q3 8 -1 16t-11 9l-15 6q-2 2 -7.5 4t-6.5 2q-2 0 -31 -10q0 14 -2 18q-1 1 -3 1.5t-3 1t-2 1.5q-1 7 1.5 19 t2.5 21.5t-6 17.5q-7 0 -21.5 -1t-21.5 -1q-14 0 -25 -11h-2q-6 3 -12 9q-2 -1 -7 -4.5t-6 -3t-7 2.5h-11q-7 0 -22.5 -1t-22.5 -1q-10 0 -29 1t-28 1q-6 0 -8 -2l-27 -18q-5 -5 -13 -15t-15 -18t-13 -14q-3 -4 -21.5 -27.5t-27.5 -34.5l-147 -157q-65 -68 -129 -158 q-6 -6 -15 -18q0 2 -1 10t-1.5 10t-3 6t-6.5 6q-2 2 -2 11v28q0 4 -1 12t-1 11q-3 6 2 8q0 -3 1 -9t1 -9q0 -6 1 -19.5t1 -19.5t8 -2q-5 27 0 36v9q-5 16 -4 20q3 14 -4 21q5 5 1.5 33.5t-3.5 33.5q3 38 -2 68q-11 97 -12 102q-6 34 -9 70q-4 31 -16 41q-33 0 -51 -2 q-21 0 -31 -2q-57 0 -86 -8h-10q-11 2 -58 -3q-8 -16 -8 -20q-4 -32 -8 -84q-4 -45 -8 -135l-6 -144q-4 -124 -8 -180q-5 -66 -5 -159q1 -40 11 -240q2 -49 2 -148q-4 -122 -4 -188q0 -8 2 -12q1 -6 2 -19t2 -20q4 -26 8 -41q10 0 10 -2q4 -8 19 -8q6 0 29 -1.5t36 -0.5 q11 2 66 2q45 3 69 12q6 2 17 2q9 -3 24 1.5t19 4.5q35 24 35 55q0 13 4 19q3 2 2 8t2 8q5 7 -2 21q-15 19 -15 39q-4 66 -4 102q0 1 1 2t1 2q2 -2 6 -2q0 3 1 7.5t1 9t-2 8.5q-2 -2 -3.5 -5t-2.5 -4q-12 69 -2 107v-45q6 9 6 10q0 4 -1 14t-1 15q0 6 -2 8q-5 5 -6.5 10.5 t-2.5 15t-1 11.5q-2 13 8 31q4 11 11 16q6 3 15 12.5t13 12.5q37 27 74 71q16 20 27 31q2 4 8 10l4 -2q8 -19 25.5 -57.5t25.5 -57.5q2 -4 6.5 -19t9.5 -22q2 -4 6 -18t9 -20q4 -4 4 -15q-2 -9 4 -18q12 -16 8 -29q0 -4 2 -6q6 -6 12 -20t9 -19q3 -3 5 -7t4 -9.5t3 -8.5 q5 -21 8 -28q9 -23 21.5 -65.5t17.5 -57.5q4 -16 2 -27q-2 2 -12 33q0 5 -6 8zM373 1083v19h2v-19h-2zM381 961v16h2v-16h-2zM733 127q2 2 2 4zM754 66h-2l2 2q2 -2 0 -2z" />
<glyph unicode="L" horiz-adv-x="833" d="M84 1442q0 -9 -4 -25q-8 -104 -10 -151q-4 -66 -4 -97q0 -81 2 -122l6 -263q0 -18 1 -51t1 -51v-160q1 -33 2 -99t2 -99q0 -50 -12 -103q-1 -6 -1 -20t-1 -21q-1 -1 0 -4l2 -4l6 -10q-1 -1 -3.5 -2.5t-3.5 -2t-2.5 -2t-1.5 -2.5v-3q0 -9 3 -15q1 -3 -2.5 -7t-0.5 -7 q2 -2 0 -2q-3 -3 -2 -6.5t2.5 -5.5t4.5 -4.5t4 -4.5q-1 -2 -2 -6t-2 -7t-2 -5q-6 -10 0 -19q4 0 2 -8.5t-2 -9.5q9 -9 10 -12q8 -14 26 -17q12 -4 17 -4q30 -4 82 -8q104 -6 223 4q94 8 141 4q53 -3 107 0q25 6 28 8q0 8 15 23l12 12q4 6 12.5 18.5t12.5 18.5q10 14 8 23 q0 14 6 20q6 9 6 35v12q2 9 -2 21q-6 12 -6 22q3 7 0 10q-5 6 -8 19t-4 14q-6 14 -11 17.5t-18 3.5q-21 -1 -115 4l-66 1q-66 2 -67 -1q-10 0 -30.5 -1t-32.5 -1q-9 0 -15 2q0 3 -1 8t-1 8v53v295q0 71 -8 211q-2 47 -10 146q-9 69 -15 145l-6 86q-8 129 -26 193 q-4 17 -11 30q-9 19 -14 22t-26 3h-23q-23 -10 -45 -10q-15 -1 -41.5 -10.5t-40.5 -10.5q-7 -1 -45 -18z" />
<glyph unicode="M" horiz-adv-x="1404" d="M1329 1411h14v-104q-4 -90 -4 -136q-2 -29 -2 -84v-108q-2 -20 -2 -61q-1 -4 -2 -13.5t-2 -13.5q0 -2 -1 -6.5t-1 -7.5q1 -8 1 -17.5t-0.5 -21t-0.5 -17.5q-2 -20 -2 -114q0 -15 1 -51.5t0.5 -63t-3.5 -51.5l-6 -86q-6 -80 -6 -160q0 -41 -4 -115q0 -6 1 -18.5t1 -18.5 q-1 -4 -1.5 -15.5t-1.5 -19.5t-5 -14l-9 -2q-8 -25 -34 -22q-5 0 -13 -4q-6 -1 -20 -8t-21 -7q-2 0 -12 -10q-14 9 -23 2q-13 -7 -41 -4q-17 0 -20 -2q-4 -4 -8 0q-6 2 -22 3t-25 7l-8 14q-2 0 -7 -1t-8 -1q-1 1 -4 5.5t-4 7.5q-2 1 -5 6l-3 4q-6 3 -9 8t-4 9t-1.5 11 t-0.5 9q-4 25 9 35q5 -1 4.5 -6.5t1.5 -8.5q0 1 1 2t1 2q4 33 8 107q4 45 8 143q0 27 2 41q2 12 3 35t3 35q6 69 9 133q0 37 -2 57q-3 31 0 62q0 6 -2 10q-4 0 -5 -0.5t0 -3.5q0 -6 1 -19.5t1 -19.5q0 -2 -4 -10l-4 35q-2 2 -8 -5q-22 -21 -39 -53q-8 -16 -16 -18l-10 -27 q-3 -4 -10 -4t-9 -4q-3 -2 -0.5 -8t2.5 -8q-15 -31 -41 -74q-16 -29 -37 -53q-3 -5 -10 -14.5t-10 -14.5q-5 3 -8 0l-2 -2l4 -2l6 4q-1 -3 -4 -9.5t-4 -9.5q-7 4 -11 -4q-11 -33 -38 -41l-35 -6q6 8 16 23v8h2h4l-2 2l-2 -2q-7 1 -16 -5t-13 -7q-2 1 -4.5 5t-4 5t-7.5 0 q-8 12 -10 14q-2 0 -6 -1t-6 -1q-11 0 -15 -2q-2 -2 -6 -2q-9 3 -26.5 3.5t-24.5 2.5q-13 4 -19 2q-15 -3 -26 15q0 10 -2 12q-5 10 -25 45q-18 32 -28 55v4q8 -4 12 -8q-3 -11 10 -20h8q-2 2 -5 7t-5 7l-8 8q-1 8 -10 22t-9 15l-69 135q-21 41 -45 78q-4 -1 -4 -4v-4 q-7 -3 -7 -23l-6 -137v-29l-6 -180q-2 -20 -2 -63q0 -15 -2 -43t-2 -43q0 -23 -4 -66.5t-4 -66.5q0 -8 -1 -25t-1 -25q-5 -32 -10 -40q-2 -3 -7 -23l-69 -27q-36 -12 -58 -10q-4 0 -27.5 -2.5t-27.5 0.5q-2 2 -6 -2q-10 -7 -16 4h-4q-5 -4 -8 1l-3 5q-4 0 -8 -2q-2 4 -2 15 q-4 1 -9 -3t-9 -4q-7 14 -9 17q-2 0 -10 -4q-4 2 -10 10.5t-12 9.5q-1 6 -4.5 15t-4.5 12v35q1 5 4.5 21.5t6.5 25.5q6 14 2 35q-2 15 2 71q0 6 2 6q8 8 8 35q1 21 2 61t2 60v27q1 11 3 33.5t3 33.5q0 2 2.5 14.5t-0.5 16.5q-2 8 -2 31q0 27 2 39q2 10 2 30q-2 8 2 29 q0 3 1.5 10t2 11t0 9.5t-3.5 10.5q-3 3 2 8q3 5 0 8q-4 10 -4 29q1 17 2 51t2 51q1 11 2.5 34.5t2.5 35.5q4 101 10 150q2 18 5 56t5 56q1 13 4 40t4 42q2 15 5 45t5 45q0 4 5 19q5 12 11 15.5t19 0.5q7 0 11 4q0 4 6 4q14 -7 26 0q5 -1 25 4q12 0 18 -2q12 -3 21 0h22 q4 4 8 6q11 8 25 5q22 -9 29 -9q9 0 16 -10q1 -4 4 -12.5t4 -12.5q5 -16 19 -34q25 -32 37 -60l10 -16q48 -73 123 -211l41 -80q4 -7 12 -21.5t12 -21.5l21 -39q14 -7 14 -18q3 -11 12 -23q3 -4 5 -8.5t4.5 -9.5t3.5 -8l18 -23q2 -2 2 -8q19 0 25 16q5 10 20 32.5t21 35.5 q2 3 8 9t8 9q5 9 19.5 27t19.5 29q5 13 20 24q11 11 23 31q2 4 7.5 11t9 14t3.5 14q1 2 3 2q6 4 13 16.5t13 16.5q4 0 4 6t2.5 12t7.5 13.5t7 11.5l67 104q2 4 6 12.5t6 12.5l5 10h-5v-10q-6 0 -10 -2q0 8 2 10q27 41 33 86q2 14 10 33q4 15 17 12q2 0 5 3.5t5 4.5q4 4 10 4 q1 1 5.5 -4t8.5 0q5 6 17 0q2 0 7 3t7 3q13 -9 35 6q1 -4 2 -10.5t2 -9.5q3 1 9.5 7.5t11.5 6.5q8 0 24 4q4 1 8.5 -0.5t10 -5t8.5 -4.5l8 6q10 7 18 4q2 0 10 -1t12.5 -2.5t8.5 -6.5zM918 1018v2q-3 0 -3 -4zM901 999v-2l2 2v2q-2 0 -2 -2zM895 987l-2 -2h2v2zM885 975 l-2 -2q0 -2 2 -2l2 2zM784 827q9 8 20 28.5t15 25.5l-4 4q-6 -6 -12 -15q-12 -20 -19 -34v-9q-6 0 -8 -2q-16 -16 -22 -37q5 0 8 3q8 8 22 36zM1028 793q0 2 2 4q-2 0 -2 2q-17 -14 -45 -56t-31 -59q2 -2 2 0q10 14 34.5 51.5t39.5 57.5zM938 662q9 0 6 14zM928 649 q8 4 8 10q-2 -4 -8 -10zM903 602q8 0 8 10q-8 0 -8 -10q-16 -16 -12 -29q-6 -1 -10 -14q3 2 6 7.5t4 6.5q1 2 3.5 6t4.5 7t3.5 7.5t0.5 8.5zM877 555h2v2q-2 0 -2 -2zM864 522q6 11 2 17q-3 -4 -12.5 -16.5t-15 -22.5t-7.5 -21q8 8 33 43zM623 467q-2 -6 -2 -10q2 0 2 -2v12 zM811 451q1 2 4 5t4 5l-2 2l-10 -10l2 -2h2z" />
<glyph unicode="N" horiz-adv-x="1282" d="M1221 1325q1 -19 1 -40.5t-0.5 -48.5t-0.5 -42q-1 -17 -11 -94q0 -9 -2 -13q-4 -5 -5 -12t-1.5 -17t-1.5 -14q-1 -24 -4 -70.5t-4 -68.5q-2 -27 -10 -96q-2 -16 -3 -34.5t-1.5 -41.5t-1.5 -35l-7 -57v-35q0 -12 -2.5 -40t-1.5 -44q0 -20 -2 -58t-2 -56q-2 -18 -2 -54 q0 -10 -1 -29t-1 -28q-4 -46 -4 -68l-6 -53v-39q0 -4 4 -24q-1 -1 -2.5 -6.5t-3.5 -8.5q-4 -11 8 -16q-3 -5 -8 -13t-6 -10q-9 -4 -34 -13t-38 -15q-2 -1 -13.5 -3.5t-17.5 -7.5q-6 -3 -16 7q-17 -10 -35 -13q-19 -4 -26 -3.5t-21 7.5l-10 -10q-3 0 -7 4.5t-8 3.5q-6 0 -8 8 t-4 9q-4 -1 -6.5 -8.5t-7.5 -8.5q-3 3 -3 11.5t-3 11.5l-7 -6q-1 0 -10.5 8t-17.5 8q-15 34 -15 55q0 5 -2 7q0 18 -20 18q-4 -2 -12 2q-29 21 -47 23q-7 2 -15 10l-24 37q-21 34 -62 101t-61 101q-2 3 -6 10t-7.5 13.5t-7.5 11.5l-75 148q-4 9 -27.5 57t-34.5 74l-6 12 q-6 -7 -6 -29q-4 -102 -4 -153q0 -25 -4 -76t-4 -76q0 -16 -5 -104l-6 -43q-1 -17 -3 -49.5t-3 -48.5q0 -8 -1 -23.5t-1 -22.5v-10q2 -15 1.5 -19.5t-4.5 -18t-5 -17.5q-6 -21 -29 -21h-2q-28 6 -47 -10q-9 -6 -16 -2h-6q-25 -4 -39 -2q-27 0 -39 -4l-11 2q-14 2 -38 6 q-14 4 -17 15h-4q-1 -1 -3 -3.5t-3 -3.5q-13 9 -23 9q-21 11 -34 45q-7 14 -7 43q0 16 5 108l6 86q2 10 2 33q2 41 7 120.5t7 117.5q6 143 6 145q4 141 10 211q2 26 8.5 76t8.5 75q9 82 24 160q7 32 29 115q8 30 27 59q4 1 9 1h8t7.5 1t7.5 4q2 2 13 2q29 -3 59 7q6 3 12 0 q17 -7 45 -4q33 4 52 -3h16q8 -2 23 -2q4 -11 0 -24q-9 -23 4 -45q34 -55 65 -115q25 -50 92 -174l37 -74q22 -43 60.5 -124t48.5 -101q18 -36 33 -61l49 -99q4 -4 6 -8q5 4 5.5 16t4.5 17l4 -4q0 -3 0.5 -10t0.5 -11.5t-1 -10t-4 -9.5q0 -1 2 -3.5t2 -4.5q4 4 4 6 q4 24 4 39q1 16 4.5 49t4.5 51q0 2 -1 6t-1 6q-9 -7 -9 -22v-31q0 -16 -8 -29q0 4 -0.5 9.5t-0.5 9t1 6.5q4 14 4 43q0 27 6 39q1 0 5 -3q5 -4 6 1q2 14 2 45q-12 8 -9 18q0 14 5 17v4q-4 5 -4 11t2 13t2 11q0 22 2 32q1 18 4 51.5t4 51.5q8 128 18 190q3 20 10.5 59 t10.5 58l12 68q2 7 5.5 19.5t4.5 16.5q7 -3 13 -8q11 11 30 17l13 -9q3 -2 7 2t7 3q1 -1 3.5 -5t4.5 -6q3 5 8 19q2 0 8 -5t9 1q2 1 6 -2l4 -2q4 0 10 6h4q4 -4 21 -4q18 0 22 -11l10 11l11 -11l6 9q5 -5 8 -11q6 3 14 11q2 -1 7 -5.5t10 -3.5q4 0 16 -4q12 -37 19 -92z M1208 1147q2 4 2 12h-2v-12zM887 868v6q-4 0 -4 -2v-6zM842 113l2 2l-4 4l-2 -2z" />
<glyph unicode="O" horiz-adv-x="1269" d="M545 12q7 -1 29 -3.5t32 -2.5q87 10 101 14q45 10 102 31q39 18 133 86q1 2 4 5t4 5q7 6 20.5 19.5t20.5 19.5q35 24 68 74q20 28 47 76q41 84 55 129q26 81 33 133q2 13 5 39t5 39q7 52 4 96q-3 15 0 33v33q-2 20 -7 61t-7 62q-2 19 -14 59q-6 20 -23 76q-11 32 -39 86 q-26 51 -67 98q-42 47 -117 94q-119 65 -260 56q-26 -2 -105 -15q-39 -7 -63 -14q-7 -1 -18 -4t-15 -4l-43 -19q-24 -10 -29 -18q-7 -9 -20 -19q-37 -21 -74 -53q-6 -6 -18 -14l-25 -23q-5 -5 -15.5 -15t-15.5 -15q-20 -25 -24 -33q-62 -79 -100 -180q-33 -100 -41 -187 q-11 -96 -5 -203q0 -16 3.5 -46t3.5 -36q17 -109 47 -190q32 -88 69 -139q57 -88 142 -140q48 -28 118 -59q2 0 6.5 -1t6.5 -1q21 -3 45.5 -1.5t40.5 11.5zM872 776v-10q5 -75 -26 -170l-37 -102q-12 -25 -14 -27q-53 -82 -127 -125q-2 -1 -47 -18h-7q-27 -7 -63 4 q-22 7 -57 30q-6 4 -15 13q-26 37 -35 63q-40 99 -53 223q-10 91 0 162q3 39 23 92q23 58 51 101q32 52 84 82q3 2 11 5t11 5l25 6q30 12 63 6q3 -1 9.5 -2t9.5 -2q44 -3 76 -20q32 -11 51 -43q18 -27 31 -56q20 -50 30 -125q6 -46 6 -92z" />
<glyph unicode="P" horiz-adv-x="1034" d="M969 1004q4 -62 4 -93q0 -9 -2 -27.5t-2 -27.5q-4 -43 -39 -119q-12 -30 -37 -71q-22 -44 -78 -107q-14 -9 -18 -8l-4 -2q-4 -2 -6.5 -9.5t-6.5 -7.5q-8 0 -16 -8q-30 -26 -41 -32q-33 -14 -43 -13q-2 0 -5.5 -1t-4.5 -1q-17 -7 -97 -26q-28 -6 -53 -9l-41 -6h-51 q-2 0 -6 1t-6 1q-19 0 -23.5 -4t-3.5 -24q1 -25 -4 -148q-2 -31 -10 -108q0 -2 -1 -6.5t-1 -6.5q5 -7 0.5 -34.5t-4.5 -34.5q0 -6 -9 -11q-2 -2 -7 -5t-7 -5q-19 -14 -29 -14q-44 -18 -90 -21q-22 -4 -28 -8q-1 0 -9.5 -3.5t-13.5 -4.5h-8q-4 8 -8 12h-6q-14 -5 -19 -8 q-8 4 -12 4q-9 2 -14 10q-4 7 -13 -2l-18 21q-23 29 -17 61q7 28 7 52q8 69 10 108q2 35 2 104q0 23 1 71.5t1 72.5q0 71 2 106q1 21 2.5 62t2.5 66.5t4 61t7 64.5q0 1 6 80q1 21 4.5 64.5t4.5 64.5q1 9 2 27.5t2 27.5q0 7 -2 9q-3 3 -5 10.5t-6 9.5q6 1 2 9.5t-4 9.5 q-2 12 7 26l-7 8q3 3 3.5 6t0 5t-2 5.5t-1.5 4.5q-5 18 9 39q0 1 1 3t1 3q-2 2 -6 10q8 15 10 27q0 12 -2 14v8q10 13 10 33q0 13 10 23q13 13 15 16h12q22 0 43 6q69 22 172 29q82 4 123 4q44 3 90 0q114 -9 201 -84q59 -53 106 -133q3 -7 31 -70q30 -77 39 -157zM662 918 q2 43 -17 118q-10 50 -61 101q-31 25 -70 22q-13 -2 -40 -5t-40 -5q-11 0 -31 -4q0 -5 -1 -11t-1 -8v-39l1 -73q0 -74 -1 -74q0 -51 -2 -76q-8 -60 -8 -133q0 -19 2 -22h10q14 3 40.5 9t39.5 9q51 17 58 21q46 18 63 43q40 57 43 63q15 30 15 64z" />
<glyph unicode="Q" horiz-adv-x="1355" d="M1147 -139q2 2 5 6t5.5 6.5t5.5 3.5q6 2 17 19q2 3 7 12.5t9 13.5q6 6 6 23q0 31 23 45q-4 12 -4 14q0 16 -13 33q-6 7 -14.5 21t-13.5 20q-27 37 -68 117q-11 16 2 32q33 50 51 82q43 71 62 131q28 92 47 197q12 62 18 125q6 71 -6 139l-24 105q-19 76 -76 180 q-31 58 -84 114q-17 17 -35 29q-51 28 -55 31q-37 23 -107 49q-24 8 -57 8q-47 0 -72 2q-63 8 -141 -20l-70 -25q-106 -35 -176 -82q-7 -5 -23 -16.5t-24.5 -18t-21 -17t-22.5 -20t-19 -20.5l-24 -30t-27.5 -35.5t-20.5 -30.5q-66 -99 -94 -201q-2 -10 -8.5 -31.5 t-8.5 -31.5q-3 -16 -12.5 -53t-14.5 -64t-6 -53q-4 -73 3 -119q4 -32 4 -49q11 -70 34 -111q18 -35 39 -72q59 -111 154 -176q63 -44 100 -63q54 -29 135 -53q45 -10 54 -17q2 -2 6 -2q16 2 49 2q28 4 43 4q22 -3 45 0h43q50 4 72 19q0 2 6 2q2 -3 9 -0.5t9 2.5q4 2 15 2 l14 -27q9 -19 14 -22q11 -11 27 -39l23 -41q8 -14 16 -33q11 -39 47 -61q4 0 4 -2l10 6q10 -5 13 -8q9 1 17 11.5t11 12.5q4 0 4 -2q8 -2 15 -10q2 2 5 4.5t5 4t4.5 5t3.5 6.5q5 1 8 4t6 9t5 8q8 -4 12 -4zM621 600h-15q-1 0 -3 -1t-3.5 -1.5t-2.5 -2.5t-1 -5t-1.5 -5 t-4.5 -5t-4 -5l6 -20q-2 -1 -4 1.5t-4 2.5h-9q-7 -4 -4 -10q7 -12 21 -45l31 -45q20 -35 24 -41q18 -32 51 -82l13 -25q-11 -11 -27 -6l-57 12q-70 16 -123 54l-25 18q-36 24 -59 72q-24 49 -29 92q-7 52 2 88q8 21 8 51q4 49 23 133q28 117 100 207q31 39 78 68q1 1 35 12 q12 0 18 2q30 8 111 8l31 -6q26 -6 67 -35q10 -7 15 -14q18 -26 28 -45q38 -70 51 -133q1 -5 4.5 -14.5t4.5 -14.5q12 -57 4 -108q-14 -77 -37 -164l-12 -47q-3 -15 -15 -27q-10 6 -26 31q-37 61 -84 117q-8 10 -37 40q-12 12 -21 7q-3 -2 -14 2q3 -6 8 -21q4 0 -2 -6h-4 q-1 1 -4.5 3.5t-5.5 4.5q-2 -4 -6 -8q-1 -1 -5 -3.5t-6 -4.5q10 -14 15 -23q-5 -8 -13 0q-2 1 -6.5 6.5t-5.5 6.5q-11 -9 -22 -7q2 -4 2 -8q0 -1 1 -3.5t1 -4.5q-8 2 -10.5 2t-8.5 -4.5t-8 -5.5t-2.5 -3t-0.5 -5.5t-1 -5.5q-2 0 -10 4q-2 -2 -2 -9l10 -24q-3 3 -9 7.5 t-9 6.5v-6q4 -8 4 -12q-1 2 -2 6t-2 6zM1090 -156v-2l-3 2h3z" />
<glyph unicode="R" horiz-adv-x="1081" d="M1020 999q3 -53 -10 -112q-10 -44 -41 -101q-1 -3 -6 -8.5t-7 -7.5l-12 -16q-18 -25 -51 -68q-19 -21 -55 -53q-8 -8 -25 -22t-20 -17q0 -8 2 -12q2 -9 9.5 -27t8.5 -20l6 -23q2 -3 5 -11.5t5 -11.5q-4 -4 -6 -8q2 -4 6 -8h2q-6 -5 -6 -7.5t6 -8.5l-2 2l7 -19q2 -6 10 -2 q4 -8 12 -20q5 -10 -2 -15l2 -2v2q10 -11 23 -47q5 -9 10 -32v-7q10 -10 14 -36q3 -11 6 -13q12 -12 9 -26q-3 -13 8 -19q2 0 2 -8q-2 -12 6 -29q2 -6 7.5 -21.5t8.5 -23.5q4 -8 4 -24l-2 -2q0 -8 -1 -13t-1 -9t-2 -7.5t-2.5 -5t-4 -4t-5 -3.5t-7.5 -4.5t-9 -5.5 q-4 -3 -13.5 -7t-13.5 -7q-31 -15 -49 -29q-8 -8 -25 -8q-8 0 -24 -4q-5 -3 -43 -8q-7 0 -9 2q-6 8 -32 8q-1 0 -5 1t-8 1q-2 6 -9 17t-9 16q-30 62 -33 76q-1 5 -2 15.5t-2 15.5q-17 73 -49 151q-14 35 -35 94q-2 8 -29 74q-2 6 -7.5 15.5t-6.5 11.5l-22 6q-6 -6 -9 -6 q-23 -5 -30 6h-11q-16 2 -53 2q-4 -4 -5 -10t-1.5 -13t-1.5 -10q-2 -16 -2 -49q-4 -54 -4 -78q0 -65 -2 -98q0 -12 -1 -35t-1 -35v-2q2 -16 2.5 -18.5t-2 -19.5t-2.5 -19q0 -11 -4 -31q0 -4 -5.5 -8t-9.5 -2q-6 0 -15 -4.5t-13 -5.5q-12 0 -21 -17l-4 4q-3 5 -6 2 q-4 -4 -15.5 -6.5t-15.5 -7.5q-4 -2 -6 0q-7 5 -25.5 1.5t-25.5 -1.5q-5 3 -10 0q-17 -7 -33 12l-21 -6q-4 0 -24 4l-6 13q-17 -4 -23 4q-1 1 -8.5 7.5t-7.5 12.5v2q-11 23 -8 62q1 8 -5 88v104q0 14 5 92q2 51 10 148q1 21 4 61.5t4 59.5q1 25 4 73t4 72q0 5 -1 16.5 t-1 16.5q0 13 1 38t1 38q0 71 2 106l6 82q0 23 -10 31q1 1 3.5 4.5t2.5 5.5q4 4 0 8q-12 9 -4 21q11 19 0 41q-6 15 0 30v21q0 2 3.5 8t2.5 10v8q6 8 8.5 18.5t3 24t1.5 19.5q0 1 -1 3.5t-1 4.5q8 8 24 12q49 20 119 31q65 7 108 14q5 1 95 17h2q70 4 106 4q48 0 123 -23 q37 -11 96 -41q71 -39 113 -102q21 -24 37 -53q45 -77 69 -158q16 -45 19 -109zM672 911q25 39 22 80q-3 31 -12 58q-14 41 -43 81q-13 17 -21 21q-56 29 -100 29q-15 0 -51 -4q-14 -1 -39 -6l-35 -7v-47q4 -106 4 -158q2 -57 2 -172q0 -9 7 -14q9 2 26.5 7t26.5 7l57 19 q2 1 7 2t7 2q18 10 60 31q12 4 16 8q49 39 66 63zM477 502v2h-4v-2h4zM862 381l-2 -4l4 -4v4q0 1 -1 2t-1 2zM891 315v-6h2q-2 2 -2 6z" />
<glyph unicode="S" horiz-adv-x="1122" d="M854 117q3 3 57 51q60 51 98.5 122.5t45.5 149.5q6 41 6 123q0 34 -12 64q-4 12 -16 39t-17 43q-18 46 -55 92q-45 55 -87 92q-44 34 -75 45q-50 19 -82 23q-48 4 -74 8q-39 2 -121 10q-36 4 -53 4q-35 2 -80 31q-22 17 -33 53q-2 7 2 20q1 6 6.5 17.5t6.5 13.5 q5 9 20 17q36 18 39 20q6 3 23.5 12.5t27.5 14.5q59 19 115 22q9 0 25 -4q48 -16 79 -49q12 -16 23 -27q8 2 14 9q7 -7 11 -7q8 0 8 9v6q1 6 6 8q2 -1 5.5 -3.5t6 -3.5t6.5 -1t8 2q0 3 1.5 9.5t1.5 10.5q8 -2 13 -0.5t6.5 3t4.5 8.5q12 21 23 26q3 2 8.5 13.5t13.5 13.5 q0 4 2 6q12 24 23 35q20 20 10 39q-3 9 2 14v6q-12 32 -27 43l-6 6q-30 35 -82 62q-34 18 -69 30q-71 24 -123 19l-41 -6q-68 -6 -143 -39q-18 -9 -21 -12q-56 -31 -72 -39q-40 -16 -84 -48q-49 -38 -90 -106q-46 -78 -43 -160q0 -95 39 -164q41 -72 115 -127 q69 -49 156 -81q42 -15 67 -19q31 -5 107 -14q32 -4 45 -4q26 0 47 -21q10 -10 14 -16q27 -29 49 -94q12 -37 0 -76q-23 -61 -63 -101q-15 -15 -44 -39t-40 -34q-35 -27 -76 -19q-22 4 -29 8q-48 14 -71 35q-41 29 -70 66q-21 21 -29 43q-13 36 -10 78q2 31 10 84q0 4 4 8 q6 12 4.5 18t-10.5 17q-2 0 -4 2q-3 0 -8 -3t-8 -3q-5 0 -8 -7t-7 -8q-14 9 -24 6q-6 -12 -8 -14q-7 -3 -20.5 -8.5t-18.5 -7.5q-2 -12 -25 -21q-4 -3 -13 -7t-13 -7l-21 -12q-35 -17 -45 -50q-1 -3 -18 -61q-16 -61 0 -135q11 -52 49 -107q28 -43 90 -98q3 -3 12 -11.5 t15 -11.5q3 -2 30.5 -20.5t42.5 -26.5q33 -19 45 -22q63 -21 109 -29q40 -7 149 2q5 0 21 4q42 12 85.5 39t66.5 46.5t69 62.5z" />
<glyph unicode="T" horiz-adv-x="1230" d="M1153 1376q-3 3 -12.5 10.5t-12.5 12.5q-7 16 -34 16q-27 -3 -58 0q-6 0 -18.5 2t-18.5 2q-17 1 -50 2t-50 2q-12 0 -18 2q-7 2 -45 2h-17q-79 3 -162 3h-153h-33h-111h-10q-15 2 -96 -3q-60 -4 -92 -8q-20 -2 -60 -10q-18 -4 -18 -16q0 -4 -4 -16.5t-2 -20.5q1 -1 0 -4 l-2 -4l2 -9q-13 -3 -4 -12q9 -11 0 -20q-4 -3 -6 -7t-4 -9.5t-3 -8.5q3 -5 5 -20t6 -21l-6 -12q-5 -10 -5 -12q1 -3 4 -21.5t11 -26.5q77 -21 139 -18h84q34 0 100 1t99 1q2 0 10 -4q0 -9 -1 -28.5t-1 -28.5q-1 -35 -2 -103.5t-2 -103.5q-1 -22 -2 -65.5t-2 -65.5 q0 -63 -4 -189l-7 -125q-4 -82 -8 -123q0 -1 -6 -88q-4 -45 -8 -131q0 -42 31 -53v-10q0 -3 1 -8t1 -7h2q1 0 3 1l3 1.5t3 -0.5t3 -4q6 8 16 5q3 -3 12.5 -5t12.5 -6q4 -4 10 -4q32 -4 53 -4q26 0 33 -4q26 16 35.5 19t40.5 6q1 4 5 8t7 6t9.5 5.5t7.5 4.5q17 71 20 125 q0 17 2 25q3 14 8 90v86q4 40 4 61v99v106q0 13 0.5 37.5t0.5 44.5t-1 37q0 23 -1 70.5t-1 72.5q-1 21 -2 65t-2 66q0 30 -4 96q0 3 1 10t1 11h29q24 -1 73 -2t74 -2h43q25 0 37 -2q5 -1 16.5 4t18.5 2q6 0 8 2q5 5 16.5 9.5t14.5 6.5q6 2 10 13q3 10 15 14q7 3 11.5 8 t8.5 13.5t6 11.5l-22 10q1 10 13.5 16t14.5 9l-16 16l12 8q1 3 -1.5 10.5t1.5 10.5l6 16q-2 2 -5.5 4.5t-5.5 4.5t-3 5q-2 2 -2.5 9t-1.5 8q-2 4 0.5 10t1.5 10z" />
<glyph unicode="U" horiz-adv-x="1198" d="M98 1409q-4 -16 -4 -23q-8 -75 -14 -114q-12 -104 -14 -162q-1 -22 -1.5 -66t-1.5 -65q0 -19 -1 -54.5t-1 -52.5v-122q1 -24 3.5 -73.5t3.5 -74.5q0 -14 -2.5 -43t-2.5 -43q-7 -114 27 -199l4 -16q27 -83 70 -139q53 -61 86 -86q27 -20 92 -62q54 -30 94 -37 q46 -5 64 -10q49 -9 94 -4q26 3 53 0h29q6 0 18.5 -1t18.5 -1q3 0 9 -1t9 -1q17 -1 64 8q29 6 53 21q14 8 36.5 25t26.5 20q82 67 119 110q31 40 43 72q13 30 21 53l6 19q20 105 22 121q2 26 7.5 76t7.5 75q1 11 1 24t-0.5 28.5t-0.5 23.5q-9 97 -9 127v129v342 q0 62 -10 137q-2 16 -10 39q-3 10 -12.5 13t-18.5 -3h-8q-4 6 -12 6h-13q-14 7 -24 0q-3 -3 -8 2q-6 6 -6 3q-1 -3 -9.5 -0.5t-9.5 2.5q-17 4 -22 -5h-7q-4 0 -12 -1t-12 -1q-2 1 -5 4t-5 3q-3 2 -6.5 0.5t-5 -3t-4 -4.5t-3.5 -4q-11 5 -16 4t-25 -12q-8 -35 -10 -57 q-4 -16 -8 -56q-1 -14 -7.5 -54.5t-7.5 -63.5q-6 -57 -10 -172q-5 -147 -4 -176q2 -14 2 -46q0 -16 1 -46t1 -46q4 -62 4 -90t-4 -90q-1 -9 -4 -35.5t-6 -42.5q-11 -46 -43 -90q-23 -31 -39 -49q-14 -18 -29 -25q-4 -3 -13 -8t-13 -8q-15 -8 -25 2q-12 12 -26 12l-52 7 q-65 3 -106 32q-95 68 -92 181q0 29 -3.5 94.5t-2.5 99.5q0 8 -2 12q0 11 -3.5 60.5t-3.5 75.5q0 8 1 23.5t1 23.5q-4 112 -8 168q-1 27 -1 58.5t0.5 69.5t0.5 58l-6 131q0 15 -4 39q0 3 -2.5 10t-3.5 10q-17 0 -23 -2q-19 -4 -77 0q-32 0 -46 -2q-4 0 -16 -4h-8 q-11 8 -23 0q-4 -2 -10 -2q-11 2 -35 -6z" />
<glyph unicode="V" horiz-adv-x="1191" d="M580 416h-5q-2 8 -6 20q-4 19 -13 57.5t-13 57.5q-9 34 -26 100.5t-31.5 119.5t-30.5 99q-21 76 -45 150q-46 147 -54 174q-24 82 -47 141l-18 35q-3 10 -15 6q-4 -1 -21.5 -5.5t-25.5 -10.5q-9 -9 -20 -4q-6 0 -8 -2q-3 -4 -23 -11q-4 -2 -19 -6.5t-22 -9.5 q-8 -4 -12 -4q-9 0 -25 -8q-17 -9 -24 -10q-15 -7 -15 -21v-16q1 -9 3.5 -28t3.5 -28q5 -82 38 -208q10 -38 30 -108.5t28 -102.5q30 -107 35 -129q5 -19 13 -57t13 -56q7 -29 47 -182q26 -98 29 -109l25 -94q4 -15 11 -44.5t11 -45.5q11 -38 33 -49q4 -1 20 -17q1 -1 5 -2 t6 -2l4 17q15 -20 16 -21q10 0 31 -1t31 -1q17 0 28 8q26 15 43 17q6 2 37 2q48 0 57 -2q12 -5 29 2l35 10q3 4 25 26q9 9 12 21q9 35 14 49q5 20 29 88q45 126 47 133l55 158q26 90 39 127q29 85 45 139q2 6 5 19.5t5 19.5q5 20 17 56t16 51q3 10 8.5 30.5t8.5 30.5 q7 26 20 72t18 65l15 52q3 15 11 44.5t11 45.5q8 49 2 73q-3 17 -14 19q-30 5 -35 8q-7 4 -16 -2q-2 -2 -14 -8l-19 14q-6 -4 -14 -12q-1 2 -4 5t-4 5q-5 -5 -11 -8q-2 2 -6 10l-14 -12q-1 1 -1.5 3t-1 3t-1.5 2q-14 2 -25 -12q-7 12 -10.5 13.5t-13.5 -1.5q-13 -4 -23 -2 t-18 -10q-5 -8 -9 -19l-20 -51q-41 -101 -61 -178l-19 -62q-31 -90 -37 -122q-2 -12 -10 -31q-17 -33 -25 -68q-19 -69 -26 -86q-4 -8 -4 -12l-19 -66q-7 -14 -10 -26q-1 -13 -4.5 -26.5t-10 -30.5t-8.5 -25q-20 -76 -38 -133z" />
<glyph unicode="W" horiz-adv-x="1693" d="M1622 1343q4 -8 10 -14l-12 -51q-1 -6 -6 -18.5t-6 -18.5q-4 -2 -5 -9.5t-4 -10.5q-1 -1 -8 -23q-2 -10 -7 -29.5t-7 -29.5q-6 -12 -10 -13q-3 0 -3 -2t3 -4l-8 -12q-3 -8 -5.5 -17.5t-6 -21t-5.5 -18.5q-3 -17 -10 -50t-10 -49q-3 -21 -19 -30h-4q3 27 8 43q5 10 2 22 q8 12 13 49q-13 -35 -13 -49q-6 -7 -2 -22q-8 -2 -8 -17l-18 -63q-4 -20 -13.5 -61t-13.5 -62q-7 -49 -14 -84q-1 -3 -5.5 -4.5t-4.5 -5.5q0 -13 -9 -19q0 -2 0.5 -5.5t0.5 -5.5t-1.5 -4.5t-5.5 -4.5q-4 -4 -4 -13l-6 -41q3 4 9 11.5t9 11.5q0 -10 -2 -12q-8 -43 -39 -160 q-3 -12 -8 -36.5t-8 -35.5q0 -4 2 -10q2 5 12 25v-4q6 -17 -2 -50q-14 -54 -16 -65q-4 -22 -8 -31q-4 -21 -2 -35q4 -14 -6 -24q-3 0 -3 -8q-1 -1 -2 -4.5t-2 -4.5q-21 -8 -24 -18q-6 3 -14 -2t-11 -6q-10 -5 -12 -4q-9 0 -14 -7q-4 -9 -15 -2q-6 9 -10 0q-6 -12 -18 -12 q-2 0 -4.5 -2.5t-2.5 -5.5q-3 -11 -6 -14.5t-12 -3.5q-19 3 -25 -15q-6 -12 -20 -8l-6 -20q0 1 -7.5 -0.5t-14.5 -2.5l-7 -2l-10 -4q-2 -1 -6.5 -4.5t-7.5 -5.5q-18 6 -45 12q-3 0 -10 -7t-11 -9l-27 8q-3 0 -9 4.5t-11 1.5q-16 8 -23 15l-16 18q-2 3 -6 9.5t-6 9.5 q-4 12 -4 16q0 5 -11 74l-30 159q0 1 -1 3.5t-1 3.5q-1 3 1 16.5t-3 17.5q-4 5 -9 31q-1 6 -4 18.5t-4 18.5l-12 65q-3 11 -8 34.5t-8 35.5l-5 10l-6 -6l-30 -127q-2 -6 -7 -16q-6 -9 -6 -21q0 -8 -4 -16q-19 -73 -24 -88q-9 -34 -35 -115q-5 -20 -5.5 -22.5t3.5 -20.5 q-12 -12 -21 -51q-4 -15 -10 -20v22q-8 -7 -18 -31q-7 -3 -7 4q0 2 1.5 6t1.5 5v2h-19q-1 -5 -4.5 -10t-6.5 -8t-8.5 -8t-7.5 -7q-17 -13 -30 -6l-6 2q-5 -8 -17.5 -8t-15.5 -2q-8 -5 -23 2q-10 7 -20 4q-15 0 -47 4q-17 4 -49 -4q-14 -7 -29 -4q-2 0 -6.5 -3t-7.5 -3 q-46 -3 -80 24q-25 19 -31 47q-6 23 -19.5 71t-19.5 71q-15 64 -33 159l-24 156q-1 6 -4 18.5t-4 18.5q-24 129 -39 219l-7 49q-3 33 -9 97.5t-9 97.5v10q-2 39 -6 121q-1 16 -5 48t-5 48q-4 24 -4 39q0 19 -5 31q0 2 1 6.5t1 7.5l35 12q4 -4 8 -6q14 7 17 8l14 6q3 0 9 2 t8 2q4 0 13 -1.5t13 -0.5q22 6 25 5q5 -1 14 3t14 3q11 0 27 -4q4 0 11 1t10 1q13 -3 22 -17q15 -31 33 -80q14 -45 26 -139l13 -76l18 -129q5 -47 45 -260q29 -153 35 -190q4 -19 8 -53q5 0 8 6q6 26 22.5 85t23.5 91q3 15 8 43.5t8 42.5q4 15 8 41l19 69q30 109 57 199 q3 12 7 25.5t9 29.5t8 25q12 28 21 39l20 -2q3 1 8.5 5t6.5 5q5 -3 4.5 -10.5t3.5 -9.5q5 0 7 5.5t3 6.5q4 9 10 0q12 -8 15 -2q6 8 22 8q1 -1 11 -16l4 10q6 6 14 6q21 0 29 8q2 -2 4.5 -5.5t3.5 -4.5h6q17 17 37 10q1 0 3 1t3.5 1.5t3.5 0t4 -2.5q1 0 5.5 2t6.5 2 q35 5 41 11q10 -8 15 -23q21 -69 28 -100q9 -25 15 -58l-6 -6q0 -6 4 -6q18 -3 10 -23q-6 -13 4 -20q12 -6 8 -18q0 -11 4 -23q12 -47 37 -134t35 -126q5 -19 25 -117l8 -31q1 7 6 21q2 7 11.5 46t13.5 60q12 62 16 91q13 95 43 211q29 115 53 190q2 4 2 10h-10h-2 q3 2 5 10.5t9 8.5q2 0 2.5 3.5t-0.5 4.5q-3 12 4 22q10 29 11 37q1 7 6 20t6 15q13 26 34 74.5t31 68.5q9 4 19 7q0 -1 4 -13q0 5 1.5 9t4 6t5.5 5l5 5l13 -10q4 12 14 12q2 -4 10 -12q2 1 5 4t5 4l23 -6l10 10q22 0 27 -4h12q12 -2 53 -23q10 -6 19 0q4 -10 8 -33z M1532 1081q8 0 4 6q0 -2 -4 -6zM1526 1051q2 0 2 2h-2v-2zM1499 920v2v-2zM1202 690q2 2 2 3.5t-1 2.5t-1 2q0 2 1 5t1 4q-10 -7 -2 -17zM1235 684v2h-2v-2h2zM1194 678v-2l2 2h-2zM1194 662l4 2q0 2 -2 4l-2 -2v-4zM1229 655v11h-2v-11h2zM1423 655h-2q0 -4 2 0zM1184 575 q4 11 8 41q-8 -6 -11.5 -20t-6.5 -18q0 -4 -6.5 -25.5t-4.5 -34.5q0 2 2 5t2 5q8 31 17 47zM1219 606l2 2l-2 2l-2 -2zM1214 590v2l-2 -2l2 -2v2zM1407 571q-3 -2 -3.5 -4.5t0 -4.5t1.5 -5.5t2 -5.5q1 3 3.5 7t2 5.5t-3.5 5.5zM1192 506q8 4 2 12q0 -3 -1 -6.5t-1 -5.5z M1386 483l3 2l-3 2v-4zM1186 473v2q-2 0 -2 -2v-2zM1372 416l2 2q0 2 -2 4v-2v-4zM883 389v12q-2 2 -4 2q0 1 -1 2.5t-1 2.5v-2q0 -5 2 -5h4q-1 -2 -2 -5.5t-2 -4.5q2 -2 4 -2zM1368 399l2 2l-2 2q0 -2 -2 -2zM1372 334q-6 -9 -6 -10q-2 -8 -12 -44t-13 -55q0 -1 1 -3t1 -3 q9 16 15.5 48t11.5 44q2 4 2 23zM1337 252q2 0 4 2l-2 2h-2v-4zM1327 233v11q-9 -5 0 -11z" />
<glyph unicode="X" horiz-adv-x="1173" d="M336 1452q-21 -14 -37 -22q-5 -2 -16.5 -10.5t-18.5 -10.5q-19 -5 -37 -20q-35 -23 -37 -25q-3 -3 -34 -18l-37 -23q0 -10 2 -14q14 -36 20 -49q11 -23 37 -79t41 -85q7 -16 43 -84q58 -101 96 -170q27 -43 60 -115q-1 -2 -4.5 -8t-5.5 -8l-132 -179q-49 -62 -53 -69 q-3 -5 -51 -72q-45 -67 -53 -82q-2 -3 -16 -28t-23 -37l-80 -97q-5 -6 -19 -21t-23.5 -26.5t-16.5 -23.5q-21 -29 -23 -49q7 1 8.5 -7.5t3.5 -9.5l15 -2q1 -2 4 -6t4 -6q-1 -3 -4 -8t-4 -8q1 -1 4.5 -4t5.5 -3h20v-12q4 -7 10.5 -13.5t14.5 -13t12 -10.5l19 6l4 -4l-8 -16 q3 -7 7.5 -9.5t11.5 -2.5h9v-13q3 -1 12.5 -4t14.5 -6q2 -2 5 -3.5t5.5 -3t4.5 -4.5t3 -7q5 2 25 12q15 -7 25 -10q12 4 16 8q19 15 24 22q5 5 27 30t33 38q4 5 14.5 16t17.5 21t11 22l6 9q25 32 53 63l10 12q3 4 9.5 12.5t9.5 12.5q2 2 5.5 7t4.5 7q6 16 24 40.5t21 29.5 q12 16 36 48.5t36 49.5q63 88 76 103q1 1 4.5 3.5t5.5 4.5q22 -36 27 -45q8 -15 36 -66t45 -78l21 -36q3 -5 14 -24.5t16 -27.5t14.5 -23t18.5 -26t19 -22l12 -13q7 3 11 2t14 -10q2 4 6 8q13 -4 14 -8q5 -15 12 -16q-2 6 -2 18q0 1 -1 3.5t-1 4.5q2 2 4 2h5l6 -12 q5 -14 8 -16q-2 23 4 35q7 -15 10 -25q11 0 19 16q4 -8 4 -10q5 -10 6 -14q2 5 5.5 10t4.5 6q1 4 2 12t2 11q0 13 6 16q7 -14 13 -24q4 17 8 43q16 -12 22 -15l9 2q1 2 2 9.5t6 9.5q2 -2 10 -6q1 2 4 5t4 5q15 33 31 65q7 19 2 35l-10 19q-17 33 -66 112q-5 9 -18.5 32.5 t-20.5 37.5q-36 62 -63 104l-76 125q-4 7 -12.5 21.5t-12.5 21.5q19 33 52 78l65 82l90 117q10 10 11 12q108 121 176 233q3 4 10.5 19t13.5 22q11 14 8 35q-9 16 -26 10q-9 9 -6 21q0 12 -6 16h-23q-2 8 -2 27l-14 -8q-2 -2 -11 -2v8q0 14 -8 20q-7 7 -22 0q-3 -2 -7.5 0.5 t-5.5 6.5q0 1 1.5 3.5t1.5 4.5t-3 4q-4 2 -10 2q-2 4 -2 10q-2 1 -5 1.5t-5 1t-2 1.5q-1 5 -7 4q-4 -1 -5 0q-7 10 -9 17q-13 0 -30 -13q-25 -20 -31 -26l-72 -84q-19 -24 -57 -68q-40 -49 -84 -96q-50 -63 -59 -76q-16 -21 -68 -78q-8 -13 -14 -14q-5 5 -5 8 q-101 163 -135 228q-36 71 -90 151z" />
<glyph unicode="Y" horiz-adv-x="1081" d="M973 1430q-23 0 -27 2q-9 3 -22 0q-27 -3 -54 0q-9 1 -26.5 -3.5t-22.5 -5.5q-4 0 -8 -4l-14 -18q-7 -9 -18.5 -26t-14.5 -21q-40 -65 -53 -84l-19 -31q-14 -24 -36 -72.5t-35 -72.5q-2 -2 -2 -4q-12 -33 -23 -48q-6 -5 -16 -24q-6 -9 -18.5 -30.5t-20.5 -31.5 q-5 -6 -33 -45q0 -2 -8 -10l-6 14q-8 19 -22 55.5t-19 49.5q-37 94 -84 186q-9 21 -29 58t-27 51q-21 41 -55 90q-18 28 -35 43q-20 -5 -24 -8q-3 -6 -11 -6q-9 0 -30 -17q-4 -4 -8 -4q-6 0 -7 0.5t-6 -3.5t-6 -5q-12 -4 -18 -8q-7 0 -9 -2q-3 -1 -6 -6t-6 -5q-1 0 -16 -10 q-6 -6 -8 -6q-8 -1 -15.5 -5.5t-11.5 -9t-10.5 -12t-9.5 -10.5t-3 -8q5 -32 7 -37q6 -20 28 -74q5 -12 18.5 -45t20.5 -51q10 -28 32 -83.5t32 -82.5q41 -112 78 -190q8 -17 24 -48t21 -42q5 -10 8 -13q11 -13 28 -47q5 -15 17 -35q12 -28 24 -38q11 -11 11 -29 q0 -7 -1 -22.5t-1 -22.5q0 -144 -5 -199q-4 -72 -8 -110l-6 -78q-4 -27 8 -41q16 -22 19 -27q24 -5 47 -2q9 3 18 0q4 0 12.5 -3t12.5 -3h27q6 0 10 4q14 11 33 0q9 9 14 8q9 -3 14 4q7 4 12 2h9q8 7 25.5 15t23.5 12q2 4 2 10q4 33 8 99q8 138 10 202q2 39 -2 117 q0 59 -2 90q0 11 4 15q8 8 21 38q18 40 33 70q62 111 67 119l45 80q51 82 55 90q18 32 39 76q9 20 54 118l47 97q35 71 43 104q5 35 2 47q-6 2 -22.5 3t-24.5 7q-2 -1 -13.5 -1.5t-17.5 -6.5h-2q-1 1 -6 11z" />
<glyph unicode="Z" horiz-adv-x="1091" d="M1030 1292v-6q3 -10 -4 -20q-5 -10 -8 -13v-6q0 -15 -8 -43l-11 -35q-6 -22 -20 -36q-6 -8 -27.5 -33t-31.5 -39l-11 -12q-7 -14 -8 -17l-92 -178q28 0 86 -4q9 0 25 -4q25 -7 28 -25q0 -2 3.5 -8.5t2.5 -11.5q0 -17 -8 -31l8 -12q-2 0 -6 -4q-5 -5 -2 -6q4 -2 0.5 -8.5 t-2.5 -8.5q3 -6 -8 -10q-3 -1 -4 -7t-4 -7q-6 -4 -6 -15q-3 -12 -13 -22q-7 -6 -16 -27q-1 -5 -16 -25q-2 -3 -13 -14q-8 -8 -28 -16q-6 -4 -21 -4q-66 -4 -100 -4q-8 0 -24.5 1t-24.5 1l-17 -29q-15 -30 -67 -113q-6 -10 -13 -21.5t-14.5 -24.5t-11.5 -19l-39 -62 q-2 -4 -7.5 -12t-7.5 -12h11q13 2 26.5 2t30 -1t25.5 -1q19 0 65 4q37 4 66 -2q20 -2 63 -2q70 -4 103 -4q27 0 47 10q20 -25 26 -31q6 1 17 2t16 2q10 -2 10 -14q-4 -29 4 -47l2 -2v-8q-3 -7 -2 -21.5t-2 -21.5q-11 -27 -6 -48q0 -12 -4 -16q-3 -4 -8 -18.5t-12 -20.5 q-7 -7 -11 -22q-12 -3 -22 2q-4 2 -12 2h-74h-76q-33 0 -49 -2q-52 -4 -80 -8q-19 -3 -37 0q-7 0 -16 -3q-6 -2 -21 -2h-88q-4 0 -13.5 -1.5t-18 -1.5t-15.5 3q-9 -4 -45 -4q-65 -6 -133 -6q-27 3 -61 -4q-27 -4 -80 -4q-13 0 -33 4q-15 17 -19 51v11q3 6 3 24q0 20 -5 27v6 q1 2 2.5 6t2.5 6q7 17 4 31v14v15q-4 12 -4 20q0 16 8 21q5 21 20 47l64 100q25 39 123 211q-14 1 -40.5 4t-39.5 4q-43 7 -70 23q-13 9 -8 16q-4 3 -3 11.5t-3 11.5q-3 1 -0.5 6t0.5 8q-1 3 0.5 4.5t5 3t4.5 2.5q0 1 -2 3.5t-3.5 4.5t-0.5 4.5t6 4.5l-4 10q2 1 7.5 2t8.5 2 q-1 3 -7.5 6t-8.5 6q1 1 1 4q0 2 1 2q4 4 4 15q0 1 10 6q-7 15 2 24q4 4 4 17q1 2 2.5 7t2.5 7q0 2 2.5 5.5t3.5 4.5q4 4 4 6q-5 12 10 19q1 1 2 5.5t2 6.5l39 6q9 0 27.5 1t27.5 1h94h74q4 4 8 15q10 17 37 65.5t43 73.5q15 23 82 135q3 10 8 17h-34q-29 -1 -85 -2.5 t-85 -2.5l-164 -6h-80q-4 0 -11.5 1t-11.5 1q-2 4 -2 9q-2 2 -2 6q1 8 2 24t2 23q0 2 1 4.5t1 3.5q3 1 10 2t11 2l-2 2q-3 1 -9.5 2t-9.5 2q-2 14 -2.5 16.5t2 16.5t2.5 16q3 40 3 82v15q4 8 18 8l47 10q24 4 68 8q9 1 67.5 6.5t89.5 6.5q119 5 144 4q8 0 25.5 2t25.5 2h115 q10 0 30.5 1t30.5 1q19 0 55.5 -1t53.5 -1q31 0 45 2q15 0 20 -10l14 -7q0 -1 1 -2t1 -2q-5 -9 -2 -12q4 -3 7.5 -12.5t5.5 -12.5q19 -22 16 -53q-4 -25 2 -37z" />
<glyph unicode="\" horiz-adv-x="1179" d="M1114 84q8 -8 0 -14q-2 0 -10 4q-17 8 -29 6q-5 -2 -12 6q2 -2 4 -2h2q0 2 -2 2h-4q-4 -4 -6 -8q2 -4 13 -16t13 -21q-1 0 -3 -1t-3 -1q-8 0 -12 2q-29 12 -31 12l15 -20q-5 2 -22.5 12t-27.5 12q5 -6 13 -23t16 -24v-4q-2 -2 -10 -6q-4 1 -8.5 4.5t-5.5 3.5 q-3 -1 -5.5 -2.5t-4.5 -2.5t-3 -1q-12 5 -43 14q-44 13 -61 15q-17 0 -29 12q-21 24 -39 51q-3 5 -10 18t-13.5 21t-15.5 12q-2 2 -2 9q4 9 -8 28q-18 18 -20 19q-11 11 -11 16q0 13 -12 29l-22 28q-8 11 -31 48q-21 32 -23 34q-12 11 -41 54q-2 3 -14 24t-18 33 q-18 39 -33 53q-4 2 -8 10q-1 3 -4.5 8.5t-4.5 6.5q-30 49 -41 65l-6 15q-7 27 -20 43q-22 26 -27 34q-8 12 -22.5 34t-22.5 34q-19 30 -43 76q-7 7 -10 16l-6 19q-7 17 -21 41q-18 30 -37 69q-2 2 -5 7t-5 6q-22 22 -31 49q-1 3 -3.5 9t-5 10.5t-5.5 8.5q-20 28 -22 47 q0 4 -5 9q-7 8 -20 39q-46 86 -64 131q-31 77 -38 102q-1 4 -3.5 14.5t-2.5 15t1 15.5q19 9 25 8q4 0 8 4q2 4 10.5 6.5t10.5 6.5q3 -2 5.5 -1t3.5 2t2.5 3.5t2.5 3.5l10 -4v10q8 8 9 8q4 1 28 15q10 8 39 8q4 10 7.5 12t15.5 0q0 1 1 4.5t1 5.5q33 -7 45 -26q8 -8 10 -9 q18 -12 31 -28q49 -63 135 -195q73 -111 102 -162q4 -6 76 -131q2 -3 10 -18.5t13 -22.5q2 -4 11 -22.5t17 -26.5q13 -13 19 -28q4 -11 30 -58q13 -17 13 -24q4 -10 10 -17q21 -30 27 -45q2 -6 10 -18q10 -15 10 -19q3 -20 20 -37q0 -1 -1 -3t-1 -3q18 -7 23 -22 q6 -18 25 -37q15 -12 18 -27q2 -7 7 -16.5t7 -13.5q7 -14 24 -38.5t21 -31.5q2 -4 5 -8t7.5 -9t6.5 -8l49 -82q2 -4 8.5 -13.5t10.5 -17.5t6 -16q0 -6 4 -6q6 -5 12.5 -18t11.5 -17q2 -2 2 -8q1 -6 6.5 -17.5t6.5 -17.5q13 -30 8 -43q-2 -3 -2 -20q2 -5 9 -12.5t9 -12.5 l-16 6q1 -6 8 -14t8 -14q-4 -1 -7 0t-6 3t-5 3q-10 10 -19 8q2 -3 3.5 -6t2.5 -6t2 -4q21 -21 29 -33z" />
<glyph unicode="_" horiz-adv-x="1515" d="M1448 115q3 -4 4 -8t1 -9t1 -8q-5 -5 -12.5 -8.5t-16 -6.5t-12.5 -5q-33 -10 -108 -21q-29 -6 -144 -16q-20 -5 -45 -2q-6 0 -8 -2q-19 -10 -53 -6q-5 0 -16 -1.5t-15 -1.5q-28 -6 -57 0q-3 1 -8.5 1.5t-8.5 1.5q-10 -1 -27.5 -3t-25 -2h-25.5q-36 -4 -448 -2 q-19 0 -31 -6q-5 -4 -18 0q-4 2 -8.5 3.5t-9.5 2.5t-7 2q-3 0 -9.5 -1t-9.5 -1.5t-6.5 -2t-5.5 -5.5q-2 -2 -8 -2q-6 4 -14.5 6t-15 1.5t-17 -1t-16.5 -0.5l-66 6q-14 7 -24 17q-8 12 -43 47q-6 4 -18.5 14.5t-18.5 14.5v12q-4 3 -17 8q0 8 2 12l3 2q3 -5 26.5 -1.5 t28.5 3.5q-7 7 -25 15.5t-22 11.5h24q-3 4 -7 7.5t-10 7t-9 6.5q-1 0 -4 3.5t-5 4.5v6q9 2 25.5 -1t20.5 -3q2 6 2 10v4h-2v-2v-2q-9 0 -9 8q-6 14 -20 21q-2 1 -4.5 3.5t-3.5 2.5q0 8 9 8h3q5 0 41 -6q2 -1 9.5 0.5t10.5 1.5q-2 5 -18 10q-1 1 -7 4t-7 6q6 3 17 2.5t17 2.5 q-2 0 -4 1t-3.5 2t-3.5 2.5t-3 2.5q5 1 15 -1t16 -1q11 5 14 12q4 6 9.5 9t9 4t13.5 2t11 1q5 3 17 4.5t18 4.5q4 4 6 2q6 -2 22 -0.5t23 0.5l6 -2q12 4 54 4q10 1 261.5 8.5t280.5 9.5q34 1 193 -4q138 0 235 -10q35 -10 41 -13q8 -4 13 -4q23 0 47 -24q-1 0 -4 -3t-4 -3 q9 -9 9.5 -12.5t-7.5 -12.5q15 -29 12 -39q1 -4 1.5 -14.5t2.5 -16.5q3 -5 -4 -12l-6 -6q2 -1 4 -3t4 -3l-2 -4l-1.5 -3t0 -3t3.5 -4q-4 -4 -0.5 -14t2.5 -13q-4 -4 0 -8zM111 215h-2h2z" />
<glyph unicode="`" d="M618 1473q-6 2 -24 4.5t-29 5.5q-32 14 -47 10q-9 15 -39 55q-29 47 -131.5 191t-132.5 174l-31 35q-2 2 -9.5 12.5t-12.5 15.5q3 5 9 8t18 5.5t14 3.5q4 -2 39 -17l-11 19q34 0 48 -2q3 -2 8 -6.5t10 -7t12 -3.5q-10 14 -16 25q8 3 18 3.5t24 -0.5t19 -1l15 -6 q6 -2 18 -10h8q-1 3 -4 9t-4 9q2 0 5.5 1t4.5 1q45 -4 64 0q16 0 33 -10q16 -11 30 -29q53 -61 97 -129t68.5 -122t41.5 -99.5t23 -70.5l6 -25l6 -6q4 -12 -4 -15q-12 -2 -27 -10q-4 -4 -6 -2q-8 2 -11 -6q-1 -1 -1 -2l-8 -4q-2 1 -9.5 7t-13.5 7q2 -6 2 -14l-16 6 q-1 -1 -1.5 -3t-1 -3t-1.5 -2q-2 0 -8.5 1.5t-8.5 0.5q-5 -4 -33 -4z" />
<glyph unicode="a" horiz-adv-x="1239" d="M1075 426l-12 37q-21 75 -29 100q-3 16 -10.5 44.5t-9.5 39.5q-1 5 -4.5 13.5t-3.5 9.5q0 10 -2 18q6 -6 2 -18q7 -4 8.5 -8.5t-0.5 -14.5q5 0 8 -6q2 -10 7 -29.5t7 -29.5q15 -57 27 -95q13 -45 12 -61h4q1 -3 4 -10t4 -10l19 -52q0 -7 6 -4q-8 28 -25.5 83t-25.5 83 q-23 80 -29 107q-3 6 -8 26q-15 61 -33 123q-9 30 -23.5 89t-17.5 69q-4 17 -15.5 67t-19.5 78q-3 10 -8 29.5t-8 28.5q-5 23 -29 106l-36 123q-23 67 -31 86q-7 23 -15 27.5t-32 1.5q-16 0 -19 2q-15 7 -28 -9q-11 14 -23 5q-8 -8 -14 -5q-8 2 -24 -2.5t-23 -3.5 q-10 -8 -25 -4l-18 -6q-20 -10 -29 -8q-4 -12 -4 -16h-33q-2 -4 -5 -11.5t-5 -11.5q-16 -36 -35 -98q-16 -51 -20 -76q0 -6 -2 -6q-7 -5 -11.5 -19t-5.5 -16q-14 -22 -12 -41v-4q-8 -9 -15 -28t-12 -27l-6 -17q-10 -42 -25 -67l-4 -17q-2 -6 -5 -18.5t-5 -18.5 q-12 -24 -16 -36q-5 -12 -11 -34t-13 -39.5t-17 -31.5l-6 -16q-3 -15 -17 -56q-4 -10 -10 -30.5t-10 -30.5q-7 -20 -19.5 -62t-19.5 -63q-6 -23 -29 -90l-49 -150q-9 -30 -16 -43q-13 -27 -23 -67l-24 -101q-1 -6 -3.5 -19t-3.5 -19q0 -24 21 -27q10 0 28 -4.5t25 -5.5 q2 -1 18 -5t23 -8q28 -8 39 -6l10 10q14 -14 17 -16h6q18 4 24 -2q0 -2 4 -2q26 4 29 16q3 7 13 26t14 30q35 99 67 170q1 3 4 7t4.5 7.5t2.5 7.5q4 1 12.5 2t11.5 2q13 2 36.5 2.5t31.5 1.5q7 1 21.5 1.5t26 1.5t21.5 4h7q17 1 51 2t51 2q8 0 16 4q12 3 34.5 3t27.5 1 q7 1 21.5 1t21.5 1q20 0 30 -4q11 -4 11 -13q-6 -23 10 -45q8 -11 8 -28q-2 -11 2 -31q0 -6 3 -18t3 -15q10 -34 11 -43q3 -8 8 -35q3 -2 7.5 -4t6.5 -4q4 -2 12 -10q2 1 6 2t5 2q21 -24 39 -24q10 1 41 -3q24 -4 34 -4q9 0 11 2q4 5 24 5q14 -2 23 -9q20 20 24 23l10 -10 q3 3 9 7.5t8 6.5q3 0 7 -5t7 -5q-4 16 2 39q9 0 15 -2q-4 16 0 20q0 30 -2 35q-1 5 -6.5 24t-6.5 29q-5 19 -12 23l14 -58v-18q-7 15 -14 45q-1 2 -2 6.5t-2 7.5l-49 168q-4 13 -11.5 38t-11.5 38zM512 541q0 12 2 18l25 80q13 34 16 47q3 20 16.5 54t16.5 44l30 84 q4 11 12.5 35t12.5 35q1 3 2.5 6t4 7t3.5 7q15 -30 15 -47q6 -39 18 -77q1 -6 5 -17.5t5 -15.5q0 -4 3.5 -14t2.5 -17q0 -8 9 -31l8 -32q4 -9 8 -31q2 -7 5 -21.5t5 -21.5q3 -27 21 -60q7 -13 -10 -20q-9 -2 -27 -2.5t-23 -1.5q-9 0 -27.5 -2t-27.5 -2q-3 0 -21.5 -3.5 t-21.5 1.5h-8q0 -2 -4 -2q-12 -4 -19 -2t-27.5 -0.5t-29.5 2.5zM942 918h2v-7zM950 889l2 -8h-2v8zM961 848q-9 7 -5 18q5 -15 5 -18q1 -1 2 -4.5t2 -5.5q-4 4 -4 10zM698 821v2h2zM977 784h-2v2zM983 766l-2 -2v2v4q2 -2 2 -4zM987 733l6 -2q10 -20 6 -29l-12 31v15h2 q0 -11 -2 -15zM1065 434v-2h-2zM1137 47v-2l-2 2q0 2 2 2v-2z" />
<glyph unicode="b" horiz-adv-x="1085" d="M86 1186v-25q0 -13 -1 -40t-1 -40q-8 -156 -4 -237v-121q1 -25 1 -71.5t1 -84t4 -71.5q4 -57 4 -170q1 -21 2 -62t2 -61v-56q-2 -15 2 -43q0 -13 17 -43l5 -1q5 -2 5 -7q0 -2 1 -4.5t1 -3.5l12 6q1 -7 5 -11.5t6.5 -5.5t8.5 -2t7 -1q22 -18 35 -27q14 0 16 4q10 10 21 2 l12 -10q1 1 3 2l3 1.5t2 0.5q2 0 10 -0.5t11.5 0t8.5 2.5t9 6h14q1 0 31 -2t45 -4q31 -2 92 2q3 0 9.5 1t11 0.5t8.5 -3.5h10q8 1 21 4t24 5t21 3q44 2 100 23q11 5 33.5 14.5t34.5 14.5l24 14q43 19 76 45l24 25q35 31 54 63q11 15 16 27q36 61 43 82l6 22q27 67 29 109 q5 61 -8 139l-6 35q-10 45 -25 76q-17 39 -57 90q-16 20 -35 32q-18 13 -21 23q1 1 2 5.5t2 6.5q9 19 11 27q4 13 20 88q10 68 10 121q0 76 -32 123l-6 10q-44 77 -136 135q-43 26 -145 59q-6 3 -12 3q-41 8 -125 8q-33 0 -99 -4q-58 -4 -86 -4q-7 0 -33.5 -4t-41.5 -3 q-28 -6 -80 -2l-13 13q-10 7 -18 4q-5 -2 -8 -6.5t-2 -8.5q4 -5 0 -16q0 -17 -6 -29q-4 -13 -2 -22q0 -2 1 -7t0.5 -8t-3.5 -6q-2 -1 -2 -5t2 -5q5 -7 2 -16q-2 -2 -2 -9q4 -4 -1.5 -9.5t-5.5 -8.5q11 -16 7 -25v-24q0 -2 1.5 -10.5t0.5 -14.5q-5 -13 16 -22zM373 895 q-3 19 -8 135t-3 133q12 4 17 4q36 4 63 9q31 3 62 -11q11 -3 41 -16q5 -1 12.5 -6t9.5 -6q36 -32 31 -70q-2 -11 -4 -33t-2 -24q-3 -20 -14 -33q-19 -23 -39 -33q-11 -7 -54 -26l-7 -4q-8 -3 -13 -3q-64 -13 -84 -16h-8zM391 303q-6 99 -6 100q0 34 -4 100.5t-4 100.5 q45 10 51 10q9 1 57 6.5t74 6.5q41 4 62 2q44 0 73 -29q24 -24 27 -51q4 -22 8 -64q0 -23 -10 -43l-19 -41q-4 -7 -11.5 -18.5t-8.5 -13.5q-36 -52 -102 -78q-6 -2 -17 -2h-45q-35 2 -110 10q-3 0 -15 4z" />
<glyph unicode="c" horiz-adv-x="1185" d="M922 1010l4 -4q1 0 6 -5q9 8 11.5 8.5t10.5 -5.5l13 -7q7 10 12 19q3 0 7.5 1t6.5 1q10 10 11 12q3 -1 8.5 -2t7.5 -2q12 8 16 12q24 14 39 35l10 10q2 4 11 14t12 17q10 16 16 35q-2 3 -7.5 17.5t-10.5 21.5q-28 44 -90 102q-1 0 -2 1t-2 1q-65 46 -111 70 q-60 28 -137 41h-41q-5 1 -15.5 2t-15.5 2q-20 4 -61 4l-47 -6q-59 -7 -105 -29q-15 -7 -88 -47q-53 -35 -80 -57q-56 -50 -100 -109q-2 -4 -6 -8q-34 -36 -55 -84q-5 -12 -14.5 -34t-14.5 -33q-24 -65 -41 -152q-6 -18 -6 -39l-13 -164q-2 -57 5 -143q0 -13 2 -19 q22 -88 36 -118q3 -12 9 -21q34 -75 49 -102q28 -54 57 -70l4 -4q15 -24 39 -39q11 -8 35 -23.5t35 -23.5q51 -34 139 -63q37 -12 96 -19q10 -1 30.5 -2t29.5 -2q22 -1 60.5 5t51.5 7q3 0 21 6q2 2 6 2q7 -1 33 9q26 11 45 22q6 4 26 14.5t29 18.5q15 14 66 49q5 3 14 10.5 t14 10.5q8 3 13.5 15t9.5 15q2 1 2.5 5.5t1.5 5.5q3 2 0.5 16.5t-2.5 17.5q3 35 -10 72q-19 48 -19 64q0 12 -8 16l-8 -19q-1 7 -1.5 19t-2.5 20t-8 13q-1 -1 -3 -1.5t-5 -1t-5 -1.5q0 14 -2 20q0 8 -8 4q-2 0 -4.5 -2t-3.5 -2h-4q-2 6 -2 16q-1 0 -9 -4q-1 3 -2 8t-2 7 q-3 9 -10 4q-1 0 -4.5 1t-5.5 1q-2 -2 -8 -14q-2 8 -2 18v16q-1 -2 -2.5 -7.5t-2.5 -7.5t-2.5 -6.5t-3 -6.5t-4 -4.5t-5.5 -4t-7 -2.5q-3 -1 -7 -7.5t-7 -8.5l-56 -45q-40 -27 -55 -35q-30 -18 -41 -21t-47 -5h-27q-40 0 -75 18q-46 23 -58 31q-48 27 -71 88 q-4 13 -11.5 38.5t-11.5 37.5q-9 24 -6 49q0 22 -2 34q-7 33 -4 78q3 76 16 168q9 46 27 90q19 45 71 105q5 5 11 8q42 30 63 33q1 0 7 3t10 3q32 11 41 12q133 15 217 -82q2 -2 7 -7.5t7.5 -8t7.5 -6t10 -4.5q1 -5 8.5 -4.5t10.5 -1.5q5 -11 20 -11q5 5 13 17z" />
<glyph unicode="d" horiz-adv-x="1218" d="M1155 817q6 -94 -10 -196q-12 -78 -12 -80t-23 -78q-32 -93 -66 -158q-2 -2 -7 -11.5t-10 -15t-11 -10.5l-12 -12q-9 0 -13 -2q-22 -3 -37 -21q-59 -68 -137 -108q-6 -4 -25.5 -16t-29.5 -17q-81 -43 -174 -67q-6 -1 -19 -5.5t-20 -5.5q-73 -19 -187 -30q-15 0 -43 -4 q-42 -2 -124 10l-60 12q-28 4 -45 16l4 11l-2 2l-4 2q-8 0 -8 8l8 8q0 5 -7 7t-7 7l24 7q-1 4 -3.5 5.5t-6 1.5t-4.5 1t-1 4.5t-1 5.5t-4 2l-6 4q2 7 -4 13t-7 8q2 1 5.5 4t5.5 4l-4 8q3 1 6 2.5t7 4t7 3.5q-2 1 -12 5.5t-15 5.5q1 6 7.5 9t7.5 5l-6 29q2 2 7.5 5.5t8.5 6.5 l-16 6q1 1 2 3t2 3t2 3q3 3 2 7q-6 19 14 31q8 8 8 19v190q0 28 -1 87t-1 89q0 35 4 113q0 51 4 157q0 17 -1 51t-1 52q0 30 5 182v43q5 123 6 146v12q-3 25 16 41q22 4 74 16q7 1 21.5 2t21.5 2q3 1 9 2t9 2h10q10 -2 12 -2.5t11.5 2t11.5 2.5q3 1 6 1t7 -0.5t6 -0.5 q5 0 36 3.5t48 3.5q12 0 51 3t51.5 2.5t52.5 -3.5q13 -2 40 -5.5t40 -5.5q52 -11 111 -41q79 -37 160 -102q47 -40 104 -123q63 -88 100 -207q25 -90 31 -176zM817 711q8 57 2 123q-9 105 -63 188q-24 43 -51 70q-45 42 -105 73q-29 13 -59 19q-16 4 -33.5 4.5t-40.5 -1 t-33 -1.5q-8 -2 -22 -2q-11 -4 -11 -13v-14q5 -57 5 -65l6 -134q0 -5 3 -47.5t3 -64.5l-6 -277v-120v-138q0 -8 2 -14q58 11 145 41q26 10 105 55q25 16 71 56q15 19 21 38q2 19 14 50q18 37 23 49q20 58 20 86q0 7 2 20t2 19zM1069 391v2q0 -1 -1 -3t-1 -3q-1 -1 -4 -5.5 t-4 -8.5h2q4 1 5 7l1 7q0 1 1 2t1 2zM1032 311q12 12 15 35l-9 -14q-2 -3 -12 -23q-4 -4 -4 -10l-4 -6q-6 -3 -6 -8q10 0 6 8q8 3 9 5t-1 11q1 1 3 1t3 1zM104 287l2 4l-2 2v-4v-2z" />
<glyph unicode="e" horiz-adv-x="1017" d="M406 571q2 1 5 2l4.5 1.5t2.5 0.5q141 6 155 5q15 0 19 4l12 12q2 4 2 18q22 7 25 25q3 17 16 59v11q-2 22 6 63q0 15 -6 19q-8 4 -12 24q-8 26 -35 29q-12 2 -37 2q-94 -4 -145 -4q-15 0 -19 4q0 188 4 282q0 5 3 11h18q14 2 41 2q3 0 9.5 0.5t12 0.5t9.5 -1h116 q8 0 21.5 0.5t25.5 0.5t23 -1q12 0 38 -1t38 -1q26 -4 37 -2q5 2 13.5 10.5t12.5 11.5q18 18 35 45q12 19 21 23q4 2 8 10q0 3 4 14.5t2 18.5l2 10q13 26 22 47q-9 21 -20 53q-5 15 -29 23q-5 2 -15 4t-11 2q-19 3 -113 8q-49 2 -145 2q-18 0 -55 1t-56 1q-39 0 -117 -4 q-44 0 -67 -2q-1 0 -35 -3t-51 -3q-28 0 -47 -16l-7 -23q-6 -18 -6 -20q0 -7 -4 -23q-2 -12 4 -24q-18 -18 -10 -29q0 -2 -2 -2q-4 -4 -4.5 -8.5t1 -10.5t1.5 -8v-8q-1 -2 -2.5 -5.5t-2.5 -6.5t-1 -6l2 -21q0 -12 4 -18q11 -11 8 -25q0 -17 -4 -57l-12 -154q-2 -45 -6 -139 q-5 -73 -2 -168q6 -189 6 -193q2 -62 -2 -184q0 -12 -2 -16q-3 -8 -5.5 -24.5t-5.5 -24.5q0 -3 3 -11.5t4 -11.5v-6q-5 -7 0 -16q9 -10 0 -19q-7 -7 -3 -10q3 -3 3.5 -7t0.5 -9.5t1 -8.5q2 -6 2.5 -16.5t1.5 -13.5q0 -4 10 -29v-8q3 -18 18 -21q65 -14 142 -4q21 4 65 8 q47 0 70 2l123 6q139 4 209 -2q27 -4 39 13q1 2 4 3.5t4 2.5q8 4 10 8q28 32 41 80q10 29 2 49q0 2 1 6t1 6v45q-15 15 -16 19q-2 8 -11.5 19t-11.5 16q-2 2 -10 6q-25 14 -49 14l-50 1q-49 0 -49 -1q-118 -3 -239 -12q-1 0 -2.5 1.5t-3.5 2.5q-1 15 0 44.5t0 43.5 q0 63 -2 94q0 30 -4 92z" />
<glyph unicode="f" horiz-adv-x="1085" d="M1024 1260q-1 1 -2 4t-2 4q-16 25 -12 45q2 4 -2 16q-12 18 -15 21q-4 4 -7 9t-6 11.5t-5 9.5q-5 17 -10 21q-13 19 -43 22l-82 7q-96 6 -191 0q-106 -9 -143 -9q-36 0 -66 -6q-35 -4 -100 -4q-44 0 -64 -2q-15 -1 -43.5 -5t-42.5 -5q-19 -1 -69 -19q-13 -3 -13 -16 q-2 -8 -2 -29q0 -15 -10 -32q-15 -18 -18 -43q-3 -38 2 -68q5 -27 2 -66q-2 -18 -2 -53l-6 -74q-4 -53 0 -79q2 -38 -2 -115l-7 -113q0 -8 -1 -23.5t-1 -23.5v-98q0 -15 1 -47t1 -47q0 -13 1 -37t1 -43t-2 -35v-16q7 -18 3 -58v-28q-3 -59 -3 -115q-3 -30 0 -60 q0 -35 23 -61q4 8 12 20q16 0 31 3l12 -13q10 9 14.5 9.5t14.5 -7.5q3 2 7.5 9.5t10.5 7.5q9 -9 11 -13q5 6 14 11q4 2 18.5 5t20.5 9h4q1 -2 4 -6t4 -6q2 1 5 5t4.5 4t7.5 -3q4 2 4 4q4 4 4 8l12 -8q3 3 11.5 5.5t11.5 6.5q9 9 22 0q5 -5 14 0l19 12q1 -1 4 -2t4 -2 q23 12 35 21q2 0 8 6q13 21 16 31q5 10 5 14q0 21 -1 65t-1 66q0 27 2 41v76v108l2 9h2q5 0 16.5 -0.5t17.5 -0.5t14.5 1.5t14.5 5.5h6q25 2 74 2q12 0 34 -1t34 -1q29 0 43 2q9 0 11.5 3.5t2.5 12.5v8q-6 22 10 41q6 6 6 11q0 3 2.5 21.5t-0.5 23.5q0 10 2 12q5 8 5 33 q0 12 4 28q4 23 8 33q-2 2 -12 17q-16 16 -5 32q6 10 -2 29q-10 18 -39 47q-12 12 -28 12q-28 -6 -60 -2h-22q-92 -8 -133 -10h-15v64q0 10 -1 31.5t-1 31.5q-1 6 -3.5 20t-3 21.5t0.5 22.5q23 -5 31 -3q10 0 78 5q4 0 8 4q4 6 18 6h17q49 0 147 4q31 0 178 -10l50 -6 q20 0 26 18q0 2 1 7.5t1 8.5q4 22 15 31q9 12 6 27q-2 20 -2 57q-3 23 6 41q4 9 8 23z" />
<glyph unicode="g" horiz-adv-x="1314" d="M1169 1096q1 5 3.5 10.5t3.5 7.5q0 6 8 6q4 0 4 4q4 5 10 17.5t10 17.5q5 7 12.5 24.5t12.5 24.5q6 12 2 27q-9 33 -18 43l-35 49q-30 45 -95 92q-62 37 -88 43q-92 26 -149 33q-90 13 -164 -12q-24 -8 -65 -19q-74 -23 -115 -45q-8 -4 -23.5 -13t-23.5 -13 q-97 -50 -187 -150q-44 -49 -108 -147q-36 -49 -60 -123q-15 -45 -24 -94q-25 -108 -17 -187q5 -40 5 -47q0 -19 8 -59q12 -56 16 -80l12 -49q10 -35 46 -101q56 -101 151 -196q24 -24 45 -37q35 -29 115 -70q2 -1 9.5 -6t12.5 -6q16 -7 41 -14l76 -21q27 -6 78 -6 q27 3 55 0q19 0 29 4l12 4t13.5 5t11 6t10.5 10q1 1 5.5 2t6.5 2l58 6q126 25 194 74q29 19 37 22q14 5 25 19l12 12q11 15 41 49q13 16 4 37q-1 1 -2 4.5t-2 5.5q6 11 35 35q15 13 22 39q0 6 2 10q6 14 6 45q-2 47 -2 144q0 21 0.5 60t0.5 72t-1 62q0 71 -22 145 q-7 21 -12 31q-40 4 -60 4l-135 6q-147 3 -264 -10q-67 -4 -105 -20q-10 -8 -10 -39q-1 -1 -3.5 -1.5t-4 -2t-0.5 -4.5q2 -5 -1 -10t-3 -7q4 -8 8 -12q-12 -15 -12 -35q0 -4 -4 -12l10 -10l-10 -7q-1 -9 3.5 -13.5t12 -7.5t10.5 -7q-2 -3 -12.5 -6t-11.5 -11q2 -2 10 -6 l-14 -18q4 -4 10.5 -11t9.5 -10q-4 -4 -4 -8q-3 -13 10 -20q19 -9 25 -11q4 0 27.5 -3t37.5 -3q94 -3 193 0h14q-2 -35 -5 -105t-5 -106q-89 -44 -154 -39q-17 1 -53 1t-53 1q-62 0 -117 52q-19 19 -47 59q-32 46 -45 90l-12 47q-15 44 -15 92q-2 34 11 117q12 48 24 74 q24 53 66 111q13 18 47 61q37 42 98 72q41 23 82 20q38 0 76 -6q54 -10 80 -51q1 -1 8 -10t9.5 -12t8 -9.5t11 -10.5t12.5 -7l18 -15q14 6 21 23q10 -10 16 -19q9 5 12 2q3 -6 9 -6q11 2 16 21q4 0 4 2q1 -1 3 -1.5t3 -1t2 -1.5q4 6 12 14q4 -3 7 -13t8 -14q0 3 1 7t1 6v20 q1 0 3 1t3 1q4 0 4 -2q3 -6 6 -18q2 4 4 12.5t4 11.5q0 2 11 23q14 -9 14 -12q0 -2 4 -2l6 16q1 -2 3 -5t3 -5z" />
<glyph unicode="h" horiz-adv-x="1202" d="M115 1438q-11 -37 -11 -66l-6 -78q-4 -47 -8 -141q-1 -21 -2 -62.5t-2 -62.5q-1 -33 -2 -98.5t-2 -98.5l-6 -194q0 -45 -2 -68q-1 -12 -2.5 -33t-2.5 -38t-1 -33q-5 -170 -5 -203v-33q-4 -69 3 -108q0 -19 14 -25l43 -24q4 -4 10 -4q12 -2 23 -17q16 8 24 10q1 -1 3 -2 q3 -1 3 -2q10 -12 39 -12h23q3 0 9 -1t9 -1q8 0 24.5 1t24.5 1q12 -2 29 2q15 6 18 21q0 8 5 28q12 63 16 193q1 25 1 75.5t1 75.5v11q0 40 4 118v41q6 2 14 2h27q73 6 156 9h98q56 0 109 -3q4 0 12 -1t12 -1q2 -10 2 -30q0 -78 -2 -117v-53q-10 -170 -12 -205 q-5 -72 -4 -86q0 -40 12 -62q46 -32 59 -40q7 -7 13 -7q6 2 10.5 -2.5t7.5 -5.5l6 10q30 -5 37 -12q4 -2 6 -2q8 -1 24.5 -2t24.5 -2q12 6 21 12q8 -8 12 -6q5 1 15.5 2.5t19 3.5t14.5 6l25 13q1 7 4 21.5t4 21.5q5 27 0 35q-2 4 -2 10q1 15 4 46t4 48q10 120 11 149 q0 42 6 82q4 25 0 35q-4 12 -4 33q2 8 2 27q0 46 -2 69q0 66 -2 80q-5 59 -5 141l-2 59q-1 58 2 58v6q0 14 -1 44t-1 44q-2 80 -2 244q-4 82 -14 121q-2 10 -10 35q-4 14 -17 14q-22 0 -32 2h-15q-4 2 -26 2q-21 5 -27 2q-4 -1 -11 1t-11 1q-9 -8 -17 0q-5 5 -10 -4 q0 -2 -4 -10q-4 4 -19 14l-18 -6q-32 -3 -35 -35q0 -6 -18 -149q-3 -25 -13 -160l-6 -166q0 -4 -1 -11t-1 -11q0 -9 -4 -25h-63q-105 9 -211 6q-20 -1 -61 -2t-62 -2q-21 0 -31 4q-2 6 -2 17q-1 15 -2 42t-2 42q0 32 -4 98q-4 70 -2 106q0 36 -2 52q-1 18 -4 51t-4 51 q-2 27 -13 68q-3 9 -5.5 10.5t-12.5 3.5q-7 1 -19.5 1t-22.5 1t-18 4h-4q-49 4 -73 0q-8 -1 -29.5 -0.5t-28.5 -1.5q-11 -2 -24 -12z" />
<glyph unicode="i" horiz-adv-x="450" d="M133 1378q0 -6 -4 -18q-1 -13 -4 -41t-4 -43q0 -1 -6 -92q-3 -38 -9 -72q-2 -25 -7 -70.5t-7 -66.5q-6 -72 -14 -223q-1 -29 -2 -88.5t-2 -88.5q-2 -51 -2 -157q-4 -82 -4 -125q0 -103 -2 -154q0 -8 -3 -14q-6 -25 9 -43q1 -2 2 -6t2 -6q16 -24 28 -31q12 -4 19 -14 q5 -9 22.5 -14.5t22.5 -10.5q3 3 10.5 3.5t9.5 4.5q9 9 19 2q8 -4 14 0q11 0 15 -2q14 -7 32 4q1 0 8 4.5t8.5 4t10.5 -0.5l24 19q1 1 4.5 2t4.5 2q9 3 14 8q8 8 14 12q20 10 17 31q0 12 1 34t1 34q0 3 3 35t3 49q1 19 2 54t2 54v92q0 16 1 48t1 47q0 32 -4 98v66 q2 37 2 108q0 54 -4 160q0 41 4 123v57q4 50 4 76q0 52 -6 104q0 31 -10 49q-7 4 -31 4h-23q-8 3 -34 3q-12 4 -19 4q-23 0 -30 -4q-5 -2 -7 0q-7 7 -18 0q-9 -3 -16 -3q-18 5 -27 -2q0 -2 -4 -2q-7 2 -10 2t-10 -2.5t-11 -3.5z" />
<glyph unicode="j" horiz-adv-x="1030" d="M825 1415q-25 12 -37 4q-2 -2 -8 -2q-7 1 -22.5 -1.5t-22.5 -0.5q-1 1 -2.5 0.5t-3.5 -1.5t-4 -1l-14 -6q-26 -7 -29 -29q-4 -17 -8 -55l-12 -121q-1 -17 -4.5 -48t-4.5 -48q-2 -26 -5 -79t-5 -79q-1 -20 -4 -61t-4 -62q-8 -123 -10 -192q-3 -81 -29 -178 q-14 -56 -49 -109q-11 -14 -27 -14q-35 0 -53 4l-29 6q-33 2 -82 31q-6 3 -26 15t-31 18q-18 9 -27 24q-18 31 -26 41t-25 27q-8 5 -16 0q-1 -2 -4 -9t-4 -12h-17q-11 -19 -28 -43q-5 -5 -5 -14l-2 -8q-8 -4 -14 -6q-1 -1 -2 -5t-2 -6l-4 -6q-10 0 -10 -10v-10q-8 -4 -11 -4 q-1 -5 -4.5 -13.5t-3.5 -9.5h-10v-10q-6 0 -10 -2v-15l-8 -4v-14q-7 -11 2 -33l12 -37q4 -8 12 -28q18 -40 60 -82q92 -92 184 -109q74 -15 117 0q6 4 18 0q12 -6 25 -6q54 -3 116 10q26 7 80 33q46 23 88 61q44 39 94 123q45 83 68 195q11 65 14 151q6 129 9 267 q1 38 2 113t2 112q0 96 -2 145q-3 99 -21 168l-6 27q-6 14 -22 14h-21h-33q-10 -7 -24 0q-6 3 -15 -6z" />
<glyph unicode="k" horiz-adv-x="1169" d="M711 182q0 -1 -1 -3t-1 -3q3 -28 16 -61q10 0 16 -2q1 -3 4.5 -13t4.5 -16l-2 -2q-3 0 -7 5t-8 5l6 -45l4 -6q5 0 11.5 -6.5t11.5 -7.5q1 -3 2.5 -4t3 -1t3 0.5t3.5 1.5t4 1l21 -21h10q10 -5 12 -4q2 2 9.5 2t9.5 4q8 -2 24 -2q20 0 23 2q4 2 27 8q4 1 12 1.5t13 3t9 8.5 q0 2 4 2q2 1 6 2t5 2q3 2 8.5 7t8.5 6.5t10 3.5t12 -1h2q12 8 14 10q6 6 6 21l31 16q-1 4 -2 13t-2 12q6 6 8 10q4 4 0 8q-13 51 -21 64q-5 10 -9.5 21.5t-9.5 26t-9 23.5q-15 33 -40.5 97t-37.5 92q-61 138 -82 182l-43 88q-5 11 -15.5 32.5t-15.5 33.5l-8 14 q-7 6 -10.5 14t-5 22t-2.5 17q3 3 3.5 7t0 6.5t-2 8t-1.5 7.5q-2 7 4 16q12 16 35.5 48t35.5 47l58 67q18 20 52.5 62.5t53.5 62.5q37 37 103 115q7 7 10 16q3 8 -1 16t-11 9l-15 6q-2 2 -7.5 4t-6.5 2q-2 0 -31 -10q0 14 -2 18q-1 1 -3 1.5t-3 1t-2 1.5q-1 7 1.5 19 t2.5 21.5t-6 17.5q-7 0 -21.5 -1t-21.5 -1q-14 0 -25 -11h-2q-6 3 -12 9q-2 -1 -7 -4.5t-6 -3t-7 2.5h-11q-7 0 -22.5 -1t-22.5 -1q-10 0 -29 1t-28 1q-6 0 -8 -2l-27 -18q-5 -5 -13 -15t-15 -18t-13 -14q-3 -4 -21.5 -27.5t-27.5 -34.5l-147 -157q-65 -68 -129 -158 q-6 -6 -15 -18q0 2 -1 10t-1.5 10t-3 6t-6.5 6q-2 2 -2 11v28q0 4 -1 12t-1 11q-3 6 2 8q0 -3 1 -9t1 -9q0 -6 1 -19.5t1 -19.5t8 -2q-5 27 0 36v9q-5 16 -4 20q3 14 -4 21q5 5 1.5 33.5t-3.5 33.5q3 38 -2 68q-11 97 -12 102q-6 34 -9 70q-4 31 -16 41q-33 0 -51 -2 q-21 0 -31 -2q-57 0 -86 -8h-10q-11 2 -58 -3q-8 -16 -8 -20q-4 -32 -8 -84q-4 -45 -8 -135l-6 -144q-4 -124 -8 -180q-5 -66 -5 -159q1 -40 11 -240q2 -49 2 -148q-4 -122 -4 -188q0 -8 2 -12q1 -6 2 -19t2 -20q4 -26 8 -41q10 0 10 -2q4 -8 19 -8q6 0 29 -1.5t36 -0.5 q11 2 66 2q45 3 69 12q6 2 17 2q9 -3 24 1.5t19 4.5q35 24 35 55q0 13 4 19q3 2 2 8t2 8q5 7 -2 21q-15 19 -15 39q-4 66 -4 102q0 1 1 2t1 2q2 -2 6 -2q0 3 1 7.5t1 9t-2 8.5q-2 -2 -3.5 -5t-2.5 -4q-12 69 -2 107v-45q6 9 6 10q0 4 -1 14t-1 15q0 6 -2 8q-5 5 -6.5 10.5 t-2.5 15t-1 11.5q-2 13 8 31q4 11 11 16q6 3 15 12.5t13 12.5q37 27 74 71q16 20 27 31q2 4 8 10l4 -2q8 -19 25.5 -57.5t25.5 -57.5q2 -4 6.5 -19t9.5 -22q2 -4 6 -18t9 -20q4 -4 4 -15q-2 -9 4 -18q12 -16 8 -29q0 -4 2 -6q6 -6 12 -20t9 -19q3 -3 5 -7t4 -9.5t3 -8.5 q5 -21 8 -28q9 -23 21.5 -65.5t17.5 -57.5q4 -16 2 -27q-2 2 -12 33q0 5 -6 8zM373 1083v19h2v-19h-2zM381 961v16h2v-16h-2zM733 127q2 2 2 4zM754 66h-2l2 2q2 -2 0 -2z" />
<glyph unicode="l" horiz-adv-x="833" d="M84 1442q0 -9 -4 -25q-8 -104 -10 -151q-4 -66 -4 -97q0 -81 2 -122l6 -263q0 -18 1 -51t1 -51v-160q1 -33 2 -99t2 -99q0 -50 -12 -103q-1 -6 -1 -20t-1 -21q-1 -1 0 -4l2 -4l6 -10q-1 -1 -3.5 -2.5t-3.5 -2t-2.5 -2t-1.5 -2.5v-3q0 -9 3 -15q1 -3 -2.5 -7t-0.5 -7 q2 -2 0 -2q-3 -3 -2 -6.5t2.5 -5.5t4.5 -4.5t4 -4.5q-1 -2 -2 -6t-2 -7t-2 -5q-6 -10 0 -19q4 0 2 -8.5t-2 -9.5q9 -9 10 -12q8 -14 26 -17q12 -4 17 -4q30 -4 82 -8q104 -6 223 4q94 8 141 4q53 -3 107 0q25 6 28 8q0 8 15 23l12 12q4 6 12.5 18.5t12.5 18.5q10 14 8 23 q0 14 6 20q6 9 6 35v12q2 9 -2 21q-6 12 -6 22q3 7 0 10q-5 6 -8 19t-4 14q-6 14 -11 17.5t-18 3.5q-21 -1 -115 4l-66 1q-66 2 -67 -1q-10 0 -30.5 -1t-32.5 -1q-9 0 -15 2q0 3 -1 8t-1 8v53v295q0 71 -8 211q-2 47 -10 146q-9 69 -15 145l-6 86q-8 129 -26 193 q-4 17 -11 30q-9 19 -14 22t-26 3h-23q-23 -10 -45 -10q-15 -1 -41.5 -10.5t-40.5 -10.5q-7 -1 -45 -18z" />
<glyph unicode="m" horiz-adv-x="1404" d="M1329 1411h14v-104q-4 -90 -4 -136q-2 -29 -2 -84v-108q-2 -20 -2 -61q-1 -4 -2 -13.5t-2 -13.5q0 -2 -1 -6.5t-1 -7.5q1 -8 1 -17.5t-0.5 -21t-0.5 -17.5q-2 -20 -2 -114q0 -15 1 -51.5t0.5 -63t-3.5 -51.5l-6 -86q-6 -80 -6 -160q0 -41 -4 -115q0 -6 1 -18.5t1 -18.5 q-1 -4 -1.5 -15.5t-1.5 -19.5t-5 -14l-9 -2q-8 -25 -34 -22q-5 0 -13 -4q-6 -1 -20 -8t-21 -7q-2 0 -12 -10q-14 9 -23 2q-13 -7 -41 -4q-17 0 -20 -2q-4 -4 -8 0q-6 2 -22 3t-25 7l-8 14q-2 0 -7 -1t-8 -1q-1 1 -4 5.5t-4 7.5q-2 1 -5 6l-3 4q-6 3 -9 8t-4 9t-1.5 11 t-0.5 9q-4 25 9 35q5 -1 4.5 -6.5t1.5 -8.5q0 1 1 2t1 2q4 33 8 107q4 45 8 143q0 27 2 41q2 12 3 35t3 35q6 69 9 133q0 37 -2 57q-3 31 0 62q0 6 -2 10q-4 0 -5 -0.5t0 -3.5q0 -6 1 -19.5t1 -19.5q0 -2 -4 -10l-4 35q-2 2 -8 -5q-22 -21 -39 -53q-8 -16 -16 -18l-10 -27 q-3 -4 -10 -4t-9 -4q-3 -2 -0.5 -8t2.5 -8q-15 -31 -41 -74q-16 -29 -37 -53q-3 -5 -10 -14.5t-10 -14.5q-5 3 -8 0l-2 -2l4 -2l6 4q-1 -3 -4 -9.5t-4 -9.5q-7 4 -11 -4q-11 -33 -38 -41l-35 -6q6 8 16 23v8h2h4l-2 2l-2 -2q-7 1 -16 -5t-13 -7q-2 1 -4.5 5t-4 5t-7.5 0 q-8 12 -10 14q-2 0 -6 -1t-6 -1q-11 0 -15 -2q-2 -2 -6 -2q-9 3 -26.5 3.5t-24.5 2.5q-13 4 -19 2q-15 -3 -26 15q0 10 -2 12q-5 10 -25 45q-18 32 -28 55v4q8 -4 12 -8q-3 -11 10 -20h8q-2 2 -5 7t-5 7l-8 8q-1 8 -10 22t-9 15l-69 135q-21 41 -45 78q-4 -1 -4 -4v-4 q-7 -3 -7 -23l-6 -137v-29l-6 -180q-2 -20 -2 -63q0 -15 -2 -43t-2 -43q0 -23 -4 -66.5t-4 -66.5q0 -8 -1 -25t-1 -25q-5 -32 -10 -40q-2 -3 -7 -23l-69 -27q-36 -12 -58 -10q-4 0 -27.5 -2.5t-27.5 0.5q-2 2 -6 -2q-10 -7 -16 4h-4q-5 -4 -8 1l-3 5q-4 0 -8 -2q-2 4 -2 15 q-4 1 -9 -3t-9 -4q-7 14 -9 17q-2 0 -10 -4q-4 2 -10 10.5t-12 9.5q-1 6 -4.5 15t-4.5 12v35q1 5 4.5 21.5t6.5 25.5q6 14 2 35q-2 15 2 71q0 6 2 6q8 8 8 35q1 21 2 61t2 60v27q1 11 3 33.5t3 33.5q0 2 2.5 14.5t-0.5 16.5q-2 8 -2 31q0 27 2 39q2 10 2 30q-2 8 2 29 q0 3 1.5 10t2 11t0 9.5t-3.5 10.5q-3 3 2 8q3 5 0 8q-4 10 -4 29q1 17 2 51t2 51q1 11 2.5 34.5t2.5 35.5q4 101 10 150q2 18 5 56t5 56q1 13 4 40t4 42q2 15 5 45t5 45q0 4 5 19q5 12 11 15.5t19 0.5q7 0 11 4q0 4 6 4q14 -7 26 0q5 -1 25 4q12 0 18 -2q12 -3 21 0h22 q4 4 8 6q11 8 25 5q22 -9 29 -9q9 0 16 -10q1 -4 4 -12.5t4 -12.5q5 -16 19 -34q25 -32 37 -60l10 -16q48 -73 123 -211l41 -80q4 -7 12 -21.5t12 -21.5l21 -39q14 -7 14 -18q3 -11 12 -23q3 -4 5 -8.5t4.5 -9.5t3.5 -8l18 -23q2 -2 2 -8q19 0 25 16q5 10 20 32.5t21 35.5 q2 3 8 9t8 9q5 9 19.5 27t19.5 29q5 13 20 24q11 11 23 31q2 4 7.5 11t9 14t3.5 14q1 2 3 2q6 4 13 16.5t13 16.5q4 0 4 6t2.5 12t7.5 13.5t7 11.5l67 104q2 4 6 12.5t6 12.5l5 10h-5v-10q-6 0 -10 -2q0 8 2 10q27 41 33 86q2 14 10 33q4 15 17 12q2 0 5 3.5t5 4.5q4 4 10 4 q1 1 5.5 -4t8.5 0q5 6 17 0q2 0 7 3t7 3q13 -9 35 6q1 -4 2 -10.5t2 -9.5q3 1 9.5 7.5t11.5 6.5q8 0 24 4q4 1 8.5 -0.5t10 -5t8.5 -4.5l8 6q10 7 18 4q2 0 10 -1t12.5 -2.5t8.5 -6.5zM918 1018v2q-3 0 -3 -4zM901 999v-2l2 2v2q-2 0 -2 -2zM895 987l-2 -2h2v2zM885 975 l-2 -2q0 -2 2 -2l2 2zM784 827q9 8 20 28.5t15 25.5l-4 4q-6 -6 -12 -15q-12 -20 -19 -34v-9q-6 0 -8 -2q-16 -16 -22 -37q5 0 8 3q8 8 22 36zM1028 793q0 2 2 4q-2 0 -2 2q-17 -14 -45 -56t-31 -59q2 -2 2 0q10 14 34.5 51.5t39.5 57.5zM938 662q9 0 6 14zM928 649 q8 4 8 10q-2 -4 -8 -10zM903 602q8 0 8 10q-8 0 -8 -10q-16 -16 -12 -29q-6 -1 -10 -14q3 2 6 7.5t4 6.5q1 2 3.5 6t4.5 7t3.5 7.5t0.5 8.5zM877 555h2v2q-2 0 -2 -2zM864 522q6 11 2 17q-3 -4 -12.5 -16.5t-15 -22.5t-7.5 -21q8 8 33 43zM623 467q-2 -6 -2 -10q2 0 2 -2v12 zM811 451q1 2 4 5t4 5l-2 2l-10 -10l2 -2h2z" />
<glyph unicode="n" horiz-adv-x="1282" d="M1221 1325q1 -19 1 -40.5t-0.5 -48.5t-0.5 -42q-1 -17 -11 -94q0 -9 -2 -13q-4 -5 -5 -12t-1.5 -17t-1.5 -14q-1 -24 -4 -70.5t-4 -68.5q-2 -27 -10 -96q-2 -16 -3 -34.5t-1.5 -41.5t-1.5 -35l-7 -57v-35q0 -12 -2.5 -40t-1.5 -44q0 -20 -2 -58t-2 -56q-2 -18 -2 -54 q0 -10 -1 -29t-1 -28q-4 -46 -4 -68l-6 -53v-39q0 -4 4 -24q-1 -1 -2.5 -6.5t-3.5 -8.5q-4 -11 8 -16q-3 -5 -8 -13t-6 -10q-9 -4 -34 -13t-38 -15q-2 -1 -13.5 -3.5t-17.5 -7.5q-6 -3 -16 7q-17 -10 -35 -13q-19 -4 -26 -3.5t-21 7.5l-10 -10q-3 0 -7 4.5t-8 3.5q-6 0 -8 8 t-4 9q-4 -1 -6.5 -8.5t-7.5 -8.5q-3 3 -3 11.5t-3 11.5l-7 -6q-1 0 -10.5 8t-17.5 8q-15 34 -15 55q0 5 -2 7q0 18 -20 18q-4 -2 -12 2q-29 21 -47 23q-7 2 -15 10l-24 37q-21 34 -62 101t-61 101q-2 3 -6 10t-7.5 13.5t-7.5 11.5l-75 148q-4 9 -27.5 57t-34.5 74l-6 12 q-6 -7 -6 -29q-4 -102 -4 -153q0 -25 -4 -76t-4 -76q0 -16 -5 -104l-6 -43q-1 -17 -3 -49.5t-3 -48.5q0 -8 -1 -23.5t-1 -22.5v-10q2 -15 1.5 -19.5t-4.5 -18t-5 -17.5q-6 -21 -29 -21h-2q-28 6 -47 -10q-9 -6 -16 -2h-6q-25 -4 -39 -2q-27 0 -39 -4l-11 2q-14 2 -38 6 q-14 4 -17 15h-4q-1 -1 -3 -3.5t-3 -3.5q-13 9 -23 9q-21 11 -34 45q-7 14 -7 43q0 16 5 108l6 86q2 10 2 33q2 41 7 120.5t7 117.5q6 143 6 145q4 141 10 211q2 26 8.5 76t8.5 75q9 82 24 160q7 32 29 115q8 30 27 59q4 1 9 1h8t7.5 1t7.5 4q2 2 13 2q29 -3 59 7q6 3 12 0 q17 -7 45 -4q33 4 52 -3h16q8 -2 23 -2q4 -11 0 -24q-9 -23 4 -45q34 -55 65 -115q25 -50 92 -174l37 -74q22 -43 60.5 -124t48.5 -101q18 -36 33 -61l49 -99q4 -4 6 -8q5 4 5.5 16t4.5 17l4 -4q0 -3 0.5 -10t0.5 -11.5t-1 -10t-4 -9.5q0 -1 2 -3.5t2 -4.5q4 4 4 6 q4 24 4 39q1 16 4.5 49t4.5 51q0 2 -1 6t-1 6q-9 -7 -9 -22v-31q0 -16 -8 -29q0 4 -0.5 9.5t-0.5 9t1 6.5q4 14 4 43q0 27 6 39q1 0 5 -3q5 -4 6 1q2 14 2 45q-12 8 -9 18q0 14 5 17v4q-4 5 -4 11t2 13t2 11q0 22 2 32q1 18 4 51.5t4 51.5q8 128 18 190q3 20 10.5 59 t10.5 58l12 68q2 7 5.5 19.5t4.5 16.5q7 -3 13 -8q11 11 30 17l13 -9q3 -2 7 2t7 3q1 -1 3.5 -5t4.5 -6q3 5 8 19q2 0 8 -5t9 1q2 1 6 -2l4 -2q4 0 10 6h4q4 -4 21 -4q18 0 22 -11l10 11l11 -11l6 9q5 -5 8 -11q6 3 14 11q2 -1 7 -5.5t10 -3.5q4 0 16 -4q12 -37 19 -92z M1208 1147q2 4 2 12h-2v-12zM887 868v6q-4 0 -4 -2v-6zM842 113l2 2l-4 4l-2 -2z" />
<glyph unicode="o" horiz-adv-x="1269" d="M545 12q7 -1 29 -3.5t32 -2.5q87 10 101 14q45 10 102 31q39 18 133 86q1 2 4 5t4 5q7 6 20.5 19.5t20.5 19.5q35 24 68 74q20 28 47 76q41 84 55 129q26 81 33 133q2 13 5 39t5 39q7 52 4 96q-3 15 0 33v33q-2 20 -7 61t-7 62q-2 19 -14 59q-6 20 -23 76q-11 32 -39 86 q-26 51 -67 98q-42 47 -117 94q-119 65 -260 56q-26 -2 -105 -15q-39 -7 -63 -14q-7 -1 -18 -4t-15 -4l-43 -19q-24 -10 -29 -18q-7 -9 -20 -19q-37 -21 -74 -53q-6 -6 -18 -14l-25 -23q-5 -5 -15.5 -15t-15.5 -15q-20 -25 -24 -33q-62 -79 -100 -180q-33 -100 -41 -187 q-11 -96 -5 -203q0 -16 3.5 -46t3.5 -36q17 -109 47 -190q32 -88 69 -139q57 -88 142 -140q48 -28 118 -59q2 0 6.5 -1t6.5 -1q21 -3 45.5 -1.5t40.5 11.5zM872 776v-10q5 -75 -26 -170l-37 -102q-12 -25 -14 -27q-53 -82 -127 -125q-2 -1 -47 -18h-7q-27 -7 -63 4 q-22 7 -57 30q-6 4 -15 13q-26 37 -35 63q-40 99 -53 223q-10 91 0 162q3 39 23 92q23 58 51 101q32 52 84 82q3 2 11 5t11 5l25 6q30 12 63 6q3 -1 9.5 -2t9.5 -2q44 -3 76 -20q32 -11 51 -43q18 -27 31 -56q20 -50 30 -125q6 -46 6 -92z" />
<glyph unicode="p" horiz-adv-x="1034" d="M969 1004q4 -62 4 -93q0 -9 -2 -27.5t-2 -27.5q-4 -43 -39 -119q-12 -30 -37 -71q-22 -44 -78 -107q-14 -9 -18 -8l-4 -2q-4 -2 -6.5 -9.5t-6.5 -7.5q-8 0 -16 -8q-30 -26 -41 -32q-33 -14 -43 -13q-2 0 -5.5 -1t-4.5 -1q-17 -7 -97 -26q-28 -6 -53 -9l-41 -6h-51 q-2 0 -6 1t-6 1q-19 0 -23.5 -4t-3.5 -24q1 -25 -4 -148q-2 -31 -10 -108q0 -2 -1 -6.5t-1 -6.5q5 -7 0.5 -34.5t-4.5 -34.5q0 -6 -9 -11q-2 -2 -7 -5t-7 -5q-19 -14 -29 -14q-44 -18 -90 -21q-22 -4 -28 -8q-1 0 -9.5 -3.5t-13.5 -4.5h-8q-4 8 -8 12h-6q-14 -5 -19 -8 q-8 4 -12 4q-9 2 -14 10q-4 7 -13 -2l-18 21q-23 29 -17 61q7 28 7 52q8 69 10 108q2 35 2 104q0 23 1 71.5t1 72.5q0 71 2 106q1 21 2.5 62t2.5 66.5t4 61t7 64.5q0 1 6 80q1 21 4.5 64.5t4.5 64.5q1 9 2 27.5t2 27.5q0 7 -2 9q-3 3 -5 10.5t-6 9.5q6 1 2 9.5t-4 9.5 q-2 12 7 26l-7 8q3 3 3.5 6t0 5t-2 5.5t-1.5 4.5q-5 18 9 39q0 1 1 3t1 3q-2 2 -6 10q8 15 10 27q0 12 -2 14v8q10 13 10 33q0 13 10 23q13 13 15 16h12q22 0 43 6q69 22 172 29q82 4 123 4q44 3 90 0q114 -9 201 -84q59 -53 106 -133q3 -7 31 -70q30 -77 39 -157zM662 918 q2 43 -17 118q-10 50 -61 101q-31 25 -70 22q-13 -2 -40 -5t-40 -5q-11 0 -31 -4q0 -5 -1 -11t-1 -8v-39l1 -73q0 -74 -1 -74q0 -51 -2 -76q-8 -60 -8 -133q0 -19 2 -22h10q14 3 40.5 9t39.5 9q51 17 58 21q46 18 63 43q40 57 43 63q15 30 15 64z" />
<glyph unicode="q" horiz-adv-x="1355" d="M1147 -139q2 2 5 6t5.5 6.5t5.5 3.5q6 2 17 19q2 3 7 12.5t9 13.5q6 6 6 23q0 31 23 45q-4 12 -4 14q0 16 -13 33q-6 7 -14.5 21t-13.5 20q-27 37 -68 117q-11 16 2 32q33 50 51 82q43 71 62 131q28 92 47 197q12 62 18 125q6 71 -6 139l-24 105q-19 76 -76 180 q-31 58 -84 114q-17 17 -35 29q-51 28 -55 31q-37 23 -107 49q-24 8 -57 8q-47 0 -72 2q-63 8 -141 -20l-70 -25q-106 -35 -176 -82q-7 -5 -23 -16.5t-24.5 -18t-21 -17t-22.5 -20t-19 -20.5l-24 -30t-27.5 -35.5t-20.5 -30.5q-66 -99 -94 -201q-2 -10 -8.5 -31.5 t-8.5 -31.5q-3 -16 -12.5 -53t-14.5 -64t-6 -53q-4 -73 3 -119q4 -32 4 -49q11 -70 34 -111q18 -35 39 -72q59 -111 154 -176q63 -44 100 -63q54 -29 135 -53q45 -10 54 -17q2 -2 6 -2q16 2 49 2q28 4 43 4q22 -3 45 0h43q50 4 72 19q0 2 6 2q2 -3 9 -0.5t9 2.5q4 2 15 2 l14 -27q9 -19 14 -22q11 -11 27 -39l23 -41q8 -14 16 -33q11 -39 47 -61q4 0 4 -2l10 6q10 -5 13 -8q9 1 17 11.5t11 12.5q4 0 4 -2q8 -2 15 -10q2 2 5 4.5t5 4t4.5 5t3.5 6.5q5 1 8 4t6 9t5 8q8 -4 12 -4zM621 600h-15q-1 0 -3 -1t-3.5 -1.5t-2.5 -2.5t-1 -5t-1.5 -5 t-4.5 -5t-4 -5l6 -20q-2 -1 -4 1.5t-4 2.5h-9q-7 -4 -4 -10q7 -12 21 -45l31 -45q20 -35 24 -41q18 -32 51 -82l13 -25q-11 -11 -27 -6l-57 12q-70 16 -123 54l-25 18q-36 24 -59 72q-24 49 -29 92q-7 52 2 88q8 21 8 51q4 49 23 133q28 117 100 207q31 39 78 68q1 1 35 12 q12 0 18 2q30 8 111 8l31 -6q26 -6 67 -35q10 -7 15 -14q18 -26 28 -45q38 -70 51 -133q1 -5 4.5 -14.5t4.5 -14.5q12 -57 4 -108q-14 -77 -37 -164l-12 -47q-3 -15 -15 -27q-10 6 -26 31q-37 61 -84 117q-8 10 -37 40q-12 12 -21 7q-3 -2 -14 2q3 -6 8 -21q4 0 -2 -6h-4 q-1 1 -4.5 3.5t-5.5 4.5q-2 -4 -6 -8q-1 -1 -5 -3.5t-6 -4.5q10 -14 15 -23q-5 -8 -13 0q-2 1 -6.5 6.5t-5.5 6.5q-11 -9 -22 -7q2 -4 2 -8q0 -1 1 -3.5t1 -4.5q-8 2 -10.5 2t-8.5 -4.5t-8 -5.5t-2.5 -3t-0.5 -5.5t-1 -5.5q-2 0 -10 4q-2 -2 -2 -9l10 -24q-3 3 -9 7.5 t-9 6.5v-6q4 -8 4 -12q-1 2 -2 6t-2 6zM1090 -156v-2l-3 2h3z" />
<glyph unicode="r" horiz-adv-x="1081" d="M1020 999q3 -53 -10 -112q-10 -44 -41 -101q-1 -3 -6 -8.5t-7 -7.5l-12 -16q-18 -25 -51 -68q-19 -21 -55 -53q-8 -8 -25 -22t-20 -17q0 -8 2 -12q2 -9 9.5 -27t8.5 -20l6 -23q2 -3 5 -11.5t5 -11.5q-4 -4 -6 -8q2 -4 6 -8h2q-6 -5 -6 -7.5t6 -8.5l-2 2l7 -19q2 -6 10 -2 q4 -8 12 -20q5 -10 -2 -15l2 -2v2q10 -11 23 -47q5 -9 10 -32v-7q10 -10 14 -36q3 -11 6 -13q12 -12 9 -26q-3 -13 8 -19q2 0 2 -8q-2 -12 6 -29q2 -6 7.5 -21.5t8.5 -23.5q4 -8 4 -24l-2 -2q0 -8 -1 -13t-1 -9t-2 -7.5t-2.5 -5t-4 -4t-5 -3.5t-7.5 -4.5t-9 -5.5 q-4 -3 -13.5 -7t-13.5 -7q-31 -15 -49 -29q-8 -8 -25 -8q-8 0 -24 -4q-5 -3 -43 -8q-7 0 -9 2q-6 8 -32 8q-1 0 -5 1t-8 1q-2 6 -9 17t-9 16q-30 62 -33 76q-1 5 -2 15.5t-2 15.5q-17 73 -49 151q-14 35 -35 94q-2 8 -29 74q-2 6 -7.5 15.5t-6.5 11.5l-22 6q-6 -6 -9 -6 q-23 -5 -30 6h-11q-16 2 -53 2q-4 -4 -5 -10t-1.5 -13t-1.5 -10q-2 -16 -2 -49q-4 -54 -4 -78q0 -65 -2 -98q0 -12 -1 -35t-1 -35v-2q2 -16 2.5 -18.5t-2 -19.5t-2.5 -19q0 -11 -4 -31q0 -4 -5.5 -8t-9.5 -2q-6 0 -15 -4.5t-13 -5.5q-12 0 -21 -17l-4 4q-3 5 -6 2 q-4 -4 -15.5 -6.5t-15.5 -7.5q-4 -2 -6 0q-7 5 -25.5 1.5t-25.5 -1.5q-5 3 -10 0q-17 -7 -33 12l-21 -6q-4 0 -24 4l-6 13q-17 -4 -23 4q-1 1 -8.5 7.5t-7.5 12.5v2q-11 23 -8 62q1 8 -5 88v104q0 14 5 92q2 51 10 148q1 21 4 61.5t4 59.5q1 25 4 73t4 72q0 5 -1 16.5 t-1 16.5q0 13 1 38t1 38q0 71 2 106l6 82q0 23 -10 31q1 1 3.5 4.5t2.5 5.5q4 4 0 8q-12 9 -4 21q11 19 0 41q-6 15 0 30v21q0 2 3.5 8t2.5 10v8q6 8 8.5 18.5t3 24t1.5 19.5q0 1 -1 3.5t-1 4.5q8 8 24 12q49 20 119 31q65 7 108 14q5 1 95 17h2q70 4 106 4q48 0 123 -23 q37 -11 96 -41q71 -39 113 -102q21 -24 37 -53q45 -77 69 -158q16 -45 19 -109zM672 911q25 39 22 80q-3 31 -12 58q-14 41 -43 81q-13 17 -21 21q-56 29 -100 29q-15 0 -51 -4q-14 -1 -39 -6l-35 -7v-47q4 -106 4 -158q2 -57 2 -172q0 -9 7 -14q9 2 26.5 7t26.5 7l57 19 q2 1 7 2t7 2q18 10 60 31q12 4 16 8q49 39 66 63zM477 502v2h-4v-2h4zM862 381l-2 -4l4 -4v4q0 1 -1 2t-1 2zM891 315v-6h2q-2 2 -2 6z" />
<glyph unicode="s" horiz-adv-x="1122" d="M854 117q3 3 57 51q60 51 98.5 122.5t45.5 149.5q6 41 6 123q0 34 -12 64q-4 12 -16 39t-17 43q-18 46 -55 92q-45 55 -87 92q-44 34 -75 45q-50 19 -82 23q-48 4 -74 8q-39 2 -121 10q-36 4 -53 4q-35 2 -80 31q-22 17 -33 53q-2 7 2 20q1 6 6.5 17.5t6.5 13.5 q5 9 20 17q36 18 39 20q6 3 23.5 12.5t27.5 14.5q59 19 115 22q9 0 25 -4q48 -16 79 -49q12 -16 23 -27q8 2 14 9q7 -7 11 -7q8 0 8 9v6q1 6 6 8q2 -1 5.5 -3.5t6 -3.5t6.5 -1t8 2q0 3 1.5 9.5t1.5 10.5q8 -2 13 -0.5t6.5 3t4.5 8.5q12 21 23 26q3 2 8.5 13.5t13.5 13.5 q0 4 2 6q12 24 23 35q20 20 10 39q-3 9 2 14v6q-12 32 -27 43l-6 6q-30 35 -82 62q-34 18 -69 30q-71 24 -123 19l-41 -6q-68 -6 -143 -39q-18 -9 -21 -12q-56 -31 -72 -39q-40 -16 -84 -48q-49 -38 -90 -106q-46 -78 -43 -160q0 -95 39 -164q41 -72 115 -127 q69 -49 156 -81q42 -15 67 -19q31 -5 107 -14q32 -4 45 -4q26 0 47 -21q10 -10 14 -16q27 -29 49 -94q12 -37 0 -76q-23 -61 -63 -101q-15 -15 -44 -39t-40 -34q-35 -27 -76 -19q-22 4 -29 8q-48 14 -71 35q-41 29 -70 66q-21 21 -29 43q-13 36 -10 78q2 31 10 84q0 4 4 8 q6 12 4.5 18t-10.5 17q-2 0 -4 2q-3 0 -8 -3t-8 -3q-5 0 -8 -7t-7 -8q-14 9 -24 6q-6 -12 -8 -14q-7 -3 -20.5 -8.5t-18.5 -7.5q-2 -12 -25 -21q-4 -3 -13 -7t-13 -7l-21 -12q-35 -17 -45 -50q-1 -3 -18 -61q-16 -61 0 -135q11 -52 49 -107q28 -43 90 -98q3 -3 12 -11.5 t15 -11.5q3 -2 30.5 -20.5t42.5 -26.5q33 -19 45 -22q63 -21 109 -29q40 -7 149 2q5 0 21 4q42 12 85.5 39t66.5 46.5t69 62.5z" />
<glyph unicode="t" horiz-adv-x="1230" d="M1153 1376q-3 3 -12.5 10.5t-12.5 12.5q-7 16 -34 16q-27 -3 -58 0q-6 0 -18.5 2t-18.5 2q-17 1 -50 2t-50 2q-12 0 -18 2q-7 2 -45 2h-17q-79 3 -162 3h-153h-33h-111h-10q-15 2 -96 -3q-60 -4 -92 -8q-20 -2 -60 -10q-18 -4 -18 -16q0 -4 -4 -16.5t-2 -20.5q1 -1 0 -4 l-2 -4l2 -9q-13 -3 -4 -12q9 -11 0 -20q-4 -3 -6 -7t-4 -9.5t-3 -8.5q3 -5 5 -20t6 -21l-6 -12q-5 -10 -5 -12q1 -3 4 -21.5t11 -26.5q77 -21 139 -18h84q34 0 100 1t99 1q2 0 10 -4q0 -9 -1 -28.5t-1 -28.5q-1 -35 -2 -103.5t-2 -103.5q-1 -22 -2 -65.5t-2 -65.5 q0 -63 -4 -189l-7 -125q-4 -82 -8 -123q0 -1 -6 -88q-4 -45 -8 -131q0 -42 31 -53v-10q0 -3 1 -8t1 -7h2q1 0 3 1l3 1.5t3 -0.5t3 -4q6 8 16 5q3 -3 12.5 -5t12.5 -6q4 -4 10 -4q32 -4 53 -4q26 0 33 -4q26 16 35.5 19t40.5 6q1 4 5 8t7 6t9.5 5.5t7.5 4.5q17 71 20 125 q0 17 2 25q3 14 8 90v86q4 40 4 61v99v106q0 13 0.5 37.5t0.5 44.5t-1 37q0 23 -1 70.5t-1 72.5q-1 21 -2 65t-2 66q0 30 -4 96q0 3 1 10t1 11h29q24 -1 73 -2t74 -2h43q25 0 37 -2q5 -1 16.5 4t18.5 2q6 0 8 2q5 5 16.5 9.5t14.5 6.5q6 2 10 13q3 10 15 14q7 3 11.5 8 t8.5 13.5t6 11.5l-22 10q1 10 13.5 16t14.5 9l-16 16l12 8q1 3 -1.5 10.5t1.5 10.5l6 16q-2 2 -5.5 4.5t-5.5 4.5t-3 5q-2 2 -2.5 9t-1.5 8q-2 4 0.5 10t1.5 10z" />
<glyph unicode="u" horiz-adv-x="1198" d="M98 1409q-4 -16 -4 -23q-8 -75 -14 -114q-12 -104 -14 -162q-1 -22 -1.5 -66t-1.5 -65q0 -19 -1 -54.5t-1 -52.5v-122q1 -24 3.5 -73.5t3.5 -74.5q0 -14 -2.5 -43t-2.5 -43q-7 -114 27 -199l4 -16q27 -83 70 -139q53 -61 86 -86q27 -20 92 -62q54 -30 94 -37 q46 -5 64 -10q49 -9 94 -4q26 3 53 0h29q6 0 18.5 -1t18.5 -1q3 0 9 -1t9 -1q17 -1 64 8q29 6 53 21q14 8 36.5 25t26.5 20q82 67 119 110q31 40 43 72q13 30 21 53l6 19q20 105 22 121q2 26 7.5 76t7.5 75q1 11 1 24t-0.5 28.5t-0.5 23.5q-9 97 -9 127v129v342 q0 62 -10 137q-2 16 -10 39q-3 10 -12.5 13t-18.5 -3h-8q-4 6 -12 6h-13q-14 7 -24 0q-3 -3 -8 2q-6 6 -6 3q-1 -3 -9.5 -0.5t-9.5 2.5q-17 4 -22 -5h-7q-4 0 -12 -1t-12 -1q-2 1 -5 4t-5 3q-3 2 -6.5 0.5t-5 -3t-4 -4.5t-3.5 -4q-11 5 -16 4t-25 -12q-8 -35 -10 -57 q-4 -16 -8 -56q-1 -14 -7.5 -54.5t-7.5 -63.5q-6 -57 -10 -172q-5 -147 -4 -176q2 -14 2 -46q0 -16 1 -46t1 -46q4 -62 4 -90t-4 -90q-1 -9 -4 -35.5t-6 -42.5q-11 -46 -43 -90q-23 -31 -39 -49q-14 -18 -29 -25q-4 -3 -13 -8t-13 -8q-15 -8 -25 2q-12 12 -26 12l-52 7 q-65 3 -106 32q-95 68 -92 181q0 29 -3.5 94.5t-2.5 99.5q0 8 -2 12q0 11 -3.5 60.5t-3.5 75.5q0 8 1 23.5t1 23.5q-4 112 -8 168q-1 27 -1 58.5t0.5 69.5t0.5 58l-6 131q0 15 -4 39q0 3 -2.5 10t-3.5 10q-17 0 -23 -2q-19 -4 -77 0q-32 0 -46 -2q-4 0 -16 -4h-8 q-11 8 -23 0q-4 -2 -10 -2q-11 2 -35 -6z" />
<glyph unicode="v" horiz-adv-x="1191" d="M580 416h-5q-2 8 -6 20q-4 19 -13 57.5t-13 57.5q-9 34 -26 100.5t-31.5 119.5t-30.5 99q-21 76 -45 150q-46 147 -54 174q-24 82 -47 141l-18 35q-3 10 -15 6q-4 -1 -21.5 -5.5t-25.5 -10.5q-9 -9 -20 -4q-6 0 -8 -2q-3 -4 -23 -11q-4 -2 -19 -6.5t-22 -9.5 q-8 -4 -12 -4q-9 0 -25 -8q-17 -9 -24 -10q-15 -7 -15 -21v-16q1 -9 3.5 -28t3.5 -28q5 -82 38 -208q10 -38 30 -108.5t28 -102.5q30 -107 35 -129q5 -19 13 -57t13 -56q7 -29 47 -182q26 -98 29 -109l25 -94q4 -15 11 -44.5t11 -45.5q11 -38 33 -49q4 -1 20 -17q1 -1 5 -2 t6 -2l4 17q15 -20 16 -21q10 0 31 -1t31 -1q17 0 28 8q26 15 43 17q6 2 37 2q48 0 57 -2q12 -5 29 2l35 10q3 4 25 26q9 9 12 21q9 35 14 49q5 20 29 88q45 126 47 133l55 158q26 90 39 127q29 85 45 139q2 6 5 19.5t5 19.5q5 20 17 56t16 51q3 10 8.5 30.5t8.5 30.5 q7 26 20 72t18 65l15 52q3 15 11 44.5t11 45.5q8 49 2 73q-3 17 -14 19q-30 5 -35 8q-7 4 -16 -2q-2 -2 -14 -8l-19 14q-6 -4 -14 -12q-1 2 -4 5t-4 5q-5 -5 -11 -8q-2 2 -6 10l-14 -12q-1 1 -1.5 3t-1 3t-1.5 2q-14 2 -25 -12q-7 12 -10.5 13.5t-13.5 -1.5q-13 -4 -23 -2 t-18 -10q-5 -8 -9 -19l-20 -51q-41 -101 -61 -178l-19 -62q-31 -90 -37 -122q-2 -12 -10 -31q-17 -33 -25 -68q-19 -69 -26 -86q-4 -8 -4 -12l-19 -66q-7 -14 -10 -26q-1 -13 -4.5 -26.5t-10 -30.5t-8.5 -25q-20 -76 -38 -133z" />
<glyph unicode="w" horiz-adv-x="1693" d="M1622 1343q4 -8 10 -14l-12 -51q-1 -6 -6 -18.5t-6 -18.5q-4 -2 -5 -9.5t-4 -10.5q-1 -1 -8 -23q-2 -10 -7 -29.5t-7 -29.5q-6 -12 -10 -13q-3 0 -3 -2t3 -4l-8 -12q-3 -8 -5.5 -17.5t-6 -21t-5.5 -18.5q-3 -17 -10 -50t-10 -49q-3 -21 -19 -30h-4q3 27 8 43q5 10 2 22 q8 12 13 49q-13 -35 -13 -49q-6 -7 -2 -22q-8 -2 -8 -17l-18 -63q-4 -20 -13.5 -61t-13.5 -62q-7 -49 -14 -84q-1 -3 -5.5 -4.5t-4.5 -5.5q0 -13 -9 -19q0 -2 0.5 -5.5t0.5 -5.5t-1.5 -4.5t-5.5 -4.5q-4 -4 -4 -13l-6 -41q3 4 9 11.5t9 11.5q0 -10 -2 -12q-8 -43 -39 -160 q-3 -12 -8 -36.5t-8 -35.5q0 -4 2 -10q2 5 12 25v-4q6 -17 -2 -50q-14 -54 -16 -65q-4 -22 -8 -31q-4 -21 -2 -35q4 -14 -6 -24q-3 0 -3 -8q-1 -1 -2 -4.5t-2 -4.5q-21 -8 -24 -18q-6 3 -14 -2t-11 -6q-10 -5 -12 -4q-9 0 -14 -7q-4 -9 -15 -2q-6 9 -10 0q-6 -12 -18 -12 q-2 0 -4.5 -2.5t-2.5 -5.5q-3 -11 -6 -14.5t-12 -3.5q-19 3 -25 -15q-6 -12 -20 -8l-6 -20q0 1 -7.5 -0.5t-14.5 -2.5l-7 -2l-10 -4q-2 -1 -6.5 -4.5t-7.5 -5.5q-18 6 -45 12q-3 0 -10 -7t-11 -9l-27 8q-3 0 -9 4.5t-11 1.5q-16 8 -23 15l-16 18q-2 3 -6 9.5t-6 9.5 q-4 12 -4 16q0 5 -11 74l-30 159q0 1 -1 3.5t-1 3.5q-1 3 1 16.5t-3 17.5q-4 5 -9 31q-1 6 -4 18.5t-4 18.5l-12 65q-3 11 -8 34.5t-8 35.5l-5 10l-6 -6l-30 -127q-2 -6 -7 -16q-6 -9 -6 -21q0 -8 -4 -16q-19 -73 -24 -88q-9 -34 -35 -115q-5 -20 -5.5 -22.5t3.5 -20.5 q-12 -12 -21 -51q-4 -15 -10 -20v22q-8 -7 -18 -31q-7 -3 -7 4q0 2 1.5 6t1.5 5v2h-19q-1 -5 -4.5 -10t-6.5 -8t-8.5 -8t-7.5 -7q-17 -13 -30 -6l-6 2q-5 -8 -17.5 -8t-15.5 -2q-8 -5 -23 2q-10 7 -20 4q-15 0 -47 4q-17 4 -49 -4q-14 -7 -29 -4q-2 0 -6.5 -3t-7.5 -3 q-46 -3 -80 24q-25 19 -31 47q-6 23 -19.5 71t-19.5 71q-15 64 -33 159l-24 156q-1 6 -4 18.5t-4 18.5q-24 129 -39 219l-7 49q-3 33 -9 97.5t-9 97.5v10q-2 39 -6 121q-1 16 -5 48t-5 48q-4 24 -4 39q0 19 -5 31q0 2 1 6.5t1 7.5l35 12q4 -4 8 -6q14 7 17 8l14 6q3 0 9 2 t8 2q4 0 13 -1.5t13 -0.5q22 6 25 5q5 -1 14 3t14 3q11 0 27 -4q4 0 11 1t10 1q13 -3 22 -17q15 -31 33 -80q14 -45 26 -139l13 -76l18 -129q5 -47 45 -260q29 -153 35 -190q4 -19 8 -53q5 0 8 6q6 26 22.5 85t23.5 91q3 15 8 43.5t8 42.5q4 15 8 41l19 69q30 109 57 199 q3 12 7 25.5t9 29.5t8 25q12 28 21 39l20 -2q3 1 8.5 5t6.5 5q5 -3 4.5 -10.5t3.5 -9.5q5 0 7 5.5t3 6.5q4 9 10 0q12 -8 15 -2q6 8 22 8q1 -1 11 -16l4 10q6 6 14 6q21 0 29 8q2 -2 4.5 -5.5t3.5 -4.5h6q17 17 37 10q1 0 3 1t3.5 1.5t3.5 0t4 -2.5q1 0 5.5 2t6.5 2 q35 5 41 11q10 -8 15 -23q21 -69 28 -100q9 -25 15 -58l-6 -6q0 -6 4 -6q18 -3 10 -23q-6 -13 4 -20q12 -6 8 -18q0 -11 4 -23q12 -47 37 -134t35 -126q5 -19 25 -117l8 -31q1 7 6 21q2 7 11.5 46t13.5 60q12 62 16 91q13 95 43 211q29 115 53 190q2 4 2 10h-10h-2 q3 2 5 10.5t9 8.5q2 0 2.5 3.5t-0.5 4.5q-3 12 4 22q10 29 11 37q1 7 6 20t6 15q13 26 34 74.5t31 68.5q9 4 19 7q0 -1 4 -13q0 5 1.5 9t4 6t5.5 5l5 5l13 -10q4 12 14 12q2 -4 10 -12q2 1 5 4t5 4l23 -6l10 10q22 0 27 -4h12q12 -2 53 -23q10 -6 19 0q4 -10 8 -33z M1532 1081q8 0 4 6q0 -2 -4 -6zM1526 1051q2 0 2 2h-2v-2zM1499 920v2v-2zM1202 690q2 2 2 3.5t-1 2.5t-1 2q0 2 1 5t1 4q-10 -7 -2 -17zM1235 684v2h-2v-2h2zM1194 678v-2l2 2h-2zM1194 662l4 2q0 2 -2 4l-2 -2v-4zM1229 655v11h-2v-11h2zM1423 655h-2q0 -4 2 0zM1184 575 q4 11 8 41q-8 -6 -11.5 -20t-6.5 -18q0 -4 -6.5 -25.5t-4.5 -34.5q0 2 2 5t2 5q8 31 17 47zM1219 606l2 2l-2 2l-2 -2zM1214 590v2l-2 -2l2 -2v2zM1407 571q-3 -2 -3.5 -4.5t0 -4.5t1.5 -5.5t2 -5.5q1 3 3.5 7t2 5.5t-3.5 5.5zM1192 506q8 4 2 12q0 -3 -1 -6.5t-1 -5.5z M1386 483l3 2l-3 2v-4zM1186 473v2q-2 0 -2 -2v-2zM1372 416l2 2q0 2 -2 4v-2v-4zM883 389v12q-2 2 -4 2q0 1 -1 2.5t-1 2.5v-2q0 -5 2 -5h4q-1 -2 -2 -5.5t-2 -4.5q2 -2 4 -2zM1368 399l2 2l-2 2q0 -2 -2 -2zM1372 334q-6 -9 -6 -10q-2 -8 -12 -44t-13 -55q0 -1 1 -3t1 -3 q9 16 15.5 48t11.5 44q2 4 2 23zM1337 252q2 0 4 2l-2 2h-2v-4zM1327 233v11q-9 -5 0 -11z" />
<glyph unicode="x" horiz-adv-x="1173" d="M336 1452q-21 -14 -37 -22q-5 -2 -16.5 -10.5t-18.5 -10.5q-19 -5 -37 -20q-35 -23 -37 -25q-3 -3 -34 -18l-37 -23q0 -10 2 -14q14 -36 20 -49q11 -23 37 -79t41 -85q7 -16 43 -84q58 -101 96 -170q27 -43 60 -115q-1 -2 -4.5 -8t-5.5 -8l-132 -179q-49 -62 -53 -69 q-3 -5 -51 -72q-45 -67 -53 -82q-2 -3 -16 -28t-23 -37l-80 -97q-5 -6 -19 -21t-23.5 -26.5t-16.5 -23.5q-21 -29 -23 -49q7 1 8.5 -7.5t3.5 -9.5l15 -2q1 -2 4 -6t4 -6q-1 -3 -4 -8t-4 -8q1 -1 4.5 -4t5.5 -3h20v-12q4 -7 10.5 -13.5t14.5 -13t12 -10.5l19 6l4 -4l-8 -16 q3 -7 7.5 -9.5t11.5 -2.5h9v-13q3 -1 12.5 -4t14.5 -6q2 -2 5 -3.5t5.5 -3t4.5 -4.5t3 -7q5 2 25 12q15 -7 25 -10q12 4 16 8q19 15 24 22q5 5 27 30t33 38q4 5 14.5 16t17.5 21t11 22l6 9q25 32 53 63l10 12q3 4 9.5 12.5t9.5 12.5q2 2 5.5 7t4.5 7q6 16 24 40.5t21 29.5 q12 16 36 48.5t36 49.5q63 88 76 103q1 1 4.5 3.5t5.5 4.5q22 -36 27 -45q8 -15 36 -66t45 -78l21 -36q3 -5 14 -24.5t16 -27.5t14.5 -23t18.5 -26t19 -22l12 -13q7 3 11 2t14 -10q2 4 6 8q13 -4 14 -8q5 -15 12 -16q-2 6 -2 18q0 1 -1 3.5t-1 4.5q2 2 4 2h5l6 -12 q5 -14 8 -16q-2 23 4 35q7 -15 10 -25q11 0 19 16q4 -8 4 -10q5 -10 6 -14q2 5 5.5 10t4.5 6q1 4 2 12t2 11q0 13 6 16q7 -14 13 -24q4 17 8 43q16 -12 22 -15l9 2q1 2 2 9.5t6 9.5q2 -2 10 -6q1 2 4 5t4 5q15 33 31 65q7 19 2 35l-10 19q-17 33 -66 112q-5 9 -18.5 32.5 t-20.5 37.5q-36 62 -63 104l-76 125q-4 7 -12.5 21.5t-12.5 21.5q19 33 52 78l65 82l90 117q10 10 11 12q108 121 176 233q3 4 10.5 19t13.5 22q11 14 8 35q-9 16 -26 10q-9 9 -6 21q0 12 -6 16h-23q-2 8 -2 27l-14 -8q-2 -2 -11 -2v8q0 14 -8 20q-7 7 -22 0q-3 -2 -7.5 0.5 t-5.5 6.5q0 1 1.5 3.5t1.5 4.5t-3 4q-4 2 -10 2q-2 4 -2 10q-2 1 -5 1.5t-5 1t-2 1.5q-1 5 -7 4q-4 -1 -5 0q-7 10 -9 17q-13 0 -30 -13q-25 -20 -31 -26l-72 -84q-19 -24 -57 -68q-40 -49 -84 -96q-50 -63 -59 -76q-16 -21 -68 -78q-8 -13 -14 -14q-5 5 -5 8 q-101 163 -135 228q-36 71 -90 151z" />
<glyph unicode="y" horiz-adv-x="1081" d="M973 1430q-23 0 -27 2q-9 3 -22 0q-27 -3 -54 0q-9 1 -26.5 -3.5t-22.5 -5.5q-4 0 -8 -4l-14 -18q-7 -9 -18.5 -26t-14.5 -21q-40 -65 -53 -84l-19 -31q-14 -24 -36 -72.5t-35 -72.5q-2 -2 -2 -4q-12 -33 -23 -48q-6 -5 -16 -24q-6 -9 -18.5 -30.5t-20.5 -31.5 q-5 -6 -33 -45q0 -2 -8 -10l-6 14q-8 19 -22 55.5t-19 49.5q-37 94 -84 186q-9 21 -29 58t-27 51q-21 41 -55 90q-18 28 -35 43q-20 -5 -24 -8q-3 -6 -11 -6q-9 0 -30 -17q-4 -4 -8 -4q-6 0 -7 0.5t-6 -3.5t-6 -5q-12 -4 -18 -8q-7 0 -9 -2q-3 -1 -6 -6t-6 -5q-1 0 -16 -10 q-6 -6 -8 -6q-8 -1 -15.5 -5.5t-11.5 -9t-10.5 -12t-9.5 -10.5t-3 -8q5 -32 7 -37q6 -20 28 -74q5 -12 18.5 -45t20.5 -51q10 -28 32 -83.5t32 -82.5q41 -112 78 -190q8 -17 24 -48t21 -42q5 -10 8 -13q11 -13 28 -47q5 -15 17 -35q12 -28 24 -38q11 -11 11 -29 q0 -7 -1 -22.5t-1 -22.5q0 -144 -5 -199q-4 -72 -8 -110l-6 -78q-4 -27 8 -41q16 -22 19 -27q24 -5 47 -2q9 3 18 0q4 0 12.5 -3t12.5 -3h27q6 0 10 4q14 11 33 0q9 9 14 8q9 -3 14 4q7 4 12 2h9q8 7 25.5 15t23.5 12q2 4 2 10q4 33 8 99q8 138 10 202q2 39 -2 117 q0 59 -2 90q0 11 4 15q8 8 21 38q18 40 33 70q62 111 67 119l45 80q51 82 55 90q18 32 39 76q9 20 54 118l47 97q35 71 43 104q5 35 2 47q-6 2 -22.5 3t-24.5 7q-2 -1 -13.5 -1.5t-17.5 -6.5h-2q-1 1 -6 11z" />
<glyph unicode="z" horiz-adv-x="1091" d="M1030 1292v-6q3 -10 -4 -20q-5 -10 -8 -13v-6q0 -15 -8 -43l-11 -35q-6 -22 -20 -36q-6 -8 -27.5 -33t-31.5 -39l-11 -12q-7 -14 -8 -17l-92 -178q28 0 86 -4q9 0 25 -4q25 -7 28 -25q0 -2 3.5 -8.5t2.5 -11.5q0 -17 -8 -31l8 -12q-2 0 -6 -4q-5 -5 -2 -6q4 -2 0.5 -8.5 t-2.5 -8.5q3 -6 -8 -10q-3 -1 -4 -7t-4 -7q-6 -4 -6 -15q-3 -12 -13 -22q-7 -6 -16 -27q-1 -5 -16 -25q-2 -3 -13 -14q-8 -8 -28 -16q-6 -4 -21 -4q-66 -4 -100 -4q-8 0 -24.5 1t-24.5 1l-17 -29q-15 -30 -67 -113q-6 -10 -13 -21.5t-14.5 -24.5t-11.5 -19l-39 -62 q-2 -4 -7.5 -12t-7.5 -12h11q13 2 26.5 2t30 -1t25.5 -1q19 0 65 4q37 4 66 -2q20 -2 63 -2q70 -4 103 -4q27 0 47 10q20 -25 26 -31q6 1 17 2t16 2q10 -2 10 -14q-4 -29 4 -47l2 -2v-8q-3 -7 -2 -21.5t-2 -21.5q-11 -27 -6 -48q0 -12 -4 -16q-3 -4 -8 -18.5t-12 -20.5 q-7 -7 -11 -22q-12 -3 -22 2q-4 2 -12 2h-74h-76q-33 0 -49 -2q-52 -4 -80 -8q-19 -3 -37 0q-7 0 -16 -3q-6 -2 -21 -2h-88q-4 0 -13.5 -1.5t-18 -1.5t-15.5 3q-9 -4 -45 -4q-65 -6 -133 -6q-27 3 -61 -4q-27 -4 -80 -4q-13 0 -33 4q-15 17 -19 51v11q3 6 3 24q0 20 -5 27v6 q1 2 2.5 6t2.5 6q7 17 4 31v14v15q-4 12 -4 20q0 16 8 21q5 21 20 47l64 100q25 39 123 211q-14 1 -40.5 4t-39.5 4q-43 7 -70 23q-13 9 -8 16q-4 3 -3 11.5t-3 11.5q-3 1 -0.5 6t0.5 8q-1 3 0.5 4.5t5 3t4.5 2.5q0 1 -2 3.5t-3.5 4.5t-0.5 4.5t6 4.5l-4 10q2 1 7.5 2t8.5 2 q-1 3 -7.5 6t-8.5 6q1 1 1 4q0 2 1 2q4 4 4 15q0 1 10 6q-7 15 2 24q4 4 4 17q1 2 2.5 7t2.5 7q0 2 2.5 5.5t3.5 4.5q4 4 4 6q-5 12 10 19q1 1 2 5.5t2 6.5l39 6q9 0 27.5 1t27.5 1h94h74q4 4 8 15q10 17 37 65.5t43 73.5q15 23 82 135q3 10 8 17h-34q-29 -1 -85 -2.5 t-85 -2.5l-164 -6h-80q-4 0 -11.5 1t-11.5 1q-2 4 -2 9q-2 2 -2 6q1 8 2 24t2 23q0 2 1 4.5t1 3.5q3 1 10 2t11 2l-2 2q-3 1 -9.5 2t-9.5 2q-2 14 -2.5 16.5t2 16.5t2.5 16q3 40 3 82v15q4 8 18 8l47 10q24 4 68 8q9 1 67.5 6.5t89.5 6.5q119 5 144 4q8 0 25.5 2t25.5 2h115 q10 0 30.5 1t30.5 1q19 0 55.5 -1t53.5 -1q31 0 45 2q15 0 20 -10l14 -7q0 -1 1 -2t1 -2q-5 -9 -2 -12q4 -3 7.5 -12.5t5.5 -12.5q19 -22 16 -53q-4 -25 2 -37z" />
<glyph unicode="&#xa1;" horiz-adv-x="534" d="M399 1452q-2 -2 -5.5 -8.5t-8.5 -7.5l-6 14q-2 -2 -6 -5t-6 -5q-1 2 -7 8q-12 -4 -14 -4q-9 3 -33 -2q-4 -2 -13 -5t-16.5 -6.5t-13.5 -7.5q-27 -18 -39 -18q0 -22 -4 -62q-3 -73 -12 -147q-2 -12 -2 -39v-31q5 -5 11 -6.5t15 -2.5t11 -1q9 9 18 21q1 -3 2 -10t2 -11 q13 4 31 8q6 19 12 21v-27q13 -3 45 6q1 0 7 6l6 13q2 2 6 2q4 -12 4 -19l8 -2q21 9 43 9q12 0 19 14q2 6 4 18t2 13l6 135q4 68 8 102v8q0 13 -12 13q-5 0 -29 6q-5 5 -8 2q-1 -2 -4 -1.5t-4 1.5t-4 3t-4 3q-2 2 -9 2zM193 961q-3 -6 -3 -9q-3 -26 -16 -49q-12 -25 -18 -47 q-9 -35 -6 -70q0 -5 1 -14t1 -14q-2 -27 -2 -82q-5 -45 -5 -55q0 -12 -2.5 -45t-1.5 -50q2 -25 2 -69q-4 -90 -8 -135q0 -32 -6 -70q-8 -64 -16 -96q-5 -21 -35 -129q-2 -10 -7.5 -30t-7.5 -30q-3 -9 3.5 -14.5t17.5 -5.5q4 1 16 3.5t17 2.5t18 -2q2 -1 8 0.5t7 1.5 q6 -18 8 -21q6 -6 12 -6q2 0 16 -2.5t17 0.5q12 5 18 -12q0 -8 6 -10q19 9 62 18q25 4 35 10q10 -6 13 -6t11 8q2 0 6 -1t6 -1q11 5 29 9q5 1 22 4.5t27 3.5q10 1 14.5 6.5t6.5 17.5v6v164q0 27 -2 39q-4 57 -4 172v47q0 33 4 95q0 48 2 73q1 26 4 80t4 80q1 20 2 61t2 62 v63q-23 13 -37 27q-5 5 -16 12.5t-15 10.5q-17 9 -20 14q-3 4 -16 4h-19l-12 8q-29 -8 -39 -10q-9 -5 -14 -2q-3 0 -11 8q-5 -16 -24 -16q-4 4 -6 4q-4 -1 -11.5 -4t-11.5 -4q-16 -4 -26 -4z" />
<glyph unicode="&#xa2;" d="M1128 1182q1 -2 19 -37q-3 -9 -17 -37q-10 -18 -22 -29l-10 -10q-13 -21 -39 -37q-10 -5 -15 -10q-3 0 -8.5 1t-9.5 1q-6 -6 -10 -12h-12q-2 -3 -6.5 -9.5t-6.5 -9.5q-11 4 -12 6q-9 6 -12.5 5.5t-12.5 -7.5q-4 0 -4 4l-4 3q-9 -9 -12 -15q-18 0 -23 8q-2 2 -8.5 2.5 t-7.5 6.5q-13 2 -35 24q-49 58 -110 76v-4q0 -36 1 -107.5t1 -107.5q0 -97 -2 -144q-2 0 -1 -43l1 -43q2 -45 2 -131v-129q-3 -28 0 -55q52 35 55 37q35 27 55 45q2 2 7 8t8 6q4 1 7.5 3.5t5.5 5t4.5 7t3 6.5t2.5 8.5t3 8.5v-16q0 -9 2 -17l8 15q2 0 4.5 -1t3.5 -1.5t3 0.5 q6 4 10 -4t4 -15q4 0 8 4q0 -3 1 -8.5t1 -7.5q1 0 2 -1t2 -1q3 3 9 6q7 0 10 -6q0 -12 2 -18q4 2 12 2q5 -5 6.5 -13t2 -19t1.5 -18q2 5 6 10.5t5 6.5q6 -1 6 -15q0 -18 18 -63q12 -37 12 -74q0 -3 1 -10t1 -13.5t-2 -11.5q0 -6 -4 -10q-3 -3 -8 -15t-12 -16q-12 -5 -31 -20 l-65 -47q-6 -5 -56 -33q-26 -15 -45 -22q-18 -11 -30 -11h-9q-1 0 -8 -4t-12 -4q-13 0 -19 -2v-74q0 -28 -12 -43q-2 -2 -5.5 -8t-4.5 -8l-8 -12q-1 -1 -3 -2t-3 -2q-12 -16 -19 -23q-5 3 -16 -14q-16 -16 -25 -4q-5 5 -8 2q-6 -6 -10 2q-3 3 -7.5 2.5t-5.5 -6.5 q-2 -5 -7 -6t-7 -5q-3 6 -15.5 12.5t-15.5 20.5q-9 18 -12 21q-12 10 -20 41q-1 2 -2 7t-2 7q-11 29 -5 57v19q0 4 1 10.5t1 9.5q-14 2 -38 10q-97 33 -140 64q-34 21 -69 45q-26 19 -39 39l-4 6q-31 19 -58 70q-5 8 -49 100q-3 13 -8 20q-16 34 -37 121q0 3 -1 9.5t-1 9.5 q-5 110 -2 141q2 57 10 166q0 1 2 15.5t4 21.5q17 89 43 153q5 14 15 38t12 28q21 46 55 86l6 6q46 61 103 109q31 29 80 59q32 19 86 45q37 18 63 23q0 36 4 114l6 111q0 4 1.5 11.5t1.5 12.5q2 1 7.5 5.5t7 4.5t7.5 -3q2 0 2 2q6 8 19 4q5 -3 10 2q6 8 14 0q0 -4 4 0 q3 4 6 5t8 0t7 -1q4 0 12 -4q20 0 25 -4h14q16 0 22 -6q7 -31 7 -64q4 -94 4 -141v-43q22 0 32 -2q88 -14 138 -41q42 -19 110 -68l4 -4q62 -58 90 -102zM434 455q22 -59 70 -90l31 -17v12q0 35 1 105.5t1 105.5q1 39 2 118t2 118q4 184 8 272l-25 -16q-4 -2 -12 -10 q-4 -5 -13.5 -16t-14 -17t-12.5 -16.5t-12.5 -18t-10 -17.5t-9.5 -20q-18 -44 -24 -90q-16 -89 -19 -166q-3 -47 4 -80q2 -10 2 -32t7 -50q17 -58 24 -75z" />
<glyph unicode="&#xa3;" d="M575 727q4 1 10.5 5t10.5 5q76 13 106 13q31 2 93 14l55 6q24 4 39 4q21 48 35 62q1 1 6 10q8 16 14 24v4q-3 1 -8 2.5t-8 2.5q17 12 20 15.5t6 14.5q-4 2 -12 1.5t-10 2.5q0 11 12 15q17 6 17 22v49q-4 13 -15 9q-27 -9 -39 -11q-40 -8 -61 -6q-14 5 -21 2q-57 0 -84 -6 q-37 -6 -110 -6q-15 -3 -29 4q0 1 -1 3t-1 3v8q15 95 70 168q21 24 43 29q29 10 57 4q35 -6 59 -33q7 -11 29 -37q14 -14 25 -12q2 0 17.5 5.5t23.5 6.5q8 3 12 15q21 -7 33 22q2 -2 14 -10q4 10 2 23l2 4q3 -2 7.5 -5.5t6.5 -4.5q14 14 17 16q8 5 24.5 10.5t20.5 7.5 q2 1 5 4.5t5 4.5q-8 16 -12 22q-23 47 -37 59l-6 7q-15 27 -51 63q-98 88 -230 88q-68 -3 -151 -33q-39 -16 -60 -32q-41 -31 -84 -88l-28 -43q-75 -100 -103 -230l-18 -80q-12 -4 -19 -4q-31 0 -45 -2l-145 -18q-19 -3 -27.5 -11t-11.5 -28q0 -6 -2 -10q0 -9 -4 -29 q6 -9 14 -17q-12 -4 -16 -10q-2 -3 -4 -12.5t-4 -13.5q3 -4 3 -8t-1.5 -10t-1.5 -9q8 -4 10 -6q-2 -2 -4 -7t-4 -7q-9 -9 -6 -19l1 -8q0 -8 5 -10q4 -4 4 -6q2 -15 24 -19q13 -3 25 0l61 6q62 8 91 10q20 4 28 0q2 -4 2 -10q-2 -17 -2 -102q0 -3 -1 -10t-1 -11 q-58 -9 -74 -8h-24q-8 -1 -36.5 -4.5t-45.5 -3.5t-57 -4q-25 -4 -27 -25q0 -2 -4 -6q-5 -5 -2 -14q4 -8 -4 -23q-4 -8 -6 -10l2 -4l18 -6q-13 -9 -14 -12q-1 -5 -4 -14.5t-4 -14.5q0 -1 1.5 -9.5t0.5 -13.5q0 -9 10 -12q6 0 12 -2q-6 -5 -13.5 -13.5t-8.5 -9.5q0 -34 20 -51 q40 -4 66 -4q83 -3 149 10q27 6 57 9q3 0 7 -2q0 -2 6 -66q0 -5 2.5 -22.5t2 -21.5t-2.5 -22q-53 -22 -84 -38q-55 -27 -101 -70q-17 -17 -12 -39q2 -4 3 -15t3 -16q1 -1 0.5 -2t-1.5 -2.5t-1 -3.5t-1 -5t-1 -5q8 -4 12 -4v-4q-5 -4 -7.5 -10.5t-4 -14.5t-2.5 -12 q-2 -18 17 -37l2 -2v-6q-8 -8 -9 -10q0 -29 35 -56q18 0 37 19q13 11 30.5 22t28 16t35 16.5t29.5 14.5q48 23 117 27q101 7 184 -16q31 -9 123 -27q73 -11 160 2q57 8 120 37q32 16 43 43q5 21 19 45q17 33 27 74q5 4 0.5 9t-3.5 7q12 18 13 20q-13 4 -10 13q4 26 10 37 q8 16 -2 32q-26 -3 -41 -16q-28 -17 -56 -23q-67 -18 -112 -18q-67 -3 -119 10q-27 7 -82.5 20.5t-83.5 20.5q-2 0 -6 4q-6 27 -8.5 71.5t0.5 57.5l28 6q6 0 15.5 4t11.5 5q15 5 44 5t48 -5q1 0 3 1t3 1q27 8 43 -4q8 -4 21 0q4 0 16 4q12 21 31 37q8 4 8 10q0 4 2 7.5 t5.5 7t4.5 5.5t7 7.5t6 7.5t-2 10q3 3 4.5 10.5t3.5 9.5q2 6 2 8t-2.5 5.5t-3.5 5.5q2 2 5 4.5t5.5 4t4.5 5t3 6.5q-1 2 -3.5 7.5t-2.5 7.5q0 10 2 16q0 2 2.5 5.5t3.5 4.5q-2 1 -5 3t-5 3.5t-4 3.5t-3 4t-1 5q0 7 -4.5 16.5t-5.5 13.5q-6 3 -31 13q-8 -11 -25 -11 q-34 -6 -67 -6q-21 1 -60 -0.5t-51 -1.5q-4 -1 -14 -2t-15 -2q-34 0 -45 8q2 37 2 115zM795 608q6 -2 22 -2q-17 -4 -22 2z" />
<glyph unicode="&#xa4;" d="M1098 252q2 -6 1 -8.5t-7 -1.5q-5 0 -5 -4q0 -2 -4 -2q-6 0 -4 -7q2 -3 1 -5.5t1 -4.5q-4 1 -13 0.5t-15 5.5l-17 6q-9 0 -28 15l-9 6q-18 12 -32 29q-1 2 -5.5 5.5t-5.5 4.5q-27 29 -82 84q-3 -2 -8.5 -8.5t-7.5 -8.5q-4 -4 -6 0q-2 2 2 7q0 2 2 6q-2 -1 -16 -15 l-17 -12v-6q0 -4 2 -6q-34 -25 -53 -33q0 8 4 12q-2 -2 -7.5 -4t-8.5 -4l-33 -20l2 2l-12 -6q-2 0 -12 -5q-5 0 -17 -8v2q-6 -2 -6 -8l-8 -4q0 1 -1 2t-1 2q0 2 -2 2h-2q-3 -7 -6 -8q-26 -10 -50 -4q21 0 25 2q-10 4 -16 2h-15q-6 0 -8 -2q-8 -4 -10 -4q-9 0 -10 4 q-8 4 -13 4q-3 0 -7.5 -1t-6.5 -1q0 -3 1.5 -4t3.5 -0.5t3 -1.5h-2q-12 0 -16 2q-1 -1 -4 -3t-4 -2t-5 1l-2 2q-10 0 -28.5 3.5t-24.5 4.5q-12 2 -31 10q-36 14 -69 41q-7 7 -23 15q-29 22 -43 38q-44 -44 -67 -69q-1 -1 -5.5 -4.5t-5.5 -5.5q-14 -17 -32 -29l-9 -6 q-19 -15 -28 -15l-17 -6q-8 -6 -15 -5.5t-13 -0.5q2 2 1 4.5t1 5.5q2 7 -4 7q-4 0 -4 2q0 4 -5 4q-6 -1 -7 1.5t1 8.5q6 12 0 12l6 19v6q1 1 2.5 4t2.5 4q1 2 2 4.5t1.5 4t0.5 3.5q3 12 18 27q33 33 47 49l58 59l3 4q3 4 5 5h-2q-1 2 -4.5 9.5t-4.5 12.5q-5 15 -8 17 q-4 8 -4 16l-6 18l-6 29q-9 81 -8 104q0 10 -1 31t-1 31q0 32 16 94q8 23 10 37q10 31 35 72q13 23 35 49q-10 10 -14 16q-26 26 -50 53q-30 31 -65 68q-36 40 -57 61q-2 4 -11 13q0 1 -1 5.5t0 6t5 0.5v2q-3 8 4 8q2 0 3 1.5t0 2.5q0 8 4 7h2q-1 4 0 5.5t3 3.5l3 1q2 2 6 2 q8 8 12 8l4 4q6 6 11 4q10 -5 36 -31q41 -38 76 -73q10 -9 29 -29t24 -25q33 -33 39 -40q1 0 2 -1.5t2 -1.5l13 13q48 45 86 63q62 25 71 27l11 4q49 17 106 20q45 3 103 -4q19 0 39 -10q54 -22 98 -57l41 41q36 35 76 73q27 27 34 31q7 2 13 -4l4 -4q4 0 12 -8q4 0 6 -2 l3 -1q2 -2 3 -3.5t0 -5.5q4 1 5 -1t1 -6q-1 -1 0 -2.5t3 -1.5q7 0 4 -8v-2q4 1 5 -0.5t0 -6t-1 -5.5l-13 -13q-9 -10 -27.5 -30.5t-27.5 -30.5q-35 -37 -65 -68q-1 -2 -9 -10l2 -4q17 -28 27 -47q2 -4 5 -13.5t5 -13.5q2 -2 2 -8q19 -39 25 -88q5 -40 4 -49v-16 q2 -27 -2 -80q-2 -6 -2 -17q0 -14 -8 -34q-1 -2 -2 -6.5t-2 -6.5q0 -5 -1 -15.5t-1 -15.5q3 -16 -11 -30q-6 -12 -6 -15q0 -8 -6 -14q-10 -19 -16 -51q0 -12 -8 -12v-9q-13 -5 -21 -22l21 -21l57 -59q14 -16 47 -49q15 -15 18 -27l4 -12q1 -1 2.5 -4t2.5 -4v-6l6 -19 q-6 0 0 -12zM762 643q5 13 9.5 39t6.5 33q7 38 4 67q-2 6 -2 19q0 25 -6 49q-22 71 -86 94q-17 7 -31 4q-22 0 -34 -2q-3 -1 -10 -1.5t-12 -1.5t-9 -3q-37 -23 -47 -35q-52 -58 -53 -59q-15 -18 -25 -41q-17 -39 -23 -80q-5 -22 -2 -49q0 -29 2 -43q4 -41 11 -66 q22 -67 86 -82q9 -3 28.5 -8t28.5 -8q14 -3 25 2l20 12q15 9 27 21t24 12q2 8 15 21l3 3t3 4t0 5v2q4 1 8 14q5 8 14.5 26.5t14.5 26.5q2 4 5 12.5t5 12.5zM717 500q10 10 12 14q-8 -4 -12 -14zM694 481q2 2 4 2l-2 2l-2 -2v-2zM817 334v2q-2 0 -2 -2h2zM795 319q3 3 4 3h-2 h-2v-3zM780 311q3 -2 6 4q-2 0 -5.5 -1t-4.5 -1q0 -2 4 -2z" />
<glyph unicode="&#xa5;" d="M809 748l20 36q5 10 16.5 30t16.5 30q15 23 37 68.5t33 64.5q8 14 23.5 41.5t23.5 40.5q14 30 43 71q8 12 22.5 37.5t22.5 38.5q10 17 63 125q4 9 9 27q4 15 2 22q0 9 -6 9q-28 19 -41 22q-8 4 -15 2q-10 -3 -16 6q0 2 -8 2q-15 0 -31 13q-9 -6 -23 -13q-1 0 -2 1t-2 1 q0 2 -1 6t-1 7q-14 0 -22 2q-4 5 -9 6t-12 -0.5t-10 -1.5h-29l-14 -19q-44 -61 -86 -131q-33 -57 -57 -94q-33 -55 -103 -188q-20 -42 -47 -88q-5 8 -8 16q-30 62 -74 170q-13 32 -38 95t-37 95q-24 64 -50 109q-9 18 -16 25q-10 -3 -25 -11.5t-22 -11.5q-5 0 -8 -6 q-8 -8 -17 -10q-2 0 -4 -2t-5 -4.5t-5 -4.5q-7 -2 -20 -9.5t-15 -8.5q-28 -23 -41 -25q-2 0 -6 -4l-33 -18q-4 -17 4 -45q7 -34 25 -86q58 -161 76 -209q3 -11 16 -41l43 -105q6 -14 18.5 -39.5t18.5 -39.5q1 -2 1 -6t1 -7l-94 -6q-26 0 -76 -4q-24 0 -29 -24 q0 -2 -2.5 -9.5t-2 -9.5l2.5 -10v-8q-6 -6 -6 -23q0 -2 0.5 -7.5t0.5 -8t-1.5 -6.5t-5.5 -7q-2 -2 0 -4q4 -2 1 -14.5t-3 -15.5l25 -19q-3 -2 -11 -5.5t-10 -4.5q0 -2 1 -11t2.5 -14t6.5 -10q6 -6 9 -16q3 -12 14 -15q17 -10 49 -6q54 8 78 8q46 0 92 3h23q0 -5 0.5 -14.5 t0.5 -15.5t-1 -14.5t-5 -15.5h-26q-4 -1 -13.5 -1t-16.5 -1.5t-13 -5.5q-2 0 -4 2q-12 3 -52 -2l-86 -12q-8 -2 -24.5 -5.5t-24.5 -5.5q-25 -3 -37 -24l-6 -19q-5 -10 2 -20q-5 -23 -4 -25q2 -8 -2 -20q-10 -16 -4 -33v-18q6 -8 23 -11t20 -4q-4 -5 -24 -10q-14 -5 -15 -8 q9 -14 8 -16q-1 -3 0 -6t2 -5t3.5 -4t3.5 -4q1 -3 12 -20q16 -5 39 -2q18 3 54.5 8t55.5 8q4 1 12.5 2t12.5 2q15 1 45 4t45 4h16q11 -11 11 -22v-66q0 -14 -2 -16q-7 -13 2 -35q4 -12 12 -14q6 0 6 -4q1 -5 7 -5.5t7 -1.5q0 -1 1.5 -3t1.5 -3q0 -2 4 -10q2 1 8 4.5t8 5.5 q12 -15 31 -8q3 0 7 1t7 1t6 -2q4 -1 8.5 3t6.5 3q3 0 8.5 -1t7.5 -1q16 4 20 10q7 9 25 9q11 0 23 4l36 18q18 11 28 30.5t7 39.5q-3 6 -0.5 33.5t2.5 33.5q4 1 16.5 5t18.5 6q12 6 23 6h30q29 -4 51 2q15 6 29 0q37 -9 51 -6q4 0 4 -4q-1 -1 -3.5 -3t-4.5 -4q4 0 9 -1 t8.5 -1t7.5 2q2 0 5 1.5t4.5 3t0.5 2.5q0 5 6.5 10t5.5 10q-1 2 1.5 3t5.5 2t4 3t2 7.5t2 7.5q0 1 3 2q2 1 3 2l18 6q1 3 3.5 7.5t3 7.5t-0.5 9q-2 5 -1.5 6.5t5 5t5.5 5.5q-13 0 -21 2q2 2 12.5 6.5t12.5 9.5q8 21 -2 29q-1 1 -7.5 1.5t-7.5 6.5q2 1 6.5 2t6.5 2l12 6v4 q-6 4 -4 11l-15 8q0 5 -2.5 13.5t-3 13t3.5 12.5q-4 4 -4 6q-26 22 -45 14q-2 -2 -10 2q-25 8 -35 -2q-4 -2 -10 -2q-1 1 -1.5 3t-1 3t-1.5 2l-16 -6q-12 0 -13 4q-2 2 -10 2q-7 0 -20.5 -1t-20.5 -1h-18q-5 1 -15.5 3t-15.5 3h-21q-12 -2 -17.5 -1.5t-17 3t-16.5 3.5 q0 3 -1 11t-0.5 13.5t3.5 9.5l41 6q5 1 17 1.5t18 1.5q58 3 115 0q23 0 30 16q1 4 6 9t5 9q0 1 6 7t4 12q4 2 7 6t6 9.5t5 8.5q6 6 6 15q0 3 -2 8t-2 8q7 7 13 16q4 12 4 21q-10 5 -13 8q6 6 9 12q1 2 3.5 5t2.5 4q0 8 -2 14q-2 4 2 12q2 3 2 8.5t-2 6.5q-6 5 -11 17.5 t-6 14.5q-2 0 -6 1t-6 1q-12 0 -18 -2q-3 0 -13.5 -1.5t-13.5 -0.5q-5 2 -29 2q-12 2 -73 2q-20 0 -31 7zM907 209l4 4q0 -1 1 -2t1 -2l-2 -2q-2 2 -4 2zM829 207q-4 0 -4 -2q-2 2 -2 4h2q1 0 2 -1t2 -1z" />
<glyph unicode="&#xa8;" d="M725 1520q3 2 5.5 8t6.5 8q3 -9 8 -14q6 3 11 8l8 -8q11 6 14 4q10 -4 31 4q30 8 45 16q24 19 37 19l6 61q3 74 12 150q0 6 1 18t1 18q0 21 -2 31q-7 7 -35 12q-6 -8 -18 -20q-1 3 -2 9t-2 9l-31 -6q-1 -2 -2 -5.5t-1.5 -6t-3 -5.5t-5.5 -5q0 18 -2 26q-12 3 -43 -6 q-6 0 -6 -4q-2 -2 -8 -14h-5l-6 18h-8q-28 -8 -43 -8q-12 0 -16 -14q-6 -12 -6 -29l-7 -135q-1 -18 -4 -52.5t-4 -50.5v-8q0 -12 13 -12q16 -3 28 -8l6 -2q7 6 17 -4q2 -2 10 -2zM338 1507q3 2 5.5 8.5t6.5 8.5q4 -10 8 -15q4 2 11 9q2 -1 5 -5l3 -4q11 5 14 4q9 -4 31 5 q30 8 45 16q22 18 37 18l6 62q3 72 12 149q0 6 1 18.5t1 18.5q0 21 -2 31q-7 7 -35 12q-6 -8 -18 -20q-1 3 -2 9t-2 9l-31 -6q-1 -3 -2.5 -8t-3.5 -8.5t-6 -6.5q0 19 -2 27q-12 3 -43 -6q-6 0 -6 -4q-4 -4 -9 -14h-4l-6 18h-8q-28 -8 -43 -8q-12 0 -16 -15q-6 -12 -6 -28 l-7 -135q-1 -18 -4 -52.5t-4 -50.5v-8q0 -12 12 -12q18 -4 29 -8l6 -3q7 6 17 -4q2 -2 10 -2z" />
<glyph unicode="&#xad;" horiz-adv-x="1187" d="M1120 631q3 -4 4 -8t1 -9t1 -8q-5 -5 -12.5 -8.5t-16 -6.5t-12.5 -5q-33 -10 -108 -21q-30 -6 -143 -16q-21 -5 -46 -2q-6 0 -8 -2q-19 -10 -53 -6q-5 0 -16 -1t-15 -1q-28 -6 -57 0q-3 1 -8 1t-8 1q-68 -5 -78 -4q-43 -5 -121 -3q-19 0 -31 -6q-5 -4 -18 0q-4 2 -25 9 q-27 -4 -31 -11q-2 -2 -8 -2q-6 4 -14.5 6t-15 1.5t-17 -1t-16.5 -0.5l-66 7q-16 8 -24 16q-8 12 -43 47q-6 4 -18.5 14.5t-18.5 14.5v12q-4 3 -17 8q0 8 2 12l3 3q3 -4 26.5 -1t28.5 3q-7 7 -24.5 15t-22.5 11h24q-3 4 -7 7.5t-10 7t-9 6.5q-1 0 -4 3.5t-5 4.5v6 q9 2 25.5 -1t20.5 -3q2 6 2 10v4h-2v-2v-2q-9 0 -9 8q-6 14 -20 21q-2 1 -4.5 3.5t-3.5 2.5q0 8 9 8h3q5 0 41 -6q2 -1 9.5 0.5t10.5 1.5q-2 5 -18 10q-1 1 -7 4.5t-7 6.5q6 3 17 2t17 2q-2 0 -4 1t-3.5 2t-3.5 2.5t-3 2.5q5 1 15 -1t16 -1q11 5 14 12q4 6 9.5 9t9 4t13.5 2 t11 1q5 3 17 4.5t18 4.5q4 4 6 2q6 -2 22 -0.5t23 0.5l6 -2q12 4 54 4l215 18q33 1 192 -4q138 0 236 -10q40 -11 41 -12q10 -5 12 -5q23 0 47 -24q-1 0 -4 -3t-4 -3q9 -9 9.5 -12.5t-7.5 -12.5q15 -29 12 -39q1 -4 1.5 -14t2.5 -16q3 -6 -4 -13l-6 -6q2 -1 4 -3t4 -3l-2 -4 l-1.5 -3t0 -3t3.5 -4q-4 -4 -0.5 -14t2.5 -13q-4 -4 0 -8zM111 731h-2h2z" />
<glyph unicode="&#xaf;" d="M915 1432q-29 13 -67 6h-19q-23 0 -67 -1t-66 -1q-15 0 -42 -1t-40 -1q-32 0 -94 -4q-26 -1 -75 -6.5t-60 -6.5l-180 -18q-20 -3 -86 -21l-13 -24q-2 -4 -2 -15q0 -2 1 -7.5t1 -8.5l-6 -18q0 -1 -1.5 -6t-0.5 -7q4 -8 -4 -20q-2 -5 -2.5 -13.5t-1.5 -11.5q0 -3 2 -6.5 t2 -5.5l-6 -16q4 -4 13 -5.5t12 -5.5q-15 -10 -17 -12q-14 -9 -4 -22q3 0 2 -8l-2 -9l19 -24q5 0 17.5 -2.5t18.5 -2.5q58 -2 213 7q25 1 77 4t77 4q31 2 92 2h80h94q6 0 19.5 -0.5t21 -0.5t18 2t19.5 7h6q11 0 33 18l6 7q6 0 21 10q0 2 -0.5 4t-1 3.5t0.5 2.5t3 2 q6 1 9 8.5t5 8.5q1 1 1 6.5t1 7.5l21 18q4 4 10 27l12 6q0 1 -2.5 5t-1.5 7q8 12 0 23q-3 11 2 16q4 3 5 6.5t0 10.5t-1 8l-2 2q-4 0 -4 -2l-4 -6q0 -6 -6 -6q-4 4 -4 6q0 6 -9 10q11 4 23 27q-17 0 -27 2l21 6q0 4 -1 11t-1 11q-29 8 -43 0q-2 -1 -5 -1t-3 1q-3 2 -7 13z " />
<glyph unicode="&#xb1;" d="M1010 946q-17 4 -23 -2q-4 -4 -20 -4q-51 -2 -152 -2q-25 0 -37 8q-2 6 -2 21q0 27 1 78.5t1 76.5q0 48 -12 80q-22 6 -23 6q-19 8 -28 -10q-9 10 -12.5 12t-14.5 0q-10 -3 -20 2q-4 2 -31 7q-2 0 -5.5 -2.5t-4.5 -2.5q-2 0 -5.5 3.5t-5.5 3.5t-10 -4q-2 -10 -2 -29 q-6 4 -9 16t-9 15h-17q-3 -4 -6 -4t-6.5 2t-5.5 2q-4 0 -4 -2q-2 -2 -6.5 -5.5t-7 -6t-5 -6.5t-2.5 -9q2 -8 -2 -27q0 -17 -1 -49t-1 -49q-2 -18 -2 -57v-45v-17q-8 -16 -20 -16q-7 0 -21.5 -1.5t-26 -1t-22.5 4.5q-4 0 -6 -2q-23 -10 -45 -2h-8q-39 -2 -113 -10 q-1 0 -22 -7q-5 -11 -29 -20q0 -9 -1 -26t-1 -25q0 -13 8 -23l-10 -10l10 -19v-4l-10 -12q1 -3 2.5 -10.5t4 -12.5t7.5 -8q-8 -8 -8 -26q1 -2 1 -7t1 -8q0 -20 2 -30q6 -17 23 -15q21 1 62.5 6.5t63.5 6.5q22 0 130 10q10 0 14 -2q4 -9 4 -45q0 -22 -1 -63.5t-1 -61.5 q-1 -10 -2 -29t-2 -28q-3 -29 6 -56l18 -6q4 -6 17 -6q7 -19 18 -25q6 0 10 -4q3 -6 10.5 -3.5t10.5 -0.5q2 0 10 4l6 6h6l7 -16q13 3 18 2.5t18 -6.5q4 5 17 6.5t16 7.5q4 0 11 -1t8 -1q12 12 20 15q28 11 31 41q2 4 2 12q-2 25 -2 74v36q2 6 -0.5 20.5t0.5 20.5 q-2 8 0 25.5t0 26.5q-1 6 0 18t0 18q0 2 2 7t2 6q21 7 84 12q50 3 84 -6q12 16 20 16q7 0 7 2q2 4 4.5 5t6 1.5t5.5 1.5h16q17 -3 31 11q1 1 4 2t4 2q0 2 -0.5 4t-1 3.5t0.5 2.5t3 2q1 1 8 2.5t7 7.5q0 4 5.5 8.5t4.5 8.5l-6 4q-5 5 0 8q3 1 5.5 3.5t5.5 6.5t5 6q5 8 16 15 l-6 32q-1 4 1.5 9t6.5 10.5t5 7.5q-6 12 -9 14t-14 2q-6 3 -12 3v4q18 0 26 2q-1 2 -6 12.5t-10 15.5q-1 2 -4.5 13.5t-11.5 13.5h-25q-17 0 -25 4q1 1 4.5 2t4.5 2zM459 690l-2 -2q-1 0 -3 1t-3 1l2 2q1 0 3 -1t3 -1zM160 -10l37 -6q50 -4 77 -4q75 -5 179 2q81 4 235 16 q8 1 24 2t23 2q25 0 73 1t71 1q31 2 96 2q6 0 8 2q22 0 41 19q33 26 47 59q3 2 6 3.5t6 2.5t4 2q2 4 2.5 21t8.5 24q-1 4 -4 12.5t-4 12.5q14 14 8 35l-13 8q-3 2 -4 4t0 2q3 6 -3 17t-5 16q-4 4 6 18q-24 7 -39 19q-8 4 -24 4q-10 0 -31 -1t-31 -1q-20 0 -58 -1t-56 -1 q-55 0 -82 -2q-28 -1 -86 -4.5t-88 -4.5q-5 -1 -17 -2t-18 -2q-35 -2 -104.5 -7t-104.5 -7q-12 -1 -35 -3t-41.5 -4t-34.5 -5q-10 -1 -29 -6.5t-24 -6.5q-15 -3 -18 -20v-4q-1 -6 -0.5 -17t-0.5 -20.5t-5 -17.5l6 -13q-18 -25 -8 -45q2 -5 -3 -10q-3 -7 3 -10l12 -6 q-20 -20 -12 -41v-5q3 -4 4.5 -15t5.5 -15z" />
<glyph unicode="&#xb4;" d="M350 1534q-28 0 -33 4q-2 1 -8 -0.5t-8 -1.5l-4 8l-16 -6q0 8 2 14q-6 -1 -13.5 -7t-9.5 -7q-1 1 -3.5 1.5t-3.5 1t-1 1.5t-1 2q-3 8 -11 6q-2 -2 -7 2q-19 10 -26 11q-8 3 -4 14l6 6q2 9 6 26t22 68.5t42 102t68 120t97 130.5q11 14 31 28q17 10 33 10q19 -4 63 0 q1 0 5 -1t6 -1q-1 -3 -4.5 -9t-4.5 -9h9q12 8 18 10l14 6q5 0 19.5 1t24.5 0.5t18 -3.5q-2 -4 -17 -24q7 1 12 3.5t10.5 6.5t8.5 6q14 2 47 2l-10 -18q5 2 18.5 7.5t20.5 8.5q3 -1 14.5 -3t17.5 -5t9 -8q-4 -4 -7.5 -8.5t-8 -11t-7.5 -9.5l-30 -35q-29 -29 -133 -174 t-132 -190q-22 -29 -38 -56q-16 4 -48 -10q-11 -3 -29 -5.5t-24 -4.5z" />
<glyph unicode="&#xb7;" horiz-adv-x="344" d="M283 707v-21q-2 -6 -2 -20q-6 -22 -21 -37q-11 -11 -20 -13q-11 -3 -17 -12l-12 -10q-4 -4 -6 -4l-15 -6q-4 0 -6 -2h-18q-21 0 -37 8l-16 6q-34 15 -41 43q0 1 -5.5 27.5t-5.5 33.5v2v21h2q0 11 3 20q3 22 18 37q10 10 22 13q16 11 17 12l10 10q4 4 8 6q2 1 6.5 2t6.5 2 q2 2 6 2q12 0 18 2q17 0 37 -8q9 -6 16 -6q33 -17 41 -43q2 -6 7 -29l1 -7q1 -6 2 -14.5t1 -14.5z" />
<glyph unicode="&#xb8;" d="M510 -436q-1 0 -2 -1t-2 -1v4q0 -2 4 -2q-25 21 -45 16h-8q-20 3 -41 -4q-29 -6 -58 0q-48 9 -71 51q-4 8 -4 15q4 39 24 59q51 54 89 67.5t93 -1.5q3 -1 5 -3q5 -4 9.5 -5t13.5 0t11 1q5 7 20.5 27t22.5 31l19 24q4 5 12 15.5t12 15.5q80 109 101 139q19 27 33 68 q3 10 0 16q-3 14 -11 19q-14 14 -10 39q-2 2 -2 4q-17 0 -25 2l-6 12q-4 12 -12 14q-2 0 -4 4t-2 7q-2 6 -12 13.5t-11 8.5q-3 2 -10 5t-10 5q-15 12 -31 7q-1 9 -13 17.5t-14 10.5q-27 -14 -49 -47q-8 -9 -23.5 -28.5t-23.5 -28.5q-15 -20 -46.5 -57.5t-47.5 -57.5 q-42 -53 -51 -78q-2 0 -4.5 -1t-3.5 -1q-41 5 -101 -10q-78 -22 -129 -76q-29 -32 -49 -65q-47 -67 -47 -160q0 -54 12 -103q9 -48 33 -88q67 -102 162 -157q85 -44 166 -49q77 -5 184 16q46 8 94 49q9 6 6 19q0 8 -4 12q-5 8 -2 20q4 12 0 35h-8v4q0 5 4 17q7 29 -26 36 q-8 4 -5 15q2 0 2 4q-10 5 -22 14q0 2 1 5t1 5l-14 13q-2 4 -10 5t-11 5v18q-3 -1 -9 -3.5t-9 -2.5h-23q10 14 8 29q-8 -4 -20 -8z" />
<glyph unicode="&#xbf;" horiz-adv-x="899" d="M330 1495q-6 0 -8 -2q-13 -9 -17 -6q-3 3 -8 -2q-24 -6 -29 -6q-12 0 -12 -13v-8q4 -34 8 -102l6 -135q0 -1 2 -13t4 -18q7 -14 19 -14q22 0 43 -9q4 0 8 2q0 7 4 19q4 0 6 -2l6 -12l7 -7q32 -9 45 -6v27q6 -2 12 -21q18 -3 31 -8q1 4 2 11t2 10q9 -12 18 -21q3 1 9 1 t9.5 0.5t9 3t9.5 5.5v31q0 27 -2 39q-9 73 -12 147q-4 40 -4 62q-12 0 -39 18q-6 4 -13.5 7.5t-16.5 6.5t-13 5q-24 5 -33 2q-2 0 -14 4q-6 -6 -7 -8l-12 10q-2 -6 -6 -14q-5 1 -8.5 7.5t-5.5 8.5zM61 250q7 -90 35 -144q13 -20 21 -38q29 -57 78 -109q37 -37 71 -51 q12 -4 33.5 -13.5t32.5 -13.5q64 -24 137 -18q20 2 59 10q75 24 125 59q65 41 121 121q1 2 13.5 20.5t17.5 28.5q22 40 29 93q7 76 2 127q-4 58 -21 94l-18 45q-7 20 -43 71q-14 18 -17 25q-27 34 -61 61q-50 40 -76 80q-11 16 -18 41q-23 77 -25 131v27q0 9 -1 27t-1 26 q0 4 -4 8q-8 3 -4 11v6q-4 0 -5.5 3t-2.5 7t-4 6q-1 0 -3.5 -1.5t-4 -2t-3.5 -1t-4 0t-4 2.5q-2 1 -7.5 0t-6.5 0q-3 4 -21.5 15t-21.5 24h-15q-2 0 -3.5 1.5t-3.5 4.5t-3 4q-4 -4 -8 -6l-10 10q-4 -4 -8 -6q-1 1 -17 13q0 -17 -2 -25q-5 0 -8 7.5t-8 8.5q0 -3 -1 -9t-1 -9 q-6 1 -11 9t-6 9q-12 -6 -14.5 -10t-5.5 -22l-6 6l-9 24q-1 -8 -6 -22q-5 0 -6.5 7t-5.5 7l-12 -8q-2 -6 -5 -18.5t-5 -18.5q-6 4 -9 18t-8 19q-4 -8 -4 -10q4 -15 -8 -43q-5 -7 -14 -29q-6 -10 -15 -47q-8 -22 -2 -51q6 -35 14 -109q12 -72 46 -139q41 -76 96 -141l24 -27 q42 -39 64 -98q10 -29 10 -70q3 -19 -4 -43q-6 -20 -23.5 -33t-37.5 -12q-11 0 -23 8q-53 26 -72 90q-15 56 -30 84q-3 4 -5 10t-4.5 13t-3.5 10l-12 31q-10 19 -31 10q-2 -1 -6.5 -3.5t-7.5 -4t-6 -4.5t-5 -6.5t-3 -8.5q-6 -11 -11 -14q-13 -7 -16 -20l-2 -5 q-5 -1 -9.5 -2.5t-8 -5.5t-5.5 -6.5t-5.5 -8.5t-4.5 -7q-4 -4 -11.5 -14t-12.5 -15q-8 -7 -52 -51z" />
<glyph unicode="&#xc0;" horiz-adv-x="1239" d="M692 1548q-6 1 -24 4.5t-29 6.5q-32 14 -47 10q-9 15 -39 55q-29 47 -131.5 191t-132.5 174l-31 34q-3 3 -10 13.5t-12 15.5q3 5 9 8t17 5t14 3q7 -3 20.5 -8.5t18.5 -7.5l-10 19q26 0 47 -3q3 -2 8.5 -6t10.5 -6.5t12 -3.5q-11 14 -16 25q8 3 18 3.5t24 -0.5t19 -1 l14 -6q5 -2 19 -11h8q-1 3 -4 9.5t-4 9.5q2 0 5.5 1t4.5 1q45 -4 64 0q15 0 32 -10q18 -13 31 -29q84 -96 143 -208t76 -176l17 -63l6 -6q4 -11 -4 -14q-12 -2 -27 -10q-4 -4 -6 -2q-4 1 -6 0t-3 -2t-2 -3.5t-1 -3.5t-1.5 -1.5t-3.5 -1t-4 -1.5q-3 1 -9.5 7.5t-12.5 7.5 q2 -6 2 -15l-17 7q-1 -1 -2 -4.5t-2 -4.5q-2 0 -8 1.5t-8 0.5q-5 -4 -33 -4zM1075 426l-12 37q-21 75 -29 100q-3 16 -10.5 44.5t-9.5 39.5q-1 5 -4.5 13.5t-3.5 9.5q0 10 -2 18q6 -6 2 -18q7 -4 8.5 -8.5t-0.5 -14.5q5 0 8 -6q2 -10 7 -29.5t7 -29.5q15 -57 27 -95 q13 -45 12 -61h4q1 -3 4 -10t4 -10l19 -52q0 -7 6 -4q-8 28 -25.5 83t-25.5 83q-23 80 -29 107q-3 6 -8 26q-15 61 -33 123q-9 30 -23.5 89t-17.5 69q-4 17 -15.5 67t-19.5 78q-3 10 -8 29.5t-8 28.5q-5 23 -29 106l-36 123q-23 67 -31 86q-7 23 -15 27.5t-32 1.5 q-16 0 -19 2q-15 7 -28 -9q-16 22 -21 12q-1 -3 -2 -7q-3 -10 -14 -5q-8 2 -24 -2.5t-23 -3.5q-10 -8 -25 -4l-18 -6q-20 -10 -29 -8q-4 -12 -4 -16h-33q-2 -4 -5 -11.5t-5 -11.5q-16 -36 -35 -98q-16 -51 -20 -76q0 -6 -2 -6q-7 -5 -11.5 -19t-5.5 -16q-14 -22 -12 -41v-4 q-8 -9 -15 -28t-12 -27l-6 -17q-10 -42 -25 -67l-4 -17q-2 -6 -5 -18.5t-5 -18.5q-12 -24 -16 -36q-5 -12 -11 -34t-13 -39.5t-17 -31.5l-6 -16q-3 -15 -17 -56q-4 -10 -10 -30.5t-10 -30.5q-7 -20 -19.5 -62t-19.5 -63q-6 -23 -29 -90l-49 -150q-9 -30 -16 -43 q-13 -27 -23 -67l-24 -101q-1 -6 -3.5 -19t-3.5 -19q0 -24 21 -27q10 0 28 -4.5t25 -5.5q2 -1 18 -5t23 -8q28 -8 39 -6l10 10q14 -14 17 -16h6q18 4 24 -2q0 -2 4 -2q26 4 29 16q3 7 13 26t14 30q35 99 67 170q1 3 4 7t4.5 7.5t2.5 7.5q4 1 12.5 2t11.5 2q13 2 36.5 2.5 t31.5 1.5q7 1 21.5 1.5t26 1.5t21.5 4h7q17 1 51 2t51 2q8 0 16 4q12 3 34.5 3t27.5 1q7 1 21.5 1t21.5 1q20 0 30 -4q11 -4 11 -13q-6 -23 10 -45q8 -11 8 -28q-2 -11 2 -31q0 -6 3 -18t3 -15q10 -34 11 -43q3 -8 8 -35q3 -2 7.5 -4t6.5 -4q4 -2 12 -10q2 1 6 2t5 2 q21 -24 39 -24q10 1 41 -3q24 -4 34 -4q9 0 11 2q4 5 24 5q14 -2 23 -9q20 20 24 23l10 -10q3 3 9 7.5t8 6.5q3 0 7 -5t7 -5q-4 16 2 39q9 0 15 -2q-4 16 0 20q0 30 -2 35q-1 5 -6.5 24t-6.5 29q-5 19 -12 23l14 -58v-18q-7 15 -14 45q-1 2 -2 6.5t-2 7.5l-49 168 q-4 13 -11.5 38t-11.5 38zM512 541q0 12 2 18l25 80q13 34 16 47q3 20 16.5 54t16.5 44l30 84q4 11 12.5 35t12.5 35q1 3 2.5 6t4 7t3.5 7q15 -30 15 -47q6 -39 18 -77q1 -6 5 -17.5t5 -15.5q0 -4 3.5 -14t2.5 -17q0 -8 9 -31l8 -32q4 -9 8 -31q2 -7 5 -21.5t5 -21.5 q3 -27 21 -60q7 -13 -10 -20q-9 -2 -27 -2.5t-23 -1.5q-9 0 -27.5 -2t-27.5 -2q-3 0 -21.5 -3.5t-21.5 1.5h-8q0 -2 -4 -2q-12 -4 -19 -2t-27.5 -0.5t-29.5 2.5zM942 918h2v-7zM950 889l2 -8h-2v8zM961 848q-9 7 -5 18q5 -15 5 -18q1 -1 2 -4.5t2 -5.5q-4 4 -4 10zM698 821 v2h2zM977 784h-2v2zM983 766l-2 -2v2v4q2 -2 2 -4zM987 733l6 -2q10 -20 6 -29l-12 31v15h2q0 -11 -2 -15zM1065 434v-2h-2zM1137 47v-2l-2 2q0 2 2 2v-2z" />
<glyph unicode="&#xc1;" horiz-adv-x="1239" d="M623 1579q-28 0 -33 4q-2 1 -8.5 -0.5t-8.5 -1.5l-4 8l-16 -6q0 8 2 14q-6 -1 -13.5 -7t-9.5 -7q-1 1 -3.5 1.5t-3.5 1t-1 1.5t-1 2q-3 8 -11 6q-2 -2 -6 2q-19 9 -27 11q-8 3 -4 14l6 6q2 9 6 26t22.5 68.5t42.5 102t68 120t97 130.5q11 14 31 28q18 11 32 11 q19 -4 64 0q1 0 4.5 -1.5t5.5 -1.5q-1 -3 -4 -9t-4 -9h8q12 8 18 10l15 6q5 0 19 1t24 0.5t18 -3.5q-4 -8 -16 -24q7 1 12 3.5t10.5 6.5t8.5 6q14 2 47 2l-11 -18q5 2 18.5 7.5t20.5 8.5q3 -1 14.5 -3t17.5 -5t9 -8q-5 -5 -12 -15.5t-10 -13.5l-31 -35 q-29 -29 -132.5 -173.5t-131.5 -190.5q-27 -36 -39 -56q-15 4 -47 -10q-11 -3 -29 -5.5t-24 -4.5zM1075 426l-12 37q-21 75 -29 100q-3 16 -10.5 44.5t-9.5 39.5q-1 5 -4.5 13.5t-3.5 9.5q0 10 -2 18q6 -6 2 -18q7 -4 8.5 -8.5t-0.5 -14.5q5 0 8 -6q2 -10 7 -29.5t7 -29.5 q15 -57 27 -95q13 -45 12 -61h4q1 -3 4 -10t4 -10l19 -52q0 -7 6 -4q-8 28 -25.5 83t-25.5 83q-23 80 -29 107q-3 6 -8 26q-15 61 -33 123q-9 30 -23.5 89t-17.5 69q-4 17 -15.5 67t-19.5 78q-3 10 -8 29.5t-8 28.5q-5 23 -29 106l-36 123q-23 67 -31 86q-7 23 -15 27.5 t-32 1.5q-16 0 -19 2q-15 7 -28 -9q-16 22 -21 12q-1 -3 -2 -7q-3 -10 -14 -5q-8 2 -24 -2.5t-23 -3.5q-10 -8 -25 -4l-18 -6q-20 -10 -29 -8q-4 -12 -4 -16h-33q-2 -4 -5 -11.5t-5 -11.5q-16 -36 -35 -98q-16 -51 -20 -76q0 -6 -2 -6q-7 -5 -11.5 -19t-5.5 -16 q-14 -22 -12 -41v-4q-8 -9 -15 -28t-12 -27l-6 -17q-10 -42 -25 -67l-4 -17q-2 -6 -5 -18.5t-5 -18.5q-12 -24 -16 -36q-5 -12 -11 -34t-13 -39.5t-17 -31.5l-6 -16q-3 -15 -17 -56q-4 -10 -10 -30.5t-10 -30.5q-7 -20 -19.5 -62t-19.5 -63q-6 -23 -29 -90l-49 -150 q-9 -30 -16 -43q-13 -27 -23 -67l-24 -101q-1 -6 -3.5 -19t-3.5 -19q0 -24 21 -27q10 0 28 -4.5t25 -5.5q2 -1 18 -5t23 -8q28 -8 39 -6l10 10q14 -14 17 -16h6q18 4 24 -2q0 -2 4 -2q26 4 29 16q3 7 13 26t14 30q35 99 67 170q1 3 4 7t4.5 7.5t2.5 7.5q4 1 12.5 2t11.5 2 q13 2 36.5 2.5t31.5 1.5q7 1 21.5 1.5t26 1.5t21.5 4h7q17 1 51 2t51 2q8 0 16 4q12 3 34.5 3t27.5 1q7 1 21.5 1t21.5 1q20 0 30 -4q11 -4 11 -13q-6 -23 10 -45q8 -11 8 -28q-2 -11 2 -31q0 -6 3 -18t3 -15q10 -34 11 -43q3 -8 8 -35q3 -2 7.5 -4t6.5 -4q4 -2 12 -10 q2 1 6 2t5 2q21 -24 39 -24q10 1 41 -3q24 -4 34 -4q9 0 11 2q4 5 24 5q14 -2 23 -9q20 20 24 23l10 -10q3 3 9 7.5t8 6.5q3 0 7 -5t7 -5q-4 16 2 39q9 0 15 -2q-4 16 0 20q0 30 -2 35q-1 5 -6.5 24t-6.5 29q-5 19 -12 23l14 -58v-18q-7 15 -14 45q-1 2 -2 6.5t-2 7.5 l-49 168q-4 13 -11.5 38t-11.5 38zM512 541q0 12 2 18l25 80q13 34 16 47q3 20 16.5 54t16.5 44l30 84q4 11 12.5 35t12.5 35q1 3 2.5 6t4 7t3.5 7q15 -30 15 -47q6 -39 18 -77q1 -6 5 -17.5t5 -15.5q0 -4 3.5 -14t2.5 -17q0 -8 9 -31l8 -32q4 -9 8 -31q2 -7 5 -21.5 t5 -21.5q3 -27 21 -60q7 -13 -10 -20q-9 -2 -27 -2.5t-23 -1.5q-9 0 -27.5 -2t-27.5 -2q-3 0 -21.5 -3.5t-21.5 1.5h-8q0 -2 -4 -2q-12 -4 -19 -2t-27.5 -0.5t-29.5 2.5zM942 918h2v-7zM950 889l2 -8h-2v8zM961 848q-9 7 -5 18q5 -15 5 -18q1 -1 2 -4.5t2 -5.5q-4 4 -4 10z M698 821v2h2zM977 784h-2v2zM983 766l-2 -2v2v4q2 -2 2 -4zM987 733l6 -2q10 -20 6 -29l-12 31v15h2q0 -11 -2 -15zM1065 434v-2h-2zM1137 47v-2l-2 2q0 2 2 2v-2z" />
<glyph unicode="&#xc2;" horiz-adv-x="1239" d="M424 1671q-25 16 -47 64q7 20 29 45q65 65 96 100q18 18 22 25q21 25 41 39q4 2 8 6q16 20 9 32q13 8 28 19q17 10 31 8q4 0 16 8q30 17 48 19q6 -9 16 -19q1 0 3 -1t3 -1l-6 25q1 0 2 1t2 1q25 5 59 20q13 5 21 -8q4 -4 8 -16q27 -62 88 -166l31 -66q27 -56 45 -98 q-16 -29 -43 -49q-4 -2 -12 -10q-17 -22 -54 -33l-16 -6q-10 -8 -29 -4q-58 9 -75 8q-13 17 -23 36.5t-22 48t-17 40.5q-4 -2 -8 -6q-4 -6 -13.5 -17.5t-13.5 -17.5q-15 -21 -35 -41q-17 -16 -55 -58q-7 -7 -14 -24q-9 -3 -19 0l-22 10l-6 6q-2 2 -5 7.5t-7 8.5t-9 3 q-2 0 -8 6q-5 14 -14 14q-4 0 -4 4q-3 6 -7.5 10.5t-11 8.5t-10.5 8v10zM1176 123q2 -5 2 -35q-4 -4 0 -20q-6 2 -15 2q-6 -23 -2 -39q-3 0 -7 5t-7 5l-17 -14l-10 10q-4 -3 -24 -23q-9 7 -23 9q-20 0 -24 -5q-2 -2 -11 -2q-10 0 -34 4q-31 4 -41 3q-18 0 -39 24 q-1 -1 -5 -2t-6 -2q-8 8 -12 10q-2 2 -6.5 4t-7.5 4q-5 27 -8 35q-1 9 -11 43q0 3 -3 15t-3 18q-4 20 -2 31q0 17 -8 28q-16 22 -10 45q0 9 -11 13q-10 4 -30 4q-7 -1 -21.5 -1t-21.5 -1q-5 -1 -27.5 -1t-34.5 -3q-8 -4 -16 -4q-17 -1 -51 -2t-51 -2h-7q-10 -3 -21.5 -4 t-26 -1.5t-21.5 -1.5q-8 -1 -31.5 -1.5t-36.5 -2.5q-3 -1 -11.5 -2t-12.5 -2l-11 -22q-32 -71 -67 -170q-4 -11 -14 -30t-13 -26q-3 -12 -29 -16q-4 0 -4 2q-6 6 -24 2h-6q-3 2 -17 16l-10 -10q-11 -2 -39 6q-7 4 -23 8t-18 5q-7 1 -25 5.5t-28 4.5q-21 3 -21 27l7 38 q8 35 24 101q10 40 23 67q7 13 16 43l49 150q23 67 29 90q7 21 19.5 63t19.5 62q4 10 10 30.5t10 30.5q14 41 17 56l6 16q10 14 17 31.5t13 39.5t11 34q4 12 16 36q2 6 5 18.5t5 18.5l4 17q15 25 25 67l6 17q5 8 12 27t15 28q2 2 0 4q-2 19 12 41q1 2 5.5 16t11.5 19 q2 0 2 6q4 25 20 76q19 62 35 98l10 23h33q0 4 4 16q9 -2 29 8q2 1 5.5 2.5t6.5 2.5t6 1q15 -4 25 4q7 -1 23 3.5t24 2.5q11 -5 14 5q4 21 22 -3q1 -1 1 -2q13 16 28 9q3 -2 19 -2q24 3 32 -1.5t15 -27.5q8 -20 31 -86l36 -123q24 -84 29 -106q3 -9 8 -28.5t8 -29.5 q8 -28 19.5 -78t15.5 -67q3 -10 17.5 -69t23.5 -89q18 -62 33 -123q5 -20 8 -26q6 -28 29 -107q8 -28 25.5 -83t25.5 -83q-6 -3 -6 4l-19 52q-1 3 -4 10t-4 10h-4q1 16 -12 61q-12 39 -27 95q-2 10 -7 29.5t-7 29.5q-3 6 -8 6q2 10 0.5 14.5t-8.5 8.5q4 12 -2 18q2 -8 2 -18 q0 -1 3.5 -9.5t4.5 -13.5q2 -11 9.5 -39.5t10.5 -44.5q8 -25 29 -100l12 -37q4 -13 11.5 -38t11.5 -38l49 -168q1 -3 2 -7.5t2 -6.5q7 -30 14 -45v18l-14 58q7 -4 12 -23q1 -10 6.5 -29t6.5 -24zM748 553q17 7 10 20q-18 33 -21 60q-2 7 -5 21.5t-5 21.5q-4 22 -8 31l-8 32 q-9 22 -9 31q1 7 -2.5 17t-3.5 14q-1 4 -5 15.5t-5 17.5q-12 38 -18 77q0 17 -15 47q-1 -3 -3.5 -7t-4 -7t-2.5 -6l-25 -70q-5 -15 -15 -42t-15 -42q-3 -10 -16.5 -44t-16.5 -54q-3 -13 -16 -47l-25 -80q-2 -6 -2 -18q9 -5 29.5 -2.5t27.5 0.5t19 2q4 0 4 2h8 q3 -5 21.5 -1.5t21.5 3.5q9 0 27.5 2t27.5 2q5 1 23 1.5t27 2.5zM944 911v7h-2q0 -5 2 -7zM950 881h2q0 1 -1 4t-1 4v-8zM961 848q0 -6 4 -10q-1 2 -2 5.5t-2 4.5q0 3 -5 18q-4 -11 5 -18zM698 823v-2l2 2h-2zM975 784h2l-2 2v-2zM981 764l2 2q0 2 -2 4v-4v-2zM999 702 q4 9 -6 29q-4 0 -6 2q2 4 2 15h-2v-15zM1065 432v2l-2 -2h2zM1137 47v2l-2 -2q-1 0 0 -1t2 -1v2z" />
<glyph unicode="&#xc3;" horiz-adv-x="1239" d="M371 1624q1 -3 3.5 -10t4.5 -10.5t5.5 -8t8.5 -6.5q1 -5 15 -10l12 -12q15 6 18 18q4 19 11 39t16.5 46t13.5 38q8 22 29 39q26 -12 41 -35l24 -37q46 -65 115 -80q14 -3 53 -8q19 -4 58 0q34 6 35 6q43 11 63 27q6 5 57 45q24 18 47 41q49 41 68 109q5 19 0 26 q-10 17 -6 45q0 6 1 18t1 19q-1 -1 -3 -2l-3 -1.5t-2 -0.5l-6 -4q-1 9 4 25.5t6 21.5q-11 7 -19 10l-10 -10q-1 2 -2.5 3.5t-1.5 2.5q0 3 1 9.5t1 9.5q0 4 -2 4q-6 -2 -16 8l-15 -8q-2 10 -2 24q-4 -2 -10 -8q-8 -4 -12 -8v14v12q-2 1 -9.5 5t-9.5 3.5t-10 -1.5q-5 4 -14 5 t-10 1q-4 -8 -11 -21t-8 -16q-16 -26 -33 -66q-13 -30 -37 -61q-26 -33 -61 -25l-35 47q-8 13 -12 15q-50 50 -64 61q-67 55 -153 43q-29 -4 -47 -14l-62 -35q-8 -4 -22 -18q-21 -21 -31 -33q-32 -36 -45 -68l-37 -104v-4q6 -3 15.5 -13.5t13.5 -13.5q6 -5 14 -17.5 t10 -15.5q4 2 11 2q2 -18 12 -32q9 -12 20 -23q2 -2 13 -2zM1075 426l-12 37q-21 75 -29 100q-3 16 -10.5 44.5t-9.5 39.5q-1 5 -4.5 13.5t-3.5 9.5q0 10 -2 18q6 -6 2 -18q7 -4 8.5 -8.5t-0.5 -14.5q5 0 8 -6q2 -10 7 -29.5t7 -29.5q15 -57 27 -95q13 -45 12 -61h4 q1 -3 4 -10t4 -10l19 -52q0 -7 6 -4q-8 28 -25.5 83t-25.5 83q-23 80 -29 107q-3 6 -8 26q-15 61 -33 123q-9 30 -23.5 89t-17.5 69q-4 17 -15.5 67t-19.5 78q-3 10 -8 29.5t-8 28.5q-5 23 -29 106l-36 123q-23 67 -31 86q-7 23 -15 27.5t-32 1.5q-16 0 -19 2q-15 7 -28 -9 q-16 22 -21 12q-1 -3 -2 -7q-3 -10 -14 -5q-8 2 -24 -2.5t-23 -3.5q-10 -8 -25 -4l-18 -6q-20 -10 -29 -8q-4 -12 -4 -16h-33q-2 -4 -5 -11.5t-5 -11.5q-16 -36 -35 -98q-16 -51 -20 -76q0 -6 -2 -6q-7 -5 -11.5 -19t-5.5 -16q-14 -22 -12 -41v-4q-8 -9 -15 -28t-12 -27 l-6 -17q-10 -42 -25 -67l-4 -17q-2 -6 -5 -18.5t-5 -18.5q-12 -24 -16 -36q-5 -12 -11 -34t-13 -39.5t-17 -31.5l-6 -16q-3 -15 -17 -56q-4 -10 -10 -30.5t-10 -30.5q-7 -20 -19.5 -62t-19.5 -63q-6 -23 -29 -90l-49 -150q-9 -30 -16 -43q-13 -27 -23 -67l-24 -101 q-1 -6 -3.5 -19t-3.5 -19q0 -24 21 -27q10 0 28 -4.5t25 -5.5q2 -1 18 -5t23 -8q28 -8 39 -6l10 10q14 -14 17 -16h6q18 4 24 -2q0 -2 4 -2q26 4 29 16q3 7 13 26t14 30q35 99 67 170q1 3 4 7t4.5 7.5t2.5 7.5q4 1 12.5 2t11.5 2q13 2 36.5 2.5t31.5 1.5q7 1 21.5 1.5 t26 1.5t21.5 4h7q17 1 51 2t51 2q8 0 16 4q12 3 34.5 3t27.5 1q7 1 21.5 1t21.5 1q20 0 30 -4q11 -4 11 -13q-6 -23 10 -45q8 -11 8 -28q-2 -11 2 -31q0 -6 3 -18t3 -15q10 -34 11 -43q3 -8 8 -35q3 -2 7.5 -4t6.5 -4q4 -2 12 -10q2 1 6 2t5 2q21 -24 39 -24q10 1 41 -3 q24 -4 34 -4q9 0 11 2q4 5 24 5q14 -2 23 -9q20 20 24 23l10 -10q3 3 9 7.5t8 6.5q3 0 7 -5t7 -5q-4 16 2 39q9 0 15 -2q-4 16 0 20q0 30 -2 35q-1 5 -6.5 24t-6.5 29q-5 19 -12 23l14 -58v-18q-7 15 -14 45q-1 2 -2 6.5t-2 7.5l-49 168q-4 13 -11.5 38t-11.5 38zM512 541 q0 12 2 18l25 80q13 34 16 47q3 20 16.5 54t16.5 44l30 84q4 11 12.5 35t12.5 35q1 3 2.5 6t4 7t3.5 7q15 -30 15 -47q6 -39 18 -77q1 -6 5 -17.5t5 -15.5q0 -4 3.5 -14t2.5 -17q0 -8 9 -31l8 -32q4 -9 8 -31q2 -7 5 -21.5t5 -21.5q3 -27 21 -60q7 -13 -10 -20 q-9 -2 -27 -2.5t-23 -1.5q-9 0 -27.5 -2t-27.5 -2q-3 0 -21.5 -3.5t-21.5 1.5h-8q0 -2 -4 -2q-12 -4 -19 -2t-27.5 -0.5t-29.5 2.5zM942 918h2v-7zM950 889l2 -8h-2v8zM961 848q-9 7 -5 18q5 -15 5 -18q1 -1 2 -4.5t2 -5.5q-4 4 -4 10zM698 821v2h2zM977 784h-2v2zM983 766 l-2 -2v2v4q2 -2 2 -4zM987 733l6 -2q10 -20 6 -29l-12 31v15h2q0 -11 -2 -15zM1065 434v-2h-2zM1137 47v-2l-2 2q0 2 2 2v-2z" />
<glyph unicode="&#xc4;" horiz-adv-x="1239" d="M811 1595q3 2 5.5 8.5t6.5 8.5q3 -10 8 -15q4 2 11 9q2 -1 5 -5l3 -4q12 6 14 5q10 -4 31 4q30 8 45 16q22 18 37 18l6 62q3 72 12 149q0 6 1 18.5t1 18.5q0 21 -2 31q-8 8 -34 12q-3 -4 -19 -20q-1 3 -2 9t-2 9l-31 -6q-1 -2 -2 -5.5t-1.5 -6t-3 -5.5t-5.5 -5 q0 18 -2 26q-12 3 -43 -6q-6 0 -6 -4q-2 -2 -8 -14h-5l-6 18h-8q-28 -8 -43 -8q-12 0 -16 -15q-6 -12 -6 -28l-7 -135q-1 -18 -4 -52.5t-4 -50.5v-8q0 -12 13 -12q16 -3 28 -8l6 -2q7 5 17 -5q2 -2 10 -2zM424 1583q3 2 5.5 8t6.5 8q3 -9 8 -14q6 3 11 8l8 -8q11 5 14 4 q11 -4 31 4q27 7 45 17q23 18 37 18l6 62q3 72 12 149q0 6 1 18.5t1 18.5q0 21 -2 31q-7 7 -35 12q-9 -12 -18 -21q-1 3 -2 9.5t-2 9.5l-31 -6q-1 -3 -2.5 -8t-3.5 -8.5t-6 -6.5q0 19 -2 27q-12 3 -43 -6q-6 0 -6 -4q-1 -1 -8 -15h-5q-1 3 -3 9.5t-3 9.5h-8q-28 -8 -43 -8 q-12 0 -16 -15q-6 -12 -6 -28l-7 -136q-1 -18 -4 -52t-4 -50v-8q0 -13 12 -13q18 -4 29 -8l6 -2q7 6 17 -4q2 -2 10 -2zM1075 426l-12 37q-21 75 -29 100q-3 16 -10.5 44.5t-9.5 39.5q-1 5 -4.5 13.5t-3.5 9.5q0 10 -2 18q6 -6 2 -18q7 -4 8.5 -8.5t-0.5 -14.5q5 0 8 -6 q2 -10 7 -29.5t7 -29.5q15 -57 27 -95q13 -45 12 -61h4q1 -3 4 -10t4 -10l19 -52q0 -7 6 -4q-8 28 -25.5 83t-25.5 83q-23 80 -29 107q-3 6 -8 26q-15 61 -33 123q-9 30 -23.5 89t-17.5 69q-4 17 -15.5 67t-19.5 78q-3 10 -8 29.5t-8 28.5q-5 23 -29 106l-36 123 q-23 67 -31 86q-7 23 -15 27.5t-32 1.5q-16 0 -19 2q-15 7 -28 -9q-16 22 -21 12q-1 -3 -2 -7q-3 -10 -14 -5q-8 2 -24 -2.5t-23 -3.5q-10 -8 -25 -4l-18 -6q-20 -10 -29 -8q-4 -12 -4 -16h-33q-2 -4 -5 -11.5t-5 -11.5q-16 -36 -35 -98q-16 -51 -20 -76q0 -6 -2 -6 q-7 -5 -11.5 -19t-5.5 -16q-14 -22 -12 -41v-4q-8 -9 -15 -28t-12 -27l-6 -17q-10 -42 -25 -67l-4 -17q-2 -6 -5 -18.5t-5 -18.5q-12 -24 -16 -36q-5 -12 -11 -34t-13 -39.5t-17 -31.5l-6 -16q-3 -15 -17 -56q-4 -10 -10 -30.5t-10 -30.5q-7 -20 -19.5 -62t-19.5 -63 q-6 -23 -29 -90l-49 -150q-9 -30 -16 -43q-13 -27 -23 -67l-24 -101q-1 -6 -3.5 -19t-3.5 -19q0 -24 21 -27q10 0 28 -4.5t25 -5.5q2 -1 18 -5t23 -8q28 -8 39 -6l10 10q14 -14 17 -16h6q18 4 24 -2q0 -2 4 -2q26 4 29 16q3 7 13 26t14 30q35 99 67 170q1 3 4 7t4.5 7.5 t2.5 7.5q4 1 12.5 2t11.5 2q13 2 36.5 2.5t31.5 1.5q7 1 21.5 1.5t26 1.5t21.5 4h7q17 1 51 2t51 2q8 0 16 4q12 3 34.5 3t27.5 1q7 1 21.5 1t21.5 1q20 0 30 -4q11 -4 11 -13q-6 -23 10 -45q8 -11 8 -28q-2 -11 2 -31q0 -6 3 -18t3 -15q10 -34 11 -43q3 -8 8 -35 q3 -2 7.5 -4t6.5 -4q4 -2 12 -10q2 1 6 2t5 2q21 -24 39 -24q10 1 41 -3q24 -4 34 -4q9 0 11 2q4 5 24 5q14 -2 23 -9q20 20 24 23l10 -10q3 3 9 7.5t8 6.5q3 0 7 -5t7 -5q-4 16 2 39q9 0 15 -2q-4 16 0 20q0 30 -2 35q-1 5 -6.5 24t-6.5 29q-5 19 -12 23l14 -58v-18 q-7 15 -14 45q-1 2 -2 6.5t-2 7.5l-49 168q-4 13 -11.5 38t-11.5 38zM512 541q0 12 2 18l25 80q13 34 16 47q3 20 16.5 54t16.5 44l30 84q4 11 12.5 35t12.5 35q1 3 2.5 6t4 7t3.5 7q15 -30 15 -47q6 -39 18 -77q1 -6 5 -17.5t5 -15.5q0 -4 3.5 -14t2.5 -17q0 -8 9 -31 l8 -32q4 -9 8 -31q2 -7 5 -21.5t5 -21.5q3 -27 21 -60q7 -13 -10 -20q-9 -2 -27 -2.5t-23 -1.5q-9 0 -27.5 -2t-27.5 -2q-3 0 -21.5 -3.5t-21.5 1.5h-8q0 -2 -4 -2q-12 -4 -19 -2t-27.5 -0.5t-29.5 2.5zM942 918h2v-7zM950 889l2 -8h-2v8zM961 848q-9 7 -5 18q5 -15 5 -18 q1 -1 2 -4.5t2 -5.5q-4 4 -4 10zM698 821v2h2zM977 784h-2v2zM983 766l-2 -2v2v4q2 -2 2 -4zM987 733l6 -2q10 -20 6 -29l-12 31v15h2q0 -11 -2 -15zM1065 434v-2h-2zM1137 47v-2l-2 2q0 2 2 2v-2z" />
<glyph unicode="&#xc5;" horiz-adv-x="1239" d="M1001 1952q1 18 -2 43.5t-6.5 44.5t-3.5 20q-8 52 -16 80q-25 84 -119 125q-7 0 -14.5 2.5t-17.5 7t-15 6.5q-46 25 -107 25q-9 -1 -26.5 -2t-26.5 -2q-6 0 -18 -4q-6 -3 -18.5 -8.5t-18.5 -8.5q-18 -9 -23 -14q-28 -28 -30 -31q-20 -20 -50 -32q-37 -13 -61 -37 q-46 -43 -55 -107q-6 -27 -6 -59h-2q-3 -24 -3 -55v-9q0 -26 13 -97t18 -85q24 -81 119 -123q17 -2 45 -18q56 -26 109 -23q8 0 25.5 1t25.5 1q16 4 18 6q12 3 39 17q5 1 21 12q6 5 32 31q17 23 50 33q32 11 61 37q43 43 55 106q0 1 6 59q2 0 2 2q0 5 0.5 16.5t0.5 21.5 t-1 18zM731 1864q-1 -4 -8 -25q-6 -9 -12 -12q-38 -13 -66 4q-19 13 -22 31q-10 46 -11 53q0 3 -1 9.5t-1 10.5q0 11 8 31q14 36 17 68q0 8 8 24q5 11 12 13q41 11 66 -7q20 -16 22 -30q2 -8 5.5 -26t5.5 -26q0 -4 1 -10.5t1 -9.5q-4 -22 -8 -31q-17 -49 -17 -67zM1075 426 l-12 37q-21 75 -29 100q-3 16 -10.5 44.5t-9.5 39.5q-1 5 -4.5 13.5t-3.5 9.5q0 10 -2 18q6 -6 2 -18q7 -4 8.5 -8.5t-0.5 -14.5q5 0 8 -6q2 -10 7 -29.5t7 -29.5q15 -57 27 -95q13 -45 12 -61h4q1 -3 4 -10t4 -10l19 -52q0 -7 6 -4q-8 28 -25.5 83t-25.5 83q-23 80 -29 107 q-3 6 -8 26q-15 61 -33 123q-9 30 -23.5 89t-17.5 69q-4 17 -15.5 67t-19.5 78q-3 10 -8 29.5t-8 28.5q-5 23 -29 106l-36 123q-23 67 -31 86q-7 23 -15 27.5t-32 1.5q-16 0 -19 2q-15 7 -28 -9q-16 22 -21 12q-1 -3 -2 -7q-3 -10 -14 -5q-8 2 -24 -2.5t-23 -3.5 q-10 -8 -25 -4l-18 -6q-20 -10 -29 -8q-4 -12 -4 -16h-33q-2 -4 -5 -11.5t-5 -11.5q-16 -36 -35 -98q-16 -51 -20 -76q0 -6 -2 -6q-7 -5 -11.5 -19t-5.5 -16q-14 -22 -12 -41v-4q-8 -9 -15 -28t-12 -27l-6 -17q-10 -42 -25 -67l-4 -17q-2 -6 -5 -18.5t-5 -18.5 q-12 -24 -16 -36q-5 -12 -11 -34t-13 -39.5t-17 -31.5l-6 -16q-3 -15 -17 -56q-4 -10 -10 -30.5t-10 -30.5q-7 -20 -19.5 -62t-19.5 -63q-6 -23 -29 -90l-49 -150q-9 -30 -16 -43q-13 -27 -23 -67l-24 -101q-1 -6 -3.5 -19t-3.5 -19q0 -24 21 -27q10 0 28 -4.5t25 -5.5 q2 -1 18 -5t23 -8q28 -8 39 -6l10 10q14 -14 17 -16h6q18 4 24 -2q0 -2 4 -2q26 4 29 16q3 7 13 26t14 30q35 99 67 170q1 3 4 7t4.5 7.5t2.5 7.5q4 1 12.5 2t11.5 2q13 2 36.5 2.5t31.5 1.5q7 1 21.5 1.5t26 1.5t21.5 4h7q17 1 51 2t51 2q8 0 16 4q12 3 34.5 3t27.5 1 q7 1 21.5 1t21.5 1q20 0 30 -4q11 -4 11 -13q-6 -23 10 -45q8 -11 8 -28q-2 -11 2 -31q0 -6 3 -18t3 -15q10 -34 11 -43q3 -8 8 -35q3 -2 7.5 -4t6.5 -4q4 -2 12 -10q2 1 6 2t5 2q21 -24 39 -24q10 1 41 -3q24 -4 34 -4q9 0 11 2q4 5 24 5q14 -2 23 -9q20 20 24 23l10 -10 q3 3 9 7.5t8 6.5q3 0 7 -5t7 -5q-4 16 2 39q9 0 15 -2q-4 16 0 20q0 30 -2 35q-1 5 -6.5 24t-6.5 29q-5 19 -12 23l14 -58v-18q-7 15 -14 45q-1 2 -2 6.5t-2 7.5l-49 168q-4 13 -11.5 38t-11.5 38zM512 541q0 12 2 18l25 80q13 34 16 47q3 20 16.5 54t16.5 44l30 84 q4 11 12.5 35t12.5 35q1 3 2.5 6t4 7t3.5 7q15 -30 15 -47q6 -39 18 -77q1 -6 5 -17.5t5 -15.5q0 -4 3.5 -14t2.5 -17q0 -8 9 -31l8 -32q4 -9 8 -31q2 -7 5 -21.5t5 -21.5q3 -27 21 -60q7 -13 -10 -20q-9 -2 -27 -2.5t-23 -1.5q-9 0 -27.5 -2t-27.5 -2q-3 0 -21.5 -3.5 t-21.5 1.5h-8q0 -2 -4 -2q-12 -4 -19 -2t-27.5 -0.5t-29.5 2.5zM942 918h2v-7zM950 889l2 -8h-2v8zM961 848q-9 7 -5 18q5 -15 5 -18q1 -1 2 -4.5t2 -5.5q-4 4 -4 10zM698 821v2h2zM977 784h-2v2zM983 766l-2 -2v2v4q2 -2 2 -4zM987 733l6 -2q10 -20 6 -29l-12 31v15h2 q0 -11 -2 -15zM1065 434v-2h-2zM1137 47v-2l-2 2q0 2 2 2v-2z" />
<glyph unicode="&#xc6;" horiz-adv-x="1830" d="M1729 1341q-2 -4 -10 -21t-11 -26q-4 -8 -4 -12q2 -7 -2 -17.5t-4 -13.5q-4 -8 -8 -10q-7 -4 -21 -22q-20 -32 -35 -45q-5 -3 -13 -12t-13 -11q-4 -2 -10.5 -2t-14.5 1t-12 1q-50 4 -76 4h-70h-114h-33q-6 0 -20 -1t-21 -1h-18q0 -1 -1 -3t-1 -3v-53v-56q1 -26 -1 -74.5 t-2 -66.5v-39q2 -2 17 -2q25 0 74 1t73 1q16 3 35 0q16 -2 23.5 -8t11.5 -23q5 -18 12 -24q6 -4 6 -17q-8 -41 -6 -63v-10q-10 -34 -16 -60q-2 -16 -23 -24q-1 -3 -2 -10t-2 -9q-1 -3 -3 -5t-5 -4t-4 -3q-4 -4 -19 -4q-24 1 -155 -4l-12 -4q4 -62 4 -92q2 -31 2 -95 q1 -15 0 -44.5t0 -43.5l6 -4q121 9 239 12h101q29 -4 47 -14q8 -4 10 -6q2 -4 11.5 -16t11.5 -21q1 -3 7.5 -9t8.5 -9v-43v-13q6 -23 -4 -49q-13 -48 -41 -80l-10 -10q-1 -1 -4 -2t-4 -2q-9 -16 -39 -12q-70 6 -209 2q-21 -1 -62 -4t-61 -4q-45 0 -70 -2h-4q-2 0 -4 -2v2 q-14 0 -20 -2q-12 -8 -17 -13q-8 8 -22 8q-8 -2 -27 -2q0 -2 -2 -2q-2 -2 -8 -2q-2 0 -6 1t-6 1q-36 -2 -91 9q-13 3 -16 18l-4 -2q-2 2 -4.5 5.5t-3.5 4.5q-2 2 -7 4t-8 4q2 10 2 35q0 20 3 41v33q1 3 2 9t2 9v2q-1 3 -4 11.5t-3 11.5q5 10 5 22q-3 21 6 35q2 5 -6 13 q-13 5 -33 2h-43q-7 -1 -21 -1t-24.5 -1t-20.5 -5q-3 0 -8.5 -1t-7.5 -1q-18 -1 -54 -2t-55 -2h-6q-11 -3 -23.5 -4t-27.5 -1t-23 -1t-31.5 -1.5t-37.5 -2.5q-17 0 -27 -2q-13 -18 -16 -23q-56 -73 -117 -163q-6 -9 -20.5 -28t-20.5 -28q-8 -9 -35 -14q-4 0 -6 2q-3 7 -22 2 h-9q-4 8 -12 16l-10 -10q-15 -2 -39 6q-16 7 -41 11q-4 1 -22 6t-29 6q-21 3 -15 24q7 21 19 39q8 17 53 99q28 47 41 63l29 43q68 110 88 144q2 3 23.5 36.5t31.5 51.5l74 118q6 9 12.5 19.5t13.5 23t11 19.5q14 18 33 53q8 12 10 14q14 14 25.5 30.5t24 39t19.5 33.5 l29 37q9 12 21 35q6 12 8 14q22 24 43 65q10 15 12 17q7 7 19 26t22 27q2 0 2 4q2 14 23 39q3 4 7.5 12t9 13.5t11.5 9.5l4 6q9 23 39 72q32 53 64 96q3 4 8.5 10.5t7.5 9.5h33q2 3 5 8.5t5 8.5q7 0 23 4v4q22 16 47 16q17 0 48 3.5t36 3.5h2q16 0 22 2q10 3 19 0h26 q20 1 59 2t58 2q19 0 56 -1t55 -1q16 -1 66.5 -1.5t78.5 -2.5q104 -6 113 -7q2 0 12 -2t16 -4q23 -9 27 -24q11 -30 21 -52zM915 805q-3 39 5 76q2 17 -5 45q-4 -4 -14 -19q-34 -48 -45 -67q-3 -4 -23.5 -34.5t-31.5 -47.5q-4 -7 -27.5 -41t-34.5 -53l-26 -46q-3 -6 -49 -77 q-4 -11 -9 -19q8 -5 31 -2.5t31 0.5q5 -2 18 2q1 0 3 1t3 1h7q3 -3 23 -0.5t24 2.5q9 0 28.5 2t28.5 2q4 1 23 2t28 3q8 2 13 7t2 11q-8 34 -5 59q2 12 2 41v29v33q0 3 -1 9t-1 10.5t2 8.5q4 4 3 16t0 15q0 5 -1.5 15.5t-1.5 15.5z" />
<glyph unicode="&#xc7;" horiz-adv-x="1185" d="M1106 1188q5 -7 10.5 -21.5t7.5 -17.5q-6 -19 -16 -35q-3 -7 -12 -17t-11 -14l-10 -10q-15 -21 -39 -35q-4 -4 -16 -12q-2 1 -7.5 2t-8.5 2q-1 -2 -11 -12q-2 0 -6.5 -1t-7.5 -1l-12 -19q-2 1 -6.5 3.5t-6.5 3.5q-8 6 -10.5 5.5t-11.5 -8.5q-5 5 -6 5l-4 4 q-8 -12 -13 -17q-15 0 -20 11q-2 3 -10.5 1.5t-8.5 4.5q-5 1 -10 4.5t-7.5 6t-7.5 8t-7 7.5q-84 97 -217 82q-9 -1 -41 -12q-3 0 -5.5 -1t-6 -2.5t-5.5 -2.5q-21 -3 -63 -33q-6 -3 -11 -8q-52 -60 -71 -105q-18 -44 -27 -90q-13 -92 -16 -168q-3 -45 4 -78q2 -12 2 -34 q-3 -25 6 -49q4 -12 11.5 -37.5t11.5 -38.5q23 -61 71 -88q12 -8 58 -31q35 -18 75 -18h27q36 2 47 5t41 21q15 8 55 35l56 45q3 2 7 8.5t7 7.5q4 1 7.5 3.5t6 4t5 7t3 7l3 9t2.5 8.5v-16q0 -10 2 -18q6 12 8 14q2 0 5.5 -1t4.5 -1q7 5 10 -4q1 -2 2 -7t2 -8q8 4 9 4 q0 -10 2 -16q2 -2 4 0q1 0 3.5 2t4.5 2q8 4 8 -4q2 -6 2 -20q2 1 5 1.5t5 1t3 1.5q6 -5 8 -13t2.5 -20t1.5 -19l8 19q8 -4 8 -16q0 -17 19 -64q13 -37 10 -72q0 -3 2.5 -17.5t-0.5 -16.5q-1 -1 -1.5 -5.5t-2.5 -5.5q-4 -3 -9.5 -15t-13.5 -15q-5 -3 -14 -10.5t-14 -10.5 q-51 -35 -66 -49q-9 -8 -29 -18.5t-26 -14.5q-19 -11 -45 -22q-26 -10 -33 -9q-4 0 -6 -2q-18 -6 -21 -6q-4 0 -13 -1t-13 -1q-33 -47 -99 -137l-24 -31q-3 -4 -9.5 -12t-9.5 -12q-7 -11 -22.5 -31t-20.5 -27q-3 0 -8.5 -0.5t-9 -0.5t-8 1t-8.5 4l-5 3q-55 15 -93 1.5 t-89 -67.5q-20 -20 -24 -59q0 -7 4 -15q23 -42 71 -51q29 -6 58 0q21 7 41 4h8q20 5 45 -16q-4 0 -4 2v-4q1 0 2 1t2 1q12 4 20 8q2 -15 -8 -29h23q3 0 9 2.5t9 3.5v-18q3 -4 11 -5t10 -5l14 -13q0 -2 -1 -5t-1 -5q12 -9 22 -14q0 -4 -2 -4q-3 -11 5 -15q33 -7 26 -36 q-4 -12 -4 -17v-4h8q4 -23 0 -35q-3 -12 2 -20q4 -4 4 -12q3 -13 -6 -19q-48 -41 -94 -49q-107 -21 -184 -16q-81 5 -166 49q-95 55 -162 157q-24 40 -33 88q-12 49 -12 103q0 93 47 160q20 33 49 65q51 54 129 76q60 15 101 10q1 0 3.5 1t4.5 1q9 25 51 78l6 8 q-38 19 -59 33q-11 8 -35 23.5t-35 23.5q-24 15 -39 39l-4 4q-29 16 -57 70q-15 27 -49 102q-6 9 -9 21q-14 30 -36 118q-2 6 -2 19q-7 86 -5 143l13 164q0 21 6 39q17 87 41 152q5 11 14.5 33t14.5 34q21 48 55 84q4 4 6 8q44 59 100 109q27 22 80 57q72 40 88 47 q46 22 105 29l47 6q41 0 61 -4q5 -1 15.5 -2t15.5 -2h41q77 -13 137 -41q46 -24 111 -70q1 0 2 -1t2 -1q62 -58 90 -102z" />
<glyph unicode="&#xc8;" horiz-adv-x="1017" d="M528 1487q-6 2 -24 4.5t-29 5.5q-32 14 -47 10q-12 20 -39 56q-28 46 -131 190t-133 174l-31 35q-3 3 -10 13.5t-12 15.5q3 5 9 8t17.5 5t14.5 3q7 -3 20.5 -8.5t18.5 -7.5l-11 18q33 0 47 -2q3 -2 8.5 -6t10.5 -6.5t12 -3.5q-12 16 -16 24q8 3 18 3.5t24 -0.5t19 -1 l15 -6q6 -2 18 -10h8q-1 3 -4 9t-4 9q2 0 5.5 1t4.5 1q45 -4 64 0q15 0 32 -10q18 -13 31 -29q53 -61 97 -129t68.5 -122t41.5 -99.5t23 -70.5l6 -25l6 -6q4 -11 -4 -14q-8 -2 -27 -11q-4 -4 -6 -2q-8 2 -11 -6q-1 -1 -1 -2t-1.5 -1.5t-3.5 -1t-4 -1.5q-3 1 -9.5 7t-12.5 7 q2 -6 2 -14l-16 6q-1 -1 -1.5 -3t-1 -3t-1.5 -2q-2 0 -8.5 1.5t-8.5 0.5q-5 -4 -33 -4zM406 571q2 1 5 2l4.5 1.5t2.5 0.5q141 6 155 5q15 0 19 4l12 12q2 4 2 18q22 7 25 25q3 17 16 59v11q-2 22 6 63q0 15 -6 19q-8 4 -12 24q-8 26 -35 29q-12 2 -37 2q-94 -4 -145 -4 q-15 0 -19 4q0 188 4 282q0 5 3 11h18q14 2 41 2q3 0 9.5 0.5t12 0.5t9.5 -1h116q8 0 21.5 0.5t25.5 0.5t23 -1q12 0 38 -1t38 -1q26 -4 37 -2q5 2 13.5 10.5t12.5 11.5q18 18 35 45q12 19 21 23q4 2 8 10q0 3 4 14.5t2 18.5l2 10q13 26 22 47q-9 21 -20 53q-5 15 -29 23 q-5 2 -15 4t-11 2q-19 3 -113 8q-49 2 -145 2q-18 0 -55 1t-56 1q-39 0 -117 -4q-44 0 -67 -2q-1 0 -35 -3t-51 -3q-28 0 -47 -16l-7 -23q-6 -18 -6 -20q0 -7 -4 -23q-2 -12 4 -24q-18 -18 -10 -29q0 -2 -2 -2q-4 -4 -4.5 -8.5t1 -10.5t1.5 -8v-8q-1 -2 -2.5 -5.5t-2.5 -6.5 t-1 -6l2 -21q0 -12 4 -18q11 -11 8 -25q0 -17 -4 -57l-12 -154q-2 -45 -6 -139q-5 -73 -2 -168q6 -189 6 -193q2 -62 -2 -184q0 -12 -2 -16q-3 -8 -5.5 -24.5t-5.5 -24.5q0 -3 3 -11.5t4 -11.5v-6q-5 -7 0 -16q9 -10 0 -19q-7 -7 -3 -10q3 -3 3.5 -7t0.5 -9.5t1 -8.5 q2 -6 2.5 -16.5t1.5 -13.5q0 -4 10 -29v-8q3 -18 18 -21q65 -14 142 -4q21 4 65 8q47 0 70 2l123 6q139 4 209 -2q27 -4 39 13q1 2 4 3.5t4 2.5q8 4 10 8q28 32 41 80q10 29 2 49q0 2 1 6t1 6v45q-15 15 -16 19q-2 8 -11.5 19t-11.5 16q-2 2 -10 6q-25 14 -49 14l-50 1 q-49 0 -49 -1q-118 -3 -239 -12q-1 0 -2.5 1.5t-3.5 2.5q-1 15 0 44.5t0 43.5q0 63 -2 94q0 30 -4 92z" />
<glyph unicode="&#xc9;" horiz-adv-x="1017" d="M350 1534q-28 0 -33 4q-2 1 -8 -0.5t-8 -1.5l-4 8l-16 -6q0 8 2 14q-6 -1 -13.5 -7t-9.5 -7q-1 1 -3.5 1.5t-3.5 1t-1 1.5t-1 2q-3 8 -11 6q-2 -2 -7 2q-19 10 -26 11q-8 3 -4 14l6 6q2 9 6 26t22 68.5t42 102t68 120t97 130.5q11 14 31 28q17 10 33 10q19 -4 63 0 q1 0 5 -1t6 -1q-1 -3 -4.5 -9t-4.5 -9h9q12 8 18 10l14 6q5 0 19.5 1t24.5 0.5t18 -3.5q-2 -4 -17 -24q7 1 12 3.5t10.5 6.5t8.5 6q14 2 47 2l-10 -18q5 2 18.5 7.5t20.5 8.5q3 -1 14.5 -3t17.5 -5t9 -8q-4 -4 -7.5 -8.5t-8 -11t-7.5 -9.5l-30 -35q-29 -29 -133 -174 t-132 -190q-22 -29 -38 -56q-16 4 -48 -10q-11 -3 -29 -5.5t-24 -4.5zM406 571q2 1 5 2l4.5 1.5t2.5 0.5q141 6 155 5q15 0 19 4l12 12q2 4 2 18q22 7 25 25q3 17 16 59v11q-2 22 6 63q0 15 -6 19q-8 4 -12 24q-8 26 -35 29q-12 2 -37 2q-94 -4 -145 -4q-15 0 -19 4 q0 188 4 282q0 5 3 11h18q14 2 41 2q3 0 9.5 0.5t12 0.5t9.5 -1h116q8 0 21.5 0.5t25.5 0.5t23 -1q12 0 38 -1t38 -1q26 -4 37 -2q5 2 13.5 10.5t12.5 11.5q18 18 35 45q12 19 21 23q4 2 8 10q0 3 4 14.5t2 18.5l2 10q13 26 22 47q-9 21 -20 53q-5 15 -29 23q-5 2 -15 4 t-11 2q-19 3 -113 8q-49 2 -145 2q-18 0 -55 1t-56 1q-39 0 -117 -4q-44 0 -67 -2q-1 0 -35 -3t-51 -3q-28 0 -47 -16l-7 -23q-6 -18 -6 -20q0 -7 -4 -23q-2 -12 4 -24q-18 -18 -10 -29q0 -2 -2 -2q-4 -4 -4.5 -8.5t1 -10.5t1.5 -8v-8q-1 -2 -2.5 -5.5t-2.5 -6.5t-1 -6 l2 -21q0 -12 4 -18q11 -11 8 -25q0 -17 -4 -57l-12 -154q-2 -45 -6 -139q-5 -73 -2 -168q6 -189 6 -193q2 -62 -2 -184q0 -12 -2 -16q-3 -8 -5.5 -24.5t-5.5 -24.5q0 -3 3 -11.5t4 -11.5v-6q-5 -7 0 -16q9 -10 0 -19q-7 -7 -3 -10q3 -3 3.5 -7t0.5 -9.5t1 -8.5 q2 -6 2.5 -16.5t1.5 -13.5q0 -4 10 -29v-8q3 -18 18 -21q65 -14 142 -4q21 4 65 8q47 0 70 2l123 6q139 4 209 -2q27 -4 39 13q1 2 4 3.5t4 2.5q8 4 10 8q28 32 41 80q10 29 2 49q0 2 1 6t1 6v45q-15 15 -16 19q-2 8 -11.5 19t-11.5 16q-2 2 -10 6q-25 14 -49 14l-50 1 q-49 0 -49 -1q-118 -3 -239 -12q-1 0 -2.5 1.5t-3.5 2.5q-1 15 0 44.5t0 43.5q0 63 -2 94q0 30 -4 92z" />
<glyph unicode="&#xca;" horiz-adv-x="1017" d="M260 1610q-26 16 -47 63q7 20 29 45q57 57 96 101q19 19 22 24q21 25 41 39q6 3 9 6q16 20 8 33q20 12 28 18q18 11 31 9q5 0 17 8q28 16 47 18q4 -6 16 -18q1 0 3 -1t3 -1l-6 24q1 0 2 1t2 1q23 5 60 21q12 5 20 -8q3 -3 8 -17q27 -62 88 -166l31 -65q27 -57 45 -98 q-17 -30 -43 -50q-4 -2 -12 -10q-17 -22 -53 -33l-17 -6q-10 -8 -29 -4q-58 9 -75 8q-13 17 -23 36.5t-22 48t-17 40.5q-4 -2 -8 -6q-4 -6 -13.5 -17.5t-13.5 -17.5q-17 -24 -34 -41q-27 -24 -56 -57q-7 -7 -14 -25q-9 -3 -18 0l-23 11l-6 6q-2 2 -5 7t-7 8t-9 3q-2 0 -8 6 q-5 15 -14 15q-4 0 -4 4q-4 8 -15 15.5t-14 10.5v11zM915 1327q-9 -21 -22 -47l-2 -10q2 -7 -2 -18.5t-4 -14.5q-4 -8 -8 -10q-9 -4 -21 -23q-17 -27 -35 -45q-4 -3 -12.5 -11.5t-13.5 -10.5q-11 -2 -37 2q-12 0 -38 1t-38 1q-11 1 -23 1t-25.5 -0.5t-21.5 -0.5h-116 q-4 1 -9.5 1t-12 -0.5t-9.5 -0.5q-27 0 -41 -2h-18q-3 -6 -3 -11q-4 -94 -4 -282q4 -4 19 -4q51 0 145 4q25 0 37 -2q27 -3 35 -29q4 -20 12 -24q6 -4 6 -19q-8 -41 -6 -63v-11q-13 -42 -16 -59t-25 -25q0 -14 -2 -18l-12 -12q-4 -4 -19 -4q-14 1 -155 -5q-1 0 -2.5 -0.5 l-4.5 -1.5t-5 -2q4 -62 4 -92q2 -31 2 -94q1 -14 0 -43.5t0 -44.5q2 -1 3.5 -2.5t2.5 -1.5q121 9 239 12q0 1 49 1l50 -1q24 0 49 -14q8 -4 10 -6q2 -5 11.5 -16t11.5 -19q1 -4 16 -19v-45q0 -2 -1 -6t-1 -6q8 -20 -2 -49q-13 -48 -41 -80q-2 -4 -10 -8q-1 -1 -4 -2.5 t-4 -3.5q-12 -17 -39 -13q-70 6 -209 2l-123 -6q-23 -2 -70 -2q-44 -4 -65 -8q-77 -10 -142 4q-15 3 -18 21v8q-10 25 -10 29q-1 3 -1.5 13.5t-2.5 16.5q0 1 -0.5 11t-4.5 14q-4 3 3 10q9 9 0 19q-5 9 0 16v6q-1 3 -4 11.5t-3 11.5q3 8 5.5 24.5t5.5 24.5q2 4 2 16 q4 122 2 184q0 4 -6 193q-3 95 2 168l6 139q2 25 6 77t6 77q4 40 4 57q3 14 -8 25q-4 6 -4 18l-2 21l6 18v8q0 2 -1.5 8t-1 10.5t4.5 8.5q2 0 2 2q-8 11 10 29q-6 12 -4 24q4 16 4 23q0 2 6 20l7 23q19 16 47 16q13 0 27 1t31.5 2.5t27.5 2.5q23 2 67 2q78 4 117 4 q19 0 56 -1t55 -1q96 0 145 -2q94 -5 113 -8q1 0 11 -2t15 -4q24 -8 29 -23q11 -32 20 -53z" />
<glyph unicode="&#xcb;" horiz-adv-x="1017" d="M647 1534q3 2 5.5 8t6.5 8q3 -8 9 -14q4 2 10 8l8 -8q11 6 14 4q10 -4 31 4q27 7 45 17q22 18 37 18l6 61q3 74 12 150q0 6 1.5 18.5t1.5 18.5q0 16 -3 31q-8 8 -34 12q-6 -8 -19 -21q-1 3 -2 9.5t-2 9.5l-31 -6q-1 -3 -2.5 -8t-3.5 -8.5t-6 -6.5q0 19 -2 27 q-12 3 -43 -6q-6 0 -6 -5q-2 -2 -8 -14h-4q-1 3 -3 9.5t-3 9.5h-9q-32 -9 -43 -9q-12 0 -16 -14q-6 -12 -6 -29l-6 -135q-1 -18 -4.5 -52t-4.5 -50v-8q0 -13 13 -13q16 -3 28 -8l7 -2q7 5 16 -4q2 -2 10 -2zM260 1522q3 2 5.5 8t6.5 8q2 -8 9 -14q4 2 10 8l8 -8q11 6 14 4 q10 -4 31 4q30 8 45 16q24 19 37 19l6 61q3 74 12 150q0 6 1 18.5t1 18.5q0 20 -2 30q-9 9 -34 13q-6 -8 -19 -21q-1 3 -2 9t-2 9l-31 -6q-1 -2 -2 -5.5t-1.5 -6t-3 -5.5t-5.5 -5q0 18 -2 26q-12 3 -43 -6q-6 0 -6 -4q-2 -2 -8 -14h-4q-1 3 -3.5 9t-3.5 9h-8q-28 -8 -43 -8 q-13 0 -16 -14q-6 -12 -6 -29l-6 -135q-1 -18 -4.5 -52t-4.5 -50v-9q0 -12 13 -12q16 -3 28 -8l6 -2q7 6 17 -4q2 -2 10 -2zM406 571q2 1 5 2l4.5 1.5t2.5 0.5q141 6 155 5q15 0 19 4l12 12q2 4 2 18q22 7 25 25q3 17 16 59v11q-2 22 6 63q0 15 -6 19q-8 4 -12 24 q-8 26 -35 29q-12 2 -37 2q-94 -4 -145 -4q-15 0 -19 4q0 188 4 282q0 5 3 11h18q14 2 41 2q3 0 9.5 0.5t12 0.5t9.5 -1h116q8 0 21.5 0.5t25.5 0.5t23 -1q12 0 38 -1t38 -1q26 -4 37 -2q5 2 13.5 10.5t12.5 11.5q18 18 35 45q12 19 21 23q4 2 8 10q0 3 4 14.5t2 18.5l2 10 q13 26 22 47q-9 21 -20 53q-5 15 -29 23q-5 2 -15 4t-11 2q-19 3 -113 8q-49 2 -145 2q-18 0 -55 1t-56 1q-39 0 -117 -4q-44 0 -67 -2q-1 0 -35 -3t-51 -3q-28 0 -47 -16l-7 -23q-6 -18 -6 -20q0 -7 -4 -23q-2 -12 4 -24q-18 -18 -10 -29q0 -2 -2 -2q-4 -4 -4.5 -8.5 t1 -10.5t1.5 -8v-8q-1 -2 -2.5 -5.5t-2.5 -6.5t-1 -6l2 -21q0 -12 4 -18q11 -11 8 -25q0 -17 -4 -57l-12 -154q-2 -45 -6 -139q-5 -73 -2 -168q6 -189 6 -193q2 -62 -2 -184q0 -12 -2 -16q-3 -8 -5.5 -24.5t-5.5 -24.5q0 -3 3 -11.5t4 -11.5v-6q-5 -7 0 -16q9 -10 0 -19 q-7 -7 -3 -10q3 -3 3.5 -7t0.5 -9.5t1 -8.5q2 -6 2.5 -16.5t1.5 -13.5q0 -4 10 -29v-8q3 -18 18 -21q65 -14 142 -4q21 4 65 8q47 0 70 2l123 6q139 4 209 -2q27 -4 39 13q1 2 4 3.5t4 2.5q8 4 10 8q28 32 41 80q10 29 2 49q0 2 1 6t1 6v45q-15 15 -16 19q-2 8 -11.5 19 t-11.5 16q-2 2 -10 6q-25 14 -49 14l-50 1q-49 0 -49 -1q-118 -3 -239 -12q-1 0 -2.5 1.5t-3.5 2.5q-1 15 0 44.5t0 43.5q0 63 -2 94q0 30 -4 92z" />
<glyph unicode="&#xcc;" horiz-adv-x="450" d="M264 1473q-6 2 -24 4.5t-29 5.5q-32 14 -47 10q-9 15 -39 55q-29 47 -131.5 191t-132.5 174l-31 35q-20 25 -23 28q3 5 9 8t18 5.5t14 3.5q4 -2 39 -17l-10 19q33 0 47 -2q3 -2 8.5 -6.5t10.5 -7t12 -3.5q-11 14 -16 25q8 3 18 3.5t24 -0.5t19 -1l14 -6q8 -3 19 -10h8 q-1 3 -4 9t-4 9q2 0 5.5 1t4.5 1q44 -4 63 0q16 0 33 -10q18 -13 31 -29q53 -61 97 -129t68.5 -122t41.5 -99.5t23 -70.5l6 -25l6 -6q4 -12 -4 -15q-12 -2 -27 -10q-4 -4 -6 -2q-8 2 -13 -8l-8 -4q-3 1 -9.5 7t-12.5 7q2 -6 2 -14l-17 6q-1 -1 -1.5 -3t-1 -3t-1.5 -2 q-2 0 -8 1.5t-8 0.5q-5 -4 -33 -4zM133 1378q0 -6 -4 -18q-1 -13 -4 -41t-4 -43q0 -1 -6 -92q-3 -38 -9 -72q-2 -25 -7 -70.5t-7 -66.5q-6 -72 -14 -223q-1 -29 -2 -88.5t-2 -88.5q-2 -51 -2 -157q-4 -82 -4 -125q0 -103 -2 -154q0 -8 -3 -14q-6 -25 9 -43q1 -2 2 -6t2 -6 q16 -24 28 -31q12 -4 19 -14q5 -9 22.5 -14.5t22.5 -10.5q3 3 10.5 3.5t9.5 4.5q9 9 19 2q8 -4 14 0q11 0 15 -2q14 -7 32 4q1 0 8 4.5t8.5 4t10.5 -0.5l24 19q1 1 4.5 2t4.5 2q9 3 14 8q8 8 14 12q20 10 17 31q0 12 1 34t1 34q0 3 3 35t3 49q1 19 2 54t2 54v92q0 16 1 48 t1 47q0 32 -4 98v66q2 37 2 108q0 54 -4 160q0 41 4 123v57q4 50 4 76q0 52 -6 104q0 31 -10 49q-7 4 -31 4h-23q-8 3 -34 3q-12 4 -19 4q-23 0 -30 -4q-5 -2 -7 0q-7 7 -18 0q-9 -3 -16 -3q-18 5 -27 -2q0 -2 -4 -2q-7 2 -10 2t-10 -2.5t-11 -3.5z" />
<glyph unicode="&#xcd;" horiz-adv-x="450" d="M201 1516q-28 0 -33 4q-2 1 -8 -0.5t-8 -1.5q-2 2 -5 8l-16 -6q0 8 2 14q-6 -1 -12.5 -7t-9.5 -7q-2 1 -4 1.5t-3.5 1t-1.5 1.5t-1 2q-3 8 -11 6q-2 -2 -6 2q-15 8 -27 10q-8 3 -4 15l6 6q2 9 6 26t22.5 68t42.5 101.5t68 120t97 130.5q13 16 31 29q17 10 32 10 q19 -4 64 0q1 0 4.5 -1t5.5 -1q-1 -3 -4 -9t-4 -9h8q11 7 19 10l14 6q5 0 19 1t24 0.5t18 -3.5q-5 -11 -16 -25q7 1 12 3.5t10.5 7t8.5 6.5q14 2 47 2l-10 -19q28 12 38 17q2 -1 14 -3.5t18 -5.5t9 -8q-4 -4 -7.5 -8.5t-7.5 -10t-7 -9.5l-31 -35q-29 -29 -132.5 -174 t-131.5 -191q-30 -40 -39 -55q-15 4 -47 -10q-11 -3 -29 -5.5t-24 -4.5zM133 1378q0 -6 -4 -18q-1 -13 -4 -41t-4 -43q0 -1 -6 -92q-3 -38 -9 -72q-2 -25 -7 -70.5t-7 -66.5q-6 -72 -14 -223q-1 -29 -2 -88.5t-2 -88.5q-2 -51 -2 -157q-4 -82 -4 -125q0 -103 -2 -154 q0 -8 -3 -14q-6 -25 9 -43q1 -2 2 -6t2 -6q16 -24 28 -31q12 -4 19 -14q5 -9 22.5 -14.5t22.5 -10.5q3 3 10.5 3.5t9.5 4.5q9 9 19 2q8 -4 14 0q11 0 15 -2q14 -7 32 4q1 0 8 4.5t8.5 4t10.5 -0.5l24 19q1 1 4.5 2t4.5 2q9 3 14 8q8 8 14 12q20 10 17 31q0 12 1 34t1 34 q0 3 3 35t3 49q1 19 2 54t2 54v92q0 16 1 48t1 47q0 32 -4 98v66q2 37 2 108q0 54 -4 160q0 41 4 123v57q4 50 4 76q0 52 -6 104q0 31 -10 49q-7 4 -31 4h-23q-8 3 -34 3q-12 4 -19 4q-23 0 -30 -4q-5 -2 -7 0q-7 7 -18 0q-9 -3 -16 -3q-18 5 -27 -2q0 -2 -4 -2q-7 2 -10 2 t-10 -2.5t-11 -3.5z" />
<glyph unicode="&#xce;" horiz-adv-x="450" d="M504 1731q24 -49 45 -99q-16 -29 -43 -49q-4 -2 -12 -10q-17 -22 -54 -33l-16 -6q-10 -8 -29 -4q-58 9 -76 8q-13 17 -23 37t-21 47.5t-17 40.5q-4 -2 -8 -6q-4 -6 -13.5 -17.5t-13.5 -17.5q-15 -21 -35 -41q-22 -19 -55 -57q-7 -7 -14 -25q-10 -3 -19 0l-22 10 q-1 1 -3 3.5t-3 3.5q-2 2 -5 7t-7 8t-9 3q-2 0 -8 6q-5 14 -14 14q-4 0 -4 5q-3 8 -15 15.5t-14 10.5v10q-25 16 -47 64q8 22 28 45q74 74 97 100q18 18 22 25q21 25 41 39q4 2 8 6q16 20 9 33q20 12 28 18q17 10 31 8q3 0 16 9q28 16 47 18q2 -3 17 -18q1 0 3 -1.5t3 -1.5 l-6 25q1 0 2 1t2 1q21 4 59 21q13 5 21 -9q4 -4 8 -16q27 -62 88 -166zM385 1153v-57q-4 -82 -4 -123q4 -106 4 -160q0 -71 -2 -108v-66q4 -66 4 -98q0 -15 -1 -47t-1 -48v-92q-1 -19 -2 -54t-2 -54q0 -13 -1 -27t-2.5 -30.5t-2.5 -26.5q0 -12 -1 -34t-1 -34q3 -21 -17 -31 q-6 -4 -14 -12q-5 -5 -14 -8q-1 -1 -4.5 -2t-4.5 -2l-24 -19q-9 0 -10.5 0.5t-8.5 -4t-8 -4.5q-18 -11 -32 -4q-4 2 -15 2q-6 -4 -14 0q-10 7 -19 -2q-2 -4 -9.5 -4.5t-10.5 -3.5q-5 5 -22.5 10.5t-22.5 14.5q-7 10 -19 14q-12 7 -28 31q-1 2 -2 6t-2 6q-15 18 -9 43 q3 6 3 14q2 51 2 154q0 43 4 125q0 106 2 157q1 29 2 88.5t2 88.5q8 151 14 223q2 21 7 66.5t7 70.5q6 34 9 72q6 91 6 92q1 15 4 43t4 41q4 12 4 18q4 1 11 3.5t10 2.5t10 -2q4 0 4 2q9 7 27 2q7 0 16 3q11 7 18 0h7q7 4 30 4q7 0 19 -4q27 0 34 -3h23q24 0 31 -4 q10 -17 10 -49q6 -52 6 -104q0 -26 -4 -76z" />
<glyph unicode="&#xcf;" horiz-adv-x="450" d="M383 1520q3 2 5.5 8t6.5 8q3 -9 8 -14q6 3 11 8l8 -8q11 6 14 4q10 -4 31 4q30 8 45 16q24 19 37 19l6 61q3 74 12 150q0 6 1 18t1 18q0 21 -2 31q-7 7 -35 12q-6 -8 -18 -20q-1 3 -2 9t-2 9l-31 -6q-1 -2 -2 -5.5t-1.5 -6t-3 -5.5t-5.5 -5q0 18 -2 26q-12 3 -43 -6 q-6 0 -6 -4q-2 -2 -8 -14h-5l-6 18h-8q-28 -8 -43 -8q-12 0 -16 -14q-6 -12 -6 -29l-7 -135q-1 -18 -4 -52.5t-4 -50.5v-8q0 -12 13 -12q16 -3 28 -8l6 -2q7 6 17 -4q2 -2 10 -2zM-4 1507q3 2 5.5 8.5t6.5 8.5q4 -10 8 -15q4 2 11 9q2 -1 5 -5l3 -4q11 5 14 4q9 -4 31 5 q30 8 45 16q23 18 37 18l6 62q3 72 12 149q0 6 1 18.5t1 18.5q0 21 -2 31q-7 7 -35 12q-6 -8 -18 -20q-1 3 -2 9t-2 9l-31 -6q-1 -3 -2.5 -8t-3.5 -8.5t-6 -6.5q0 19 -2 27q-12 3 -43 -6q-6 0 -6 -4q-4 -4 -9 -14h-4l-6 18h-8q-28 -8 -43 -8q-12 0 -16 -15q-6 -12 -6 -28 l-7 -135q-1 -18 -4 -52.5t-4 -50.5v-8q0 -12 12 -12q18 -4 29 -8l6 -3q7 6 17 -4q2 -2 10 -2zM133 1378q0 -6 -4 -18q-1 -13 -4 -41t-4 -43q0 -1 -6 -92q-3 -38 -9 -72q-2 -25 -7 -70.5t-7 -66.5q-6 -72 -14 -223q-1 -29 -2 -88.5t-2 -88.5q-2 -51 -2 -157q-4 -82 -4 -125 q0 -103 -2 -154q0 -8 -3 -14q-6 -25 9 -43q1 -2 2 -6t2 -6q16 -24 28 -31q12 -4 19 -14q5 -9 22.5 -14.5t22.5 -10.5q3 3 10.5 3.5t9.5 4.5q9 9 19 2q8 -4 14 0q11 0 15 -2q14 -7 32 4q1 0 8 4.5t8.5 4t10.5 -0.5l24 19q1 1 4.5 2t4.5 2q9 3 14 8q8 8 14 12q20 10 17 31 q0 12 1 34t1 34q0 3 3 35t3 49q1 19 2 54t2 54v92q0 16 1 48t1 47q0 32 -4 98v66q2 37 2 108q0 54 -4 160q0 41 4 123v57q4 50 4 76q0 52 -6 104q0 31 -10 49q-7 4 -31 4h-23q-8 3 -34 3q-12 4 -19 4q-23 0 -30 -4q-5 -2 -7 0q-7 7 -18 0q-9 -3 -16 -3q-18 5 -27 -2 q0 -2 -4 -2q-7 2 -10 2t-10 -2.5t-11 -3.5z" />
<glyph unicode="&#xd0;" horiz-adv-x="1218" d="M1155 838q6 -94 -10 -197q-12 -78 -12 -80t-23 -78q-31 -90 -66 -157q-2 -2 -7 -11.5t-10 -15t-11 -10.5q-2 -1 -6.5 -6.5t-5.5 -6.5q-9 0 -13 -2q-23 -3 -37 -20q-61 -70 -137 -109l-25 -15t-30 -17q-84 -44 -174 -68q-5 -1 -18.5 -5t-20.5 -5q-79 -21 -187 -31 q-15 0 -43 -4q-42 -2 -124 10l-60 13q-28 4 -45 16l4 10l-2 2l-4 2q-8 0 -8 8q0 1 8 9q0 5 -7 7t-7 7l24 6q-1 4 -3.5 5.5t-6 1.5t-4.5 1t-1 4.5t-1 6t-4 2.5l-6 4q2 7 -4 12t-7 8q2 1 5.5 4t5.5 4q0 1 -4 9q3 1 6 2.5t7 4t7 3.5q-22 9 -27 10q1 6 7.5 9t7.5 5l-6 29 q2 2 7.5 5.5t8.5 6.5l-16 6q1 1 2 3.5t2 3.5t2 3q3 3 2 7q-6 19 14 31q8 8 8 18v190v60h-12q-143 -8 -213 -6q-6 0 -19 2t-18 2l-18 24l2 9q1 8 -2 8q-10 13 4 22q7 7 16 13q-3 4 -11.5 5t-12.5 5l6 16q0 2 -2 6t-2 7q1 3 1.5 11t2.5 13q8 12 4 21q-1 2 0.5 6.5t1.5 5.5 q1 2 2.5 5.5t2.5 6.5t1 6t-1 9t-1 8q0 10 2 14l12 25q59 16 86 20l170 18q1 17 2 52t2 53q0 18 -1 51t-1 51q0 30 5 183v43q4 98 6 145v12q-3 25 16 41q10 2 74 17q7 1 21.5 2t21.5 2q3 1 9 2t9 2h10q10 -2 12 -2.5t11.5 2t11.5 2.5q3 1 6 1t7 -0.5t6 -0.5q81 6 84 6 q12 0 51 3t51.5 2.5t52.5 -3.5q13 -2 40 -5t40 -5q52 -11 111 -41q76 -36 160 -103q48 -41 104 -122q63 -88 100 -207q25 -90 31 -176zM817 731q8 57 2 123q-9 105 -63 188q-24 43 -51 70q-48 45 -105 74q-25 11 -59 18q-16 4 -33.5 4.5t-40.5 -1t-33 -1.5q-8 -2 -22 -2 q-11 -4 -11 -12v-14q5 -58 5 -66l6 -133q1 -14 2.5 -36.5t2.5 -41.5t1 -35v-16h6q23 0 66.5 1t66.5 1h18q39 7 68 -6q4 -11 6 -12q0 -2 3.5 -2t4.5 2q14 8 43 0q0 -4 1 -11.5t1 -11.5l-20 -6q10 -2 27 -2q-12 -23 -23 -27q8 -4 8 -10q0 -2 4 -6q7 0 7 6l4 6q0 2 4 2l2 -2 q0 -1 1 -7.5t0 -10t-5 -6.5q-6 -6 -2 -17q8 -10 0 -22q-1 -3 1.5 -7.5t2.5 -5.5l-13 -6q-5 -21 -10 -26l-20 -19q-1 -2 -1 -7.5t-1 -6.5q-2 -1 -5.5 -8.5t-9.5 -8.5q-2 -1 -3 -2t-0.5 -2.5t1 -3.5t0.5 -4q-15 -10 -20 -10l-6 -6q-2 -2 -5 -4.5t-5 -4t-5 -4t-5.5 -3.5t-6 -2 t-6.5 -1h-6q-9 -5 -19.5 -7t-18 -2t-21 0.5t-19.5 0.5h-94h-2v-90v-137q0 -9 2 -15q58 11 145 41q21 8 105 56q29 19 71 55q15 18 21 39q2 18 14 49q18 37 23 49q20 58 20 86q0 7 2 20t2 19zM1069 412v2q0 -1 -1 -3t-1 -3l-3 -6q-4 -5 -5 -9h2q4 1 5 8l1 7q0 1 1 2t1 2z M1032 332q12 12 15 35l-9 -15q-4 -6 -12 -22q-4 -4 -4 -11l-4 -6q-6 -3 -6 -8q10 0 6 8q7 3 8.5 5.5t-0.5 11.5q1 1 3 1t3 1zM104 307l2 4l-2 2v-4v-2z" />
<glyph unicode="&#xd1;" horiz-adv-x="1282" d="M233 1636q-4 3 -13.5 13.5t-14.5 13.5v4q6 18 18.5 53t18.5 52q12 31 45 67q15 18 30 33q13 13 23 18l61 35q18 10 48 14q86 12 153 -43q14 -11 64 -61q5 -3 12 -14l35 -47q35 -8 61 24q23 29 37 62q16 36 33 65q15 30 18 37q1 0 10.5 -1t14.5 -5q8 1 9.5 2t9 -3t9.5 -5 v-13v-14q3 3 13 8q6 6 10 8q0 -14 2 -24l14 8q10 -10 17 -8q2 0 2 -4q0 -3 -1 -9.5t-1 -9.5q0 -1 1.5 -2.5t2.5 -3.5l10 10q8 -3 19 -10q-1 -6 -6.5 -22t-4.5 -25l6 4q1 0 9 4q0 -7 -1 -19t-1 -18q-4 -28 6 -45q5 -7 0 -26q-19 -68 -68 -109q-23 -23 -47 -41 q-51 -40 -57 -45q-18 -14 -64 -26q-5 -2 -35 -7q-38 -4 -57 0q-29 4 -53 9q-70 15 -115 79l-24 37q-15 23 -41 35q-21 -17 -29 -39q-4 -12 -13.5 -38t-16.5 -46t-11 -39q-3 -12 -19 -18l-12 12q-13 4 -14 10q-5 2 -9 6.5t-5.5 7.5t-4.5 11t-4 10q-10 0 -12 2q-11 11 -20 23 q-11 15 -13 33q-6 0 -10 -2q-1 1 -10 14t-15 18zM1221 1325q1 -19 1 -40.5t-0.5 -48.5t-0.5 -42q-1 -17 -11 -94q0 -9 -2 -13q-4 -5 -5 -12t-1.5 -17t-1.5 -14q-1 -24 -4 -70.5t-4 -68.5q-2 -27 -10 -96q-2 -16 -3 -34.5t-1.5 -41.5t-1.5 -35l-7 -57v-35q0 -12 -2.5 -40 t-1.5 -44q0 -20 -2 -58t-2 -56q-2 -18 -2 -54q0 -10 -1 -29t-1 -28q-4 -46 -4 -68l-6 -53v-39q0 -4 4 -24q-1 -1 -2.5 -6.5t-3.5 -8.5q-4 -11 8 -16q-3 -5 -8 -13t-6 -10q-9 -4 -34 -13t-38 -15q-2 -1 -13.5 -3.5t-17.5 -7.5q-6 -3 -16 7q-17 -10 -35 -13q-19 -4 -26 -3.5 t-21 7.5l-10 -10q-3 0 -7 4.5t-8 3.5q-6 0 -8 8t-4 9q-4 -1 -6.5 -8.5t-7.5 -8.5q-3 3 -3 11.5t-3 11.5l-7 -6q-1 0 -10.5 8t-17.5 8q-15 34 -15 55q0 5 -2 7q0 18 -20 18q-4 -2 -12 2q-29 21 -47 23q-7 2 -15 10l-24 37q-21 34 -62 101t-61 101q-2 3 -6 10t-7.5 13.5 t-7.5 11.5l-75 148q-4 9 -27.5 57t-34.5 74l-6 12q-6 -7 -6 -29q-4 -102 -4 -153q0 -25 -4 -76t-4 -76q0 -16 -5 -104l-6 -43q-1 -17 -3 -49.5t-3 -48.5q0 -8 -1 -23.5t-1 -22.5v-10q2 -15 1.5 -19.5t-4.5 -18t-5 -17.5q-6 -21 -29 -21h-2q-28 6 -47 -10q-9 -6 -16 -2h-6 q-25 -4 -39 -2q-27 0 -39 -4l-11 2q-14 2 -38 6q-14 4 -17 15h-4q-1 -1 -3 -3.5t-3 -3.5q-13 9 -23 9q-21 11 -34 45q-7 14 -7 43q0 16 5 108l6 86q2 10 2 33q2 41 7 120.5t7 117.5q6 143 6 145q4 141 10 211q2 26 8.5 76t8.5 75q9 82 24 160q7 32 29 115q8 30 27 59 q4 1 9 1h8t7.5 1t7.5 4q2 2 13 2q29 -3 59 7q6 3 12 0q17 -7 45 -4q33 4 52 -3h16q8 -2 23 -2q4 -11 0 -24q-9 -23 4 -45q34 -55 65 -115q25 -50 92 -174l37 -74q22 -43 60.5 -124t48.5 -101q18 -36 33 -61l49 -99q4 -4 6 -8q5 4 5.5 16t4.5 17l4 -4q0 -3 0.5 -10t0.5 -11.5 t-1 -10t-4 -9.5q0 -1 2 -3.5t2 -4.5q4 4 4 6q4 24 4 39q1 16 4.5 49t4.5 51q0 2 -1 6t-1 6q-9 -7 -9 -22v-31q0 -16 -8 -29q0 4 -0.5 9.5t-0.5 9t1 6.5q4 14 4 43q0 27 6 39q1 0 5 -3q5 -4 6 1q2 14 2 45q-12 8 -9 18q0 14 5 17v4q-4 5 -4 11t2 13t2 11q0 22 2 32 q1 18 4 51.5t4 51.5q8 128 18 190q3 20 10.5 59t10.5 58l12 68q2 7 5.5 19.5t4.5 16.5q7 -3 13 -8q11 11 30 17l13 -9q3 -2 7 2t7 3q1 -1 3.5 -5t4.5 -6q3 5 8 19q2 0 8 -5t9 1q2 1 6 -2l4 -2q4 0 10 6h4q4 -4 21 -4q18 0 22 -11l10 11l11 -11l6 9q5 -5 8 -11q6 3 14 11 q2 -1 7 -5.5t10 -3.5q4 0 16 -4q12 -37 19 -92zM1208 1147q2 4 2 12h-2v-12zM887 868v6q-4 0 -4 -2v-6zM842 113l2 2l-4 4l-2 -2z" />
<glyph unicode="&#xd2;" horiz-adv-x="1269" d="M684 1468q-6 1 -24 4.5t-29 6.5q-32 14 -47 10q-9 15 -39 55q-29 47 -131.5 191t-132.5 174l-31 35q-20 25 -23 28q3 5 9 8t18 5.5t14 3.5q4 -2 39 -17l-10 19q33 0 47 -2q3 -2 8.5 -6.5t10.5 -7t12 -3.5q-13 18 -17 25q8 3 18 3.5t24.5 -0.5t19.5 -1l14 -6q5 -2 19 -11 h8q-1 3 -4 9.5t-4 9.5q2 0 5.5 1t4.5 1q44 -4 63 0q16 0 33 -10q18 -13 31 -29q53 -61 97 -129t68.5 -122t41 -99.5t22.5 -70.5l6 -25l6 -7q4 -11 -4 -14q-10 -2 -26 -10q-4 -4 -6 -2q-8 2 -13 -8l-8 -4q-3 1 -9.5 7t-12.5 7q2 -6 2 -14l-17 6q-1 -1 -2 -4.5t-2 -4.5 q-3 0 -8.5 2t-7.5 1q-7 -5 -33 -5zM545 12q7 -1 29 -3.5t32 -2.5q87 10 101 14q45 10 102 31q39 18 133 86q1 2 4 5t4 5q7 6 20.5 19.5t20.5 19.5q35 24 68 74q20 28 47 76q41 84 55 129q26 81 33 133q2 13 5 39t5 39q7 52 4 96q-3 15 0 33v33q-2 20 -7 61t-7 62 q-2 19 -14 59q-6 20 -23 76q-11 32 -39 86q-26 51 -67 98q-42 47 -117 94q-119 65 -260 56q-26 -2 -105 -15q-39 -7 -63 -14q-7 -1 -18 -4t-15 -4l-43 -19q-24 -10 -29 -18q-7 -9 -20 -19q-37 -21 -74 -53q-6 -6 -18 -14l-25 -23q-5 -5 -15.5 -15t-15.5 -15q-20 -25 -24 -33 q-62 -79 -100 -180q-33 -100 -41 -187q-11 -96 -5 -203q0 -16 3.5 -46t3.5 -36q17 -109 47 -190q32 -88 69 -139q57 -88 142 -140q48 -28 118 -59q2 0 6.5 -1t6.5 -1q21 -3 45.5 -1.5t40.5 11.5zM872 776v-10q5 -75 -26 -170l-37 -102q-12 -25 -14 -27q-53 -82 -127 -125 q-2 -1 -47 -18h-7q-27 -7 -63 4q-22 7 -57 30q-6 4 -15 13q-26 37 -35 63q-40 99 -53 223q-10 91 0 162q3 39 23 92q23 58 51 101q32 52 84 82q3 2 11 5t11 5l25 6q30 12 63 6q3 -1 9.5 -2t9.5 -2q44 -3 76 -20q32 -11 51 -43q18 -27 31 -56q20 -50 30 -125q6 -46 6 -92z " />
<glyph unicode="&#xd3;" horiz-adv-x="1269" d="M668 1507q-28 0 -33 4q-2 1 -8.5 -0.5t-8.5 -1.5q-1 1 -1.5 2.5l-1 3t-1.5 3.5l-16 -7q0 9 2 15q-6 -1 -12.5 -7.5t-9.5 -7.5l-9 5q0 1 -1 2q-3 8 -11 6q-2 -2 -6 2q-15 8 -27 10q-8 3 -4 14l6 6q2 9 6 26t22.5 68.5t42.5 102t68 120t97 130.5q13 16 31 29q17 10 32 10 q19 -4 64 0q1 0 4.5 -1t5.5 -1q-1 -3 -4 -9.5t-4 -9.5h8q14 9 19 11l14 6q5 0 19 1t24 0.5t18 -3.5q-6 -11 -16 -25q7 1 12 3.5t10.5 7t8.5 6.5q14 2 47 2l-11 -19q35 15 39 17q2 -1 14 -3.5t18 -5.5t9 -8q-5 -5 -12 -15.5t-10 -13.5l-31 -34q-29 -29 -132.5 -174 t-131.5 -191q-30 -40 -39 -55q-15 4 -47 -10q-11 -3 -29 -6.5t-24 -4.5zM545 12q7 -1 29 -3.5t32 -2.5q87 10 101 14q45 10 102 31q39 18 133 86q1 2 4 5t4 5q7 6 20.5 19.5t20.5 19.5q35 24 68 74q20 28 47 76q41 84 55 129q26 81 33 133q2 13 5 39t5 39q7 52 4 96 q-3 15 0 33v33q-2 20 -7 61t-7 62q-2 19 -14 59q-6 20 -23 76q-11 32 -39 86q-26 51 -67 98q-42 47 -117 94q-119 65 -260 56q-26 -2 -105 -15q-39 -7 -63 -14q-7 -1 -18 -4t-15 -4l-43 -19q-24 -10 -29 -18q-7 -9 -20 -19q-37 -21 -74 -53q-6 -6 -18 -14l-25 -23 q-5 -5 -15.5 -15t-15.5 -15q-20 -25 -24 -33q-62 -79 -100 -180q-33 -100 -41 -187q-11 -96 -5 -203q0 -16 3.5 -46t3.5 -36q17 -109 47 -190q32 -88 69 -139q57 -88 142 -140q48 -28 118 -59q2 0 6.5 -1t6.5 -1q21 -3 45.5 -1.5t40.5 11.5zM872 776v-10q5 -75 -26 -170 l-37 -102q-12 -25 -14 -27q-53 -82 -127 -125q-2 -1 -47 -18h-7q-27 -7 -63 4q-22 7 -57 30q-6 4 -15 13q-26 37 -35 63q-40 99 -53 223q-10 91 0 162q3 39 23 92q23 58 51 101q32 52 84 82q3 2 11 5t11 5l25 6q30 12 63 6q3 -1 9.5 -2t9.5 -2q44 -3 76 -20q32 -11 51 -43 q18 -27 31 -56q20 -50 30 -125q6 -46 6 -92z" />
<glyph unicode="&#xd4;" horiz-adv-x="1269" d="M416 1591q-25 16 -47 64q8 22 28 45q74 74 97 100q18 18 22 25q21 25 41 39q4 2 8 6q16 20 8 33q25 15 29 18q17 10 31 8q4 0 16 8q30 17 47 19q4 -6 17 -19q1 0 3 -1t3 -1l-6 25q1 0 2 1t2 1q25 5 59 20q13 5 21 -8q4 -4 8 -16q27 -62 88 -166l31 -66q27 -56 45 -98 q-16 -29 -43 -49q-6 -3 -13 -10q-17 -22 -53 -33l-16 -6q-10 -8 -29 -4q-58 9 -76 8q-13 17 -23 37t-21 47.5t-17 40.5q-4 -2 -8 -6q-4 -6 -13.5 -17.5t-13.5 -17.5q-15 -21 -35 -41q-22 -19 -55 -57q-7 -7 -14 -25q-10 -3 -19 0l-22 10l-6 6q-2 2 -5 7.5t-7 8.5t-9 3 q-2 0 -8 6q-5 14 -14 14q-5 0 -5 4q-3 6 -7.5 10.5t-10.5 8.5t-10 8v10zM1208 805q-3 -18 0 -33q3 -44 -4 -96q-2 -13 -5 -39t-5 -39q-7 -52 -33 -133q-14 -45 -55 -129q-27 -48 -47 -76q-33 -50 -68 -74q-7 -6 -20.5 -19.5t-20.5 -19.5q-1 -2 -4 -5t-4 -5q-94 -68 -133 -86 q-57 -21 -102 -31q-14 -4 -101 -14q-10 0 -32 2.5t-29 3.5q-16 -10 -40.5 -11.5t-45.5 1.5q-2 0 -6.5 1t-6.5 1q-70 31 -118 59q-85 52 -142 140q-37 51 -69 139q-30 81 -47 190q0 6 -3.5 36t-3.5 46q-6 107 5 203q8 87 41 187q38 101 100 180q4 8 24 33l31 30 q4 4 12.5 11.5t12.5 11.5q12 8 18 14q37 32 74 53q13 10 20 19q5 8 29 18l43 19q4 1 15 4t18 4q24 7 63 14q79 13 105 15q141 9 260 -56q75 -47 117 -94q41 -47 67 -98q28 -54 39 -86q17 -56 23 -76q12 -41 14 -59q2 -21 7 -62t7 -61v-33zM846 596q31 95 26 170v10 q0 46 -6 92q-10 75 -30 125q-13 28 -31 56q-19 32 -51 43q-32 17 -76 20q-3 1 -9.5 2t-9.5 2q-33 6 -63 -6l-25 -6q-3 -2 -11 -5t-11 -5q-52 -30 -84 -82q-28 -43 -51 -101q-20 -53 -23 -92q-10 -71 0 -162q13 -124 53 -223q9 -26 35 -63q9 -9 15 -13q35 -23 57 -30 q36 -11 63 -4h7q45 17 47 18q74 43 127 125q2 2 14 27z" />
<glyph unicode="&#xd5;" horiz-adv-x="1269" d="M362 1544q1 -2 4 -10t4.5 -11t5.5 -7.5t9 -6.5q1 -6 14 -10l13 -12q15 6 18 18q4 19 11 39t16.5 46t13.5 38q8 22 29 39q26 -12 41 -35l24 -37q45 -64 115 -79q24 -5 53 -9q19 -4 58 0q33 5 34 6q44 11 64 27q6 5 57 45q24 18 47 41q49 41 68 109q5 19 0 26q-10 17 -6 45 q0 6 1 18t1 19q-1 -1 -3 -2l-3 -1.5t-2 -0.5l-7 -4q-1 9 4.5 25t6.5 22q-11 7 -19 10l-10 -10q-1 2 -2.5 3.5t-1.5 2.5q0 3 1 9.5t1 9.5q0 4 -2 4q-6 -2 -16 8l-15 -8q-2 10 -2 24q-4 -2 -10 -8q-8 -4 -12 -8v14v13q-1 0 -9.5 4.5t-9.5 3.5t-10 -2q-5 4 -14.5 5t-10.5 1 q-3 -7 -18 -37q-16 -26 -33 -66q-13 -30 -37 -61q-26 -33 -61 -25l-35 48q-7 11 -12 14q-50 50 -64 61q-67 55 -153 43q-29 -4 -47 -14l-62 -35q-8 -4 -22 -18q-21 -21 -31 -33q-32 -36 -45 -68l-37 -104v-4q6 -3 15.5 -13.5t13.5 -13.5q6 -5 14 -17.5t10 -15.5q6 3 10 3 q2 -18 13 -33q9 -12 20 -23q2 -2 12 -2zM545 12q7 -1 29 -3.5t32 -2.5q87 10 101 14q45 10 102 31q39 18 133 86q1 2 4 5t4 5q7 6 20.5 19.5t20.5 19.5q35 24 68 74q20 28 47 76q41 84 55 129q26 81 33 133q2 13 5 39t5 39q7 52 4 96q-3 15 0 33v33q-2 20 -7 61t-7 62 q-2 19 -14 59q-6 20 -23 76q-11 32 -39 86q-26 51 -67 98q-42 47 -117 94q-119 65 -260 56q-26 -2 -105 -15q-39 -7 -63 -14q-7 -1 -18 -4t-15 -4l-43 -19q-24 -10 -29 -18q-7 -9 -20 -19q-37 -21 -74 -53q-6 -6 -18 -14l-25 -23q-5 -5 -15.5 -15t-15.5 -15q-20 -25 -24 -33 q-62 -79 -100 -180q-33 -100 -41 -187q-11 -96 -5 -203q0 -16 3.5 -46t3.5 -36q17 -109 47 -190q32 -88 69 -139q57 -88 142 -140q48 -28 118 -59q2 0 6.5 -1t6.5 -1q21 -3 45.5 -1.5t40.5 11.5zM872 776v-10q5 -75 -26 -170l-37 -102q-12 -25 -14 -27q-53 -82 -127 -125 q-2 -1 -47 -18h-7q-27 -7 -63 4q-22 7 -57 30q-6 4 -15 13q-26 37 -35 63q-40 99 -53 223q-10 91 0 162q3 39 23 92q23 58 51 101q32 52 84 82q3 2 11 5t11 5l25 6q30 12 63 6q3 -1 9.5 -2t9.5 -2q44 -3 76 -20q32 -11 51 -43q18 -27 31 -56q20 -50 30 -125q6 -46 6 -92z " />
<glyph unicode="&#xd6;" horiz-adv-x="1269" d="M803 1516q3 2 5.5 8t6.5 8q3 -9 8 -14q6 3 11 8l8 -8q11 6 14 4q11 -4 31 4q30 8 45 16q24 19 37 19l6 61q3 74 12 150q0 6 1 18t1 18q0 21 -2 31q-7 7 -35 12q-6 -8 -18 -20q-1 3 -2 9t-2 9l-31 -6q-1 -2 -2 -5.5t-1.5 -6t-3 -5.5t-5.5 -5q0 18 -2 26q-12 3 -43 -6 q-6 0 -6 -4q-4 -4 -9 -14h-4l-6 18h-8q-28 -8 -43 -8q-12 0 -16 -14q-7 -14 -7 -29l-6 -135q-1 -18 -4 -52.5t-4 -50.5v-8q0 -12 12 -12q18 -4 29 -8l6 -2q7 6 17 -4q2 -2 10 -2zM416 1503q3 2 5.5 8.5t6.5 8.5q4 -10 8 -15q4 2 10 8q2 -1 9 -8q11 5 14 4q10 -4 31 4 q27 7 45 17q23 18 37 18l6 62q3 72 12 149q0 6 1 18.5t1 18.5q0 21 -2 31q-7 7 -35 12q-6 -8 -18 -20q-1 3 -2 9t-2 9l-31 -6q-1 -3 -2.5 -8t-3.5 -8.5t-6 -6.5q0 19 -2 27q-12 3 -43 -6q-6 0 -6 -4q-3 -3 -9 -15h-4q-1 3 -3 9.5t-3 9.5h-8q-28 -8 -43 -8q-13 0 -17 -15 q-6 -12 -6 -28l-6 -136q-1 -18 -4 -52t-4 -50v-8q0 -12 12 -12q13 -3 29 -9l6 -2q7 6 17 -4q2 -2 10 -2zM545 12q7 -1 29 -3.5t32 -2.5q87 10 101 14q45 10 102 31q39 18 133 86q1 2 4 5t4 5q7 6 20.5 19.5t20.5 19.5q35 24 68 74q20 28 47 76q41 84 55 129q26 81 33 133 q2 13 5 39t5 39q7 52 4 96q-3 15 0 33v33q-2 20 -7 61t-7 62q-2 19 -14 59q-6 20 -23 76q-11 32 -39 86q-26 51 -67 98q-42 47 -117 94q-119 65 -260 56q-26 -2 -105 -15q-39 -7 -63 -14q-7 -1 -18 -4t-15 -4l-43 -19q-24 -10 -29 -18q-7 -9 -20 -19q-37 -21 -74 -53 q-6 -6 -18 -14l-25 -23q-5 -5 -15.5 -15t-15.5 -15q-20 -25 -24 -33q-62 -79 -100 -180q-33 -100 -41 -187q-11 -96 -5 -203q0 -16 3.5 -46t3.5 -36q17 -109 47 -190q32 -88 69 -139q57 -88 142 -140q48 -28 118 -59q2 0 6.5 -1t6.5 -1q21 -3 45.5 -1.5t40.5 11.5zM872 776 v-10q5 -75 -26 -170l-37 -102q-12 -25 -14 -27q-53 -82 -127 -125q-2 -1 -47 -18h-7q-27 -7 -63 4q-22 7 -57 30q-6 4 -15 13q-26 37 -35 63q-40 99 -53 223q-10 91 0 162q3 39 23 92q23 58 51 101q32 52 84 82q3 2 11 5t11 5l25 6q30 12 63 6q3 -1 9.5 -2t9.5 -2 q44 -3 76 -20q32 -11 51 -43q18 -27 31 -56q20 -50 30 -125q6 -46 6 -92z" />
</font>
</defs>
</svg>
