<?xml version="1.0" encoding="utf-8"?>
<!-- Generated by IcoMoon.io -->
<!DOCTYPE svg PUBLIC "-//W3C//DTD SVG 1.1//EN" "http://www.w3.org/Graphics/SVG/1.1/DTD/svg11.dtd">
<svg version="1.1" xmlns="http://www.w3.org/2000/svg" xmlns:xlink="http://www.w3.org/1999/xlink" width="39" height="32" viewBox="0 0 39 32">
<path fill="#444444" d="M39.109 25.431c-0.124-1.585-0.578-6.61-1.405-7.735-0.599-0.817-1.305-1.141-1.788-1.27-0.327-1.038-1.191-3.718-1.936-5.493-1.074-2.56-2.718-2.913-4.335-2.913h-26.304c-1.454 0-2.455 0.325-2.975 0.965-0.376 0.463-0.382 0.932-0.359 1.147v15.961c0 1.050 0.452 1.624 0.831 1.92 0.521 0.407 1.166 0.51 1.687 0.51 0.366 0 0.671-0.051 0.826-0.083h1.055c0.487 2.039 2.32 3.561 4.507 3.561s4.019-1.522 4.507-3.561h11.578c0.488 2.039 2.321 3.561 4.507 3.561 2.183 0 4.015-1.518 4.505-3.553 0.438 0.036 1.896 0.135 3.127-0.013 0.862-0.103 1.336-0.535 1.581-0.879 0.58-0.812 0.441-1.854 0.392-2.124zM8.912 30.551c-1.758 0-3.189-1.431-3.189-3.189s1.431-3.189 3.189-3.189c1.758 0 3.189 1.431 3.189 3.189s-1.431 3.189-3.189 3.189zM29.504 30.551c-1.758 0-3.189-1.431-3.189-3.189s1.431-3.189 3.189-3.189c1.758 0 3.189 1.431 3.189 3.189s-1.431 3.189-3.189 3.189zM37.538 26.713c-0.072 0.1-0.209 0.238-0.574 0.282-1.093 0.132-2.455 0.038-2.839 0.007-0.185-2.39-2.184-4.279-4.621-4.279-2.432 0-4.428 1.883-4.619 4.267h-11.353c-0.19-2.384-2.187-4.267-4.619-4.267s-4.429 1.883-4.619 4.267h-1.111l-0.087 0.021c-0.189 0.048-0.976 0.162-1.365-0.141-0.068-0.053-0.274-0.214-0.274-0.778v-16.083l-0.006-0.030c0.022-0.118 0.388-0.509 1.891-0.509h26.304c1.218 0 2.213 0.149 2.999 2.024 0.892 2.127 2.010 5.75 2.021 5.786l0.143 0.511h0.535c0.027 0.001 0.661 0.036 1.193 0.762 0.403 0.55 0.901 4.079 1.131 7.032l0.014 0.095c0.029 0.135 0.090 0.707-0.143 1.033z"></path>
<path fill="#444444" d="M16.648 16.255h-1.389v-1.389c0-0.576-0.467-1.043-1.043-1.043h-0.522c-0.576 0-1.043 0.467-1.043 1.043v1.389h-1.39c-0.576 0-1.043 0.467-1.043 1.044v0.522c0 0.576 0.467 1.044 1.043 1.044h1.389v1.389c0 0.576 0.467 1.043 1.043 1.043h0.522c0.576 0 1.043-0.467 1.043-1.043v-1.389h1.389c0.576 0 1.043-0.467 1.043-1.044v-0.522c0-0.577-0.467-1.044-1.043-1.044z"></path>
<path fill="#444444" d="M26.049 6.77h-0.8c0.015-0.092 0.025-0.186 0.025-0.282 0-0.974-0.79-1.763-1.763-1.763s-1.763 0.79-1.763 1.763c0 0.096 0.010 0.19 0.025 0.282h-0.801v0.705h5.078v-0.705z"></path>
<path fill="#444444" d="M27.882 6.629h2.539v0.776h-2.539v-0.776z"></path>
<path fill="#444444" d="M16.599 6.629h2.539v0.776h-2.539v-0.776z"></path>
<path fill="#444444" d="M28.008 1.718l0.55 0.547-1.791 1.8-0.55-0.547 1.791-1.8z"></path>
<path fill="#444444" d="M18.658 1.506l1.791 1.8-0.55 0.547-1.791-1.8 0.55-0.547z"></path>
<path fill="#444444" d="M22.91 0h0.776v2.539h-0.776v-2.539z"></path>
<path fill="#444444" d="M25.978 12.27v5.007h5.994l-2.045-4.866z"></path>
</svg>
