<?xml version="1.0" encoding="utf-8"?>
<!-- Generated by IcoMoon.io -->
<!DOCTYPE svg PUBLIC "-//W3C//DTD SVG 1.1//EN" "http://www.w3.org/Graphics/SVG/1.1/DTD/svg11.dtd">
<svg version="1.1" xmlns="http://www.w3.org/2000/svg" xmlns:xlink="http://www.w3.org/1999/xlink" width="30" height="32" viewBox="0 0 30 32">
<path fill="#444444" d="M29.093 0c-0.002 0-0.005 0-0.007 0-6.021 0.038-20.658 1.047-26.568 9.577-3.070 4.432-3.334 10.186-0.785 17.103 0.019 0.055 0.059 0.090 0.086 0.139-0.911 2.255-1.264 3.755-1.273 3.798-0.133 0.617 0.262 1.224 0.879 1.358 0.080 0.017 0.16 0.025 0.24 0.025 0.527 0 1.001-0.366 1.117-0.903 0.024-0.118 2.936-11.855 13.231-18.718 0.526-0.35 0.667-1.059 0.317-1.585-0.352-0.526-1.061-0.669-1.586-0.317-5.838 3.891-9.433 9.152-11.547 13.321-1.513-5.232-1.117-9.574 1.202-12.92 4.563-6.587 15.387-8.176 21.921-8.512-1.405 2.058-2.939 5.832-2.939 12.49 0 3.566-1.013 6.31-3.005 8.161-3.197 2.96-8.386 3.239-12.184 2.953-0.631-0.051-1.178 0.423-1.226 1.054-0.048 0.627 0.424 1.176 1.053 1.224 0.76 0.059 1.571 0.094 2.415 0.094 3.865 0 8.374-0.758 11.495-3.65 2.48-2.298 3.738-5.606 3.738-9.833 0-10.399 3.92-12.681 3.938-12.691 0.475-0.239 0.725-0.774 0.6-1.29-0.122-0.515-0.584-0.878-1.11-0.878z"></path>
</svg>
