<?xml version="1.0" encoding="utf-8"?>
<!-- Generated by IcoMoon.io -->
<!DOCTYPE svg PUBLIC "-//W3C//DTD SVG 1.1//EN" "http://www.w3.org/Graphics/SVG/1.1/DTD/svg11.dtd">
<svg version="1.1" xmlns="http://www.w3.org/2000/svg" xmlns:xlink="http://www.w3.org/1999/xlink" width="39" height="32" viewBox="0 0 39 32">
<path fill="#444444" d="M38.012 27.275c-0.301-0.479-5.034-7.644-9.61-14.573-3.564-5.397-6.931-10.495-7.19-10.899-0.745-1.162-1.756-1.802-2.848-1.802-1.085 0-2.073 0.634-2.71 1.741-0.123 0.213-1.109 1.864-2.476 4.15-5.909 9.887-12.253 20.521-12.73 21.53-0.583 1.235-0.596 2.473-0.036 3.398 0.428 0.706 1.143 1.129 1.963 1.163 0.112 0.005 0.454 0.018 6.029 0.018 9.571 0 27.17-0.039 27.17-0.039l0.049-0.001c1.1-0.062 2.047-0.663 2.534-1.606 0.499-0.966 0.444-2.146-0.144-3.079zM36.524 29.512c-0.109 0.212-0.382 0.571-0.983 0.612-0.776 0.002-17.788 0.039-27.138 0.039-4.578 0-5.766-0.009-5.956-0.017-0.202-0.008-0.359-0.102-0.466-0.279-0.179-0.296-0.24-0.887 0.126-1.663 0.478-1.013 8.697-14.764 12.646-21.372 1.421-2.379 2.361-3.95 2.491-4.176 0.301-0.521 0.708-0.82 1.119-0.82 0.444 0 0.907 0.34 1.303 0.956 0.266 0.415 3.482 5.283 7.204 10.921 4.358 6.599 9.298 14.078 9.589 14.54 0.242 0.385 0.268 0.867 0.066 1.258z"></path>
<path fill="#444444" d="M18.592 23.985c0.835 0 1.361-0.558 1.361-1.454v-13.39c0-0.898-0.526-1.454-1.361-1.454s-1.361 0.556-1.361 1.454v13.39c0 0.896 0.527 1.454 1.361 1.454z"></path>
<path fill="#444444" d="M18.592 25.488c-0.865 0-1.576 0.712-1.576 1.578 0 0.865 0.711 1.576 1.576 1.576 0.866 0 1.578-0.711 1.578-1.576 0-0.866-0.712-1.578-1.578-1.578z"></path>
</svg>
