<?xml version="1.0" encoding="utf-8"?>
<!-- Generated by IcoMoon.io -->
<!DOCTYPE svg PUBLIC "-//W3C//DTD SVG 1.1//EN" "http://www.w3.org/Graphics/SVG/1.1/DTD/svg11.dtd">
<svg version="1.1" xmlns="http://www.w3.org/2000/svg" xmlns:xlink="http://www.w3.org/1999/xlink" width="36" height="32" viewBox="0 0 36 32">
<path fill="#444444" d="M35.597 30.444h-3.351v-19.285c0-0.757-0.526-1.374-1.174-1.374h-3.932c-0.647 0-1.174 0.616-1.174 1.374v19.285h-4.429v-26.942c0-0.77-0.505-1.374-1.15-1.374h-3.98c-0.645 0-1.15 0.603-1.15 1.374v26.942h-3.962v-15.423c0-0.757-0.575-1.374-1.282-1.374h-3.716c-0.707 0-1.282 0.616-1.282 1.374v15.424h-3.461v-29.666c0-0.43-0.348-0.778-0.778-0.778s-0.778 0.348-0.778 0.778v30.443c0 0.43 0.348 0.778 0.778 0.778 0.024 0 0.047-0.005 0.071-0.007 0.027 0.002 0.053 0.007 0.081 0.007h34.667c0.489 0 0.886-0.348 0.886-0.778s-0.397-0.778-0.886-0.778zM26.948 11.159c0-0.24 0.127-0.392 0.193-0.392h3.932c0.066 0 0.193 0.153 0.193 0.392v19.285h-4.317v-19.285zM16.24 3.502c0-0.262 0.136-0.392 0.169-0.392h3.98c0.032 0 0.169 0.131 0.169 0.392v26.942h-4.317v-26.942zM5.998 15.020c0-0.213 0.138-0.392 0.3-0.392h3.716c0.163 0 0.301 0.18 0.301 0.392v15.424h-4.317v-15.424z"></path>
</svg>
