<?xml version="1.0" encoding="utf-8"?>
<!-- Generated by IcoMoon.io -->
<!DOCTYPE svg PUBLIC "-//W3C//DTD SVG 1.1//EN" "http://www.w3.org/Graphics/SVG/1.1/DTD/svg11.dtd">
<svg version="1.1" xmlns="http://www.w3.org/2000/svg" xmlns:xlink="http://www.w3.org/1999/xlink" width="32" height="32" viewBox="0 0 32 32">
<path fill="#444444" d="M16 0c-8.837 0-16 7.163-16 16s7.163 16 16 16c8.836 0 16-7.163 16-16s-7.164-16-16-16zM16 29.935c-7.696 0-13.935-6.239-13.935-13.935s6.239-13.935 13.935-13.935c7.696 0 13.935 6.239 13.935 13.935s-6.239 13.935-13.935 13.935z"></path>
<path fill="#444444" d="M9.2 12.85h3.060v9.885h-3.060v-9.885z"></path>
<path fill="#444444" d="M12.524 9.731c0 1.007-0.81 1.824-1.809 1.824s-1.809-0.817-1.809-1.824c0-1.007 0.81-1.824 1.809-1.824s1.809 0.817 1.809 1.824z"></path>
<path fill="#444444" d="M17.151 17.545c0-1.39 0.64-2.218 1.864-2.218 1.125 0 1.666 0.795 1.666 2.218s0 5.189 0 5.189h3.045c0 0 0-3.611 0-6.258s-1.501-3.928-3.596-3.928c-2.096 0-2.979 1.633-2.979 1.633v-1.331h-2.935v9.885h2.935c0 0 0-3.666 0-5.189z"></path>
</svg>
