<?xml version="1.0" encoding="utf-8"?>
<!-- Generated by IcoMoon.io -->
<!DOCTYPE svg PUBLIC "-//W3C//DTD SVG 1.1//EN" "http://www.w3.org/Graphics/SVG/1.1/DTD/svg11.dtd">
<svg version="1.1" xmlns="http://www.w3.org/2000/svg" xmlns:xlink="http://www.w3.org/1999/xlink" width="32" height="32" viewBox="0 0 32 32">
<path fill="#444444" d="M16 0c-8.837 0-16 7.163-16 16s7.163 16 16 16c8.836 0 16-7.163 16-16s-7.164-16-16-16zM16 29.935c-7.696 0-13.935-6.239-13.935-13.935s6.239-13.935 13.935-13.935c7.696 0 13.935 6.239 13.935 13.935s-6.239 13.935-13.935 13.935z"></path>
<path fill="#444444" d="M13.733 25.001h3.599v-9.012h2.511l0.268-3.017h-2.778c0 0 0-1.127 0-1.718 0-0.711 0.143-0.993 0.831-0.993 0.553 0 1.948 0 1.948 0v-3.131c0 0-2.053 0-2.492 0-2.678 0-3.885 1.179-3.885 3.437 0 1.966 0 2.406 0 2.406h-1.872v3.055h1.872v8.974z"></path>
</svg>
