<?xml version="1.0" encoding="utf-8"?>
<!-- Generated by IcoMoon.io -->
<!DOCTYPE svg PUBLIC "-//W3C//DTD SVG 1.1//EN" "http://www.w3.org/Graphics/SVG/1.1/DTD/svg11.dtd">
<svg version="1.1" xmlns="http://www.w3.org/2000/svg" xmlns:xlink="http://www.w3.org/1999/xlink" width="32" height="32" viewBox="0 0 32 32">
<path fill="#444444" d="M16 0c-8.837 0-16 7.163-16 16s7.163 16 16 16c8.836 0 16-7.163 16-16s-7.164-16-16-16zM16 29.935c-7.696 0-13.935-6.239-13.935-13.935s6.239-13.935 13.935-13.935c7.696 0 13.935 6.239 13.935 13.935s-6.24 13.935-13.935 13.935z"></path>
<path fill="#444444" d="M8.861 21.758c1.43 0.917 3.129 1.452 4.954 1.452 6.001 0 9.391-5.068 9.187-9.615 0.631-0.455 1.179-1.024 1.613-1.673-0.58 0.257-1.203 0.431-1.856 0.509 0.667-0.399 1.179-1.033 1.421-1.788-0.625 0.37-1.316 0.64-2.052 0.785-0.59-0.628-1.43-1.021-2.36-1.021-2.086 0-3.619 1.947-3.148 3.968-2.686-0.135-5.068-1.421-6.661-3.377-0.847 1.453-0.439 3.354 1 4.315-0.53-0.017-1.029-0.163-1.464-0.404-0.035 1.498 1.038 2.898 2.592 3.21-0.455 0.124-0.953 0.152-1.459 0.055 0.411 1.285 1.604 2.218 3.019 2.245-1.359 1.065-3.070 1.541-4.785 1.338z"></path>
</svg>
