<?xml version="1.0" encoding="utf-8"?>
<!-- Generated by IcoMoon.io -->
<!DOCTYPE svg PUBLIC "-//W3C//DTD SVG 1.1//EN" "http://www.w3.org/Graphics/SVG/1.1/DTD/svg11.dtd">
<svg version="1.1" xmlns="http://www.w3.org/2000/svg" xmlns:xlink="http://www.w3.org/1999/xlink" width="32" height="32" viewBox="0 0 32 32">
<path fill="#444444" d="M16 0c-8.837 0-16 7.163-16 16s7.163 16 16 16c8.836 0 16-7.163 16-16s-7.164-16-16-16zM16 29.935c-7.696 0-13.935-6.239-13.935-13.935s6.239-13.935 13.935-13.935c7.696 0 13.935 6.239 13.935 13.935s-6.24 13.935-13.935 13.935z"></path>
<path fill="#444444" d="M21.538 14.417h1.040v-2.080h2.080v-1.040h-2.080v-2.080h-1.040v2.080h-2.080v1.040h2.080z"></path>
<path fill="#444444" d="M13.773 24.396c3.581 0 5.005-1.898 5.005-3.457 0-1.27-0.475-2.1-1.91-3.176-1.456-1.062-1.812-1.662-0.422-2.737 0.783-0.606 1.331-1.413 1.331-2.409 0-1.086-0.444-2.071-1.278-2.549h1.183l1.007-1.057c0 0-3.798 0-4.507 0-2.814 0-4.194 1.687-4.194 3.542 0 1.896 1.301 3.39 3.841 3.39-0.394 0.795-0.236 1.53 0.408 2.054-4.338 0-5.267 1.904-5.267 3.37-0 1.9 2.184 3.029 4.803 3.029zM11.683 12.524c-0.21-1.596 0.605-2.817 1.82-2.781s2.254 1.346 2.464 2.941c0.209 1.596-0.49 2.623-1.704 2.586s-2.37-1.151-2.58-2.747zM14.013 18.536c2.009 0 3.206 1.251 3.206 2.564 0 1.376-1.117 2.452-3.432 2.452-1.81 0-3.117-1.146-3.117-2.523-0-1.349 1.534-2.512 3.344-2.493z"></path>
</svg>
