<?xml version="1.0" encoding="utf-8"?>
<!-- Generated by IcoMoon.io -->
<!DOCTYPE svg PUBLIC "-//W3C//DTD SVG 1.1//EN" "http://www.w3.org/Graphics/SVG/1.1/DTD/svg11.dtd">
<svg version="1.1" xmlns="http://www.w3.org/2000/svg" xmlns:xlink="http://www.w3.org/1999/xlink" width="26" height="32" viewBox="0 0 26 32">
<path fill="#444444" d="M13.322 17.738l-0.167-0.843 0.625-0.64-0.347-0.837-0.894-0.011-0.477-0.714 0.332-0.831-0.641-0.641-0.831 0.332-0.714-0.477-0.011-0.894-0.837-0.347-0.64 0.625-0.843-0.167-0.352-0.822h-0.906l-0.353 0.822-0.842 0.168-0.64-0.625-0.837 0.347-0.011 0.894-0.714 0.477-0.83-0.332-0.641 0.641 0.333 0.831-0.477 0.714-0.894 0.011-0.347 0.837 0.625 0.64-0.168 0.843-0.822 0.352v0.906l0.822 0.352 0.168 0.843-0.625 0.64 0.347 0.837 0.894 0.011 0.477 0.714-0.333 0.83 0.641 0.641 0.83-0.333 0.714 0.477 0.011 0.894 0.837 0.347 0.64-0.625 0.842 0.167 0.353 0.822h0.906l0.352-0.822 0.843-0.167 0.64 0.625 0.837-0.347 0.011-0.894 0.714-0.477 0.831 0.333 0.641-0.641-0.332-0.83 0.477-0.714 0.894-0.011 0.347-0.837-0.625-0.64 0.167-0.843 0.822-0.352v-0.906l-0.822-0.352zM12.248 18.543c0 2.858-2.318 5.176-5.176 5.176s-5.176-2.318-5.176-5.176c0-2.858 2.318-5.176 5.176-5.176s5.176 2.318 5.176 5.176v0z"></path>
<path fill="#444444" d="M25.611 19.302l-0.051-0.388 0.743-0.435-0.081-0.3-0.861-0.005-0.15-0.362 0.605-0.613-0.156-0.269-0.833 0.217-0.239-0.311 0.426-0.749-0.22-0.22-0.749 0.426-0.311-0.239 0.218-0.834-0.269-0.155-0.613 0.605-0.362-0.15-0.005-0.861-0.301-0.080-0.435 0.743-0.389-0.051-0.228-0.831h-0.311l-0.228 0.831-0.388 0.051-0.435-0.743-0.3 0.080-0.005 0.861-0.362 0.15-0.613-0.605-0.269 0.155 0.218 0.834-0.311 0.239-0.748-0.426-0.22 0.22 0.426 0.749-0.239 0.311-0.833-0.217-0.155 0.269 0.605 0.613-0.15 0.362-0.861 0.005-0.081 0.3 0.743 0.435-0.051 0.388-0.831 0.228v0.311l0.831 0.228 0.051 0.388-0.743 0.435 0.081 0.301 0.861 0.005 0.15 0.362-0.605 0.613 0.155 0.269 0.833-0.218 0.239 0.311-0.426 0.749 0.22 0.22 0.748-0.426 0.311 0.239-0.218 0.833 0.269 0.156 0.613-0.605 0.362 0.15 0.005 0.861 0.3 0.080 0.435-0.743 0.388 0.051 0.228 0.831h0.311l0.228-0.831 0.389-0.051 0.435 0.743 0.301-0.080 0.005-0.861 0.362-0.15 0.613 0.605 0.269-0.156-0.218-0.833 0.311-0.239 0.749 0.426 0.22-0.22-0.426-0.749 0.239-0.311 0.833 0.218 0.156-0.269-0.605-0.613 0.15-0.362 0.861-0.005 0.081-0.301-0.743-0.435 0.051-0.388 0.831-0.228v-0.311l-0.831-0.228zM24.815 19.504c0 0.162-0.012 0.321-0.032 0.477-0.15 1.849-1.698 3.304-3.586 3.304s-3.436-1.455-3.586-3.305c-0.020-0.156-0.032-0.315-0.032-0.477 0-1.998 1.62-3.618 3.618-3.618s3.618 1.62 3.618 3.618v0z"></path>
<path fill="#444444" d="M19.56 9.686l-0.087-0.439 0.326-0.334-0.181-0.436-0.466-0.006-0.249-0.372 0.173-0.433-0.334-0.334-0.433 0.173-0.372-0.249-0.006-0.466-0.436-0.181-0.333 0.326-0.439-0.087-0.183-0.429h-0.472l-0.184 0.429-0.439 0.087-0.334-0.326-0.436 0.181-0.006 0.466-0.372 0.249-0.433-0.173-0.334 0.334 0.173 0.433-0.249 0.372-0.466 0.006-0.181 0.436 0.326 0.334-0.087 0.439-0.429 0.184v0.472l0.429 0.183 0.087 0.439-0.326 0.334 0.181 0.436 0.466 0.005 0.249 0.372-0.173 0.433 0.334 0.334 0.433-0.173 0.372 0.249 0.006 0.466 0.436 0.181 0.334-0.326 0.439 0.087 0.184 0.429h0.472l0.183-0.429 0.439-0.087 0.334 0.326 0.436-0.181 0.006-0.466 0.372-0.249 0.433 0.173 0.334-0.334-0.173-0.433 0.249-0.372 0.466-0.005 0.181-0.436-0.326-0.334 0.087-0.439 0.429-0.183v-0.472l-0.429-0.184zM18.959 10.105c0 1.466-1.189 2.656-2.656 2.656s-2.656-1.189-2.656-2.656c0-1.467 1.189-2.656 2.656-2.656s2.656 1.189 2.656 2.656v0z"></path>
</svg>
