<?xml version="1.0" encoding="utf-8"?>
<!-- Generated by IcoMoon.io -->
<!DOCTYPE svg PUBLIC "-//W3C//DTD SVG 1.1//EN" "http://www.w3.org/Graphics/SVG/1.1/DTD/svg11.dtd">
<svg version="1.1" xmlns="http://www.w3.org/2000/svg" xmlns:xlink="http://www.w3.org/1999/xlink" width="26" height="32" viewBox="0 0 26 32">
<path fill="#444444" d="M0.645 8.207c0 0.26 0 0.519 0 0.779 0.192 0.771 0.591 1.388 1.091 1.943 0.173 0.192 0.295 0.442 0.435 0.671 0.669 1.097 0.834 2.37 0.916 3.643 0.075 1.171 0.601 1.773 1.576 1.997 0.304 0.070 0.595 0.214 1.035 0.378-0.289 0.162-0.429 0.241-0.569 0.319-1.249 0.695-1.781 1.883-1.408 3.389 0.514 2.073 1.735 3.512 3.447 4.374 1.267 0.638 2.341 0.438 3.154-0.807 0.739-1.132 1.431-2.303 2.141-3.457 0.095-0.154 0.181-0.316 0.271-0.474 0.147 0.818 0.177 1.589 0.248 2.355 0.014 0.155 0.181 0.293 0.278 0.439 0.101-0.14 0.27-0.268 0.29-0.422 0.062-0.475 0.064-0.96 0.094-1.44 0.019-0.293 0.047-0.586 0.071-0.879 0.215 0.179 0.313 0.368 0.426 0.546 0.751 1.19 1.481 2.398 2.263 3.561 0.685 1.018 1.667 1.112 2.629 0.724 1.777-0.717 3.008-2.144 3.69-4.129 0.49-1.426 0.151-2.681-0.883-3.485-0.286-0.222-0.609-0.381-1.008-0.626 0.283-0.108 0.449-0.181 0.62-0.236 1.801-0.58 1.859-0.656 2.052-2.74 0.136-1.472 0.556-2.795 1.458-3.921 0.374-0.467 0.615-1.070 0.917-1.611 0-0.297 0-0.594 0-0.89-0.452-0.577-1.042-0.694-1.687-0.675-1.173 0.035-2.198 0.561-3.178 1.215-2.271 1.516-4.152 3.555-5.941 5.712-0.345 0.416-0.682 0.84-1.059 1.304-0.118-0.482-0.261-0.863-0.73-0.874-0.492-0.011-0.641 0.39-0.774 0.883-0.112-0.143-0.183-0.243-0.262-0.334-1.14-1.306-2.242-2.66-3.434-3.904-1.462-1.525-3.032-2.918-4.949-3.658-1.094-0.422-2.225-0.733-3.221 0.329v0z"></path>
</svg>
