<?xml version="1.0" encoding="utf-8"?>
<!-- Generated by IcoMoon.io -->
<!DOCTYPE svg PUBLIC "-//W3C//DTD SVG 1.1//EN" "http://www.w3.org/Graphics/SVG/1.1/DTD/svg11.dtd">
<svg version="1.1" xmlns="http://www.w3.org/2000/svg" xmlns:xlink="http://www.w3.org/1999/xlink" width="26" height="32" viewBox="0 0 26 32">
<path fill="#444444" d="M23 4.737v24.906h-19.394v-24.906h3.951v-0.635h3.187c0.286-1.15 1.317-2.012 2.557-2.012 1.243 0 2.276 0.862 2.562 2.012h3.186v0.635l3.951 0zM12.111 4.102h2.385c-0.231-0.43-0.67-0.731-1.191-0.731-0.525 0-0.964 0.301-1.193 0.731zM20.863 6.783h-1.814v1.259h-11.492v-1.259h-1.813v20.815h15.12v-20.815z"></path>
<path fill="#444444" d="M8.477 11.565l1.648-1.369 0.492 0.501-2.155 2.155-1.275-1.275 0.676-0.678 0.613 0.666z"></path>
<path fill="#444444" d="M8.477 17.759l1.648-1.369 0.492 0.501-2.155 2.154-1.275-1.275 0.676-0.678 0.613 0.666z"></path>
<path fill="#444444" d="M8.477 23.684l1.648-1.369 0.492 0.501-2.155 2.155-1.275-1.275 0.676-0.678 0.613 0.667z"></path>
<path fill="#444444" d="M12.412 11.618c-0.012 0.258 0.973 0.559 1.216 0.548 0.237-0.011 0.297-0.159 0.564-0.116 0.114 0.019 0.252 0.196 0.391 0.23 0.739 0.179 1.094-0.613 1.951-0.379 0.582 0.159 0.776 0.55 1.422 0.302 0.321-0.123 0.182-0.646-0.144-0.521-0.762 0.293-1.349-0.727-2.182-0.376-0.528 0.222-0.619 0.333-1.187 0.206-0.201-0.045-0.187-0.113-0.457-0.127-0.308-0.015-0.401 0.238-0.79 0.079-0.249-0.101-0.332-0.42-0.648-0.459-0.417-0.051-0.659 0.23-0.677 0.611-0.016 0.347 0.524 0.347 0.54 0v0 0z"></path>
<path fill="#444444" d="M13.123 18.091c0.331-0.365 0.36-0.133 0.537 0.087 0.057 0.070 0.179 0.096 0.263 0.070 0.682-0.219 1.347-0.055 1.79-0.756-0.141 0.018-0.283 0.036-0.424 0.055 0.237 0.297 0.438 0.603 0.744 0.828 0.071 0.052 0.201 0.050 0.273 0 0.318-0.224 0.491-0.508 0.726-0.825-0.155 0-0.311 0-0.466 0 0.227 0.336 0.227 0.626 0.676 0.722 0.944 0.203 0.8-1.098 2.14-0.31 0.3 0.177 0.572-0.29 0.273-0.466-0.415-0.244-0.817-0.399-1.309-0.277-0.552 0.137-0.905 0.662-1.313 0.059-0.121-0.179-0.343-0.166-0.466 0-0.341 0.459-0.565 0.302-0.895-0.112-0.113-0.142-0.34-0.078-0.424 0.055-0.144 0.228-1.216 0.273-1.393 0.244-0.57-0.095-0.576-0.344-1.112 0.247-0.233 0.257 0.148 0.64 0.382 0.382v0 0z"></path>
<path fill="#444444" d="M12.366 23.471c0.053 0.229 0.105 0.459 0.157 0.688 0.037 0.16 0.257 0.259 0.397 0.161 0.211-0.148 1.219-1.056 1.442-1.010 0.199 0.042 0.227 0.312 0.39 0.397 0.505 0.262 0.859-0.019 1.238-0.355-0.15-0.040-0.301-0.079-0.451-0.119 0.163 0.417 0.369 0.929 0.881 1.010 0.394 0.063 0.631-0.407 0.804-0.393 0.355 0.028 0.421 0.548 0.89 0.617 0.488 0.072 0.955-0.491 1.375-0.623 0.33-0.104 0.189-0.625-0.143-0.521-0.471 0.148-0.938 0.407-1.464 0.233-0.122-0.040-0.123-0.318-0.295-0.326-0.365-0.018-1.34 0.333-1.526-0.142-0.075-0.193-0.289-0.263-0.451-0.119-0.677 0.6-0.659-0.206-1.195-0.25-0.514-0.042-1.37 0.856-1.766 1.133 0.132 0.054 0.264 0.108 0.397 0.161-0.052-0.229-0.105-0.459-0.157-0.688-0.078-0.339-0.598-0.195-0.521 0.144v0 0z"></path>
</svg>
