<?xml version="1.0" encoding="utf-8"?>
<!-- Generated by IcoMoon.io -->
<!DOCTYPE svg PUBLIC "-//W3C//DTD SVG 1.1//EN" "http://www.w3.org/Graphics/SVG/1.1/DTD/svg11.dtd">
<svg version="1.1" xmlns="http://www.w3.org/2000/svg" xmlns:xlink="http://www.w3.org/1999/xlink" width="26" height="32" viewBox="0 0 26 32">
<path fill="#444444" d="M5.026 11.369c1.948 0 3.533 1.585 3.533 3.533s-1.585 3.533-3.533 3.533c-1.948 0-3.533-1.585-3.533-3.533s1.585-3.533 3.533-3.533zM5.026 10.031c-2.691 0-4.872 2.181-4.872 4.871s2.181 4.872 4.872 4.872 4.872-2.181 4.872-4.872c0-2.691-2.181-4.872-4.872-4.872v0 0z"></path>
<path fill="#444444" d="M2.914 21.306h1.568v-1.77h1.077v1.77h1.579v1.067h-1.579v1.539h-1.077v-1.539h-1.568v-1.067z"></path>
<path fill="#444444" d="M19.607 11.594c1.948 0 3.533 1.585 3.533 3.533s-1.585 3.533-3.533 3.533c-1.948 0-3.533-1.585-3.533-3.533s1.585-3.533 3.533-3.533zM19.607 10.255c-2.691 0-4.872 2.181-4.872 4.872s2.181 4.872 4.872 4.872c2.691 0 4.872-2.181 4.872-4.872s-2.181-4.872-4.872-4.872v0 0z"></path>
<path fill="#444444" d="M22.837 12.331l-0.934-0.96 2.661-2.698 0.934 0.96-2.661 2.698z"></path>
<path fill="#444444" d="M25.523 11.223l-2.534-2.487 3.298-0.66-0.764 3.147z"></path>
<path fill="#444444" d="M10.679 14.396v-0.999h3.354v0.999h-3.354zM10.679 16.001v-0.998h3.354v0.998h-3.354z"></path>
</svg>
