<?xml version="1.0" encoding="utf-8"?>
<!-- Generated by IcoMoon.io -->
<!DOCTYPE svg PUBLIC "-//W3C//DTD SVG 1.1//EN" "http://www.w3.org/Graphics/SVG/1.1/DTD/svg11.dtd">
<svg version="1.1" xmlns="http://www.w3.org/2000/svg" xmlns:xlink="http://www.w3.org/1999/xlink" width="26" height="32" viewBox="0 0 26 32">
<path fill="#444444" d="M17.498 10.969c-1.36-0.828-2.179-1.806-2.863-3.149-0.691-1.356-1.92-1.825-3.47-1.714-1.4 0.101-2.114 0.864-2.567 2.053-0.16 0.421-0.365 0.834-0.459 1.27-0.625 2.917-1.231 5.838-1.83 8.76-0.119 0.579 0.026 1.099 0.669 1.236 0.638 0.136 0.971-0.266 1.109-0.851 0.409-1.731 0.811-3.464 1.224-5.195 0.188-0.789 0.394-1.574 0.593-2.361 0.036 0.010 0.072 0.020 0.107 0.030-0.297 3.741-0.593 7.482-0.896 11.303 0.576 0 1.015 0 1.446 0 0.036 0.139 0.067 0.21 0.070 0.281 0.162 3.215-0.087 4.819 0.105 8.032 0.041 0.789 0.29 1.121 0.822 1.335 0.201 0 0.401 0 0.602 0 0.478-0.173 0.644-0.671 0.685-1.335 0.161-2.585 0.101-3.059 0.248-5.645 0.049-0.869-0.042-1.807 0.027-2.727 1.211 0 2.355 0 3.617 0 0-0.984 0.022-1.911-0.009-2.836-0.017-0.503 0.14-0.788 0.591-1.078 2.687-1.733 2.883-5.762 0.177-7.41v0zM17.29 14.356c-0.107 0.344-0.318 0.626-0.561 0.879-0.255 0.264-0.523 0.519-0.81 0.747-0.351 0.279-0.728 0.527-1.091 0.786-0.029-0.024-0.041-0.036-0.055-0.045-0.678-0.42-1.316-0.892-1.858-1.48-0.177-0.192-0.322-0.417-0.46-0.641-0.077-0.123-0.11-0.273-0.162-0.411 0-0.109 0-0.217 0-0.326 0.014-0.073 0.026-0.147 0.042-0.219 0.096-0.424 0.309-0.759 0.729-0.928 0.099-0.040 0.205-0.064 0.307-0.095 0.102 0 0.204 0 0.306 0 0.004 0.005 0.007 0.015 0.011 0.015 0.371 0.042 0.668 0.222 0.913 0.495 0.079 0.088 0.143 0.189 0.214 0.283 0.006-0.001 0.011-0 0.012-0.002 0.016-0.021 0.033-0.042 0.047-0.065 0.186-0.301 0.441-0.518 0.773-0.641 0.101-0.037 0.207-0.058 0.311-0.086 0.102 0 0.204 0 0.305 0 0.017 0.007 0.034 0.015 0.051 0.021 0.137 0.049 0.282 0.081 0.408 0.149 0.234 0.126 0.395 0.33 0.491 0.575 0.125 0.32 0.181 0.649 0.075 0.988v0zM14.581 2.755c0.002-1.5-1.225-2.746-2.714-2.755-1.523-0.009-2.776 1.227-2.787 2.75-0.011 1.525 1.224 2.77 2.753 2.773 1.534 0.003 2.746-1.217 2.748-2.768v0z"></path>
</svg>
