<?xml version="1.0" encoding="utf-8"?>
<!-- Generated by IcoMoon.io -->
<!DOCTYPE svg PUBLIC "-//W3C//DTD SVG 1.1//EN" "http://www.w3.org/Graphics/SVG/1.1/DTD/svg11.dtd">
<svg version="1.1" xmlns="http://www.w3.org/2000/svg" xmlns:xlink="http://www.w3.org/1999/xlink" width="26" height="32" viewBox="0 0 26 32">
<path fill="#444444" d="M17.141 29.712c0-1.606-0.59-3.19-0.59-4.81-0.962 0-1.893 0-2.873 0 0.775-2.343 1.533-4.636 2.296-6.942 1.536 1.187 3.051 1.193 4.584-0.002 0.764 2.31 1.523 4.603 2.296 6.94-0.974 0-1.906 0-2.866 0 0 1.617-0.59 3.2-0.59 4.813-1.147 0-1.086 0-2.258 0v0zM12.634 6.124c-1.591-0.004-2.877-1.364-2.865-3.032 0.012-1.664 1.316-3.016 2.9-3.006 1.55 0.010 2.827 1.371 2.824 3.011-0.002 1.696-1.263 3.030-2.86 3.026v0zM20.366 16.219c-0.925 1.836-3.236 1.874-4.198-0-0.305 0.236-0.606 0.467-0.905 0.701-0.223 0.174-0.453 0.21-0.692 0.043-0.337-0.235-0.342-0.707 0.001-0.987 0.402-0.328 0.823-0.63 1.22-0.964 0.113-0.095 0.211-0.249 0.249-0.395 0.272-1.071 1.155-1.806 2.213-1.82 1.034-0.014 1.941 0.7 2.21 1.765 0.058 0.231 0.165 0.383 0.346 0.516 0.384 0.282 0.758 0.581 1.131 0.879 0.299 0.239 0.359 0.604 0.155 0.88-0.201 0.274-0.517 0.309-0.822 0.081-0.3-0.224-0.594-0.457-0.906-0.698v0zM17.492 11.563c-0.243-1.543-0.786-3.064-1.179-4.584-0.022-0.086-0.273-0.359-0.36-0.38-0.533-0.127-0.489-0.131-1.029-0.22-0.122-0.020-0.296 0.038-0.379 0.136-0.952 1.123-3.174 1.008-4.015 0.007-0.13-0.155-0.25-0.12-0.439-0.152-0.494-0.082-0.346-0.046-0.854 0.056-0.16 0.032-0.615 0.369-0.688 0.553-0.622 1.555-1.246 3.261-1.769 4.836-0.688 2.073-1.303 3.275-1.731 5.76-0.159 0.92 0.524 1.418 1.178 1.299 0.218-0.040 0.536-0.565 0.732-0.823l1.812-4.585-1.342 8.364c0.762 0.351 1.55 0.627 2.371 0.813 0.151 0.034 0.295 0.048 0.331 0.281 0.273 1.793 0.56 3.584 0.844 5.375 0.076 0.481 0.161 0.962 0.243 1.45 0.839 0 1.638 0.006 2.437-0.009 0.103-0.002 0.201-0.091 0.219-0.197 0.191-1.126 0.365-2.255 0.551-3.425-0.323 0-0.611 0.001-0.899-0-0.811-0.003-1.129-0.468-0.864-1.272 0.556-1.685 1.115-3.368 1.672-5.052 0.163-0.492 0.322-0.986 0.487-1.491-0.071-0.031-0.114-0.055-0.16-0.069-0.726-0.213-1.167-0.718-1.286-1.493-0.113-0.741 0.168-1.334 0.735-1.779 0.28-0.22 0.569-0.429 0.837-0.665 0.128-0.113 0.235-0.254 0.3-0.416 0.298-0.747 0.756-1.349 1.417-1.767 0.262-0.166 0.548-0.291 0.836-0.441-0.002-0.030-0-0.071-0.006-0.111v0z"></path>
</svg>
