<?xml version="1.0" encoding="utf-8"?>
<!-- Generator: Adobe Illustrator 16.0.3, SVG Export Plug-In . SVG Version: 6.00 Build 0)  -->
<!DOCTYPE svg PUBLIC "-//W3C//DTD SVG 1.1//EN" "http://www.w3.org/Graphics/SVG/1.1/DTD/svg11.dtd">
<svg version="1.1" id="Layer_1" xmlns="http://www.w3.org/2000/svg" xmlns:xlink="http://www.w3.org/1999/xlink" x="0px" y="0px"
	 width="78.6216px" height="36.7539px" viewBox="0 0 78.6216 36.7539" enable-background="new 0 0 78.6216 36.7539"
	 xml:space="preserve">
<g>
	<g>
		<circle fill="#F8991D" cx="18.2561" cy="18.3848" r="3.9641"/>
		<path fill="#F8991D" d="M22.2202,32.5059c0,2.1895-1.7729,3.9609-3.9634,3.9609c-2.1885,0-3.9648-1.7715-3.9648-3.9609
			c0-2.1904,1.7764-3.9639,3.9648-3.9639C20.4473,28.542,22.2202,30.3154,22.2202,32.5059z"/>
		<circle fill="#F8991D" cx="18.2561" cy="4.2754" r="3.9641"/>
		<path fill="#F8991D" d="M7.9302,18.3848c0,2.1895-1.7739,3.9629-3.9634,3.9629C1.7803,22.3477,0,20.5742,0,18.3848
			c0-2.1875,1.7803-3.9629,3.9668-3.9629C6.1563,14.4219,7.9302,16.1973,7.9302,18.3848z"/>
		<path fill="#F8991D" d="M7.9302,32.5059c0,2.1895-1.772,3.9609-3.9634,3.9609C1.7803,36.4668,0,34.6953,0,32.5059
			c0-2.1904,1.7803-3.9639,3.9668-3.9639C6.1582,28.542,7.9302,30.3154,7.9302,32.5059z"/>
		<path fill="#F8991D" d="M7.9302,4.2754c0,2.1895-1.772,3.9619-3.9634,3.9619C1.7803,8.2373,0,6.4648,0,4.2754
			s1.7803-3.9648,3.9668-3.9648C6.1582,0.3105,7.9302,2.0859,7.9302,4.2754z"/>
		<path fill="#F8991D" d="M36.9844,32.5059c0,2.1895-1.7744,3.9609-3.9644,3.9609c-2.189,0-3.9614-1.7715-3.9614-3.9609
			c0-2.1904,1.7725-3.9639,3.9614-3.9639C35.21,28.542,36.9844,30.3154,36.9844,32.5059z"/>
		<circle fill="#F8991D" cx="33.0215" cy="4.2754" r="3.9629"/>
	</g>
	<g>
		<path fill="#56A0D3" d="M33.9927,18.6387c-0.0615-0.0293-0.1079,0.0215-0.1079,0.0215l-0.0874,0.0664
			c0,0-0.0239,0.0352-0.0039,0.0527c0.019,0.0195,0.0674-0.0215,0.0674-0.0215l0.0811-0.0508l0.061-0.0244
			C34.0029,18.6826,34.0547,18.6641,33.9927,18.6387z M36.2441,17.5137c-0.0039,0.1484-0.0264,0.2969-0.0513,0.4424
			c0.0195,0.0459,0.1108,0.1104,0.1226,0.1641c0.0063,0.0537-0.0889,0.124-0.1187,0.0732c-0.019-0.0254-0.0327-0.0342-0.0464-0.042
			c-0.1328,0.5244-0.4004,1-0.7617,1.3838l0.2559,0.2646c0.0093-0.0283,0.0093-0.0537,0.0093-0.0791
			c-0.0156-0.0938,0.0142-0.1191,0.0342-0.1191c0.0171,0,0.1362,0.0029,0.1733,0.1133c0.0103,0.043,0.0181-0.0039,0.04,0.0703
			c-0.0127,0.0381,0.0117,0.1162,0.0117,0.1162s0.0156,0.0303,0.0259,0.0654c0.0083,0.0195-0.0039,0.041-0.0103,0.0781
			c0.6318-0.668,1.0288-1.5547,1.0674-2.5313H36.2441z M35.2734,20.6045c0.1553-0.1025,0.2969-0.2158,0.4316-0.3389l-0.0195-0.0234
			c-0.0317,0.0029-0.0566,0-0.0708-0.0156c-0.0156-0.0205-0.0283-0.0508-0.0361-0.0908l-0.395-0.3896
			c-0.0337,0.0459-0.084,0.084-0.084,0.084l-0.0039,0.0957c0.248,0.1191,0.312,0.2227,0.3096,0.2734
			c-0.0078,0.0537-0.1812,0.2031-0.1812,0.2461c0,0.0469,0.063,0.082,0.0615,0.1289
			C35.2832,20.5879,35.2788,20.5977,35.2734,20.6045z M33.1616,20.6201v0.6787c0.2031-0.0078,0.4023-0.0352,0.5938-0.0693
			c-0.1118-0.0908-0.1572-0.0908-0.186-0.1064c-0.0352-0.0264-0.0771-0.0938-0.1172-0.1982
			c-0.0415-0.1094,0.0796-0.1172,0.0498-0.1953c-0.0303-0.0791-0.2749-0.0498-0.2749-0.0498S33.2646,20.7246,33.1616,20.6201z
			 M32.8701,20.5605c-0.7554-0.0332-1.4478-0.3154-1.979-0.7754c0.0288,0.0332,0.0557,0.0615,0.0913,0.0879
			c0.1479,0.1309,0.1689,0.209,0.1572,0.2773c-0.0093,0.0723-0.3384,0.0645-0.3384,0.0645l-0.0078,0.002
			c-0.1138,0.0547-0.2896,0.0908-0.3594,0.0781c-0.043-0.0059-0.0601-0.0293-0.0845-0.0527l-0.0332,0.0293
			c0.6763,0.6113,1.5669,0.9922,2.5537,1.0273V20.5605z M29.7959,17.791c-0.0127-0.0928-0.0259-0.1816-0.0283-0.2773H29.02
			c0.0127,0.3691,0.0742,0.7227,0.186,1.0566c0.0024,0,0.0054-0.002,0.0078-0.0039c0.0322-0.0166,0.0078-0.0313,0.0181-0.0723
			c0.0142-0.0391,0.0474,0.0039,0.0601-0.0273c0.0117-0.0273-0.0127-0.0391-0.0127-0.0664c0-0.0293,0.0376-0.0391,0.04-0.0625
			c0.0078-0.0273-0.0156,0.0156-0.0259-0.0459c-0.0063-0.0635,0.0337-0.1338,0.0337-0.1455c0-0.0039,0.0264-0.0586,0.0586-0.127
			c0.0352-0.0703,0.1611-0.1035,0.2031-0.1504c0.0103-0.0117,0.0337-0.0898,0.1157-0.1035
			C29.7383,17.7617,29.7676,17.7715,29.7959,17.791z M29.7676,17.2266c0.0361-0.7861,0.3564-1.4941,0.8633-2.0332l-0.5254-0.5273
			c-0.6484,0.6729-1.0508,1.5723-1.0854,2.5605H29.7676z M30.8389,14.9922c0.542-0.4824,1.2515-0.7871,2.0313-0.8174v-0.7373
			c-0.9868,0.0313-1.8799,0.416-2.5576,1.0273L30.8389,14.9922z M33.1616,14.1748c0.6016,0.0283,1.1606,0.2188,1.6382,0.5313
			c-0.0244-0.04-0.0454-0.0869-0.0483-0.0986c-0.0156-0.0293,0.0356-0.0449,0.0356-0.0449
			c-0.0864-0.1172-0.1035-0.1689-0.0742-0.1934c0.0332-0.0234,0.1182,0.0469,0.1641,0.1172
			c0.0439,0.0762,0.104,0.1494,0.1416,0.1543c0.0361,0.0078,0.1187,0.0039,0.1377,0.0762c0.0215,0.0684,0.0459,0.084,0.0679,0.1855
			c0.0054,0.0156,0.0078,0.0293,0.0132,0.043l0.2197-0.2168c-0.022-0.0488-0.0518-0.1035-0.1221-0.1367l-0.1592,0.0527
			c0,0-0.0566,0.0273-0.0762-0.0088c-0.0215-0.0381-0.0215-0.1162-0.0215-0.1162s-0.0596-0.0391-0.0596-0.0703
			c0-0.0332,0.0337-0.1367,0.0063-0.1729c-0.0205-0.0391-0.0703-0.0693-0.0703-0.0693s-0.0244-0.126-0.0503-0.1885
			c-0.021-0.0537-0.1504-0.1631-0.1504-0.1631s0-0.0117,0-0.0254c-0.4863-0.2383-1.0244-0.3711-1.5923-0.3926V14.1748z
			 M35.4077,15.2188c0.0171,0.0195,0.0352,0.0391,0.0547,0.0645c0.0562,0.0664,0.1162,0.1338,0.1665,0.2051
			c0.0249,0.0352,0.0552,0.0723,0.0762,0.1094c0.0244-0.0078,0.0508-0.0322,0.0781-0.043c0.0464-0.0313,0.0781,0,0.0923,0.0586
			c0.0181,0.0664-0.0923,0.0586-0.0576,0.1191c0.0117,0.0176,0.1006-0.0059,0.1133,0c0.0103,0.0078,0.0278,0.0508-0.0103,0.084
			c-0.022,0.0234-0.0439,0.0381-0.0469,0.0605c0.0107,0.0215,0.0195,0.0371,0.0273,0.0547
			c0.0459,0.0195,0.1172-0.0176,0.1172,0.0479c0,0.0781,0.0601,0.1318,0.0679,0.1982c0.0063,0.0439-0.0093,0.0674-0.0313,0.1064
			c0.0298,0.0781,0.0547,0.1592,0.0776,0.2451c0.0225-0.0156,0.0474-0.0234,0.0693-0.0195v0.0137c0,0,0.0103,0.0762,0.0049,0.1074
			c-0.0049,0.0273-0.0103,0.0879-0.0166,0.1289c0.0063,0.04,0.0117,0.0742,0.0166,0.1172c0.0156,0.0449,0.0234,0.1055,0.0332,0.1602
			h-0.0098c0.0098,0.0625,0.0137,0.123,0.0137,0.1895h0.752c-0.0195-0.5-0.1299-0.9736-0.3198-1.4082
			c-0.0107-0.002-0.0259-0.0029-0.0396-0.0029c0,0-0.0596,0.0439-0.1079,0.0439c-0.0469,0-0.0713-0.0645-0.0713-0.0645
			s-0.2095-0.2773-0.2451-0.2988c0,0-0.0361-0.0391-0.1196-0.0479c-0.0859-0.0078-0.0718-0.0498-0.0718-0.0498
			s-0.1025-0.0449-0.1782-0.0703l-0.0596-0.123c0,0,0.0049-0.041-0.0054-0.0605c-0.0103-0.0117-0.1538-0.0166-0.1538-0.0166
			s-0.0654-0.0313-0.0977-0.0654l-0.1187,0.125C35.4082,15.1982,35.4082,15.2061,35.4077,15.2188z M38.3438,17.3691
			c0,2.9043-2.3887,5.2617-5.3359,5.2617c-2.9487,0-5.3408-2.3574-5.3408-5.2617c0-2.9082,2.3921-5.2656,5.3408-5.2656
			C35.9551,12.1035,38.3438,14.4609,38.3438,17.3691z M33.02,16.4785h-0.0122c-0.0674,0-0.1299,0.0039-0.1948,0.0195
			c0.0156,0.0078,0.0337,0.0156,0.021,0.041c-0.0132,0.042,0.0361,0.1582,0.0361,0.1582c-0.0732,0.1338-0.335,0.1797-0.335,0.1797
			c-0.04,0.0313-0.0244,0.0859-0.0781,0.1211c-0.0571,0.0313-0.0776,0.0518-0.1089,0.0938c-0.0264,0.043-0.0186,0.082-0.0342,0.1299
			c-0.0181,0.0498,0.02,0.0732,0.0078,0.1084c-0.0142,0.0313-0.0298,0.1367-0.0518,0.168
			c-0.0195,0.0283-0.0654-0.0117-0.0923-0.0215c-0.0317-0.0098-0.0459-0.1523-0.063-0.1699c-0.0039-0.0068-0.0088-0.0068-0.0103,0
			c-0.0039,0.0176-0.0039,0.041-0.0039,0.0625c0,0.0625,0.0054,0.123,0.0205,0.1807c0.0356-0.0146,0.0273-0.0264,0.0391-0.0283
			c0.0903-0.0059,0.0317,0.0586,0.0742,0.0586c0.0391,0,0.0679-0.0176,0.0718-0.0996c0.0015-0.084,0.0747-0.0879,0.1045-0.084
			c0.0229,0.0039,0.0024,0.0596,0.0127,0.0781c0.0103,0.0156,0.0405,0,0.0405,0.0518c0,0.0479-0.0908,0.1094-0.1069,0.1826
			c-0.0112,0.0781-0.0337,0.0918-0.0649,0.0996c-0.0483,0.0078-0.0376-0.0869-0.064-0.043c-0.0171,0.0332,0.0576,0.123,0.0576,0.123
			c0.0522-0.042,0.0703-0.0781,0.0874-0.1133c0.019-0.0371,0.0566-0.0313,0.0938-0.0586c0.0425-0.0234,0.0439-0.1484,0.0425-0.1738
			c-0.0039-0.0313,0.0435-0.0234,0.2437-0.0313c0.2061-0.0117,0.1875,0.0527,0.1748,0.1074
			c-0.0122,0.0605,0.0283-0.0117,0.0283,0.0479c0,0.0635-0.0732,0.1201-0.0962,0.1719c-0.0195,0.0547,0.0347,0.0615,0.0063,0.083
			c-0.0259,0.0254-0.0376,0.0566-0.0376,0.0566c-0.106,0.123-0.1162,0.0469-0.1782,0.0742
			c-0.0654,0.0293-0.1411,0.0195-0.1411,0.0195c-0.0142,0.001-0.0259,0.0039-0.0425,0.0098
			c0.1519,0.1113,0.3379,0.1758,0.541,0.1758c0.0459,0,0.0859-0.0039,0.1343-0.0117c0.021-0.0996,0.0547-0.2676,0.1353-0.3105
			c0.0898-0.0488,0.1787,0.0254,0.2246,0.0039c0.0464-0.0195,0.0581-0.0625,0.0674-0.0928c0.0127-0.0264,0.0444-0.1084,0.0244-0.165
			c-0.0244-0.0586-0.062-0.0313-0.0737-0.0742c-0.0142-0.042,0.0737-0.043,0.0298-0.0957
			c-0.0703-0.0879-0.0537-0.1504-0.0781-0.1699c-0.0234-0.0195-0.0415,0.0059-0.0693-0.0342
			c-0.0298-0.0361,0.0122-0.0674,0.0186-0.1045c0.0015-0.0469,0.0674-0.0518,0.0586-0.084
			c-0.0078-0.0381-0.043-0.0078-0.0532-0.0537c-0.0054-0.04,0.0298-0.1104,0.0298-0.1104s-0.103,0.002-0.1196-0.0332
			c-0.0107-0.041-0.0757-0.1289-0.1509-0.168c-0.0762-0.0352-0.1934-0.0098-0.1934-0.0098c-0.0166-0.0615-0.104-0.1211-0.104-0.1211
			c-0.0698-0.0938-0.0283-0.082,0.0103-0.123c0.0356-0.0391,0.1094,0.0059,0.123-0.0078
			C33.0254,16.4873,33.0215,16.4824,33.02,16.4785z M36.1172,14.4707c0.1709,0.1738,0.3247,0.3672,0.46,0.5703
			c0.0376,0.0332,0.1016,0.0996,0.1157,0.1445c0.0054,0.0234,0.0054,0.0361,0.0103,0.0508c0.0117,0.0195,0.0239,0.04,0.0332,0.0605
			c0,0.0039,0.0127,0.0117,0.0127,0.0186c0.0615,0.0615,0.0757,0.0928,0.1133,0.1709c0.0181,0.0371,0.0244,0.0703,0.0283,0.1035
			c0.2373,0.499,0.377,1.0537,0.396,1.6367h0.7661c-0.0342-1.2754-0.5586-2.4316-1.3945-3.2949L36.1172,14.4707z M33.2671,13.1523
			c0.6289,0.0391,1.2227,0.2109,1.7515,0.4883l0.147-0.0645c0,0-0.0464-0.0098,0.0239,0.0049
			c0.0703,0.0107,0.0479,0.0068,0.1313,0.0342c0.0874,0.0283,0.0947,0,0.1284,0.0156c0.0332,0.0127,0.0435,0.0723,0.0835,0.1055
			c0.0459,0.0332,0.0317,0.0039,0.0913,0.0332c0.0601,0.0293,0.1299,0.1113,0.1499,0.1523
			c0.0195,0.0371,0.0518-0.0195,0.0874,0.1758c0,0,0.0645,0.0723,0.1055,0.1172l0.4844-0.4883
			c-0.8647-0.7949-2.02-1.2939-3.2896-1.333v0.6201c0.0054-0.0039,0.0181-0.0039,0.0317,0.0049
			c0.0547,0.0322,0.0776,0.0283,0.0737,0.0859C33.2671,13.1191,33.2671,13.1367,33.2671,13.1523z M30.1069,14.2598
			c0.7344-0.668,1.6982-1.0781,2.7632-1.1133v-0.7529c-1.2744,0.0313-2.4307,0.5342-3.3018,1.3291L30.1069,14.2598z M28.728,17.2266
			c0.0376-1.0703,0.4756-2.0391,1.1719-2.7637l-0.5386-0.541c-0.8389,0.8633-1.3652,2.0264-1.4028,3.3047H28.728z M29.9014,20.2764
			c-0.0874-0.1006-0.1787-0.1943-0.2607-0.2979c-0.0737-0.0303-0.0723-0.0508-0.1494-0.1113
			c-0.0835-0.0674-0.0366-0.1406-0.0703-0.1563c-0.0205-0.002-0.0205,0.0352-0.0283,0.043
			c-0.0068,0.0117-0.0488,0.0176-0.0991,0.0039c-0.0454-0.0176-0.0952-0.0879-0.0952-0.0879
			c-0.082-0.0625-0.0718-0.1426-0.0874-0.167c-0.0166-0.0225-0.0664,0-0.0962-0.0068c-0.0283-0.0088-0.0283-0.0557-0.0576-0.0742
			c-0.0283-0.0137-0.0742-0.0039-0.0742-0.0039c-0.0176-0.0313-0.0957-0.1426-0.1094-0.1494c0,0,0,0.0752-0.0645,0.0752
			c-0.0703,0-0.1538-0.1426-0.1851-0.1602c-0.0278-0.0137-0.042,0.0332-0.0835,0.0068c-0.0381-0.0322-0.0806-0.1709-0.0835-0.1963
			c-0.0073-0.0254-0.0322-0.0605-0.0483-0.1016c-0.0156-0.043,0.0083-0.2539,0.0161-0.2813
			c0.0195-0.0508,0.0391,0.0039,0.0601-0.0762c0.0137-0.084,0.061-0.0801,0.0972-0.0801c0.0356-0.0068,0.0493,0.0098,0.0679,0.0391
			c0.0181,0.0273,0.0664,0.0039,0.0938-0.0078s0-0.0469,0.0024-0.0693c0.0039-0.0205,0.0591-0.0107,0.0977-0.0303
			c0.0337-0.0215,0.0923-0.0332,0.1055,0.0039l0.0054,0.0107c-0.0728-0.2861-0.1162-0.5811-0.1265-0.8877h-0.7695
			c0.0376,1.2832,0.5654,2.4395,1.4067,3.3018L29.9014,20.2764z M32.8701,21.584c-1.061-0.0313-2.0249-0.4434-2.7593-1.1074
			l-0.5386,0.5371c0.8696,0.7969,2.0234,1.2939,3.2979,1.3262V21.584z M35.9077,20.4688c-0.2354,0.2168-0.4922,0.4082-0.7734,0.5654
			c-0.0049,0.0078-0.0078,0.0186-0.0103,0.0244c-0.0557,0.1475-0.1758,0.2695-0.2031,0.3184
			c-0.0298,0.0488-0.0439,0.0166-0.1079,0.0645c-0.0591,0.0488-0.0259,0.0898-0.0962,0.1172
			c-0.0718,0.0254-0.124,0.0488-0.124,0.0488s-0.2056,0.2168-0.4165-0.0156c-0.0381-0.0264-0.106-0.0391-0.1499-0.082
			l-0.0234-0.0352c-0.2734,0.0605-0.5547,0.1016-0.8413,0.1094v0.7559c1.2671-0.0371,2.4185-0.5352,3.2881-1.3301L35.9077,20.4688z
			 M37.2866,17.5137c-0.0376,1.0684-0.4761,2.0293-1.1719,2.7549l0.542,0.5361c0.832-0.8574,1.3594-2.0137,1.396-3.291H37.2866z
			 M35.5161,17.2266h0.439c-0.0039-0.1211-0.02-0.2383-0.042-0.3535c-0.0181,0.0313-0.0322,0.0625-0.0615,0.0977
			c-0.0439,0.0479-0.0957,0.0176-0.1465,0.043c-0.0488,0.0234-0.0093,0.0723-0.0171,0.1055
			c-0.0078,0.0313,0.0415,0.0195,0.022,0.0664c-0.0181,0.0488-0.0718,0.0176-0.1001,0.0176
			C35.5903,17.2031,35.5527,17.1797,35.5161,17.2266z M34.6514,15.9375c0.0376,0.0391,0.0713,0.084,0.1079,0.125
			c0.0093-0.0078,0.0317-0.0137,0.0898-0.0039c0.0859,0.0146,0.2231,0.0381,0.2881,0.0459
			c0.0845,0.0107,0.1104,0.1689,0.1577,0.1885c0.0449,0.0195,0.0361,0.0352,0.04,0.084c0.0049,0.0449-0.0352,0.0313-0.0298,0.0605
			c0.0103,0.0352,0.0347,0.0684,0.0718,0.0352c0.0313-0.0352,0.0898-0.082,0.1768-0.0645c0.146,0.0244,0.0947,0.1104,0.1514,0.123
			c0.0586,0.0215,0.0371,0.0313,0.0586,0.0547c0.0195,0.0264-0.0078,0.0605-0.042,0.0723
			c-0.0298,0.0098-0.0298,0.0371-0.0298,0.0605c0,0.0254-0.0356,0.0547-0.0381,0.0781c-0.0054,0.0195-0.0298,0.0889,0,0.0889
			c0.0317,0,0.0562,0.0283,0.0825-0.0049c0.0215-0.0293,0.1377-0.1406,0.1353-0.2051v-0.0137
			c-0.0317-0.1191-0.0679-0.2324-0.1138-0.3467c-0.0156-0.0264-0.0283-0.0498-0.0439-0.0625
			c-0.0518-0.0391-0.2393-0.1338-0.2725-0.1846c-0.0332-0.0469,0.0078-0.0576,0.041-0.0918
			c0.0244-0.0234,0.0503-0.0781,0.0386-0.1328c-0.0142-0.0254-0.0322-0.0518-0.0518-0.0781
			c-0.0342-0.0449-0.1021-0.1328-0.1782-0.2393c-0.0352-0.04-0.0693-0.0781-0.1074-0.1221L34.6514,15.9375z M33.1616,15.209
			c0.4883,0.0332,0.9365,0.2246,1.2842,0.5273l0.5308-0.5313c-0.4868-0.4316-1.1196-0.709-1.8149-0.7412V15.209z M31.5781,15.7285
			c0.3491-0.3027,0.7998-0.4922,1.292-0.5195v-0.7451c-0.7021,0.0303-1.3374,0.3037-1.8281,0.7314L31.5781,15.7285z
			 M31.2114,16.1191c0.0503-0.0645,0.0977-0.1289,0.1548-0.1895l-0.5298-0.5332c-0.4561,0.4863-0.7437,1.123-0.7773,1.8301h0.3267
			c-0.0142-0.0137-0.04-0.0625-0.0298-0.0977c0.0078-0.0371-0.0239-0.1699-0.0142-0.1895c0.0103-0.0225,0.0415-0.0459,0.0581-0.0664
			c0.0117-0.0273,0-0.0654,0.0103-0.0801c0.0098-0.0195,0.042-0.0527,0.0679-0.084c0.021-0.0273,0.0156-0.1035,0.0874-0.1348
			c0.0688-0.0352,0.0835,0.002,0.1299-0.002c0.0498-0.0098,0.0474-0.0723,0.0474-0.0723s-0.0181-0.0215,0.0103-0.0684
			c0.0298-0.0488,0.2031-0.0918,0.2031-0.0918s-0.0063-0.0449,0.1016-0.1309C31.1279,16.1563,31.1841,16.1309,31.2114,16.1191z
			 M30.8208,17.2266c0.0015-0.0332,0.0039-0.0625,0.0054-0.0957c-0.0249-0.0117-0.0591-0.0195-0.085-0.0195
			c-0.082,0-0.1523,0.0449-0.1484,0.1152H30.8208z M30.3022,17.5137h-0.2432c0.0078,0.1846,0.0361,0.3633,0.0757,0.5352
			c0.0415-0.0215,0.0376-0.0449,0.04-0.0703c0.0054-0.0293,0.0415-0.0225,0.0537-0.0449c0.0142-0.0244,0.0117-0.0244-0.0044-0.04
			c-0.0117-0.0107-0.0493-0.042-0.0571-0.085c-0.0103-0.0449,0.022-0.0801,0.04-0.1289c0.0156-0.0518-0.0049-0.0684,0.0195-0.1133
			C30.2529,17.5264,30.2344,17.5664,30.3022,17.5137z M31.373,18.8145c-0.2529-0.2793-0.4326-0.6211-0.5146-0.9941
			c-0.0054-0.0039-0.0103-0.0098-0.0132-0.0195c-0.0327-0.0527-0.082-0.0352-0.082-0.0352s-0.0205,0.1602-0.0205,0.1699
			c0,0.0078-0.0142,0.0898-0.0522,0.0898c-0.0352-0.0078-0.0518-0.0469-0.0518-0.0469s-0.0566,0.002-0.064-0.0176
			c-0.0093-0.0215-0.0615-0.0723-0.0078-0.1143c0.0503-0.0469,0.0444,0.042,0.082-0.0078c0.0361-0.0479-0.0459-0.251,0.0142-0.2588
			c0.0439-0.0059,0.104,0.0938,0.1196,0.0996c0.0083,0,0.0298-0.0059,0.0508-0.0176c-0.0049-0.0488-0.0112-0.0977-0.0127-0.1484
			h-0.3296c-0.0132,0.0361-0.0054,0.1543-0.0361,0.1768c-0.0313,0.0186-0.1528-0.0234-0.167,0.0547
			c-0.0156,0.1094,0.04,0.0596,0.04,0.1396c0,0.0762-0.0376,0.0273-0.0117,0.1016c0.0254,0.0742,0.1426,0.0957,0.1616,0.1807
			c0.021,0.0908,0.0537,0.1279,0.0654,0.1494c0.0078,0.0215-0.0522,0.0684-0.0117,0.1289c0.0352,0.0586,0.0713,0.1592,0.061,0.1934
			c-0.0054,0.0352-0.0054,0.1309,0.0327,0.2861c0.0352,0.1592,0.0376,0.0557,0.0933,0.1592
			c0.0264,0.0518,0.0342,0.1094,0.0288,0.1563c0.0298,0.0352,0.0615,0.0674,0.0913,0.0977L31.373,18.8145z M32.5107,19.4766
			c-0.3506-0.0801-0.665-0.2393-0.9307-0.4688l-0.5327,0.5352c0.4077,0.3584,0.9155,0.6055,1.4775,0.6943
			c-0.0854-0.0518-0.147-0.085-0.1519-0.0889c-0.0078-0.0205-0.0332-0.0703-0.1152-0.1689
			c-0.0801-0.0967-0.0659-0.1689-0.0659-0.1689c0.0586-0.0186,0.0737-0.0508,0.0737-0.0508s0.0366-0.1484,0.1099-0.21
			C32.4106,19.5215,32.457,19.5,32.5107,19.4766z M34.2139,19.1738c-0.0322,0.0195-0.0664,0.043-0.1016,0.0635
			c0.0039,0,0.0054,0.001,0.0127,0.0029c0.0601,0.0195,0.2881,0.0488,0.3594,0.1035c0.063,0.0605,0.1865,0.0781,0.1865,0.0781
			c0.0835-0.0117,0.1377-0.0117,0.1782-0.0156l-0.0952-0.0957c-0.0649-0.0176-0.1191-0.042-0.127-0.0488
			c-0.0977-0.0449-0.0718,0.0225-0.1606-0.0244C34.4014,19.2012,34.2832,19.1836,34.2139,19.1738z M35.8809,18.0273
			c0.0376-0.1641,0.0664-0.3369,0.0742-0.5137h-0.4443c0.0298,0.0352,0.0654,0.0527,0.0859,0.0752
			c0.0439,0.0459,0.0273,0.0986,0.0361,0.1416c0.0078,0.0449,0.0498,0.041,0.1211,0.1084c0.0718,0.0732,0.064,0.1338,0.0957,0.1748
			C35.8613,18.0254,35.8677,18.0273,35.8809,18.0273z M34.7461,18.6875c-0.019,0.0254-0.0386,0.041-0.0532,0.0654
			c0.0044-0.001,0.0078-0.0068,0.0122-0.0107c0.0464-0.0254,0.0703,0.0215,0.1001-0.0215c0.0298-0.0449,0.0298-0.082,0.0542-0.1211
			c0.0239-0.0391,0.1006-0.043,0.1514-0.042c0.0479,0.0029,0.0439-0.0156,0.0732,0.0703c0.0273,0.0889,0.0205,0.1631,0.0205,0.1631
			c0.0249,0.0195-0.0444,0.0859-0.0498,0.2285c-0.0024,0.0771-0.04,0.0254-0.0361,0.123l-0.0127,0.0098l0.0527,0.0527
			c0.0039-0.0039,0.0117-0.0146,0.0156-0.0313c0.0342-0.0723,0.0796-0.1113,0.1035-0.0742
			c0.0176,0.0215,0.0361,0.1016,0.0542,0.1816c0.2686-0.3008,0.4717-0.6602,0.5938-1.0527l-0.0205,0.0059
			c-0.0273,0-0.125,0.0254-0.2227,0.0371c-0.0898,0.0117-0.1719,0.0078-0.1719,0.0078s-0.0513-0.0449-0.0708-0.0186
			c-0.022,0.0322-0.0386,0.1201-0.1157,0.1006c-0.0757-0.0156-0.0361-0.1006-0.062-0.1035
			c-0.0249-0.0117,0.0034,0.0313-0.0249,0.0762c-0.0288,0.043-0.1069,0.1563-0.1187,0.1816
			c-0.0127,0.0234-0.1641,0.0313-0.1875,0.0703C34.813,18.6113,34.7852,18.6641,34.7461,18.6875z M34.1084,18.2578l0.2109,0.2109
			c0.0103-0.041-0.0259-0.125-0.0259-0.125l-0.1001-0.0449l-0.0396-0.0273l0.0225-0.0449l-0.0288-0.0117L34.1084,18.2578z
			 M33.9766,18.9805c0.0342-0.0176,0.0615-0.0391,0.0952-0.0586c-0.0337-0.0039-0.0674,0.0059-0.0835,0.041
			C33.9873,18.9688,33.9824,18.9766,33.9766,18.9805z M31.7842,18.8066c0.2666,0.2188,0.5913,0.3672,0.9507,0.416
			c0.0015,0.0146,0.0015,0.0234,0.0054,0.0381c0,0,0.022,0.0205,0.0566,0.0234c0.0396,0.0049,0.0977,0,0.1436-0.0469
			c0.0518-0.0537,0.0415-0.0186,0.0771-0.0244c0,0,0.0361-0.0605,0.0713-0.1074c0.0342-0.0176,0.0532-0.0684,0.0703-0.0713
			l0.0024,0.2031c0.2529-0.0205,0.4937-0.0869,0.7095-0.2002c-0.04-0.0029-0.0938-0.0654-0.1055-0.0684
			c-0.0259-0.0059,0.0195,0.0742,0.0215,0.0938c0.0063,0.0215-0.1123,0.0576-0.124,0.043
			c-0.0337-0.0625-0.0938-0.0713-0.0967-0.0605c-0.0103,0.1055-0.0518,0.0752-0.0518,0.0752
			c-0.1001-0.1436-0.1318-0.0537-0.1807-0.1045c-0.0513-0.0527-0.0732-0.0313-0.0732-0.0313
			c-0.04-0.0039-0.0674,0.0352-0.0991,0.0469c-0.0195,0.0059-0.0386,0.0566-0.0728,0.0742
			c-0.0352,0.0469-0.0713,0.1074-0.0713,0.1074c-0.0356,0.0059-0.0254-0.0293-0.0771,0.0244
			c-0.0459,0.0469-0.104,0.0518-0.1436,0.0469c-0.0347-0.0029-0.0566-0.0225-0.0566-0.0225
			c-0.0039-0.0156-0.0039-0.0244-0.0054-0.0391c0-0.0293-0.0044-0.0527-0.0024-0.0723c0.0024-0.1426,0.0244-0.1787,0.0298-0.1875
			c0.0156-0.0254,0.0664-0.0137,0.1079-0.0117v-0.1738l-0.0039-0.0244c-0.0063-0.0107,0-0.0205,0.0039-0.0264v-0.1875
			c-0.2197-0.0234-0.4243-0.1074-0.5898-0.2314L31.7842,18.8066z M31.8335,17.5996c-0.0024-0.0195-0.0039-0.0371-0.0054-0.0566
			c-0.0254,0.0225-0.0947,0.0137-0.082,0.0459C31.7476,17.6035,31.7842,17.6035,31.8335,17.5996z M31.1616,17.8389
			c0.0757,0.2842,0.2192,0.5479,0.4165,0.7656l0.4966-0.5c-0.02-0.0283-0.0376-0.0518-0.0615-0.0791c0,0-0.0024,0-0.0049,0
			c-0.043,0.0234-0.0117,0.0791-0.0376,0.1025c-0.0215,0.0186-0.0459,0.0498-0.0615,0.083
			c-0.0117,0.0332-0.0923,0.1055-0.1338,0.0684c-0.0371-0.041-0.0078-0.2266-0.0664-0.2305c-0.0249-0.0059-0.0107,0.0137,0,0.0859
			c0.0151,0.0742-0.0352,0.0391-0.0591,0.0293c-0.0283-0.0176-0.0439-0.0293-0.103-0.082
			c-0.0605-0.0547-0.0142-0.0879-0.0142-0.0879s-0.0518-0.043-0.0674-0.0381c-0.0186,0.0049-0.0083,0.0381-0.0532,0.0225
			c-0.0391-0.0176-0.0391-0.0918-0.0391-0.0918s-0.042,0-0.145-0.0322C31.209,17.8467,31.1841,17.8418,31.1616,17.8389z
			 M32.8701,15.4961c-0.4141,0.0303-0.7891,0.1875-1.0908,0.4355l0.2891,0.2891c0.0503,0.0059,0.04,0.0479,0.0962,0.0635
			c0.0596,0.0156,0.0542-0.0107,0.0977-0.0186c0.0439-0.0039,0.0156,0.0273,0.0337,0.0498
			c0.0181,0.0244,0.0498-0.0156,0.0498-0.0156c0.0464-0.0264,0.0337,0.0225,0.0879-0.0049
			c0.0615-0.0215,0.0254-0.0566,0.0552-0.0918c0.0283-0.0361,0.0205-0.0566,0.0205-0.0986s0.0513-0.083,0.0757-0.1104
			c0.0195-0.0254,0.0439-0.0254,0.0654,0.0078c0.0195,0.0313-0.0254,0.0527-0.0132,0.0791
			c0.0112,0.0166,0.0952-0.0127,0.2329-0.0322V15.4961z M34.1919,15.9023c-0.2837-0.2266-0.6421-0.375-1.0303-0.4043v0.5488
			c0.1108,0.0195,0.1992,0.0576,0.1992,0.0576l0.0171-0.0078c0.064-0.1201,0.1538-0.1025,0.1758-0.1201
			c0.0234-0.0156,0.0156-0.041,0.0522-0.0742c0.0313-0.0322,0.0815,0.0078,0.0898,0.0381c0.0132,0.0283,0.0156,0.1494-0.0562,0.2549
			c-0.0376,0.0527-0.0913,0.0781-0.1436,0.0977c0.0879,0.041,0.167,0.0898,0.2451,0.1445l0.0537-0.0527
			c0.0039-0.0146,0.0117-0.0293,0.0117-0.0293s0.0205-0.0117,0.0542-0.0352l0.2388-0.2393c-0.0039,0-0.0122-0.0049-0.0234-0.0127
			c-0.0264-0.0215-0.1016-0.0273,0.04-0.123C34.1436,15.9248,34.1719,15.9141,34.1919,15.9023z M34.4951,16.1982
			c-0.0107-0.0186-0.0288-0.0361-0.0469-0.0537l-0.0557,0.0508c0.0298,0.0342,0.084,0.0889,0.0698,0.0605
			C34.4482,16.2383,34.4795,16.2441,34.4951,16.1982z M35.3975,13.4297c0.0337-0.0293,0.0439,0.0078,0.0811,0.0176
			c0.0361,0.0088,0.0361-0.0273,0.0918,0c0.0586,0.0254,0.0723,0.0664,0.0742,0.1055c0.0093,0.0391,0.0356,0.0742,0.0435,0.0996
			c0.0078,0.0273-0.064,0.0703-0.1079,0.0449c-0.0396-0.0234-0.0874-0.1055-0.0874-0.1055l-0.1157-0.082
			C35.377,13.5098,35.3594,13.4561,35.3975,13.4297z M33.2334,12.9492c0,0,0.0313-0.04,0.0547-0.0293
			c0.0288,0.0098,0.0967,0.0117,0.0967,0.0117l0.1689-0.0615l0.1338-0.0596l0.0522-0.0264c0,0,0.1914-0.0381,0.3765,0.1123
			c0.022,0.0205,0.0376,0.0332,0.0537,0.043l-0.0537-0.0537c0,0,0.146,0.1279,0.0537,0.0537l-0.0225,0.0469
			c0,0-0.1172,0.0762-0.1592,0.0859c-0.0464,0.0078-0.1172-0.0098-0.1172-0.0098l-0.0977-0.0156l-0.2173,0.0576
			c0,0-0.1353,0.0146-0.2144-0.042c-0.0747-0.0596-0.1006-0.0762-0.1006-0.0762L33.2334,12.9492z M35.4624,15.2832
			c0.0303,0.0322,0.1177,0.1426,0.1538,0.1807c0.0078,0.0078,0.0127,0.0186,0.0127,0.0244
			C35.5786,15.417,35.5186,15.3496,35.4624,15.2832z"/>
		<path fill="#56A0D3" d="M35.7539,22.9316c0.0293,0.002,0.4146-0.0771,1.0171-0.1387c0.6055-0.0664,0.8452-0.0371,1.2798-0.1494
			c0.4805-0.125,0.7256-0.376,0.8491-0.5156c0,0,0.0317-0.0146,0.02,0.0166c-0.0078,0.0293-0.3076,0.6016-1.0005,0.9492
			c-0.6938,0.3477-1.4321,0.2617-1.6157,0.2227c-0.1836-0.0352-0.4424-0.1172-0.7119-0.1914
			c-0.271-0.0703-0.6191-0.1426-0.7891-0.1348c0,0-0.0215-0.0332,0.041-0.0449c0.0864-0.0127,0.4238-0.0859,0.6426-0.1836
			c0.3789-0.1719,0.6963-0.5479,0.9492-0.7832c0.2485-0.2344,0.666-0.6602,0.9072-0.7676c0,0,0.0225,0.0029,0,0.0293
			c-0.0205,0.0234-0.1968,0.2705-0.2954,0.5078c-0.0913,0.2324-0.2134,0.4844-0.3906,0.6836
			c-0.1797,0.1992-0.4224,0.376-0.9028,0.4785C35.7539,22.9102,35.7217,22.9316,35.7539,22.9316z M40.0435,20.2949
			c-0.0024,0.0049-0.0786,0.7158-0.771,1.3398c-0.5142,0.4727-0.9546,0.6484-1.2021,0.7109
			c-0.2354,0.0557-0.5049,0.0859-0.7275,0.1338c-0.2236,0.04-0.5537,0.1318-0.6182,0.1641c0,0-0.0264,0.0107-0.0122-0.0127
			c0.0146-0.0234,0.1045-0.0586,0.3452-0.3779c0.2432-0.3252,0.4507-1.0596,0.4507-1.0596s0.1235-0.3809,0.2485-0.6426
			c0.1265-0.2578,0.5264-0.8262,0.6025-0.8867c0,0,0.0396-0.0205,0.0366,0.0059c-0.0024,0.0234-0.0923,0.1777-0.1445,0.4277
			c-0.0913,0.4102-0.1094,0.8398-0.1611,0.999c-0.0522,0.167-0.1421,0.4688-0.3413,0.7197c-0.2354,0.2852-0.2354,0.25-0.4165,0.416
			c-0.0356,0.0234,0.0078,0.0205,0.0078,0.0205s0.186-0.1084,0.3213-0.21c0.1318-0.1025,0.2852-0.2354,0.5444-0.3916
			c0.249-0.1533,0.5225-0.2236,1.0249-0.5166c0.5-0.2959,0.6851-0.6191,0.7876-0.8398
			C40.0186,20.2949,40.041,20.252,40.0435,20.2949z M38.8716,18.1641c0,0-0.0337,0.2227-0.0103,0.3867
			c0.0244,0.166,0.2041,0.8359,0.1963,1.2012c-0.0078,0.3613-0.0986,0.6797-0.3257,1.0039l0.0186,0.0098
			c0,0,0.3843-0.5391,0.5664-0.7754c0.1851-0.2363,0.5698-0.5938,0.751-0.7988c0.1914-0.2109,0.3506-0.5098,0.4209-0.918h0.0142
			c0,0,0.0991,0.6133-0.1538,1.1973c-0.2539,0.5791-0.5244,0.7949-0.708,0.9629c-0.1826,0.1719-0.7266,0.5381-0.9946,0.6895
			c-0.2656,0.1543-0.4717,0.3242-0.4717,0.3242s-0.021-0.0059-0.021-0.0137c0-0.0098,0.2056-0.3984,0.2646-0.6328
			c0.0562-0.2383,0.1025-0.6289,0.1206-0.9277c0.0137-0.2998,0.1055-1.375,0.3066-1.707L38.8716,18.1641z M38.7764,16.4824
			c-0.0063-0.0234-0.0376-0.0449-0.0444,0c-0.0034,0.0488-0.0034,0.5273,0.1421,1.1221c0.0977,0.3896,0.3447,1.2158,0.3789,1.3291
			c0.0537,0.1953,0.04,0.6367-0.0063,0.7969c0,0,0.0063,0.0488,0.0259,0.0215c0.0234-0.0273,0.2656-0.4287,0.4009-0.5801
			c0.1396-0.1523,0.4648-0.5566,0.5586-0.7705c0.0874-0.2119,0.2944-0.6729,0.2622-1.3408
			c-0.0239-0.5996-0.2012-0.9561-0.2012-0.9561s-0.0229-0.0166-0.0151,0.0068c0.0054,0.0234,0.0376,0.291,0.0078,0.5371
			c-0.0405,0.2441-0.0923,0.4014-0.2319,0.7051c-0.1392,0.2969-0.2749,0.6445-0.3188,0.7617
			c-0.0337,0.1191-0.0835,0.3945-0.1094,0.5898c-0.0278,0.1953-0.1157,0.3379-0.1157,0.3379l-0.02-0.0156
			c0,0,0.0781-0.1582,0.1021-0.502c0.0195-0.3584-0.1279-0.7266-0.2256-0.8975C39.2031,17.3535,38.7881,16.7539,38.7764,16.4824z
			 M39.4819,14.1914c-0.0234-0.0273-0.0103,0.0137-0.0103,0.0137s0.2017,0.291,0.1938,0.7949
			c-0.0078,0.5029-0.0781,0.5273-0.0923,0.9766c-0.0117,0.4453,0.0562,0.9941,0.0562,0.9941h-0.0225
			c0,0-0.0151-0.2832-0.1611-0.6133c-0.1733-0.375-0.8794-0.9404-0.8794-0.9404s-0.2407-0.2295-0.2627-0.3594
			c-0.0225-0.0283-0.0376-0.0049-0.0376-0.0049s0.0571,0.3594,0.2588,0.8086c0.1978,0.4463,0.6563,0.8926,0.7959,1.1572
			c0.1338,0.2588,0.2104,0.292,0.3101,0.792l0.022,0.0059c0,0,0.0049-0.2168,0.1616-0.6816
			c0.1621-0.4629,0.1938-0.4209,0.2808-0.8438c0.0859-0.4297,0.021-0.8584-0.0034-0.9473
			C40.064,15.2559,39.9082,14.6484,39.4819,14.1914z M39.3921,16.0107c0,0-0.0854-0.1875-0.2612-0.3721
			c-0.0835-0.0938-0.2349-0.2559-0.4233-0.4043c-0.1826-0.1523-0.3975-0.2871-0.5327-0.4102
			c-0.2744-0.252-0.5713-0.7168-0.561-1.1328c0,0,0.1323,0.252,0.3135,0.4277c0.1772,0.1738,0.6133,0.418,0.7915,0.584
			c0.1812,0.1641,0.375,0.3809,0.4521,0.6465h0.0322c0,0-0.1978-0.5098-0.2393-0.7012c-0.0493-0.1875-0.0898-0.5039-0.2017-0.8105
			c-0.1099-0.2969-0.2451-0.4414-0.439-0.5684c-0.0078,0,0.0142-0.0166,0.0142-0.0166s0.7563,0.1143,1.0444,1.1084
			c0.0806,0.2871-0.0078,0.9541,0.0088,1.2148c0.0215,0.2627,0.0293,0.4346,0.0293,0.4346H39.3921z M36.8623,12.5576
			c0,0,0.2354,0.083,0.4922,0.1797c0.2593,0.0986,0.5522,0.2422,0.7666,0.4756c0.3516,0.3789,0.4395,0.7305,0.5234,1.0176
			c0.0278,0.1035,0.0942,0.2539,0.106,0.25c0.0142-0.002-0.0117,0.0234-0.0117,0.0234s-0.6606-0.5244-0.8555-0.7441
			c-0.1914-0.2207-0.4287-0.6211-0.5981-0.7871C37.1113,12.7998,36.8623,12.5576,36.8623,12.5576z M28.3848,23.4297
			c0,0,0.6401,0.7451,1.6128,0.75c0.7607,0.0029,1.2935-0.4199,1.2935-0.4199s0.5557-0.3984,0.8447-0.543
			c0.2373-0.1172,0.5991-0.0195,0.5991-0.0195s-0.3989,0.1484-0.7842,0.4277c-0.394,0.2842-0.5283,0.3779-0.9087,0.7656
			l0.3311,0.2764c0,0,0.2354-0.335,0.6914-0.7266c0.4526-0.3916,0.7119-0.5322,0.9946-0.6475c0,0,0.9175,0.4121,1.6704,1.3662
			l0.333-0.2803c0,0-0.7549-0.7744-1.6855-1.1738c0,0,0.0854-0.0547,0.4839-0.0156c0.1758,0.0176,0.3364,0.1563,0.5303,0.291
			c0.1948,0.1328,0.5635,0.3887,0.8188,0.498c0.2549,0.1074,0.5913,0.1738,0.8687,0.1816c0.2788,0.0068,1.0649-0.1025,1.6289-0.7695
			c0,0-0.0044-0.0195-0.02-0.0098c-0.3486,0.1738-0.5337,0.3086-1.1143,0.2988c-0.3115-0.0117-0.6992-0.1035-1.2021-0.3281
			c-0.5-0.2285-0.8315-0.377-1.4165-0.3867c-0.5835-0.002-0.8608,0.0977-0.9126,0.1172c0,0-0.2656-0.1191-0.7939-0.125
			c-0.5303-0.0039-1.0005,0.1504-1.3013,0.2959c-0.2915,0.1406-0.8604,0.46-1.5156,0.4561
			c-0.6221-0.0039-1.0132-0.2969-1.0249-0.2998C28.3945,23.4082,28.3848,23.4297,28.3848,23.4297z M30.3418,22.957
			c-0.0293,0.0059-0.4238-0.0781-1.0249-0.1426c-0.603-0.0664-0.8711-0.0303-1.3071-0.1406
			c-0.4766-0.123-0.7129-0.3662-0.8398-0.5039c0,0-0.0317-0.0117-0.0234,0.0137c0.0127,0.0303,0.3125,0.5996,1.0034,0.9453
			c0.6938,0.3477,1.4712,0.2422,1.6499,0.2031c0.1812-0.0322,0.4429-0.1172,0.7119-0.1895
			c0.2671-0.0723,0.6216-0.1406,0.7871-0.1387c0,0,0.022-0.0293-0.0356-0.0391c-0.0859-0.0156-0.3228-0.0234-0.644-0.1875
			c-0.5264-0.2676-0.7178-0.5293-0.9707-0.7666c-0.2485-0.2412-0.6777-0.6494-0.9204-0.7588c0,0-0.019,0.001,0,0.0293
			c0.0195,0.0264,0.1953,0.2656,0.2969,0.498c0.0913,0.2393,0.2148,0.4736,0.396,0.6777c0.1782,0.1973,0.4443,0.375,0.9209,0.4766
			C30.3418,22.9336,30.3716,22.9531,30.3418,22.957z M26.0093,20.3457c0.0044,0.001,0.0942,0.7168,0.7827,1.3398
			c0.522,0.4727,0.9961,0.6523,1.25,0.707c0.2368,0.0527,0.499,0.082,0.7236,0.125c0.2207,0.0449,0.5317,0.1191,0.5957,0.1563
			c0,0,0.0244,0.0078,0.0117-0.0176c-0.0176-0.0195-0.103-0.0586-0.3452-0.3848c-0.2446-0.3203-0.4639-1.0605-0.4639-1.0605
			s-0.1001-0.293-0.2227-0.5527c-0.1289-0.2598-0.5713-0.8965-0.647-0.9492c0,0-0.0376-0.0254-0.0337,0
			c0.0024,0.0215,0.0898,0.1641,0.146,0.4189c0.0493,0.2471,0.125,0.8359,0.1792,1c0.0498,0.1641,0.1431,0.4834,0.3452,0.7314
			c0.2329,0.2871,0.2329,0.252,0.4126,0.4199c0.0381,0.0205-0.0054,0.0117-0.0054,0.0117s-0.207-0.1094-0.3345-0.2168
			c-0.1392-0.1025-0.189-0.1699-0.4453-0.3213c-0.2563-0.1563-0.6079-0.2764-1.1094-0.5732
			c-0.5024-0.2939-0.7104-0.6152-0.811-0.834C26.0381,20.3457,26.0137,20.2998,26.0093,20.3457z M27.1567,18.2129
			c0,0,0.04,0.2324,0.0132,0.3965c-0.0234,0.1641-0.1841,0.8262-0.1748,1.1904c0.0103,0.3594,0.1055,0.6797,0.3306,1.0049
			l-0.0181,0.0107c0,0-0.3828-0.5391-0.5664-0.7744c-0.1787-0.2383-0.5757-0.5801-0.7529-0.8008
			c-0.1738-0.2207-0.373-0.4951-0.4385-0.9023h-0.0186c0,0-0.0845,0.6035,0.1699,1.1836c0.2563,0.5781,0.5283,0.7988,0.7119,0.9688
			c0.1826,0.1719,0.7319,0.5283,0.9985,0.6816c0.271,0.1563,0.4741,0.3262,0.4741,0.3262s0.022-0.0039,0.022-0.0137
			s-0.2095-0.3984-0.2651-0.6348c-0.0566-0.2344-0.1055-0.627-0.1216-0.9248c-0.0142-0.2998-0.1328-1.3828-0.3306-1.7188
			L27.1567,18.2129z M27.2441,16.5059c0.0078-0.0234,0.0386-0.0488,0.0415,0.002c0,0.0488-0.0337,0.7324-0.1187,1.1279
			c-0.0884,0.3896-0.353,1.2109-0.3799,1.3271c-0.0254,0.1133-0.041,0.6338,0.0049,0.7988c0,0-0.0049,0.0469-0.0264,0.0176
			c-0.0244-0.0254-0.2715-0.4102-0.4087-0.5605c-0.1353-0.1533-0.4727-0.5645-0.562-0.7754
			c-0.0938-0.2168-0.3169-0.7988-0.2734-1.4609c0.0479-0.6621,0.1953-0.8262,0.1953-0.8262s0.0283-0.0117,0.0195,0.0059
			c-0.0054,0.0283-0.041,0.2861-0.0078,0.5273c0.0371,0.2432,0.1157,0.4961,0.2695,0.7754c0.1611,0.2891,0.2534,0.5898,0.2891,0.709
			c0.0425,0.1152,0.0972,0.3652,0.1299,0.5586c0.0298,0.1953,0.1108,0.3408,0.1108,0.3408l0.0127-0.0078
			c0,0-0.0815-0.1533-0.0898-0.5088c-0.0103-0.3584,0.0771-0.6172,0.2227-0.8984C26.8218,17.3711,27.2305,16.7695,27.2441,16.5059z
			 M26.4941,14.2402c0.0244-0.0254,0.0376,0.0049,0.0376,0.0049s-0.207,0.251-0.1992,0.7578
			c0.0103,0.5068,0.0972,0.5938,0.1055,1.04c0.0127,0.4443-0.0537,0.9824-0.0537,0.9824h0.0264c0,0-0.0063-0.2881,0.1772-0.6553
			c0.1777-0.3682,0.8813-0.9443,0.8813-0.9443s0.2085-0.2168,0.2329-0.3438c0.022-0.0293,0.0366,0.0068,0.0366,0.0068
			s-0.0366,0.3271-0.2397,0.7734c-0.1992,0.4502-0.6211,0.8857-0.7578,1.1455c-0.1328,0.2637-0.249,0.3574-0.3506,0.8594
			l-0.0259,0.002c0,0-0.0103-0.2334-0.1694-0.6953c-0.1572-0.4648-0.2012-0.3965-0.2832-0.8262
			c-0.085-0.4229-0.0195-0.9072,0.0063-0.9941C25.9419,15.2656,26.0679,14.6982,26.4941,14.2402z M26.6138,16.0547
			c0,0,0.0859-0.1875,0.2617-0.373c0.0859-0.0918,0.2354-0.2559,0.4214-0.4043c0.1865-0.1494,0.4014-0.3008,0.5391-0.4297
			c0.2773-0.248,0.5264-0.7109,0.5161-1.125c0,0-0.1001,0.2441-0.2788,0.4199c-0.1812,0.1777-0.6157,0.4307-0.7979,0.5996
			c-0.1812,0.166-0.3804,0.3906-0.4575,0.6563l-0.0127-0.0039c0,0,0.186-0.5215,0.2314-0.7119
			c0.0435-0.1885,0.0898-0.5068,0.1997-0.8135c0.1118-0.2949,0.2329-0.4287,0.4243-0.5586c0.0063,0-0.0024-0.0186-0.0024-0.0186
			s-0.7646,0.1123-1.0537,1.1084c-0.0859,0.2891,0.022,0.9609,0.0015,1.2246c-0.0181,0.2637-0.0181,0.4297-0.0181,0.4297H26.6138z
			 M29.0811,12.6035c0,0-0.1782,0.0625-0.4424,0.1572c-0.252,0.0986-0.5654,0.2529-0.7773,0.4834
			c-0.3545,0.3848-0.4434,0.7422-0.5254,1.0322c-0.0464,0.1563-0.0879,0.2705-0.0879,0.2705s0.6597-0.5283,0.8613-0.7471
			c0.1865-0.2188,0.4146-0.6377,0.5903-0.8047C28.8691,12.8281,29.0811,12.6035,29.0811,12.6035z"/>
	</g>
	<g>
		<line fill="#F8991D" x1="42.6577" y1="23.2129" x2="42.6631" y2="23.2168"/>
		<path fill="#FFFFFF" d="M78.6216,18.3867c0,10.1445-8.229,18.3672-18.374,18.3672c-10.1538,0-18.3789-8.2227-18.3789-18.3672
			c0-10.1465,8.2251-18.3828,18.3789-18.3828C70.3926,0.0039,78.6216,8.2402,78.6216,18.3867z"/>
		<g>
			<path fill="#F8991D" d="M77.0483,21.291H74.248l-0.668,2.8135h-2.2969l3.123-11.6533h2.6733l1.542,5.8164
				C78.5566,8.1748,70.3569,0,60.2515,0c-8.0898,0-14.9541,5.2266-17.4141,12.4824h1.3208v8.0908
				c0,1.1924,0.5205,1.8174,1.4385,1.8174c0.9189,0,1.4351-0.625,1.4351-1.8174v-8.0908h2.3267v8.0742
				c0,2.5703-1.5757,3.748-3.7617,3.748c-1.3955,0-2.5444-0.4814-3.1899-1.5c1.979,8.0107,9.2119,13.9492,17.8447,13.9492
				c8.1616,0,15.0796-5.3213,17.4717-12.6836L77.0483,21.291z M57.8633,24.1045H55.981l-3.4531-7.0791v7.0791h-2.1289V12.4824
				h2.2188l3.1182,6.7578v-6.7578h2.1274V24.1045z M64.4629,14.502h-3.2402v2.8135l2.5293-0.0078v2.0713h-2.5293v4.7256h-2.3135
				V12.4824h5.5537V14.502z M67.7871,19.9453v4.1592h-2.2905V12.4824h2.7651c2.4624,0,4.0527,1.2383,4.0527,3.6855
				c0,2.4766-1.6069,3.7461-4.1738,3.7773H67.7871z"/>
			<path fill="#F8991D" d="M68.1855,18.0938h-0.4121v-3.7627h0.4419c1.2407,0,1.8984,0.6279,1.8984,1.8672
				C70.1138,17.498,69.4395,18.0938,68.1855,18.0938z"/>
			<path fill="#F8991D" d="M74.6499,19.4258l1.0068-4.2666l1,4.2666H74.6499z"/>
		</g>
	</g>
</g>
</svg>
