<?xml version="1.0" encoding="utf-8"?>
<!-- Generator: Adobe Illustrator 16.0.3, SVG Export Plug-In . SVG Version: 6.00 Build 0)  -->
<!DOCTYPE svg PUBLIC "-//W3C//DTD SVG 1.1//EN" "http://www.w3.org/Graphics/SVG/1.1/DTD/svg11.dtd">
<svg version="1.1" id="Layer_1" xmlns="http://www.w3.org/2000/svg" xmlns:xlink="http://www.w3.org/1999/xlink" x="0px" y="0px"
	 width="56.863px" height="56.863px" viewBox="0 0 56.863 56.863" enable-background="new 0 0 56.863 56.863" xml:space="preserve">
<g opacity="0.5">
	<path fill="#FFFFFF" d="M39.609,9.604l4.56-1.779v3.343c0,0.446-0.353,0.9-0.786,1.01c0,0-3.179,0.803-4.526,0.803
		c-1.354,0-4.532-0.803-4.532-0.803c-0.43-0.109-0.782-0.563-0.782-1.01V7.824l4.562,1.779C38.515,9.766,39.195,9.766,39.609,9.604"
		/>
	<path fill="#FFFFFF" d="M29.75,12.07c-0.053-0.091-0.086-0.195-0.086-0.308c0-0.264,0.165-0.484,0.396-0.57V5.708l-0.136-0.053
		c-0.417-0.162-0.417-0.421,0-0.584l8.172-3.149c0.418-0.162,1.1-0.162,1.517,0l8.172,3.149c0.413,0.163,0.413,0.422,0,0.584
		L44.169,7.05l-4.556,1.756c-0.417,0.161-1.099,0.161-1.517,0L33.541,7.05l-3.057-1.179v5.321c0.231,0.086,0.396,0.307,0.396,0.57
		c0,0.112-0.031,0.217-0.086,0.308c0.195,0.296,0.322,0.749,0.322,1.263c0,0.345-0.058,0.663-0.152,0.925H29.58
		c-0.097-0.262-0.151-0.58-0.151-0.925C29.428,12.819,29.555,12.367,29.75,12.07"/>
	<path fill="#FFFFFF" d="M38.703,16.503c2.765,0,5.007-2.242,5.007-5.007c0-1.867-10.014-1.867-10.014,0
		C33.696,14.26,35.938,16.503,38.703,16.503"/>
	<path fill="#FFFFFF" d="M34.315,48.191c0.038,0.242,0.093,0.574,0.146,0.882l1.231,6.935c0.083,0.472,0.723,0.855,1.422,0.855
		c0.072,0,0.141-0.004,0.21-0.008v0.008h2.225v-0.021c0.111,0.013,0.228,0.021,0.347,0.021c0.699,0,1.355-0.48,1.461-1.069
		l1.155-6.507c0.068-0.397,0.14-0.813,0.185-1.094c-1.418,0.098-2.841,0.147-4.25,0.147C37.051,48.341,35.67,48.288,34.315,48.191"
		/>
	<path fill="#FFFFFF" d="M51.328,31.991l-4.629-9.75c-0.407-0.858-1.087-2.113-1.511-2.789c-0.423-0.676-1.513-1.456-2.421-1.733
		L41.5,17.331c-0.742,0.347-1.67,0.555-2.68,0.555c-1.048,0-2.009-0.222-2.764-0.592l-2.38,0.715
		c-0.728,0.219-1.6,0.927-1.938,1.574c-0.337,0.647-0.8,1.771-1.026,2.495L27.11,33.607c-0.229,0.725,0.176,1.52,0.895,1.764
		l0.054,0.019c0.72,0.245,1.53-0.134,1.806-0.843l2.651-6.864c0.273-0.709,0.729-1.78,1.016-2.382
		c0.283-0.601,0.572-0.473,0.643,0.283l0.101,1.089c0.069,0.757-0.093,1.957-0.36,2.668l-1.216,3.228
		c-0.268,0.711-0.644,1.895-0.834,2.63l-1.039,6.581c-0.191,0.736-0.142,2.643-0.184,2.989c-0.042,0.345,0.514,0.82,1.234,1.06
		l0.267,0.088c0.356,0.118,1.349,0.365,1.49,0.387c3.283,0.481,6.777,0.486,10.223,0.003c0.113-0.017,1.18-0.287,1.619-0.434
		c0.794-0.262,1.409-0.759,1.367-1.104c-0.042-0.348-0.07-2.07-0.309-2.989l-0.827-6.247c-0.239-0.919-0.708-2.399-1.043-3.287
		l-0.972-2.581c-0.336-0.889-0.538-2.389-0.451-3.335l0.037-0.401c0.087-0.944,0.369-1.45,0.629-1.122
		c0.259,0.327,0.831,1.284,1.27,2.127l3.532,6.757c0.439,0.841,1.376,1.153,2.081,0.694C51.492,33.925,51.735,32.849,51.328,31.991"
		/>
	<path fill="#FFFFFF" d="M26.449,24.344l-1.247-8.919c-0.148-1.068-0.614-2.432-1.032-3.029s-1.634-1.209-2.702-1.36l-2.284-0.321
		h-4.938l-2.285,0.321c-1.068,0.151-2.285,0.763-2.703,1.36s-0.882,1.961-1.03,3.029l-1.247,8.919
		c-0.15,1.068-0.322,2.52-0.383,3.225c-0.062,0.705,0.546,1.355,1.349,1.445c0.802,0.09,1.551-0.334,1.663-0.943
		c0.113-0.609,0.367-1.975,0.564-3.035l0.468-2.501c0.197-1.06,0.404-2.168,0.46-2.462c0.055-0.294,0.193-0.524,0.309-0.511
		s0.209,0.208,0.209,0.432v2.368v1.457c0,1.079-0.061,4.788-0.137,5.864h10.466c-0.076-1.076-0.137-4.785-0.137-5.864v-1.457v-2.368
		c0-0.224,0.094-0.418,0.209-0.432c0.113-0.014,0.254,0.217,0.309,0.511s0.262,1.402,0.46,2.462l0.467,2.501
		c0.198,1.061,0.452,2.426,0.564,3.035s0.86,1.033,1.664,0.943c0.803-0.09,1.41-0.74,1.349-1.445
		C26.771,26.864,26.598,25.413,26.449,24.344"/>
	<path fill="#FFFFFF" d="M16.651,9.482c2.618,0,4.741-2.122,4.741-4.741c0-2.618-2.123-4.74-4.741-4.74s-4.741,2.122-4.741,4.74
		C11.91,7.36,14.033,9.482,16.651,9.482"/>
	<polygon fill="#FFFFFF" points="26.877,31.933 2.823,31.933 2.823,27.433 28.291,27.433 	"/>
	<polyline fill="none" stroke="#FFFFFF" stroke-miterlimit="10" points="43.24,50.183 49.823,50.183 49.823,30.183 	"/>
	<polyline fill="none" stroke="#FFFFFF" stroke-miterlimit="10" points="5.823,31.51 5.823,51.01 32.573,51.01 	"/>
	<path fill="#FFFFFF" d="M17.045,41.089v1.379c0.317-0.104,0.462-0.329,0.462-0.685C17.507,41.394,17.362,41.228,17.045,41.089"/>
	<path fill="#FFFFFF" d="M15.86,39.138c0,0.329,0.116,0.477,0.424,0.606v-1.188C16.005,38.644,15.86,38.843,15.86,39.138"/>
	<path fill="#FFFFFF" d="M16.714,34.433c-3.176,0-5.75,2.573-5.75,5.75c0,3.176,2.574,5.75,5.75,5.75c3.177,0,5.75-2.574,5.75-5.75
		C22.464,37.007,19.89,34.433,16.714,34.433 M17.224,43.121v1.06h-0.849v-1.033c-0.683-0.051-1.309-0.269-1.723-0.563l0.443-0.763
		c0.413,0.27,0.837,0.434,1.328,0.468V40.58c-0.915-0.287-1.512-0.658-1.512-1.639c0-0.946,0.56-1.424,1.475-1.527v-1.162h0.846
		v1.172c0.512,0.052,0.906,0.19,1.263,0.406l-0.452,0.746c-0.279-0.156-0.54-0.26-0.856-0.303v1.474
		c0.866,0.278,1.568,0.643,1.568,1.727C18.755,42.339,18.341,42.982,17.224,43.121"/>
	<polygon fill="#FFFFFF" points="54.04,31.986 52.177,31.986 50.089,27.485 54.04,27.485 	"/>
	<path fill="#FFFFFF" d="M32.236,31.933H31.56l1.771-4.5h0.356c0,0-0.018,0.423-0.114,0.937c-0.146,0.771-0.41,1.25-0.41,1.25
		L32.236,31.933z"/>
	<path fill="#FFFFFF" d="M45.135,31.902h1.771l-2.297-4.522l-0.687,0.022c0,0,0.014,0.423,0.096,0.937
		c0.122,0.771,0.343,1.25,0.343,1.25L45.135,31.902z"/>
	<path fill="#FFFFFF" d="M43.704,11.177c0.377-1.13,1.828-1.709,3.035-0.462c2.05,2.118,2.778,2.657,3.516,2.751
		c0.319,0.041,0.784-0.004,1.235,0.021c0.59,0.031,1.199-0.125,1.199-0.125s-1.736,1.578-3.386,1.963
		c-1.747,0.407-2.508,0.428-3.905-0.798C43.998,13.3,43.327,12.307,43.704,11.177"/>
</g>
</svg>
