<?xml version="1.0" encoding="utf-8"?>
<!-- Generator: Adobe Illustrator 16.0.3, SVG Export Plug-In . SVG Version: 6.00 Build 0)  -->
<!DOCTYPE svg PUBLIC "-//W3C//DTD SVG 1.1//EN" "http://www.w3.org/Graphics/SVG/1.1/DTD/svg11.dtd">
<svg version="1.1" id="Layer_1" xmlns="http://www.w3.org/2000/svg" xmlns:xlink="http://www.w3.org/1999/xlink" x="0px" y="0px"
	 width="64.829px" height="64.828px" viewBox="0 0 64.829 64.828" enable-background="new 0 0 64.829 64.828" xml:space="preserve">
<g opacity="0.5">
	<path fill="#FFFFFF" d="M22.501,15.105c3.678,0,6.658-2.981,6.658-6.658c0-0.87-0.171-1.699-0.475-2.462
		c1.255-0.384,2.167-1.55,2.167-2.93c0-1.692-1.373-3.065-3.066-3.065c-1.401,0-2.58,0.942-2.945,2.228
		c-0.729-0.274-1.516-0.431-2.339-0.431c-3.679,0-6.659,2.981-6.659,6.66C15.842,12.124,18.823,15.105,22.501,15.105"/>
	<path fill="#FFFFFF" d="M38.25,41.132c0.104,0.149,0.262,0.298,0.353,0.326c0.09,0.03,0.252,0.021,0.356-0.021
		c0.107-0.039,0.287-0.189,0.399-0.33l0.087-0.11c0.113-0.142,0.319-0.353,0.457-0.472l0.09-0.074
		c0.129-0.111,0.354-0.26,0.516-0.344c0.277,2.011,1.998,3.561,4.086,3.561c2.087,0,3.807-1.55,4.085-3.561
		c0.161,0.084,0.386,0.231,0.516,0.344l0.089,0.074c0.139,0.119,0.344,0.33,0.457,0.472l0.088,0.11
		c0.112,0.141,0.291,0.291,0.398,0.33c0.105,0.041,0.268,0.051,0.357,0.021c0.092-0.028,0.248-0.177,0.353-0.326l1.003-1.456
		c0.104-0.148,0.189-0.352,0.191-0.447c0.002-0.1-0.039-0.258-0.094-0.354c-0.054-0.097-0.229-0.24-0.393-0.319l-0.46-0.228
		c-0.163-0.08-0.44-0.175-0.618-0.212l-0.49-0.102c-0.179-0.037-0.472-0.063-0.652-0.06l-0.383,0.009
		c-0.168,0.006-0.431,0.033-0.609,0.064c-0.604-1.531-2.092-2.616-3.838-2.616c-1.745,0-3.235,1.085-3.838,2.616
		c-0.182-0.031-0.442-0.06-0.611-0.064l-0.382-0.009c-0.183-0.005-0.476,0.021-0.652,0.06l-0.491,0.102
		c-0.177,0.037-0.455,0.132-0.617,0.212l-0.459,0.228c-0.162,0.079-0.34,0.223-0.395,0.319c-0.053,0.097-0.095,0.255-0.093,0.354
		c0.003,0.097,0.089,0.299,0.19,0.447L38.25,41.132z"/>
	<path fill="#FFFFFF" d="M23.52,55.677c-1.627,0-3.235-0.075-4.801-0.224c0.043,0.268,0.106,0.631,0.172,0.972l1.414,7.415
		c0.1,0.526,0.805,0.957,1.564,0.957h0.012h2.991h0.012c0.76,0,1.465-0.431,1.564-0.957l1.414-7.415
		c0.063-0.323,0.123-0.673,0.166-0.937C26.526,55.613,25.016,55.677,23.52,55.677"/>
	<path fill="#FFFFFF" d="M52.584,50.914l-3.922-5.816c-0.293-0.434-0.767-0.674-1.252-0.689v-0.002h-0.054h-0.001h-5.311
		l-2.909-4.316c-0.101-0.15-0.228-0.271-0.364-0.373c0.182-0.578,0.105-1.23-0.261-1.771l-3.064-7.239l-4.202-8.375
		c-0.987-3.189-3.625-5.32-6.584-5.32h-4.32c-2.959,0-5.597,2.131-6.585,5.32l-1.575,5.087c-0.803,2.596,0.836,5.31,3.216,5.412
		c0.018,0.003,0.031,0.01,0.049,0.01h0.089l1.339,0.12c0,0-3.272,15.551-3.732,16.888c-0.46,1.336,2.148,2.887,4.083,3.334
		c2.167,0.5,0.609,0.506,5.368,0.506c6.046,0,6.555-0.935,7.716-1.256c1.5-0.418,2.814-1.596,2.5-2.584
		c-0.315-0.988-3.487-16.888-3.487-16.888l0.147-0.12c0.199,0,0.402,0.009,0.606,0.022l5.027,7.399
		c0.264,0.388,0.637,0.655,1.049,0.794c0.002,0.299,0.09,0.603,0.27,0.868l3.922,5.816c0.021,0.026,0.041,0.054,0.062,0.081
		l-0.198,4.053c-0.975,1.881-2.289,4.443-2.463,4.895c-0.283,0.729-0.301,1.188,0.697,1.803c0.361,0.225,0.783,0.418,1.309,0.572
		l-0.279,3.801c-0.071,0.971,0.574,1.81,1.439,1.871l0.131,0.012c0.867,0.063,1.627-0.672,1.698-1.643l0.269-3.625
		c0.244,0.006,0.488,0.014,0.759,0.014c0.437,0,0.835-0.012,1.213-0.026l0.269,3.638c0.07,0.973,0.832,1.707,1.698,1.644
		l0.132-0.011c0.865-0.063,1.512-0.901,1.438-1.873l-0.282-3.825c0.7-0.185,1.15-0.388,1.41-0.546
		c0.868-0.53,1.15-0.867,0.958-1.404c-0.125-0.346-1.707-3.251-2.822-5.282l-0.116-2.409l2.207,3.273
		c0.485,0.721,1.465,0.911,2.185,0.425l0.108-0.073C52.879,52.611,53.071,51.634,52.584,50.914 M27.68,30.347
		c-0.302,1.467-2.115,2.378-4.312,2.314c0.723-0.321,1.227-1.043,1.227-1.884c0-1.14-0.922-2.063-2.061-2.063h-6.876
		c-0.606-0.537-0.99-1.319-0.99-2.193c0-1.619,1.313-2.933,2.933-2.933c1.47,0,2.683,1.081,2.897,2.49
		c0.85-0.161,1.82-0.159,2.824,0.048C26.091,26.697,28.042,28.586,27.68,30.347"/>
</g>
</svg>
