<?xml version="1.0" encoding="utf-8"?>
<!-- Generator: Adobe Illustrator 16.0.3, SVG Export Plug-In . SVG Version: 6.00 Build 0)  -->
<!DOCTYPE svg PUBLIC "-//W3C//DTD SVG 1.1//EN" "http://www.w3.org/Graphics/SVG/1.1/DTD/svg11.dtd">
<svg version="1.1" id="Layer_1" xmlns="http://www.w3.org/2000/svg" xmlns:xlink="http://www.w3.org/1999/xlink" x="0px" y="0px"
	 width="66.217px" height="66.217px" viewBox="0 0 66.217 66.217" enable-background="new 0 0 66.217 66.217" xml:space="preserve">
<g opacity="0.5">
	<path fill="#FFFFFF" d="M49.767,14.033c3.061,0,5.68-2.822,5.854-6.302c0.174-3.48-2.509-6.302-5.987-6.302s-6.1,2.822-5.854,6.302
		C44.03,11.211,46.709,14.033,49.767,14.033"/>
	<path fill="#FFFFFF" d="M60.826,21.082c-0.103-1.191-0.544-2.62-0.979-3.175c-0.437-0.556-1.725-1.309-2.863-1.673l-4.176-1.338
		c-0.938,0.558-1.972,0.875-3.041,0.875c-1.06,0-2.088-0.314-3.025-0.865l-3.865,1.299c-1.133,0.38-2.417,1.146-2.854,1.702
		c-0.437,0.555-1.143,1.923-1.568,3.04L33.24,34.58c-0.408,0.383-0.666,0.924-0.666,1.524c0,1.16,0.94,2.099,2.099,2.099
		c0.729,0,1.369-0.373,1.745-0.938c0.065-0.099,0.271-0.519,0.271-0.519l3.351-7.007c0.517-1.079,1.147-2.368,1.405-2.865
		c0.26-0.496,0.701-0.875,0.984-0.842c0.282,0.034,0.514,0.335,0.514,0.668v2.78v4.916v4.348v24.855
		c0,1.193,0.979,2.172,2.175,2.172h1.505c1.193,0,2.173-0.979,2.173-2.172v-18.49c0-0.975,0.127-1.938,0.299-2.404h1.237
		c0.179,0.467,0.313,1.463,0.313,2.461v18.436c0,1.193,0.978,2.174,2.172,2.174h1.526c1.194,0,2.175-0.979,2.175-2.174V38.742
		v-4.347v-1.257c0-1.195-0.007-2.307-0.013-2.472c-0.007-0.164,0.118-0.328,0.274-0.363c0.158-0.036,0.314,0.029,0.348,0.146
		c0.032,0.115,0.198,1.177,0.369,2.36l0.761,5.256c0.171,1.184,1.185,2.055,2.251,1.934c1.064-0.119,1.854-1.189,1.753-2.382
		L60.826,21.082z"/>
	<path fill="#FFFFFF" d="M18.814,15.42c3.108,0,5.769-2.822,5.942-6.302c0.117-2.333-1.053-4.365-2.883-5.455
		c0.028-0.17,0.047-0.343,0.047-0.521c0-1.74-1.411-3.151-3.151-3.151c-1.739,0-3.15,1.411-3.15,3.151
		c0,0.179,0.018,0.354,0.047,0.525c-1.819,1.09-2.971,3.12-2.838,5.451C13.027,12.598,15.707,15.42,18.814,15.42"/>
	<path fill="#FFFFFF" d="M13.399,60.955c0.046,0.146,0.111,0.34,0.175,0.521l1.493,4.221c0.103,0.287,0.879,0.521,1.728,0.521
		c0.087,0,0.171-0.003,0.255-0.005v0.005h2.7v-0.013c0.135,0.006,0.274,0.013,0.42,0.013c0.848,0,1.625-0.234,1.727-0.521
		l1.493-4.221c0.062-0.175,0.125-0.363,0.171-0.508c-1.382,0.034-2.913,0.053-4.527,0.053
		C17.223,61.019,15.313,60.998,13.399,60.955"/>
	<path fill="#FFFFFF" d="M35.646,34.759l-7.042-12.563c-0.468-0.834-1.266-2.18-1.772-2.99l-0.092-0.147
		c-0.507-0.811-1.671-1.702-2.585-1.982l-2.012-0.614c-0.935,0.436-2.103,0.698-3.373,0.698c-1.318,0-2.527-0.28-3.478-0.745
		l-2.995,0.899c-0.916,0.275-2.013,1.167-2.438,1.981c-0.426,0.815-1.007,2.228-1.292,3.141L4.03,36.947
		c-0.285,0.913,0.222,1.911,1.127,2.221l0.067,0.022c0.904,0.309,1.927-0.17,2.271-1.063l3.338-8.639
		c0.345-0.892,0.919-2.24,1.276-2.996c0.357-0.756,0.738-0.597,0.845,0.353l0.058,0.507c0.105,0.951-0.057,2.469-0.361,3.376
		l-1.373,7.578c-0.305,0.904-3.391,18.674-2.555,19.875c0.638,0.916,3.216,1.551,5.055,1.75c6.167,0.666,12.917-0.334,12.917-0.334
		c1.5-0.416,2.083-0.666,2.419-1.416c0.582-1.301-2.864-19.305-3.169-20.209l-1.258-7.244c-0.307-0.907-0.469-2.425-0.361-3.376
		l0.057-0.507c0.106-0.95,0.46-1.39,0.786-0.977s1.028,1.4,1.561,2.195l6.092,9.096c0.533,0.795,1.561,0.935,2.285,0.31l0.07-0.061
		C35.901,36.786,36.112,35.593,35.646,34.759"/>
	<path fill="#FFFFFF" d="M33.576,1.216c-0.198-0.065-0.24-0.107-0.373-0.218c-0.409-0.343-0.858-0.598-1.321-0.765
		c-0.718-0.26-1.468-0.309-2.148-0.154c-0.682,0.155-1.294,0.514-1.736,1.073c-0.442,0.558-0.713,1.315-0.713,2.265
		c0,0.951,0.409,1.856,1.024,2.679c0.613,0.824,1.433,1.566,2.253,2.188c0.818,0.623,1.638,1.127,2.252,1.475
		c0.13,0.074,0.251,0.141,0.359,0.2c0.143,0.076,0.234,0.127,0.343,0.159c0.176,0.051,0.356,0.069,0.56,0.023
		c0.144-0.032,0.274-0.099,0.401-0.168c0.114-0.063,0.246-0.134,0.385-0.214c0.615-0.348,1.434-0.852,2.253-1.475
		c0.819-0.622,1.639-1.364,2.253-2.188c0.615-0.823,1.023-1.728,1.023-2.679c0-0.95-0.271-1.707-0.713-2.265
		c-0.441-0.559-1.057-0.918-1.736-1.073c-0.683-0.155-1.433-0.106-2.148,0.154c-0.465,0.168-0.916,0.424-1.326,0.769
		c-0.133,0.112-0.221,0.176-0.46,0.237C33.888,1.269,33.694,1.255,33.576,1.216"/>
</g>
</svg>
