<?xml version="1.0" encoding="utf-8"?>
<!-- Generator: Adobe Illustrator 16.0.3, SVG Export Plug-In . SVG Version: 6.00 Build 0)  -->
<!DOCTYPE svg PUBLIC "-//W3C//DTD SVG 1.1//EN" "http://www.w3.org/Graphics/SVG/1.1/DTD/svg11.dtd">
<svg version="1.1" id="Layer_1" xmlns="http://www.w3.org/2000/svg" xmlns:xlink="http://www.w3.org/1999/xlink" x="0px" y="0px"
	 width="58.791px" height="58.791px" viewBox="0 0 58.791 58.791" enable-background="new 0 0 58.791 58.791" xml:space="preserve">
<g opacity="0.5">
	<path fill="#FFFFFF" d="M31.627,49.56c-1.953,0-3.884-0.078-5.766-0.229c0.052,0.271,0.129,0.639,0.207,0.984l1.698,7.504
		c0.121,0.535,0.966,0.971,1.879,0.971h0.013h3.593h0.014c0.914,0,1.76-0.436,1.879-0.971l1.698-7.504
		c0.075-0.33,0.149-0.683,0.2-0.948C35.235,49.494,33.424,49.56,31.627,49.56"/>
	<path fill="#FFFFFF" d="M39.528,29.152c0.3-0.197,0.927-0.664,1.396-1.036c0.471-0.372,1.053-1.231,1.294-1.907
		c0.241-0.677,0.204-1.941-0.079-2.809l-1.426-4.334c-0.285-0.866-0.836-2.183-1.223-2.924c-0.389-0.74-1.422-1.56-2.297-1.822
		l-0.938-0.279h-9.604l-0.938,0.279c-0.874,0.263-1.908,1.082-2.295,1.822c-0.388,0.741-0.939,2.058-1.224,2.924L20.771,23.4
		c-0.285,0.867-0.321,2.132-0.08,2.809c0.241,0.676,0.823,1.535,1.294,1.907c0.471,0.372,1.099,0.839,1.396,1.036
		c0.297,0.198,0.419,0.83,0.27,1.406c-0.148,0.574-0.173,1.989-0.402,2.873l-0.562,3.75c-0.5,3.25-0.896,6.949-0.95,7.875
		c-0.023,0.397,0.602,1.006,1.444,1.356l0.151,0.063c0.345,0.145,1.608,0.5,1.895,0.547c4.083,0.664,8.459,0.701,12.772,0.107
		c0.174-0.023,1.293-0.423,1.85-0.654L40,46.413c0.842-0.352,1.492-0.961,1.442-1.355c-0.047-0.396-0.319-4.746-1.006-7.875
		l-0.75-3.875c-0.229-0.885-0.278-2.175-0.428-2.75C39.11,29.983,39.231,29.35,39.528,29.152 M37.256,25.468l-0.146,0.126
		c-0.045-0.013-0.084-0.032-0.129-0.042l-2.801-0.644c-1.113-0.257-2.209,0.345-2.437,1.336c-0.229,0.99,0.495,2.01,1.606,2.266
		l0.295,0.068l-0.694,0.598c-1.248,1.075-2.88,1.397-4.285,0.997c0.218-0.117,0.414-0.279,0.566-0.494l0.124-0.177
		c0.526-0.746,0.345-1.787-0.401-2.313l-3.002-2.114c0.246-0.855,0.742-1.665,1.481-2.303l4.303-3.708
		c1.904-1.639,4.701-1.539,6.22,0.223C39.474,21.047,39.157,23.83,37.256,25.468"/>
	<path fill="#FFFFFF" d="M33.104,19.562c-1.018,0.876-1.172,2.365-0.346,3.325c0.827,0.96,2.323,1.027,3.342,0.151
		c1.018-0.877,1.172-2.365,0.344-3.326C35.617,18.752,34.121,18.686,33.104,19.562"/>
	<path fill="#FFFFFF" d="M25.218,3.75c-0.37-1.108-1.792-1.676-2.975-0.453c-2.01,2.076-2.724,2.604-3.446,2.697
		c-0.313,0.039-0.769-0.005-1.211,0.019c-0.579,0.031-1.175-0.122-1.175-0.122s1.701,1.547,3.317,1.924
		c1.713,0.399,2.458,0.42,3.83-0.782C24.93,5.831,25.588,4.857,25.218,3.75"/>
	<path fill="#FFFFFF" d="M37.106,5.996c0,3.311-2.684,5.994-5.994,5.994c-3.309,0-5.992-2.684-5.992-5.994s2.683-5.994,5.992-5.994
		C34.424,0.001,37.106,2.686,37.106,5.996"/>
</g>
</svg>
