<?xml version="1.0" encoding="utf-8"?>
<!-- Generator: Adobe Illustrator 16.0.3, SVG Export Plug-In . SVG Version: 6.00 Build 0)  -->
<!DOCTYPE svg PUBLIC "-//W3C//DTD SVG 1.1//EN" "http://www.w3.org/Graphics/SVG/1.1/DTD/svg11.dtd">
<svg version="1.1" id="Layer_1" xmlns="http://www.w3.org/2000/svg" xmlns:xlink="http://www.w3.org/1999/xlink" x="0px" y="0px"
	 width="80.391px" height="80.391px" viewBox="0 0 80.391 80.391" enable-background="new 0 0 80.391 80.391" xml:space="preserve">
<g opacity="0.5">
	<line fill="none" stroke="#FFFFFF" stroke-width="2" stroke-miterlimit="10" x1="-0.003" y1="42.789" x2="80.394" y2="42.789"/>
	<line fill="none" stroke="#FFFFFF" stroke-width="2" stroke-miterlimit="10" x1="-0.003" y1="49.069" x2="80.394" y2="49.069"/>
	<polygon fill="#FFFFFF" points="37.417,53.936 34.202,53.936 34.202,38.684 35.81,35.842 37.417,38.684 	"/>
	<polygon fill="#FFFFFF" points="46.88,53.936 43.667,53.936 43.667,38.684 45.273,35.842 46.88,38.684 	"/>
	<polygon fill="#FFFFFF" points="56.345,53.936 53.13,53.936 53.13,38.684 54.738,35.842 56.345,38.684 	"/>
	<polygon fill="#FFFFFF" points="65.809,53.936 62.595,53.936 62.595,38.684 64.203,35.842 65.809,38.684 	"/>
	<polygon fill="#FFFFFF" points="75.273,53.936 72.059,53.936 72.059,38.684 73.666,35.842 75.273,38.684 	"/>
	<polygon fill="#FFFFFF" points="8.661,53.936 5.447,53.936 5.447,38.684 7.054,35.842 8.661,38.684 	"/>
	<polygon fill="#FFFFFF" points="18.125,53.936 14.911,53.936 14.911,38.684 16.518,35.842 18.125,38.684 	"/>
	<path fill="#FAFAFB" d="M38.218,19.671c-0.08-0.146-0.334-0.358-0.562-0.47l-0.766-0.376c-0.229-0.112-0.618-0.246-0.866-0.3
		l-0.819-0.17c-0.249-0.051-0.66-0.088-0.914-0.082l-0.656,0.019c-0.253,0.007-0.664,0.051-0.913,0.1l-0.716,0.139
		c-1.113-1.61-2.973-2.669-5.081-2.669c-2.107,0-3.967,1.059-5.082,2.669l-0.714-0.139c-0.25-0.049-0.661-0.093-0.915-0.1
		l-0.655-0.019c-0.254-0.006-0.665,0.031-0.913,0.082l-0.819,0.17c-0.249,0.054-0.639,0.188-0.867,0.3l-0.766,0.376
		c-0.228,0.11-0.48,0.322-0.563,0.47c-0.081,0.146-0.144,0.387-0.141,0.535c0.004,0.146,0.125,0.438,0.269,0.647l1.565,2.273
		c0.144,0.209,0.375,0.417,0.512,0.463c0.139,0.045,0.382,0.032,0.544-0.03c0.161-0.062,0.424-0.273,0.581-0.473l0.181-0.228
		c0.157-0.196,0.445-0.493,0.64-0.658l0.193-0.164c0.193-0.164,0.538-0.393,0.766-0.503l0.033-0.019
		c-0.015,0.173-0.026,0.346-0.026,0.522c0,3.412,2.767,6.178,6.178,6.178c3.412,0,6.179-2.766,6.179-6.178
		c0-0.178-0.013-0.351-0.027-0.522l0.034,0.019c0.227,0.11,0.572,0.339,0.765,0.503l0.194,0.164c0.193,0.165,0.48,0.462,0.639,0.658
		l0.181,0.228c0.158,0.198,0.42,0.411,0.582,0.473c0.16,0.063,0.405,0.075,0.543,0.03c0.138-0.046,0.367-0.254,0.512-0.463
		l1.565-2.273c0.145-0.209,0.265-0.501,0.269-0.647C38.363,20.058,38.298,19.816,38.218,19.671"/>
	<path fill="#FFFFFF" d="M21.578,56.811c0.043,0.313,0.105,0.734,0.166,1.128l1.377,8.857c0.094,0.602,0.811,1.092,1.593,1.092
		c0.08,0,0.157-0.005,0.234-0.011v0.011h2.491v-0.026c0.125,0.017,0.253,0.026,0.387,0.026c0.782,0,1.518-0.613,1.635-1.364
		l1.293-8.313c0.079-0.51,0.157-1.038,0.207-1.397c-1.587,0.126-3.18,0.19-4.758,0.19C24.64,57.004,23.094,56.934,21.578,56.811"/>
	<path fill="#FFFFFF" d="M40.622,44.179l-5.182-9.294c-0.456-0.818-1.216-2.014-1.69-2.659c-0.474-0.644-1.692-1.388-2.71-1.65
		l-1.419-0.369c-0.831,0.33-1.87,0.526-3.001,0.526c-1.172,0-2.248-0.212-3.093-0.563l-2.663,0.681
		c-0.815,0.208-1.791,0.884-2.169,1.501S17.8,34.04,17.546,34.73l-4.034,10.99c-0.254,0.691,0.196,1.448,1.002,1.682l0.06,0.019
		c0.805,0.232,1.714-0.128,2.021-0.803l2.968-6.545c0.307-0.677,0.817-1.696,1.136-2.27s0.642-0.451,0.72,0.271l0.112,1.036
		c0.078,0.724-0.104,1.866-0.403,2.544l-1.361,3.076c-0.301,0.68-0.542,1.242-0.934,2.507c-0.391,1.266-1.322,6.481-1.369,6.812
		s0.575,0.784,1.383,1.011l0.298,0.084c0.399,0.112,1.51,0.349,1.669,0.368c3.675,0.46,7.587,0.464,11.442,0.003
		c0.128-0.015,1.32-0.273,1.813-0.413c0.89-0.25,1.579-0.724,1.532-1.053c-0.048-0.329-0.305-3.315-0.571-4.191l-0.701-2.301
		c-0.267-0.876-0.792-2.286-1.167-3.133l-1.089-2.46c-0.374-0.848-0.601-2.278-0.504-3.179l0.041-0.384
		c0.098-0.9,0.415-1.383,0.704-1.069c0.29,0.313,0.93,1.225,1.423,2.025l3.953,6.441c0.493,0.803,1.541,1.101,2.329,0.664
		C40.806,46.023,41.078,44.997,40.622,44.179"/>
	<path fill="#FFFFFF" d="M53.593,23.949h4.973v-3.963c0-0.251,0.204-0.472,0.455-0.472h2.563c0.252,0,0.476,0.221,0.476,0.472v3.963
		h4.971v-5.017H53.593V23.949z"/>
	<path fill="#FFFFFF" d="M68.05,17.603l-6.635-4.731c-0.688-0.489-1.608-0.489-2.298,0l-6.636,4.731
		c-0.269,0.19-0.133,0.614,0.197,0.614h15.174C68.183,18.217,68.318,17.793,68.05,17.603"/>
</g>
</svg>
