<?xml version="1.0" encoding="utf-8"?>
<!-- Generator: Adobe Illustrator 16.0.3, SVG Export Plug-In . SVG Version: 6.00 Build 0)  -->
<!DOCTYPE svg PUBLIC "-//W3C//DTD SVG 1.1//EN" "http://www.w3.org/Graphics/SVG/1.1/DTD/svg11.dtd">
<svg version="1.1" id="Layer_1" xmlns="http://www.w3.org/2000/svg" xmlns:xlink="http://www.w3.org/1999/xlink" x="0px" y="0px"
	 width="60.945px" height="60.945px" viewBox="0 0 60.945 60.945" enable-background="new 0 0 60.945 60.945" xml:space="preserve">
<g opacity="0.5">
	<path fill="#FFFFFF" d="M34.031,35.343l-2.188-16.219c-0.148-1.104-0.637-2.433-1.081-2.949c-0.445-0.518-1.762-1.219-2.924-1.558
		l-4.266-1.246c-0.957,0.521-2.012,0.815-3.104,0.815c-1.081,0-2.133-0.293-3.091-0.807l-3.946,1.21
		c-1.157,0.354-2.469,1.067-2.913,1.585c-0.446,0.518-1.184,1.785-1.639,2.817L3.226,31.8c-0.456,1.033-0.018,2.17,0.976,2.527
		c0.993,0.356,2.266-0.158,2.829-1.146l3.435-6.021c0.563-0.987,1.24-2.174,1.505-2.638c0.263-0.462,0.716-0.814,1.004-0.783
		c0.289,0.031,0.525,0.312,0.525,0.622v2.589v4.575c0,1.113-0.029,2.935-0.065,4.047l-0.756,23.145
		c-0.036,1.113,0.932,2.023,2.152,2.023h0.649c1.221,0,2.313-0.906,2.43-2.015l1.798-17.233c0.071-0.676,0.168-1.348,0.258-1.826
		h0.909c0.108,0.486,0.233,1.179,0.334,1.868l2.52,17.199c0.162,1.104,1.293,2.007,2.513,2.007h0.671
		c1.221,0,2.16-0.909,2.088-2.021L27.488,35.57c-0.072-1.109-0.132-2.93-0.132-4.043v-3.193c0-1.112-0.005-2.147-0.011-2.301
		c-0.007-0.153,0.121-0.307,0.282-0.34c0.162-0.032,0.321,0.028,0.354,0.136c0.033,0.106,0.234,1.092,0.45,2.188l1.519,7.749
		c0.214,1.096,1.282,1.9,2.371,1.79C33.411,37.442,34.181,36.449,34.031,35.343"/>
	<path fill="#FFFFFF" d="M20.971,12.873c3.122,0,5.798-2.881,5.976-6.436c0.177-3.555-2.56-6.437-6.114-6.437
		c-3.554,0-6.229,2.882-5.975,6.437C15.111,9.992,17.848,12.873,20.971,12.873"/>
	<path fill="#FFFFFF" d="M39.323,58.089c0.043,0.08,0.103,0.189,0.162,0.29l1.347,2.284c0.092,0.155,0.792,0.281,1.559,0.281
		c0.076,0,0.152-0.001,0.229-0.002v0.002h2.435v-0.007c0.121,0.004,0.247,0.007,0.379,0.007c0.766,0,1.483-0.158,1.598-0.354
		l1.264-2.142c0.078-0.132,0.154-0.268,0.203-0.36c-1.551,0.032-3.107,0.051-4.649,0.051C42.315,58.14,40.806,58.122,39.323,58.089"
		/>
	<path fill="#FFFFFF" d="M57.683,33.732l-5.064-10.668c-0.445-0.938-1.188-2.313-1.652-3.051c-0.463-0.74-1.654-1.596-2.647-1.897
		l-1.388-0.424c-0.813,0.379-1.827,0.605-2.934,0.605c-1.146,0-2.197-0.241-3.022-0.646l-2.604,0.781
		c-0.795,0.237-1.75,1.014-2.119,1.723c-0.369,0.708-0.875,1.936-1.123,2.729L31.185,35.5c-0.248,0.793,0.191,1.662,0.979,1.932
		l0.06,0.02c0.786,0.268,1.676-0.146,1.975-0.922l2.902-7.511c0.301-0.775,0.799-1.948,1.108-2.605
		c0.313-0.657,0.629-0.517,0.705,0.312l0.108,1.189c0.077,0.828-0.102,2.143-0.395,2.919l-1.331,3.531
		c-0.293,0.778-0.703,2.073-0.912,2.877l-0.875,3.373c-0.209,0.804-1.46,10.276-1.46,12.716c0,2.026,5.118,3.183,5.273,3.205
		c3.592,0.527,5.408,0.582,9.172,0.021c3.017-0.45,5.074-2.108,5.142-3.118c0.245-3.706-0.355-6.601-0.863-10.676
		c-0.047-0.378-0.297-1.51-0.559-2.516l-0.685-2.641c-0.262-1.006-0.774-2.624-1.141-3.598l-1.064-2.822
		c-0.367-0.974-0.588-2.614-0.492-3.649l0.039-0.438c0.096-1.035,0.406-1.59,0.688-1.229c0.282,0.359,0.909,1.406,1.39,2.327
		l3.865,7.392c0.48,0.921,1.506,1.266,2.275,0.764C57.861,35.85,58.129,34.67,57.683,33.732"/>
	<path fill="#FFFFFF" d="M49.903,10.71c0,3.311-2.684,5.994-5.994,5.994c-3.31,0-5.993-2.685-5.993-5.994
		c0-3.311,2.684-5.994,5.993-5.994C47.219,4.716,49.903,7.4,49.903,10.71"/>
	<path fill="#FFFFFF" d="M47.349,9.991c0.809-0.623,2.114-0.341,2.378,1.122c0.445,2.486,0.706,3.219,1.185,3.638
		c0.207,0.182,0.561,0.372,0.869,0.605c0.404,0.304,0.912,0.482,0.912,0.482s-1.988,0.292-3.345-0.223
		c-1.438-0.546-1.987-0.895-2.396-2.436C46.542,11.64,46.54,10.614,47.349,9.991"/>
	<path fill="#FFFFFF" d="M40.254,9.991c-0.81-0.623-2.115-0.341-2.378,1.122c-0.445,2.486-0.706,3.219-1.186,3.638
		c-0.207,0.182-0.56,0.372-0.869,0.605c-0.403,0.304-0.912,0.482-0.912,0.482s1.99,0.292,3.346-0.223
		c1.438-0.546,1.986-0.895,2.396-2.436C41.06,11.64,41.063,10.614,40.254,9.991"/>
</g>
</svg>
