<?xml version="1.0" encoding="utf-8"?>
<!-- Generator: Adobe Illustrator 16.0.3, SVG Export Plug-In . SVG Version: 6.00 Build 0)  -->
<!DOCTYPE svg PUBLIC "-//W3C//DTD SVG 1.1//EN" "http://www.w3.org/Graphics/SVG/1.1/DTD/svg11.dtd">
<svg version="1.1" id="Layer_1" xmlns="http://www.w3.org/2000/svg" xmlns:xlink="http://www.w3.org/1999/xlink" x="0px" y="0px"
	 width="76.225px" height="76.225px" viewBox="0 0 76.225 76.225" enable-background="new 0 0 76.225 76.225" xml:space="preserve">
<g opacity="0.5">
	<path fill="#FFFFFF" d="M57.399,14.823l-0.158-0.115c-0.317-0.229-1.685-1.8-1.801-1.997c-0.115-0.197-0.322-0.551-0.457-0.781
		c-0.024-0.042-0.317-0.479-0.439-0.641c-1.128-1.489-3.082-2.226-4.993-1.708c-1.905,0.536-3.205,2.171-3.409,4.026
		c-0.022,0.202-0.051,0.728-0.051,0.775c0.003,0.269,0.008,0.677,0.01,0.905c0.002,0.229-0.366,2.278-0.521,2.639l-0.076,0.181
		c-0.153,0.359-0.072,0.813,0.181,1.005c0.253,0.193,0.719,0.443,1.035,0.554c0.317,0.112,0.877,0.238,1.242,0.28
		c0.366,0.042,0.985,0.062,1.375,0.04l0.108-0.005c0.392-0.021,1.023-0.101,1.408-0.176l0.766-0.153
		c0.187-0.038,0.427-0.097,0.668-0.163c0.24-0.066,0.479-0.14,0.656-0.203l0.733-0.261c0.369-0.131,0.953-0.388,1.3-0.571
		l0.096-0.051c0.347-0.183,0.869-0.516,1.162-0.741c0.291-0.224,0.707-0.617,0.922-0.877c0.215-0.258,0.486-0.711,0.604-1.007
		C57.878,15.483,57.716,15.054,57.399,14.823"/>
	<path fill="#FFFFFF" d="M33.469,62.391c0.04,0.254,0.102,0.6,0.16,0.92l1.337,7.235c0.092,0.49,0.787,0.893,1.548,0.893
		c0.076,0,0.152-0.004,0.227-0.009v0.009h2.418v-0.022c0.121,0.015,0.246,0.022,0.375,0.022c0.761,0,1.475-0.502,1.589-1.114
		l1.255-6.791c0.077-0.416,0.152-0.847,0.201-1.141c-1.541,0.104-3.088,0.155-4.619,0.155
		C36.442,62.549,34.941,62.492,33.469,62.391"/>
	<path fill="#FFFFFF" d="M0.732,27.852c3.635,2.852,7.006,3.959,9.893,3.959h0.021c1.759,0.001,3.287-0.402,4.559-0.962
		l-1.753,11.904L8.235,65.918c-0.422,1.654-0.291,3.289,1.381,3.641c1.022,0.215,2.151-0.667,2.573-2.322l7.533-21.53l0.251,0.125
		l2.07,20.59c0,1.707,0.816,3.516,2.197,3.265c1.681-0.308,1.946-1.242,1.946-2.95l0.602-21.737c0.016-0.06,0.028-0.121,0.037-0.184
		l2.078-14.106c0.102-0.608,0.211-0.842,0.371-1.416c0.516-0.674,0.809-0.515,1.167-0.247c0.315,0.235,0.715,0.392,0.899,0.552
		c0.003,0.001,0.004,0.003,0.005,0.004l4.521,7.45l-4.521,7.972l6.186,1.934h1.16l6.186-1.934l-3.123-7.69l3.123-7.731
		c0.001-0.001,0.003-0.002,0.004-0.003c0.187-0.16,1.945,0.626,1.986,0.68c0.129,0.173,0.283,0.314,0.451,0.433
		c0,0,2.146,4.696,2.345,6.588c0.198,1.892-0.267,7.52-0.267,7.52c0.01,0.063,0.021,0.124,0.037,0.184l1.045,21.801
		c0,1.707,0.629,2.888,2.049,2.951c1.707,0.075,2.221-1.369,2.221-3.078l1.381-20.84l0.313-0.188l7.156,21.594
		c0.424,1.655,1.614,2.453,2.762,2.134c1.131-0.313,1.615-1.606,1.193-3.264l-4.781-23.353c0,0-1.811-4.018-2.188-6.214
		c-0.376-2.196,0.434-5.689,0.434-5.689c1.271,0.559,2.801,0.962,4.559,0.961h0.023c2.887,0,6.256-1.107,9.891-3.959
		c0.834-0.652,0.982-1.855,0.33-2.69c-0.651-0.834-1.855-0.981-2.689-0.33c-3.155,2.458-5.639,3.142-7.555,3.146
		c-0.118,0-0.233-0.003-0.35-0.008c-0.068,0.308-0.197,0.603-0.386,0.867c-0.446,0.636-1.18,1.015-1.958,1.015
		c-0.496,0-0.974-0.152-1.381-0.438c-0.222-0.155-0.484-0.341-0.775-0.547c-0.709-0.497-1.597-1.123-2.514-1.797
		c0.78,0.307,1.589,0.699,2.426,1.205c0.374,0.228,0.756,0.475,1.141,0.746c0.865,0.611,2.061,0.405,2.672-0.459
		c0.139-0.197,0.234-0.411,0.289-0.632c0.191-0.747-0.082-1.568-0.748-2.039c-2.063-1.463-3.094-3.286-7.612-3.475
		c-0.377,0.438-1.256,1.633-3.642,1.884c-2.385,0.251-3.287-0.87-3.326-0.942c-0.002-0.003-2.516,0.479-2.518,0.475
		c-0.379,0.17-0.738,0.346-1.076,0.523c-0.93-0.572-2.021-1.107-3.252-1.5c-0.054,0.057-0.107,0.112-0.164,0.166
		c-1.108,1.099-2.627,1.759-4.286,1.759c-0.465,0-0.933-0.055-1.39-0.16c-1.115-0.261-2.111-0.813-2.904-1.6
		c-0.055-0.055-0.11-0.108-0.163-0.166c-1.235,0.394-2.326,0.928-3.256,1.501c-0.339-0.179-0.698-0.354-1.075-0.523
		c-0.002,0.004-2.45-1.042-2.452-1.039c-0.041,0.07-0.815,0.754-3.453,0.754c-1.003,0-2.9-0.59-3.074-1.067
		c-4.144,0.188-6.057,1.949-8.118,3.412c-0.668,0.471-0.941,1.292-0.75,2.039c0.057,0.221,0.15,0.435,0.29,0.632
		c0.61,0.864,1.807,1.07,2.672,0.459c0.386-0.271,0.766-0.521,1.14-0.746c0.838-0.506,1.646-0.898,2.425-1.205
		c-0.917,0.674-1.803,1.3-2.512,1.797c-0.292,0.205-0.555,0.392-0.776,0.547c-0.406,0.286-0.885,0.438-1.381,0.438
		c-0.778,0-1.51-0.379-1.959-1.015c-0.188-0.266-0.315-0.561-0.384-0.867c-0.115,0.005-0.231,0.008-0.351,0.008
		c-1.916-0.006-4.398-0.689-7.555-3.146c-0.834-0.65-2.038-0.504-2.689,0.33C-0.25,25.995-0.102,27.199,0.732,27.852"/>
	<path fill="#FFFFFF" d="M20.49,18.922c0.186,0.216,0.39,0.41,0.609,0.588c0.473,0.384,1.013,0.68,1.595,0.866
		c0.698,0.227,1.454,0.296,2.219,0.186c0.135-0.021,0.271-0.044,0.406-0.076c0,0,0,0,0.001,0c0.549-0.128,1.054-0.344,1.506-0.629
		c0.686-0.433,1.245-1.021,1.641-1.706c0.007-0.011,0.014-0.023,0.021-0.034c0.588-1.038,0.803-2.29,0.512-3.543
		c-0.617-2.648-3.264-4.295-5.913-3.679c-2.646,0.616-4.295,3.264-3.678,5.912c0.018,0.077,0.038,0.152,0.06,0.229
		c0.038,0.134,0.082,0.267,0.132,0.396C19.809,17.988,20.114,18.491,20.49,18.922"/>
	<path fill="#FFFFFF" d="M51.046,21.773c1.328,0.309,2.656-0.08,3.599-0.93c0.039-0.034,0.077-0.069,0.114-0.106
		c0.531-0.519,0.928-1.188,1.106-1.963c0.503-2.159-0.84-4.316-2.997-4.819c-2.16-0.503-4.318,0.84-4.82,2.999
		c-0.33,1.418,0.137,2.835,1.105,3.783c0.037,0.037,0.076,0.072,0.115,0.106C49.757,21.286,50.36,21.613,51.046,21.773"/>
	<path fill="#FFFFFF" d="M45.874,25.272c-0.524-0.908-1.875-1.956-3.001-2.328l-1.571-0.521c-0.92,0.467-2.068,0.745-3.321,0.745
		c-1.298,0-2.488-0.298-3.424-0.794l-2.949,0.959c-0.902,0.293-1.983,1.245-2.401,2.114c-0.419,0.87,2.928,7.046,3.016,8.062
		l0.124,1.463c0.086,1.018-0.115,2.629-0.447,3.584L30.39,42.89c-0.332,0.954-0.799,2.545-1.034,3.531l-0.991,4.141
		c-0.236,0.987-0.473,7.38-0.525,7.843c-0.052,0.463,0.638,1.104,1.531,1.424l0.33,0.119c0.442,0.158,1.671,0.489,1.848,0.519
		c4.069,0.647,8.4,0.653,12.671,0.005c0.142-0.022,1.461-0.388,2.006-0.582c0.983-0.354,1.748-1.021,1.694-1.483
		c-0.052-0.463-0.336-7.057-0.632-8.291l-0.775-3.242c-0.296-1.233-0.878-3.221-1.291-4.416l-1.205-3.466
		c-0.416-1.193-0.668-3.209-0.561-4.48l0.046-0.537c0.108-1.271,1.532-5.271,1.854-4.831C45.677,29.581,46.399,26.18,45.874,25.272"
		/>
	<path fill="#FFFFFF" d="M49.869,37.165c0.235,1.142,0.283,2.993,0.106,4.118l-0.804,5.105c-0.178,1.122-0.388,2.983-0.467,4.135
		l-0.334,4.817c-0.08,1.149-0.131,2.525-0.111,3.059c0.021,0.533,0.779,1.171,1.688,1.42l0.336,0.092
		c0.449,0.123,1.684,0.343,1.857,0.354c4.017,0.216,8.188-0.328,12.205-1.607c0.133-0.043,1.35-0.625,1.846-0.915
		c0.896-0.524,1.531-1.379,1.411-1.896c-0.12-0.519-0.604-2.059-1.071-3.421L65.3,48.85c-0.471-1.362-1.327-3.54-1.905-4.841
		l-1.681-3.775c-0.577-1.3-1.123-3.553-1.209-5.007L49.869,37.165z"/>
	<path fill="#FFFFFF" d="M34.701,10.05c0.603-0.94,0.169-2.34-1.451-2.484c-2.753-0.247-3.576-0.461-4.079-0.942
		c-0.217-0.208-0.459-0.574-0.741-0.89c-0.37-0.411-0.615-0.947-0.615-0.947S27.686,6.98,28.376,8.41
		c0.732,1.514,1.165,2.08,2.884,2.379C32.979,11.087,34.099,10.991,34.701,10.05"/>
	<path fill="#FFFFFF" d="M43.048,15.376c0,3.104-2.517,5.619-5.619,5.619c-3.104,0-5.619-2.517-5.619-5.619
		c0-3.104,2.515-5.619,5.619-5.619C40.531,9.757,43.048,12.272,43.048,15.376"/>
</g>
</svg>
