<?xml version="1.0" encoding="utf-8"?>
<!-- Generator: Adobe Illustrator 16.0.3, SVG Export Plug-In . SVG Version: 6.00 Build 0)  -->
<!DOCTYPE svg PUBLIC "-//W3C//DTD SVG 1.1//EN" "http://www.w3.org/Graphics/SVG/1.1/DTD/svg11.dtd">
<svg version="1.1" id="Layer_1" xmlns="http://www.w3.org/2000/svg" xmlns:xlink="http://www.w3.org/1999/xlink" x="0px" y="0px"
	 width="91.049px" height="91.049px" viewBox="0 0 91.049 91.049" enable-background="new 0 0 91.049 91.049" xml:space="preserve">
<g opacity="0.5">
	
		<line fill="none" stroke="#FFFFFF" stroke-width="3" stroke-linecap="round" stroke-miterlimit="10" x1="14.675" y1="41.792" x2="14.675" y2="78.66"/>
	<path fill="#FFFFFF" d="M53.726,61.709c0.272-0.659,0.108-1.446-0.461-1.938c-2.391-2.057-3.718-4.188-4.479-6.114
		c-0.229-0.587-0.406-1.154-0.542-1.695c-0.054-0.213-0.093-0.416-0.134-0.62c0.264-0.814,0.85-1.912,1.035-2.576
		c0.783-2.068,0.152-4.646-1.674-5.223c-0.447-0.141-0.953-0.197-1.479-0.161c-0.069-0.01-0.141-0.018-0.214-0.019
		c-0.01,0-0.032,0-0.063,0c-0.35,0.004-2.214,0.01-4.193,0.566c-0.99,0.286-2.032,0.702-2.942,1.471
		c-0.45,0.384-0.865,0.87-1.162,1.459c-0.24,0.475-0.394,1.014-0.443,1.576l-0.56-0.442l-0.674,0.852l1.32,1.046
		c0.124,0.629,0.354,1.268,0.684,1.92c0.413,0.815,0.985,1.67,1.731,2.584c-0.062,0.727-0.086,1.489-0.085,2.305
		c-1.037,2.76-3.813,10.174-4.104,11.215c-0.357,1.281-0.381,2.092,0.89,3.179c0.396,0.339,0.854,0.634,1.396,0.884
		c-0.841,1.541-1.783,2.748-2.431,4.692c-0.584,1.751-1.086,1.979,0.083,2.865c1.169,0.885,2.834,0.653,3.719-0.515
		c1.49-1.979,2.629-4.086,3.51-6.175c0.169,0.005,0.322,0.013,0.5,0.013c1.132,0,2.104-0.065,2.942-0.172
		c-0.034,0.934-0.214,2.195-0.832,4.564c-0.37,1.419-0.776,2.742,0.613,3.211c0.282,0.098,0.567,0.143,0.85,0.143
		c1.106,0,2.143-0.699,2.516-1.811c0.921-2.729,1.303-5.295,1.309-7.634c0.029-0.022,0.062-0.048,0.086-0.068
		c1.104-0.937,1.463-1.528,1.22-2.479c-0.161-0.619-2.25-5.928-3.673-9.517c0.828,1.104,1.836,2.199,3.064,3.255
		c0.32,0.274,0.715,0.409,1.105,0.409c0.298,0,0.594-0.077,0.854-0.229c0.159-0.094,0.308-0.213,0.435-0.36
		C53.563,62.024,53.657,61.871,53.726,61.709"/>
	<path fill="#FFFFFF" d="M66.953,72.194L54.065,61.979c-0.078,0.164-0.176,0.317-0.299,0.463c-0.121,0.14-0.26,0.26-0.406,0.361
		l12.308,9.756c-0.015,0.748-0.212,3.53-2.231,5.114c-0.565,0.207-1.246,0.327-1.953,0.161c-1.039-0.245-0.342,0.454,0.781,0.52
		c-0.349,0.142-0.729,0.256-1.152,0.332C56.367,79.536,77.256,82.269,66.953,72.194"/>
	<path fill="#FFFFFF" d="M48.875,37.375c-1.369,1.995-1.058,4.733,0.83,6.332c2.012,1.707,5.026,1.459,6.733-0.553
		c1.705-2.013,1.459-5.027-0.555-6.734c-0.807-0.684-1.773-1.04-2.755-1.107c0.019-0.127,0.038-0.252,0.038-0.383
		c0-1.573-1.275-2.85-2.852-2.85c-1.572,0-2.851,1.276-2.851,2.85C47.47,35.975,48.037,36.879,48.875,37.375"/>
	
		<line fill="none" stroke="#FFFFFF" stroke-width="3" stroke-linecap="round" stroke-miterlimit="10" x1="76.631" y1="41.792" x2="76.631" y2="78.66"/>
	<path fill="none" stroke="#FFFFFF" stroke-width="3" stroke-linecap="round" stroke-miterlimit="10" d="M1.503,40.611
		c0,0,30.292-23.26,35.167-27.102c4.875-3.841,11.543-4.532,18.802,0.642c8.409,5.991,34.074,24.836,34.074,24.836"/>
</g>
</svg>
