<?xml version="1.0" encoding="utf-8"?>
<!-- Generator: Adobe Illustrator 16.0.3, SVG Export Plug-In . SVG Version: 6.00 Build 0)  -->
<!DOCTYPE svg PUBLIC "-//W3C//DTD SVG 1.1//EN" "http://www.w3.org/Graphics/SVG/1.1/DTD/svg11.dtd">
<svg version="1.1" id="Layer_1" xmlns="http://www.w3.org/2000/svg" xmlns:xlink="http://www.w3.org/1999/xlink" x="0px" y="0px"
	 width="97.852px" height="97.852px" viewBox="0 0 97.852 97.852" enable-background="new 0 0 97.852 97.852" xml:space="preserve">
<g opacity="0.5">
	<path fill="#FFFFFF" d="M51.959,46.968c-0.093-1.038-0.479-2.284-0.86-2.77c-0.381-0.484-1.503-1.142-2.496-1.459l-3.909-1.253
		c-0.777,0.3-1.619,0.471-2.503,0.471c-0.836,0-1.634-0.154-2.378-0.424l-3.517,1.181c-0.987,0.331-2.107,1-2.487,1.484
		c-0.382,0.484-0.997,1.678-1.371,2.65l-4.542,11.842c-0.373,0.974,0.065,2.063,0.977,2.419c0.909,0.358,2.021-0.118,2.471-1.058
		l1.777-3.72c0.449-0.94,1.183-2.48,1.629-3.423l0.124-0.262c0.445-0.941,0.963-1.707,1.146-1.701
		c0.186,0.008,0.336,0.25,0.336,0.541v2.425V58.2c0,1.043-0.024,2.748-0.057,3.79l-0.646,21.68c-0.03,1.042,0.798,1.895,1.84,1.895
		h0.934c1.042,0,1.951-0.852,2.02-1.892l1.068-16.336c0.05-0.756,0.157-1.481,0.271-1.893h0.936c0.109,0.41,0.216,1.137,0.267,1.892
		l1.093,16.337c0.069,1.04,0.979,1.892,2.021,1.892h0.951c1.043,0,1.87-0.853,1.84-1.895l-0.646-21.68
		c-0.031-1.042-0.058-2.747-0.058-3.79v-1.097c0-1.043-0.004-2.014-0.009-2.155c-0.006-0.145,0.104-0.286,0.241-0.317
		c0.139-0.031,0.273,0.025,0.302,0.126c0.027,0.102,0.162,1.028,0.3,2.063l0.708,5.337c0.138,1.032,1.029,1.79,1.984,1.684
		s1.66-1.044,1.567-2.082L51.959,46.968z"/>
	<path fill="#FFFFFF" d="M42.19,40.44c3.036,0,5.497-2.461,5.497-5.496c0-3.034-2.461-5.495-5.497-5.495s-5.497,2.461-5.497,5.495
		C36.693,37.979,39.154,40.44,42.19,40.44"/>
	<path fill="#FFFFFF" d="M86.139,72.264l-1.596-2.805c-0.302-0.529-0.899-1.315-1.328-1.746l-0.209-0.211
		c-0.43-0.433-1.273-0.855-1.875-0.941l-0.776-0.111c-0.628,0.304-1.33,0.478-2.072,0.478c-0.76,0-1.477-0.181-2.114-0.496
		l-0.912,0.131c-0.604,0.086-1.446,0.51-1.876,0.941l-0.209,0.211c-0.43,0.431-1.026,1.217-1.327,1.746l-1.597,2.805
		c-0.302,0.529-0.21,1.239,0.202,1.577c0.412,0.339,1.083,0.246,1.489-0.206l1.675-1.862c0.407-0.453,0.74-0.324,0.74,0.283v0.659
		c0,0.608-0.052,1.602-0.113,2.207l-0.506,4.876c-0.063,0.604-0.282,1.569-0.487,2.142l-0.375,1.04
		c-0.205,0.573,0.123,1.041,0.731,1.041h1.429c0.608,0,1.258-0.474,1.441-1.054l1.384-4.359c0.063-0.189,0.117-0.427,0.166-0.677
		h0.337c0.05,0.25,0.106,0.486,0.167,0.677l1.385,4.359c0.185,0.58,0.833,1.054,1.44,1.054h1.43c0.607,0,0.938-0.468,0.731-1.041
		l-0.375-1.04c-0.206-0.571-0.425-1.537-0.488-2.142l-0.505-4.876c-0.063-0.605-0.113-1.599-0.113-2.207v-0.659
		c0-0.607,0.333-0.736,0.739-0.283l1.674,1.862c0.407,0.452,1.078,0.545,1.49,0.206C86.349,73.503,86.439,72.793,86.139,72.264"/>
	<path fill="#FFFFFF" d="M82.454,61.648c0,2.044-1.657,3.702-3.702,3.702c-2.044,0-3.701-1.658-3.701-3.702
		c0-2.043,1.657-3.702,3.701-3.702C80.797,57.946,82.454,59.604,82.454,61.648"/>
	<path fill="#FFFFFF" d="M14.607,60.519c0.101,0.145,0.253,0.286,0.342,0.314c0.087,0.028,0.242,0.021,0.346-0.02
		c0.104-0.039,0.276-0.183,0.387-0.32l0.084-0.104c0.109-0.139,0.31-0.343,0.442-0.456l0.086-0.074
		c0.127-0.106,0.344-0.25,0.501-0.332c0.268,1.947,1.934,3.448,3.954,3.448c2.02,0,3.686-1.501,3.955-3.448
		c0.155,0.082,0.373,0.226,0.5,0.332l0.086,0.074c0.134,0.113,0.333,0.317,0.44,0.456l0.084,0.104
		c0.11,0.139,0.284,0.281,0.389,0.32c0.103,0.04,0.259,0.048,0.347,0.02c0.087-0.028,0.241-0.171,0.34-0.314l0.973-1.41
		c0.1-0.145,0.183-0.34,0.186-0.435c0.002-0.095-0.038-0.248-0.09-0.342c-0.053-0.095-0.225-0.232-0.381-0.312l-0.445-0.219
		c-0.157-0.077-0.427-0.17-0.599-0.205l-0.477-0.1c-0.171-0.034-0.456-0.062-0.631-0.057l-0.37,0.01
		c-0.163,0.004-0.417,0.031-0.591,0.063c-0.584-1.481-2.026-2.532-3.716-2.532c-1.69,0-3.132,1.051-3.716,2.532
		c-0.176-0.03-0.43-0.059-0.592-0.063l-0.37-0.01c-0.176-0.005-0.459,0.021-0.632,0.057l-0.475,0.1
		c-0.172,0.035-0.441,0.128-0.599,0.205l-0.445,0.219c-0.157,0.078-0.329,0.217-0.381,0.312c-0.052,0.094-0.093,0.247-0.09,0.342
		s0.086,0.29,0.186,0.435L14.607,60.519z"/>
	<path fill="#FFFFFF" d="M16.802,77.885c0.024,0.32,0.063,0.733,0.105,1.137l0.522,4.924c0.075,0.698,0.665,1.271,1.313,1.271
		c0.647,0,1.223-0.572,1.276-1.272l0.461-5.846c-0.017,0-0.034,0.001-0.05,0.001C19.188,78.098,17.98,78.021,16.802,77.885"/>
	<path fill="#FFFFFF" d="M29.908,61.601c-0.374-0.529-1.178-0.674-1.786-0.326l-0.286,0.164c-0.607,0.351-2.062,2.197-2.695,2.274
		c-0.535,0.065-1.39,0.057-2.061-0.015c-0.704,0.349-1.494,0.551-2.332,0.551c-0.854,0-1.657-0.208-2.37-0.568
		c-0.688,0.087-1.637,0.104-2.215,0.032c-0.636-0.077-1.653-0.428-2.263-0.777l-0.284-0.164c-0.609-0.351-1.413-0.203-1.786,0.326
		c-0.374,0.527-0.217,1.3,0.352,1.713l0.439,0.32c0.566,0.414,1.522,1.05,2.124,1.411l0.289,0.175
		c0.601,0.361,1.284,0.914,1.519,1.227c0.235,0.313,0.277,0.992,0.096,1.511c-0.183,0.518-0.508,1.486-0.725,2.154l-1.191,3.684
		c-0.216,0.667,0.154,1.327,0.824,1.466c0.323,0.067,1.108,0.313,1.244,0.328c2.472,0.294,5.099,0.278,7.848-0.045
		c0.112-0.015,0.812-0.225,1.1-0.283c0.669-0.139,1.04-0.799,0.823-1.466l-1.191-3.684c-0.216-0.668-0.541-1.638-0.724-2.154
		c-0.184-0.518-0.141-1.197,0.095-1.511c0.234-0.313,0.918-0.864,1.52-1.227l0.289-0.175c0.602-0.361,1.782-1.694,2.351-2.108
		l0.833-0.833C30.241,62.851,30.282,62.129,29.908,61.601"/>
	<path fill="#FFFFFF" d="M21.282,83.944c0.056,0.699,0.63,1.271,1.277,1.271c0.646,0,1.238-0.571,1.313-1.27l0.523-4.925
		c0.044-0.413,0.083-0.838,0.107-1.159c-1.254,0.14-2.481,0.215-3.684,0.229L21.282,83.944z"/>
	<path fill="#FFFFFF" d="M64.061,78.757c-1.44,0-2.941-0.028-4.338-0.104c0.041,0.149,0.101,0.349,0.16,0.534l1.349,4.207
		c0.097,0.299,0.77,0.543,1.494,0.543h0.01h2.856h0.01c0.727,0,1.398-0.244,1.494-0.543l1.349-4.207
		c0.06-0.18,0.115-0.37,0.155-0.519C67.354,78.718,65.752,78.757,64.061,78.757"/>
	<path fill="#FFFFFF" d="M66.709,32.584c0.098-0.266,0.15-0.548,0.15-0.842c0-1.498-1.358-2.714-3.034-2.714
		s-3.034,1.216-3.034,2.714c0,0.294,0.055,0.576,0.15,0.842c-1.505,0.956-2.506,2.634-2.506,4.547c0,2.978,2.413,5.391,5.39,5.391
		c2.978,0,5.391-2.413,5.391-5.391C69.216,35.218,68.213,33.54,66.709,32.584"/>
	<path fill="#FFFFFF" d="M70.939,57.539c0.012-0.048,0.02-0.098,0.025-0.146c0.27-0.18,0.824-0.593,1.242-0.923
		c0.421-0.333,0.941-1.103,1.157-1.708c0.217-0.605,0.185-1.737-0.07-2.515l-1.276-3.881c-0.256-0.776-0.748-1.955-1.096-2.618
		c-0.347-0.662-1.271-1.396-2.056-1.632l-0.84-0.251h-8.602l-0.84,0.251c-0.783,0.234-1.708,0.97-2.056,1.632
		c-0.348,0.663-0.841,1.842-1.096,2.618l-1.275,3.881c-0.256,0.776-0.288,1.907-0.072,2.515c0.216,0.605,0.738,1.375,1.159,1.708
		c0.421,0.334,0.983,0.752,1.25,0.929c0.266,0.178,0.375,0.743,0.241,1.259c-0.133,0.515-0.408,1.583-0.613,2.375l-0.891,3.439
		c-0.205,0.792-0.407,10.625-0.452,10.979c-0.043,0.354,0.539,0.899,1.295,1.215c0,0,1.353,0.746,1.479,0.77
		c3.653,0.656,8.374,0.458,11.176,0.181c0.104-0.012,0.378-0.052,0.414-0.057c0.285-0.034,1.139-0.318,1.894-0.634
		c0,0,1.471-0.917,1.428-1.271c-0.043-0.354-0.043-10.39-0.248-11.182l-0.89-3.439c-0.205-0.792-0.481-1.86-0.614-2.375
		c-0.045-0.172-0.063-0.349-0.055-0.515C70.791,57.967,70.888,57.764,70.939,57.539 M69.063,47.904c1.444,0,2.616,1.173,2.616,2.617
		c0,1.446-1.172,2.618-2.616,2.618c-1.445,0-2.617-1.172-2.617-2.618C66.445,49.076,67.616,47.904,69.063,47.904 M61.44,59.893
		c0.271-0.107,0.515-0.292,0.693-0.547l0.117-0.166c0.495-0.703,0.325-1.683-0.378-2.177l-4.234-2.983
		c-0.016-0.012-0.033-0.021-0.051-0.032c0.045-0.259,0.175-0.503,0.389-0.687l0.031-0.027c0.488-0.421,1.231-0.364,1.653,0.123
		l0.626,0.728l1.466-1.264c0.273-0.236,0.578-0.415,0.896-0.543l-0.826-0.955c-0.421-0.487-0.41-1.192,0.022-1.565
		s1.133-0.279,1.553,0.209l2.409,2.783c0,0,0.23,0.257,0.271,0.305c0.406,0.471,0.633,1.041,0.688,1.629l-0.146-0.034
		c-1.092-0.251-2.166,0.338-2.39,1.31c-0.168,0.732,0.194,1.481,0.853,1.914l-1.404,1.208C63.029,59.678,62.221,59.932,61.44,59.893
		"/>
	<path fill="none" stroke="#FFFFFF" stroke-width="3" stroke-linecap="round" stroke-miterlimit="10" d="M1.502,42.198
		c0,0,32.633-23.067,37.885-26.876c5.251-3.811,12.437-4.496,20.255,0.635C68.7,21.9,96.35,40.587,96.35,40.587"/>
	
		<line fill="none" stroke="#FFFFFF" stroke-width="3" stroke-linecap="round" stroke-miterlimit="10" x1="7.928" y1="43.685" x2="7.928" y2="84.684"/>
	
		<line fill="none" stroke="#FFFFFF" stroke-width="3" stroke-linecap="round" stroke-miterlimit="10" x1="90.702" y1="43.685" x2="90.702" y2="84.434"/>
</g>
</svg>
