<?xml version="1.0" encoding="utf-8"?>
<!-- Generator: Adobe Illustrator 16.0.3, SVG Export Plug-In . SVG Version: 6.00 Build 0)  -->
<!DOCTYPE svg PUBLIC "-//W3C//DTD SVG 1.1//EN" "http://www.w3.org/Graphics/SVG/1.1/DTD/svg11.dtd">
<svg version="1.1" id="Layer_1" xmlns="http://www.w3.org/2000/svg" xmlns:xlink="http://www.w3.org/1999/xlink" x="0px" y="0px"
	 width="64.035px" height="64.035px" viewBox="0 0 64.035 64.035" enable-background="new 0 0 64.035 64.035" xml:space="preserve">
<g opacity="0.5">
	<path fill="#FFFFFF" d="M33.58,14.416c3.51,0,6.356-2.846,6.356-6.357c0-0.83-0.164-1.621-0.453-2.348
		c1.197-0.367,2.065-1.481,2.065-2.798c0-1.616-1.31-2.926-2.926-2.926c-1.338,0-2.463,0.899-2.813,2.126
		c-0.695-0.261-1.445-0.411-2.232-0.411c-3.511,0-6.355,2.846-6.355,6.357C27.223,11.57,30.068,14.416,33.58,14.416"/>
	<path fill="#FFFFFF" d="M39.779,31.342h0.096c0.02,0,0.035-0.007,0.054-0.009c2.571-0.097,4.345-2.688,3.477-5.166l-1.702-4.857
		c-1.068-3.043-3.92-5.078-7.119-5.078h-4.67c-3.198,0-6.051,2.035-7.118,5.078l-1.702,4.857c-0.887,2.525,0.97,5.175,3.624,5.175
		h0.289c0,0-4.028,18.541-4.529,20.577c-0.473,1.917,1.595,2.421,4.058,3.167c1.168,0.354,1.718,0.344,7.2,0.344
		c5.142,0,6.652-0.451,8.089-0.761c2.913-0.628,3.492-1.5,3.209-3.25c-0.16-0.989-4.57-20.077-4.57-20.077H39.779z M31.36,24.937
		c1.084-0.197,2.134-0.199,3.054-0.045c0.23-1.346,1.543-2.378,3.131-2.378c1.752,0,3.172,1.254,3.172,2.8
		c0,0.834-0.416,1.581-1.07,2.094h-7.435c-1.229,0-2.228,0.881-2.228,1.968c0,0.803,0.545,1.492,1.326,1.798
		c-2.375,0.061-4.335-0.808-4.661-2.208C26.257,27.284,28.366,25.48,31.36,24.937"/>
	<path fill="#FFFFFF" d="M32.184,56.539c-1.725,0-3.429-0.063-5.09-0.186c0.046,0.221,0.114,0.521,0.183,0.799l1.5,6.095
		c0.105,0.435,0.853,0.788,1.658,0.788h0.012h3.174h0.01c0.807,0,1.553-0.354,1.66-0.788l1.498-6.095
		c0.064-0.268,0.131-0.553,0.176-0.77C35.371,56.484,33.77,56.539,32.184,56.539"/>
</g>
</svg>
