<?xml version="1.0" encoding="utf-8"?>
<!-- Generator: Adobe Illustrator 16.0.3, SVG Export Plug-In . SVG Version: 6.00 Build 0)  -->
<!DOCTYPE svg PUBLIC "-//W3C//DTD SVG 1.1//EN" "http://www.w3.org/Graphics/SVG/1.1/DTD/svg11.dtd">
<svg version="1.1" id="Layer_1" xmlns="http://www.w3.org/2000/svg" xmlns:xlink="http://www.w3.org/1999/xlink" x="0px" y="0px"
	 width="78.803px" height="78.803px" viewBox="0 0 78.803 78.803" enable-background="new 0 0 78.803 78.803" xml:space="preserve">
<g opacity="0.5">
	<path fill="#FFFFFF" d="M15.454,33.24c0.288,2.755-1.712,5.224-4.468,5.514c-2.757,0.289-5.226-1.711-5.515-4.467
		c-0.289-2.757,1.711-5.225,4.468-5.515C12.695,28.484,15.163,30.484,15.454,33.24"/>
	<path fill="#FFFFFF" d="M6.596,34.558c0,0-3.685,2.619-4.293,2.943c-0.607,0.324-0.906,0.744-0.628,1.509
		c0.277,0.764,2.097,1.486,2.875,1.723c0.777,0.236,1.014-0.541,1.156-1.008c0.141-0.468,1.229-4.045,1.229-4.045L6.596,34.558z"/>
	<path fill="#FFFFFF" d="M19.725,46.885c1.174-0.38,4.619-4.395,5.075-4.986c0.458-0.59,0.313-1.912-0.388-2.468
		c-0.701-0.555-1.647-0.618-2.137-0.161c-0.486,0.457-3.478,3.276-3.921,3.488c-0.442,0.21-4.264-1.051-4.264-1.051
		s-0.471-0.135-1.039-0.155c-1.781-0.958-4.353-0.841-5.751,0.472c-0.332-0.207-0.768-0.336-1.31-0.2
		c-1.398,0.351-3.148,1.75-3.148,1.75c-1.749,2.975-2.1,5.425-2.449,8.397c-0.35,2.975-0.875,3.499,0.525,3.674
		c1.267,0.158,3.529,0.174,3.949,0.176c-0.049,1.934,0.091,3.902,0.586,5.781C5.427,61.913,6.1,62.1,7.159,62.192
		c-0.031,0.343-0.075,0.666-0.149,0.932c-1.29,0.566-5.074,2.5-5.074,2.5c-1.237,0.766-1.21,1.904-0.568,2.939
		c0.64,1.033,1.862,1.157,2.886,0.802c0,0,3.797-1.573,5.585-2.791c1.002-0.683,1.476-2.729,1.699-4.397
		c1.229-0.073,2.488-0.192,3.625-0.347c1.179,0.494,2.67,1.141,3.388,1.792c-0.06,1.175-0.032,4.726-0.032,4.726
		c0.109,1.213,0.973,1.617,1.985,1.527c1.01-0.092,1.561-0.959,1.678-1.855c0,0,0.245-3.427,0.005-5.219
		c-0.181-1.344-2.542-2.898-3.711-3.591c-2.644-5.668-2.751-9.339-3.225-13.074C17.119,46.628,19.138,47.075,19.725,46.885
		 M11.348,46.292c0,0-2.605,2.831-2.597,3.3c0.009,0.471,1.286,4.188,1.491,4.793c0.204,0.605-0.223,1.404-0.982,1.796
		c-0.76,0.393-1.968-0.003-2.303-0.635c-0.335-0.631-2.477-5.215-2.344-6.388c0.134-1.173,4.731-6.317,4.731-6.317
		c1.234-0.397,2.629,0.271,2.813,1.289C12.342,45.148,11.348,46.292,11.348,46.292"/>
	<path fill="#FFFFFF" d="M52.399,40.266c0,0-2.964-3.36-4.37-4.959c-1.407-1.596-2.511-9.931-4.035-11.167
		c-0.222-0.179-0.468-0.253-0.725-0.262c-1.813-1.281-7.461-1.65-9.956-0.627c-0.386,0.008-0.782,0.132-1.163,0.419
		c-1.086,0.813-5.881,6.402-7.321,8.591c-1.443,2.185-2.767,7.427-2.767,7.427c-0.39,1.163-0.428,3.172,0.938,3.625
		c1.471,0.485,2.457-0.652,2.718-1.694c0,0,1.574-4.253,2.321-6.272c0.356-0.964,2.069-2.551,3.806-4.16
		c-0.124,3.07-0.246,6.664-0.259,9.753c-1.127,3.148-2.271,15.524-2.457,16.22c-0.385,1.429-0.408,2.329,0.954,3.541
		c0.487,0.433,1.056,0.805,1.756,1.106l-0.249,6.411c-0.029,1.886,1.187,2.652,2.701,2.679c1.52,0.026,2.758-0.696,2.79-2.584
		c0,0,0.262-5.617,0.274-5.617c1.144,0,2.868,0.255,3.731,0.147c0.358,1.228,0.202,3.167,0.224,3.942
		c0.021,0.774-0.099,3.135,2.338,3.298c2.434,0.163,2.881-2.166,2.871-3.303c-0.012-1.133-0.659-4.377-1.105-5.862
		c1.159-1.025,2.302-2.806,2.042-3.851c-0.173-0.691-3.178-14.86-4.702-18.856c0.143-0.849,0.334-1.725,0.524-2.699
		c0.244,0.567,0.471,1.058,0.655,1.405c1.239,2.314,5.169,5.883,5.169,5.883c0.827,0.884,2.541,1.817,3.542,0.749
		C53.722,42.397,53.182,40.971,52.399,40.266"/>
	<path fill="#FFFFFF" d="M33.996,15.242c0.07,0,0.139-0.019,0.21-0.022c-0.104,0.784-0.061,1.598,0.18,2.403
		c0.884,2.967,3.913,4.628,6.771,3.712c2.857-0.916,4.453-4.063,3.574-7.027c-0.883-2.964-3.913-4.627-6.771-3.711
		c-0.444,0.145-0.844,0.355-1.225,0.595c-0.402-1.172-1.473-2.015-2.739-2.015c-1.614,0-2.922,1.358-2.922,3.032
		C31.074,13.883,32.382,15.242,33.996,15.242"/>
	<path fill="#FFFFFF" d="M66.961,20.164c2.896,0,5.379-2.774,5.544-6.196c0.164-3.422-2.375-6.197-5.672-6.197
		s-5.779,2.775-5.544,6.197C61.525,17.389,64.064,20.164,66.961,20.164"/>
	<path fill="#FFFFFF" d="M77.438,27.094c-0.099-1.171-0.517-2.576-0.93-3.122s-1.633-1.287-2.711-1.645l-3.957-1.315
		c-0.889,0.548-1.867,0.861-2.88,0.861c-1.004,0-1.979-0.311-2.868-0.853l-3.662,1.276c-1.072,0.375-2.288,1.128-2.701,1.674
		s-1.082,1.891-1.486,2.989l-4.938,13.404c-0.386,0.376-0.63,0.907-0.63,1.5c0,1.14,0.89,2.063,1.987,2.063
		c0.69,0,1.298-0.367,1.652-0.923c0.063-0.097,0.256-0.51,0.256-0.51l3.174-6.892c0.487-1.06,1.088-2.327,1.333-2.814
		c0.243-0.488,0.664-0.861,0.932-0.828c0.269,0.034,0.487,0.329,0.487,0.657v2.731v4.833v4.273v24.438
		c0,1.176,0.926,2.138,2.059,2.138h1.426c1.133,0,2.06-0.962,2.06-2.138v-18.18c0-0.957,0.12-1.904,0.281-2.363h1.174
		c0.168,0.457,0.293,1.438,0.293,2.418v18.125c0,1.176,0.927,2.138,2.059,2.138h1.446c1.133,0,2.06-0.962,2.06-2.138V44.458v-4.273
		v-1.235c0-1.176-0.006-2.27-0.011-2.432c-0.006-0.161,0.112-0.322,0.263-0.355c0.149-0.035,0.298,0.027,0.327,0.142
		c0.03,0.114,0.188,1.158,0.35,2.321L75,43.792c0.162,1.163,1.121,2.019,2.132,1.9c1.012-0.116,1.759-1.172,1.661-2.342
		L77.438,27.094z"/>
</g>
</svg>
