<?xml version="1.0" encoding="utf-8"?>
<!-- Generator: Adobe Illustrator 16.0.3, SVG Export Plug-In . SVG Version: 6.00 Build 0)  -->
<!DOCTYPE svg PUBLIC "-//W3C//DTD SVG 1.1//EN" "http://www.w3.org/Graphics/SVG/1.1/DTD/svg11.dtd">
<svg version="1.1" id="Layer_1" xmlns="http://www.w3.org/2000/svg" xmlns:xlink="http://www.w3.org/1999/xlink" x="0px" y="0px"
	 width="71.15px" height="71.148px" viewBox="0 0 71.15 71.148" enable-background="new 0 0 71.15 71.148" xml:space="preserve">
<g opacity="0.5">
	<path fill="#FFFFFF" d="M47.135,33.953c0,0-12.991,6.264-15.193,10.065c-2.202,3.804,1.101,6.04,0.881,10.066
		S19.169,66.836,15.646,67.06c-3.523,0.224,20.919,0.447,20.919,0.447s6.386-5.146,8.588-8.948s-0.66-7.157-3.304-10.064
		c-2.643-2.908-3.082-4.026,0-6.711c3.084-2.686,10.791-7.83,10.791-7.83H47.135z"/>
	<path fill="#FFFFFF" d="M16.318,30.89c0.305,2.908-1.806,5.516-4.715,5.82s-5.517-1.807-5.821-4.715
		c-0.305-2.91,1.806-5.516,4.716-5.82C13.407,25.869,16.011,27.981,16.318,30.89"/>
	<path fill="#FFFFFF" d="M6.968,32.281c0,0-3.889,2.764-4.531,3.106S1.48,36.174,1.773,36.98c0.293,0.809,2.214,1.571,3.035,1.82
		c0.82,0.25,1.069-0.571,1.22-1.064c0.15-0.491,1.297-4.27,1.297-4.27L6.968,32.281z"/>
	<path fill="#FFFFFF" d="M20.81,61.023c-0.056-0.405-0.272-0.83-0.585-1.249c0,0,0.001-0.001,0.001-0.002
		c-4.131-8.08-3.5-12.445-4.484-17.618c-0.626-3.295-5.778-4.101-8.029-1.991c-0.351-0.219-0.809-0.354-1.381-0.211
		c-1.478,0.368-3.325,1.848-3.325,1.848c-1.846,3.139-2.216,5.725-2.585,8.865c-0.37,3.139-0.924,3.691,0.555,3.877
		c1.337,0.168,3.727,0.184,4.169,0.186c-0.05,2.04,0.095,4.12,0.619,6.104c-0.03,0.326,0.682,0.524,1.8,0.621
		c-0.034,0.361-0.08,0.702-0.158,0.982c-1.361,0.6-5.357,2.641-5.357,2.641c-1.306,0.807-1.275,2.012-0.6,3.104
		c0.675,1.091,1.967,1.221,3.045,0.846c0,0,4.009-1.66,5.896-2.946c1.058-0.722,1.558-2.882,1.795-4.643
		c0.923-0.056,1.861-0.136,2.76-0.234c0.505,0.281,0.952,0.57,1.271,0.86c-0.074,1.484-0.04,5.971-0.04,5.971
		c0.138,1.53,1.228,2.044,2.507,1.929c1.275-0.114,1.973-1.211,2.12-2.344C20.803,67.615,21.114,63.287,20.81,61.023 M11.984,44.668
		c0,0-2.751,2.99-2.741,3.482c0.009,0.497,1.357,4.421,1.574,5.061s-0.234,1.481-1.037,1.896c-0.802,0.414-2.077-0.004-2.431-0.671
		c-0.354-0.666-2.612-5.504-2.473-6.743c0.14-1.235,4.993-6.668,4.993-6.668c1.303-0.42,2.776,0.286,2.971,1.361
		S11.984,44.668,11.984,44.668"/>
	<path fill="#FFFFFF" d="M32.65,31.354h13.105V20.908c0-0.663,0.537-1.244,1.201-1.244h6.761c0.661,0,1.247,0.581,1.247,1.244
		v10.445h13.107V18.128H32.65V31.354z"/>
	<path fill="#FFFFFF" d="M70.766,14.62L53.272,2.145c-1.813-1.293-4.245-1.293-6.058,0L29.72,14.62
		c-0.707,0.504-0.351,1.62,0.518,1.62h40.011C71.118,16.24,71.473,15.124,70.766,14.62"/>
</g>
</svg>
