<?xml version="1.0" encoding="utf-8"?>
<!-- Generator: Adobe Illustrator 16.0.3, SVG Export Plug-In . SVG Version: 6.00 Build 0)  -->
<!DOCTYPE svg PUBLIC "-//W3C//DTD SVG 1.1//EN" "http://www.w3.org/Graphics/SVG/1.1/DTD/svg11.dtd">
<svg version="1.1" id="Layer_1" xmlns="http://www.w3.org/2000/svg" xmlns:xlink="http://www.w3.org/1999/xlink" x="0px" y="0px"
	 width="52.016px" height="52.016px" viewBox="0 0 52.016 52.016" enable-background="new 0 0 52.016 52.016" xml:space="preserve">
<g opacity="0.5">
	<path fill="#FAFAFB" d="M37.084,3.798c-0.082-0.146-0.334-0.358-0.563-0.47l-0.766-0.376c-0.229-0.112-0.618-0.246-0.866-0.299
		l-0.819-0.17c-0.248-0.051-0.659-0.088-0.914-0.082L32.5,2.419c-0.252,0.007-0.664,0.051-0.913,0.1l-0.716,0.139
		C29.758,1.046,27.898-0.01,25.79-0.01c-2.108,0-3.967,1.057-5.082,2.668l-0.714-0.139c-0.25-0.049-0.661-0.093-0.915-0.1
		l-0.656-0.018c-0.254-0.006-0.665,0.031-0.913,0.082l-0.819,0.17c-0.249,0.053-0.639,0.187-0.866,0.299l-0.767,0.376
		c-0.227,0.111-0.479,0.323-0.562,0.47c-0.081,0.146-0.145,0.387-0.142,0.535c0.004,0.147,0.125,0.439,0.27,0.648l1.564,2.273
		c0.145,0.209,0.375,0.417,0.513,0.463c0.138,0.045,0.382,0.032,0.544-0.03c0.161-0.062,0.423-0.274,0.581-0.473l0.18-0.226
		c0.158-0.198,0.446-0.495,0.64-0.66l0.193-0.164c0.194-0.164,0.538-0.391,0.766-0.503l0.033-0.018
		c-0.014,0.173-0.026,0.347-0.026,0.522c0,3.412,2.767,6.178,6.179,6.178c3.413,0,6.178-2.766,6.178-6.178
		c0-0.176-0.012-0.35-0.027-0.522l0.034,0.018c0.229,0.112,0.572,0.339,0.766,0.503l0.193,0.164c0.192,0.165,0.481,0.462,0.641,0.66
		l0.18,0.226c0.158,0.198,0.42,0.411,0.582,0.473c0.16,0.063,0.406,0.075,0.543,0.03c0.138-0.046,0.367-0.254,0.512-0.463
		l1.566-2.273c0.144-0.209,0.264-0.501,0.268-0.648C37.229,4.185,37.164,3.944,37.084,3.798"/>
	<path fill="#FFFFFF" d="M20.444,40.938c0.043,0.312,0.105,0.733,0.166,1.127l1.377,8.858c0.095,0.601,0.811,1.092,1.594,1.092
		c0.08,0,0.156-0.006,0.233-0.012v0.012h2.491v-0.027c0.125,0.017,0.253,0.027,0.387,0.027c0.782,0,1.518-0.614,1.635-1.365
		l1.293-8.313c0.08-0.51,0.157-1.037,0.207-1.397c-1.586,0.126-3.181,0.19-4.758,0.19C23.506,41.131,21.959,41.062,20.444,40.938"/>
	<path fill="#FFFFFF" d="M39.488,28.307l-5.182-9.295c-0.457-0.818-1.217-2.014-1.689-2.659c-0.475-0.644-1.693-1.388-2.71-1.651
		l-1.421-0.369c-0.829,0.33-1.868,0.527-3,0.527c-1.172,0-2.248-0.212-3.093-0.563l-2.663,0.681
		c-0.814,0.208-1.791,0.884-2.169,1.501s-0.895,1.688-1.148,2.378l-4.035,10.99c-0.253,0.691,0.197,1.448,1.002,1.682l0.06,0.019
		c0.806,0.233,1.714-0.128,2.021-0.803l2.968-6.544c0.307-0.677,0.818-1.697,1.136-2.27c0.318-0.573,0.643-0.451,0.721,0.271
		l0.111,1.036c0.078,0.723-0.104,1.866-0.402,2.545l-1.362,3.075c-0.3,0.68-0.542,1.242-0.933,2.509
		c-0.392,1.264-1.322,6.479-1.369,6.81c-0.047,0.329,0.574,0.784,1.382,1.011l0.298,0.084c0.4,0.112,1.51,0.35,1.669,0.368
		c3.675,0.46,7.587,0.464,11.443,0.003c0.128-0.015,1.319-0.272,1.813-0.412c0.89-0.25,1.578-0.725,1.531-1.054
		s-0.304-3.315-0.57-4.19l-0.701-2.301c-0.268-0.877-0.793-2.287-1.168-3.134l-1.088-2.46c-0.375-0.847-0.602-2.278-0.504-3.179
		l0.041-0.383c0.099-0.901,0.414-1.383,0.703-1.07c0.29,0.313,0.93,1.225,1.424,2.026l3.953,6.441
		c0.492,0.803,1.541,1.102,2.328,0.664C39.672,30.15,39.943,29.124,39.488,28.307"/>
</g>
</svg>
