<?xml version="1.0" encoding="utf-8"?>
<!-- Generator: Adobe Illustrator 16.0.3, SVG Export Plug-In . SVG Version: 6.00 Build 0)  -->
<!DOCTYPE svg PUBLIC "-//W3C//DTD SVG 1.1//EN" "http://www.w3.org/Graphics/SVG/1.1/DTD/svg11.dtd">
<svg version="1.1" id="Layer_1" xmlns="http://www.w3.org/2000/svg" xmlns:xlink="http://www.w3.org/1999/xlink" x="0px" y="0px"
	 width="60.01px" height="60.008px" viewBox="0 0 60.01 60.008" enable-background="new 0 0 60.01 60.008" xml:space="preserve">
<g opacity="0.5">
	<path fill="#FAFAFB" d="M15.529,0.472c-1.136,0-2.191,0.333-3.083,0.901c-0.175-0.393-0.449-0.737-0.821-0.987
		C10.48-0.381,8.861,0.025,8.011,1.294c-0.853,1.27-0.614,2.921,0.53,3.689C8.937,5.248,9.387,5.37,9.843,5.369
		C9.801,5.651,9.771,5.938,9.771,6.232c0,3.18,2.579,5.758,5.759,5.758c3.18,0,5.758-2.578,5.758-5.758
		C21.287,3.05,18.709,0.472,15.529,0.472"/>
	<path fill="#FAFAFB" d="M25.275,27.637c-0.211-2.548-1.74-4.717-3.906-5.828v-0.895c0.448-0.573,0.718-1.293,0.718-2.077
		c0-1.32-0.761-2.461-1.865-3.015c-0.095-0.047-2.535-1.409-2.535-1.409s-0.797-0.429-0.943-0.488
		c-0.548-0.221-1.141-0.345-1.761-0.348c-2.079-0.009-3.874,1.325-4.624,3.211c-0.045,0.113-0.086,0.228-0.123,0.344v-0.003
		l-0.743,3.392L7.389,37.562l-0.257,5.722c-0.122,1.961,0.36,3.102,2.214,3.348l3.289,0.25l3.813,0.146l3.896-0.108l2.584-0.295
		c1.815-0.287,2.378-1.281,2.378-2.57V27.896C25.306,27.811,25.293,27.725,25.275,27.637 M23.263,31.051
		c-0.156,0.324-0.444,0.488-0.856,0.488c-0.245,0-0.533-0.06-0.833-0.174c-0.047-0.02-0.296-0.13-0.462-0.205l-0.148-0.066
		l-1.432-0.715c-0.031-0.014-2.522-1.121-3.924-3.097l-0.073-0.102c-0.505-0.712-0.983-1.383-1.548-2.831
		c-0.332-0.85-0.443-1.471-0.571-2.189c-0.032-0.175-0.063-0.354-0.1-0.543l-0.124-0.644l-0.312-2.549
		c-0.116-0.957,0.566-1.844,1.523-1.976l0.092-0.012c0.08-0.013,0.16-0.018,0.239-0.018c0.866,0,1.598,0.649,1.703,1.511
		l0.467,3.819c0.001,0.013,0.037,0.474,0.334,1.451c0.328,1.077,0.585,1.523,1.235,2.523c0.661,1.018,1.799,1.937,1.847,1.975
		L22.179,29c0.013,0.011,0.047,0.035,0.093,0.065c0.148,0.101,0.425,0.288,0.688,0.597C23.377,30.155,23.477,30.609,23.263,31.051"
		/>
	<path fill="#FAFAFB" d="M17.092,48.025c-1.294,0-2.645-0.032-4.009-0.089l0.742,8.564c0.086,0.996,1.217,1.81,2.514,1.81
		c1.296,0,2.427-0.813,2.514-1.81l0.737-8.515C18.789,48.01,17.954,48.025,17.092,48.025"/>
	<path fill="#FFFFFF" d="M52.731,48.374l-1.465-2.574c-0.276-0.484-0.824-1.207-1.219-1.604l-0.191-0.193
		c-0.395-0.396-1.168-0.785-1.722-0.863l-0.712-0.102c-0.576,0.276-1.222,0.438-1.902,0.438c-0.697,0-1.354-0.166-1.94-0.455
		l-0.839,0.119c-0.553,0.078-1.327,0.469-1.723,0.863l-0.191,0.193c-0.393,0.396-0.941,1.118-1.219,1.604l-1.465,2.574
		c-0.276,0.485-0.192,1.137,0.187,1.449c0.379,0.311,0.994,0.225,1.366-0.191l1.539-1.709c0.373-0.414,0.679-0.297,0.679,0.262
		v0.604c0,0.56-0.047,1.471-0.104,2.026l-0.463,4.476c-0.058,0.556-0.26,1.44-0.449,1.967l-0.342,0.955
		c-0.189,0.524,0.112,0.955,0.672,0.955h1.311c0.559,0,1.154-0.436,1.322-0.969l1.271-4c0.057-0.176,0.107-0.394,0.152-0.621h0.31
		c0.046,0.229,0.097,0.445,0.152,0.621l1.271,4c0.17,0.533,0.764,0.969,1.323,0.969h1.312c0.56,0,0.861-0.431,0.672-0.955
		l-0.344-0.955c-0.189-0.525-0.391-1.411-0.449-1.967l-0.463-4.476c-0.058-0.558-0.104-1.468-0.104-2.026v-0.604
		c0-0.559,0.307-0.676,0.68-0.262l1.537,1.709c0.373,0.416,0.988,0.502,1.367,0.191C52.926,49.51,53.009,48.859,52.731,48.374"/>
	<path fill="#FFFFFF" d="M48.918,39.06c0,1.878-1.521,3.397-3.397,3.397s-3.397-1.521-3.397-3.397s1.521-3.397,3.397-3.397
		C47.396,35.663,48.918,37.183,48.918,39.06"/>
	<path fill="#FAFAFB" d="M39.571,47.633c-0.231-0.396-0.697-1.18-1.031-1.743l-1.125-1.899c-0.335-0.564-1.007-1.385-1.496-1.822
		l-0.018-0.018c-0.488-0.438-1.418-0.887-2.064-0.997l-0.259-0.044c-0.652,0.299-1.377,0.469-2.142,0.469
		c-0.783,0-1.523-0.181-2.19-0.492l-0.4,0.067c-0.647,0.11-1.576,0.56-2.064,0.997l-0.018,0.018
		c-0.488,0.438-1.161,1.258-1.496,1.822l-1.125,1.899c-0.334,0.563-0.799,1.349-1.032,1.743c-0.233,0.394-0.136,0.959,0.215,1.258
		c0.353,0.298,0.9,0.27,1.219-0.064c0.318-0.334,0.949-0.994,1.403-1.469l1.102-1.154c0.453-0.475,0.782-0.56,0.732-0.188
		c-0.051,0.369-0.342,1.146-0.647,1.729l-1.301,2.469c-0.306,0.582-0.644,1.268-0.753,1.525c-0.107,0.26,0.047,0.607,0.346,0.773
		c0.297,0.167,0.715,0.367,0.928,0.447c0.213,0.082,0.45,0.181,0.527,0.222c0.076,0.041,0.2,0.146,0.273,0.229
		c0.073,0.086,0.114,0.693,0.091,1.351l-0.021,0.601c-0.024,0.656-0.187,1.711-0.36,2.342l-0.319,1.156
		c-0.174,0.633,0.221,1.15,0.877,1.15h1.146c0.656,0,1.311-0.524,1.456-1.163l1.053-4.646c0.013-0.053,0.022-0.109,0.034-0.166
		h0.459c0.012,0.057,0.022,0.113,0.035,0.166l1.053,4.646c0.146,0.639,0.8,1.163,1.456,1.163h1.147c0.655,0,1.051-0.52,0.875-1.15
		l-0.318-1.156c-0.174-0.631-0.336-1.686-0.359-2.342l-0.021-0.601c-0.022-0.656,0.019-1.265,0.092-1.351
		c0.074-0.086,0.197-0.188,0.273-0.229s0.314-0.14,0.527-0.222c0.212-0.08,0.63-0.28,0.929-0.447
		c0.298-0.166,0.451-0.516,0.345-0.773c-0.108-0.259-0.447-0.943-0.754-1.525l-1.3-2.469c-0.307-0.58-0.598-1.357-0.647-1.729
		c-0.051-0.371,0.279-0.286,0.732,0.188l1.102,1.154c0.453,0.475,1.084,1.135,1.402,1.469s0.867,0.362,1.219,0.064
		C39.708,48.592,39.806,48.027,39.571,47.633"/>
	<path fill="#FAFAFB" d="M38.733,34.866c-0.053-0.097-0.217-0.232-0.363-0.306l-0.495-0.243c-0.147-0.07-0.399-0.158-0.56-0.191
		l-0.529-0.109c-0.16-0.033-0.426-0.057-0.59-0.053l-0.424,0.011c-0.164,0.004-0.431,0.032-0.592,0.065l-0.461,0.088
		c-0.721-1.041-1.922-1.724-3.283-1.724c-1.36,0-2.563,0.683-3.282,1.724l-0.462-0.088c-0.161-0.033-0.427-0.063-0.591-0.065
		l-0.424-0.011c-0.164-0.004-0.43,0.02-0.59,0.053l-0.529,0.109c-0.161,0.033-0.413,0.121-0.56,0.191l-0.495,0.243
		c-0.146,0.073-0.31,0.209-0.363,0.306c-0.052,0.094-0.093,0.25-0.091,0.346c0.002,0.095,0.08,0.283,0.174,0.418l1.012,1.469
		c0.093,0.135,0.241,0.271,0.33,0.299c0.089,0.029,0.246,0.021,0.352-0.02c0.104-0.039,0.273-0.176,0.375-0.305l0.116-0.146
		c0.103-0.129,0.288-0.32,0.414-0.426l0.125-0.106c0.125-0.104,0.347-0.252,0.494-0.325l0.021-0.011
		c-0.01,0.112-0.017,0.224-0.017,0.337c0,2.204,1.786,3.99,3.991,3.99c2.203,0,3.989-1.786,3.989-3.99
		c0-0.113-0.007-0.225-0.016-0.337l0.021,0.011c0.147,0.073,0.37,0.221,0.495,0.325l0.125,0.106
		c0.125,0.104,0.312,0.297,0.413,0.426l0.116,0.146c0.103,0.129,0.271,0.266,0.376,0.305c0.104,0.041,0.262,0.049,0.352,0.02
		c0.09-0.027,0.236-0.164,0.33-0.299l1.012-1.469c0.094-0.135,0.172-0.323,0.174-0.418C38.827,35.116,38.785,34.959,38.733,34.866"
		/>
</g>
</svg>
