<?xml version="1.0" encoding="utf-8"?>
<!-- Generator: Adobe Illustrator 16.0.3, SVG Export Plug-In . SVG Version: 6.00 Build 0)  -->
<!DOCTYPE svg PUBLIC "-//W3C//DTD SVG 1.1//EN" "http://www.w3.org/Graphics/SVG/1.1/DTD/svg11.dtd">
<svg version="1.1" id="icon-1" xmlns="http://www.w3.org/2000/svg" xmlns:xlink="http://www.w3.org/1999/xlink" x="0px" y="0px"
	 width="37.769px" height="37.844px" viewBox="0 0 37.769 37.844" enable-background="new 0 0 37.769 37.844" xml:space="preserve">
<g>
	<defs>
		<rect id="SVGID_1_" x="2.087" y="0.011" width="33.594" height="37.833"/>
	</defs>
	<clipPath id="SVGID_2_">
		<use xlink:href="#SVGID_1_"  overflow="visible"/>
	</clipPath>
	<path clip-path="url(#SVGID_2_)" fill="#FFFFFF" d="M32.211,7.807c0,0-0.66,13.088-3.966,19.434
		c-2.486,4.775-9.65,7.403-9.65,7.403s-6.479-1.851-9.387-6.611C6.299,23.276,4.977,7.939,4.977,7.939s3.306,0.397,6.346-0.528
		c3.042-0.925,6.61-3.438,7.403-3.438c0.793,0,4.363,2.38,7.008,3.702C28.378,8.998,32.211,7.807,32.211,7.807 M35.681,4.74
		c0,0-4.729,1.468-7.99-0.163c-3.262-1.63-7.665-4.565-8.644-4.565c-0.978,0-5.381,3.098-9.131,4.239
		C6.165,5.392,2.087,4.903,2.087,4.903s1.631,18.916,5.219,24.786c3.588,5.871,11.578,8.153,11.578,8.153s8.837-3.242,11.905-9.131
		C34.865,20.884,35.681,4.74,35.681,4.74"/>
	<path clip-path="url(#SVGID_2_)" fill="#FFFFFF" d="M18.885,31.22c0,0,5.741-2.107,7.735-5.934c2.65-5.088,3.18-15.579,3.18-15.579
		s-3.072,0.954-5.192-0.106c-2.12-1.06-4.981-2.967-5.617-2.967c-0.636,0-3.497,2.014-5.935,2.755
		c-2.437,0.741-5.086,0.423-5.086,0.423s1.059,12.293,3.391,16.109C13.691,29.737,18.885,31.22,18.885,31.22"/>
</g>
</svg>
