<?xml version="1.0" encoding="utf-8"?>
<!-- Generator: Adobe Illustrator 16.0.3, SVG Export Plug-In . SVG Version: 6.00 Build 0)  -->
<!DOCTYPE svg PUBLIC "-//W3C//DTD SVG 1.1//EN" "http://www.w3.org/Graphics/SVG/1.1/DTD/svg11.dtd">
<svg version="1.1" id="icon-3" xmlns="http://www.w3.org/2000/svg" xmlns:xlink="http://www.w3.org/1999/xlink" x="0px" y="0px"
	 width="37.769px" height="37.844px" viewBox="0 0 37.769 37.844" enable-background="new 0 0 37.769 37.844" xml:space="preserve">
<g>
	<defs>
		<rect id="SVGID_1_" width="37.769" height="37.843"/>
	</defs>
	<clipPath id="SVGID_2_">
		<use xlink:href="#SVGID_1_"  overflow="visible"/>
	</clipPath>
	<path clip-path="url(#SVGID_2_)" fill="#FFFFFF" d="M9.802,25.986c0.108-0.035,0.204-0.063,0.297-0.096
		c0.713-0.256,1.441-0.373,2.2-0.271c2.316,0.307,3.471,3.029,2.079,4.909c-0.517,0.694-1.228,1.106-2.038,1.366
		c-0.057,0.02-0.115,0.039-0.209,0.071c0.082,0.031,0.12,0.046,0.158,0.058c2.166,0.715,4.331,1.428,6.498,2.137
		c0.073,0.024,0.169,0.02,0.243-0.004c2.145-0.707,4.289-1.418,6.433-2.127c0.045-0.016,0.09-0.037,0.168-0.068
		c-0.096-0.031-0.15-0.048-0.207-0.066c-0.521-0.168-1.013-0.396-1.437-0.748c-0.921-0.766-1.348-1.746-1.153-2.936
		c0.197-1.195,0.888-2.027,2.035-2.441c0.863-0.311,1.732-0.223,2.59,0.053c0.166,0.053,0.33,0.11,0.507,0.17v-6.993
		c-0.06,0.017-0.109,0.031-0.159,0.046c-2.906,0.952-5.813,1.902-8.722,2.847c-0.105,0.033-0.243,0.037-0.349,0.002
		c-2.541-0.818-5.078-1.646-7.616-2.474c-0.434-0.141-0.868-0.281-1.317-0.426V25.986z M9.802,32.654
		c-0.475,0.131-0.917,0.252-1.357,0.375c-1.257,0.35-2.518,0.691-3.77,1.055c-0.443,0.129-0.88,0.25-1.347,0.248
		c-1.902-0.011-3.417-1.616-3.324-3.518c0.032-0.67,0.245-1.266,0.642-1.808c2.843-3.892,5.684-7.782,8.512-11.681
		c0.385-0.53,0.773-1.045,1.307-1.435c0.809-0.594,1.717-0.896,2.718-0.896c3.8-0.004,7.601-0.015,11.401,0.004
		c1.689,0.009,2.981,0.783,3.923,2.181c0.495,0.734,1.035,1.438,1.557,2.154c2.365,3.242,4.729,6.482,7.092,9.725
		c1.414,1.938,0.252,4.797-2.115,5.212c-0.636,0.112-1.245,0.031-1.858-0.158c-0.983-0.3-1.979-0.559-2.971-0.834
		c-0.703-0.197-1.405-0.393-2.108-0.588c-0.036-0.01-0.072-0.016-0.126-0.028v5.181H9.802V32.654z"/>
	<path clip-path="url(#SVGID_2_)" fill="#FFFFFF" d="M19.426,14.5c-3.821-0.008-6.91-3.276-6.881-7.281
		C12.573,3.223,15.706-0.024,19.511,0c3.723,0.023,6.789,3.294,6.784,7.232C26.288,11.305,23.26,14.51,19.426,14.5"/>
	<path clip-path="url(#SVGID_2_)" fill="#FFFFFF" d="M6.019,15.682c0,0,2.576-9.688,6.272-5.518
		C15.989,14.335,6.019,15.682,6.019,15.682"/>
	<path clip-path="url(#SVGID_2_)" fill="#FFFFFF" d="M33.939,15.428c0,0-2.913-9.688-7.095-5.518
		C22.662,14.081,33.939,15.428,33.939,15.428"/>
</g>
</svg>
