<?xml version="1.0" encoding="utf-8"?>
<!-- Generator: Adobe Illustrator 16.0.3, SVG Export Plug-In . SVG Version: 6.00 Build 0)  -->
<!DOCTYPE svg PUBLIC "-//W3C//DTD SVG 1.1//EN" "http://www.w3.org/Graphics/SVG/1.1/DTD/svg11.dtd">
<svg version="1.1" id="icon-4" xmlns="http://www.w3.org/2000/svg" xmlns:xlink="http://www.w3.org/1999/xlink" x="0px" y="0px"
	 width="37.769px" height="37.844px" viewBox="0 0 37.769 37.844" enable-background="new 0 0 37.769 37.844" xml:space="preserve">
<g>
	<defs>
		<rect id="SVGID_1_" x="0.076" y="3.407" width="37.638" height="31.031"/>
	</defs>
	<clipPath id="SVGID_2_">
		<use xlink:href="#SVGID_1_"  overflow="visible"/>
	</clipPath>
	<path clip-path="url(#SVGID_2_)" fill="#FFFFFF" d="M37.714,14.177v-1.861c-0.521-5.6-4.274-8.522-7.961-8.834
		c-0.606-0.05-1.174-0.075-1.707-0.075c-4.259,0-6.815,3.122-9.151,5.535c-2.339-2.413-4.892-5.535-9.154-5.535
		c-0.531,0-1.1,0.025-1.703,0.075c-3.688,0.312-7.443,3.234-7.962,8.834v1.861c0.17,1.877,0.87,3.912,2.273,6.116l7.328,0.026
		l2.209,2.461l5.589-9.231l5.198,10.03l1.017-1.774l10.722-0.055l-1.017,1.178h-8.777l-2.092,3.228l-5.36-9.384l-5.125,8.382
		L8.78,21.61l-5.503,0.025c2.813,3.758,7.697,7.996,15.618,12.803C32.555,26.149,37.229,19.537,37.714,14.177"/>
</g>
</svg>
