<?xml version="1.0" encoding="utf-8"?>
<!-- Generator: Adobe Illustrator 16.0.3, SVG Export Plug-In . SVG Version: 6.00 Build 0)  -->
<!DOCTYPE svg PUBLIC "-//W3C//DTD SVG 1.1//EN" "http://www.w3.org/Graphics/SVG/1.1/DTD/svg11.dtd">
<svg version="1.1" id="icon-9" xmlns="http://www.w3.org/2000/svg" xmlns:xlink="http://www.w3.org/1999/xlink" x="0px" y="0px"
	 width="37.769px" height="37.844px" viewBox="0 0 37.769 37.844" enable-background="new 0 0 37.769 37.844" xml:space="preserve">
<g>
	<defs>
		<rect id="SVGID_1_" y="0.084" width="37.769" height="37.76"/>
	</defs>
	<clipPath id="SVGID_2_">
		<use xlink:href="#SVGID_1_"  overflow="visible"/>
	</clipPath>
	<path clip-path="url(#SVGID_2_)" fill="#FFFFFF" d="M9.703,13.577c0.469-0.798,1.039-1.529,1.692-2.177l-5.55-6.086
		C4.449,6.648,3.258,8.195,2.322,9.901L9.703,13.577z"/>
	<path clip-path="url(#SVGID_2_)" fill="#FFFFFF" d="M23.31,9.277c0.84,0.386,1.621,0.877,2.327,1.459l5.566-6.076
		c-1.467-1.265-3.13-2.309-4.935-3.078L23.31,9.277z"/>
	<path clip-path="url(#SVGID_2_)" fill="#FFFFFF" d="M36.056,11.108l-7.377,3.677c0.353,0.823,0.603,1.696,0.738,2.606l8.206-0.774
		C37.382,14.674,36.845,12.822,36.056,11.108"/>
	<path clip-path="url(#SVGID_2_)" fill="#FFFFFF" d="M28.149,13.719l7.376-3.676c-0.913-1.699-2.079-3.241-3.448-4.576l-5.564,6.075
		C27.146,12.193,27.697,12.924,28.149,13.719"/>
	<path clip-path="url(#SVGID_2_)" fill="#FFFFFF" d="M8.237,18.962c0-0.167,0.005-0.332,0.013-0.497L0.042,17.73
		C0.016,18.137,0,18.547,0,18.962c0,1.575,0.195,3.104,0.558,4.564l7.928-2.273C8.324,20.513,8.237,19.749,8.237,18.962"/>
	<path clip-path="url(#SVGID_2_)" fill="#FFFFFF" d="M27.116,25.708c-0.583,0.711-1.257,1.343-2.002,1.883l4.335,7.017
		c1.608-1.088,3.039-2.422,4.243-3.94L27.116,25.708z"/>
	<path clip-path="url(#SVGID_2_)" fill="#FFFFFF" d="M29.532,18.962c0,0.776-0.083,1.534-0.244,2.264l7.926,2.276
		c0.361-1.454,0.556-2.977,0.556-4.541c0-0.39-0.014-0.775-0.038-1.159l-8.207,0.774C29.529,18.707,29.532,18.833,29.532,18.962"/>
	<path clip-path="url(#SVGID_2_)" fill="#FFFFFF" d="M10.785,25.865l-6.56,4.986c1.22,1.502,2.665,2.811,4.284,3.881l4.334-7.01
		C12.079,27.195,11.387,26.57,10.785,25.865"/>
	<path clip-path="url(#SVGID_2_)" fill="#FFFFFF" d="M8.37,17.281c0.147-0.928,0.416-1.814,0.787-2.645l-7.374-3.673
		c-0.814,1.733-1.374,3.611-1.627,5.581L8.37,17.281z"/>
	<path clip-path="url(#SVGID_2_)" fill="#FFFFFF" d="M28.439,35.243l-4.327-7.01c-0.786,0.445-1.633,0.795-2.525,1.027l1.527,8.105
		C25.014,36.93,26.806,36.206,28.439,35.243"/>
	<path clip-path="url(#SVGID_2_)" fill="#FFFFFF" d="M28.972,22.375c-0.285,0.842-0.675,1.639-1.151,2.373l6.58,4.963
		c1.069-1.536,1.915-3.238,2.492-5.062L28.972,22.375z"/>
	<path clip-path="url(#SVGID_2_)" fill="#FFFFFF" d="M20.42,29.499c-0.502,0.071-1.015,0.111-1.536,0.111
		c-0.419,0-0.833-0.027-1.239-0.073l-1.526,8.106c0.904,0.131,1.826,0.201,2.765,0.201c1.043,0,2.065-0.084,3.063-0.247
		L20.42,29.499z"/>
	<path clip-path="url(#SVGID_2_)" fill="#FFFFFF" d="M19.565,8.335c0.914,0.059,1.798,0.232,2.634,0.509l2.961-7.694
		c-1.761-0.622-3.641-0.989-5.595-1.058V8.335z"/>
	<path clip-path="url(#SVGID_2_)" fill="#FFFFFF" d="M16.471,29.333c-0.922-0.215-1.8-0.551-2.613-0.988l-4.336,7.013
		c1.668,0.954,3.492,1.662,5.425,2.073L16.471,29.333z"/>
	<path clip-path="url(#SVGID_2_)" fill="#FFFFFF" d="M15.684,8.805c0.856-0.27,1.757-0.434,2.69-0.479V0.084
		c-1.981,0.053-3.885,0.414-5.671,1.033L15.684,8.805z"/>
	<path clip-path="url(#SVGID_2_)" fill="#FFFFFF" d="M10.063,24.918c-0.523-0.774-0.95-1.618-1.256-2.52l-7.921,2.273
		c0.6,1.891,1.488,3.649,2.617,5.23L10.063,24.918z"/>
	<path clip-path="url(#SVGID_2_)" fill="#FFFFFF" d="M12.288,10.61c0.695-0.552,1.462-1.016,2.283-1.382l-2.979-7.685
		C9.818,2.288,8.183,3.297,6.732,4.519L12.288,10.61z"/>
</g>
</svg>
