<?xml version="1.0" encoding="utf-8"?>
<!-- Generator: Adobe Illustrator 16.0.3, SVG Export Plug-In . SVG Version: 6.00 Build 0)  -->
<!DOCTYPE svg PUBLIC "-//W3C//DTD SVG 1.1//EN" "http://www.w3.org/Graphics/SVG/1.1/DTD/svg11.dtd">
<svg version="1.1" id="icon-2" xmlns="http://www.w3.org/2000/svg" xmlns:xlink="http://www.w3.org/1999/xlink" x="0px" y="0px"
	 width="37.769px" height="37.844px" viewBox="0 0 37.769 37.844" enable-background="new 0 0 37.769 37.844" xml:space="preserve">
<g>
	<defs>
		<rect id="SVGID_1_" y="0" width="37.771" height="37.771"/>
	</defs>
	<clipPath id="SVGID_2_">
		<use xlink:href="#SVGID_1_"  overflow="visible"/>
	</clipPath>
	<path clip-path="url(#SVGID_2_)" fill="#FFFFFF" d="M27.827,17.514v-3.915c0-1.279,0.093-1.158,0-1.959
		c-0.344-0.979-1.034-1.304-1.727-1.304h-3.111c-1.387,0-2.066-0.005-3.447-0.005c-0.69,0-1.144-0.043-1.654,0.398
		c-0.701,0.749-0.633,0.813-0.633,2.901l-0.252,3.995c0,1.031-0.458,2.929,0.762,3.003c0.963,0.059,0.892-0.964,1.02-2
		c0.202-1.627,0.348-3.953,0.553-3.953c0.204,0,0.202,0.015,0.202,1.024c0,0.934-0.008,14.106-0.008,14.869
		c0,0.652,0.369,1.35,1.409,1.35c1.038,0,1.475-0.572,1.475-1.225v-6.852c0-0.652,0.02-0.97,0.192-0.97s0.15,0.317,0.15,0.97v6.852
		c0,0.405,0.456,1.286,1.496,1.286c0.691,0,1.326-0.837,1.326-1.272c0-2.612,0.016-14.227,0.016-15.046
		c0-0.447-0.039-1.012,0.137-1.012c0.178,0,0.173,0.154,0.173,0.797v2.512c0,1.717,0.028,2.544,0.973,2.544
		C28.031,20.501,27.827,18.449,27.827,17.514"/>
	<path clip-path="url(#SVGID_2_)" fill="#FFFFFF" d="M14.557,19.048c-0.225-0.629-0.673-0.836-1.12-0.836h-1.122h-1.79
		c-0.45,0-1.121,0.208-1.346,0.836c-0.224,0.626-0.224,0.626-0.448,1.254c-0.224,0.628-0.673,1.883-0.896,2.508
		c-0.223,0.63-0.671,1.466,0,1.673c0.673,0.211,1.121-1.043,1.344-1.673c0.225-0.625,0.225-0.625,0.451-1.253
		c0.046-0.115,0.136-0.479,0.31-0.417c0.109,0.041,0,0.183-0.089,0.417c-0.173,0.593-1.567,5.49-1.567,5.49h1.792v4.128
		c0,0.42,0.141,0.856,0.75,0.856c0.596,0,0.76-0.468,0.76-0.886v-3.5c0-0.42,0-0.574,0.186-0.592
		c0.187-0.017,0.149,0.172,0.149,0.592v3.5c0,0.261,0.088,0.86,0.746,0.86c0.596,0,0.771-0.551,0.771-0.831v-4.128h1.791
		c0,0-1.229-4.854-1.389-5.499c-0.035-0.144-0.117-0.786,0.05-1.223"/>
	<path clip-path="url(#SVGID_2_)" fill="#FFFFFF" d="M13.763,15.853c0,1.058-0.856,1.914-1.914,1.914
		c-1.058,0-1.915-0.856-1.915-1.914c0-1.058,0.856-1.915,1.915-1.915C12.907,13.938,13.763,14.794,13.763,15.853"/>
	<path clip-path="url(#SVGID_2_)" fill="#FFFFFF" d="M25.304,7.023c0,1.532-1.242,2.773-2.773,2.773
		c-1.532,0-2.774-1.241-2.774-2.773s1.242-2.774,2.774-2.774C24.062,4.249,25.304,5.492,25.304,7.023"/>
	<path clip-path="url(#SVGID_2_)" fill="#FFFFFF" d="M13.779,18.198l3.248,0.321c0,0,0.813-0.087,0.69,0.837
		c-0.1,0.751-0.778,0.62-0.778,0.62l-2.251-0.214c0,0-0.509-0.016-0.742,0.459"/>
	<circle clip-path="url(#SVGID_2_)" fill="none" stroke="#FFFFFF" stroke-width="2.6395" cx="18.886" cy="18.884" r="17.565"/>
</g>
<line fill="none" stroke="#FFFFFF" stroke-width="2.6395" x1="7.43" y1="30.908" x2="31.984" y2="7.987"/>
</svg>
