<?xml version="1.0" encoding="utf-8"?>
<!-- Generator: Adobe Illustrator 16.0.3, SVG Export Plug-In . SVG Version: 6.00 Build 0)  -->
<!DOCTYPE svg PUBLIC "-//W3C//DTD SVG 1.1//EN" "http://www.w3.org/Graphics/SVG/1.1/DTD/svg11.dtd">
<svg version="1.1" id="icon-7" xmlns="http://www.w3.org/2000/svg" xmlns:xlink="http://www.w3.org/1999/xlink" x="0px" y="0px"
	 width="37.769px" height="37.844px" viewBox="0 0 37.769 37.844" enable-background="new 0 0 37.769 37.844" xml:space="preserve">
<g>
	<polygon fill="#FFFFFF" points="31.156,9.605 18.348,15.124 14.804,9.576 0.053,18.583 0.053,23.528 13.28,15.56 16.701,20.951 
		32.897,12.836 35.438,17.051 37.598,7.159 28.761,5.314 	"/>
	<polygon fill="#FFFFFF" points="0.165,25.344 0.165,32.528 6.905,32.528 6.905,20.755 	"/>
	<polygon fill="#FFFFFF" points="8.388,20.408 8.388,32.528 15.128,32.528 15.128,22.637 12.469,17.55 	"/>
	<polygon fill="#FFFFFF" points="16.849,22.706 16.849,32.528 23.59,32.528 23.59,18.946 	"/>
	<polygon fill="#FFFFFF" points="25.122,18.597 25.122,32.53 31.861,32.53 31.861,14.696 	"/>
</g>
</svg>
