<?xml version="1.0" encoding="utf-8"?>
<!-- Generator: Adobe Illustrator 16.0.3, SVG Export Plug-In . SVG Version: 6.00 Build 0)  -->
<!DOCTYPE svg PUBLIC "-//W3C//DTD SVG 1.1//EN" "http://www.w3.org/Graphics/SVG/1.1/DTD/svg11.dtd">
<svg version="1.1" id="icon-8" xmlns="http://www.w3.org/2000/svg" xmlns:xlink="http://www.w3.org/1999/xlink" x="0px" y="0px"
	 width="37.769px" height="37.844px" viewBox="0 0 37.769 37.844" enable-background="new 0 0 37.769 37.844" xml:space="preserve">
<g>
	<defs>
		<rect id="SVGID_1_" width="37.769" height="37.844"/>
	</defs>
	<clipPath id="SVGID_2_">
		<use xlink:href="#SVGID_1_"  overflow="visible"/>
	</clipPath>
	
		<ellipse clip-path="url(#SVGID_2_)" fill="none" stroke="#FFFFFF" stroke-width="1.6937" cx="18.884" cy="18.922" rx="18.043" ry="18.07"/>
	<path clip-path="url(#SVGID_2_)" fill="#FFFFFF" d="M17.967,13.556c0,0.609,0.396,0.758,0.812,0.887v-1.72
		C18.223,12.755,17.967,13.107,17.967,13.556"/>
	<path clip-path="url(#SVGID_2_)" fill="#FFFFFF" d="M19.3,16.066v1.795c0.438-0.043,0.864-0.342,0.864-0.908
		C20.164,16.504,19.919,16.236,19.3,16.066"/>
	<path clip-path="url(#SVGID_2_)" fill="#FFFFFF" d="M20.782,18.513c-0.554,0.394-1.119,0.437-1.504,0.458v1.069h-0.564v-1.069
		c-1.013,0.033-1.6-0.48-1.761-0.63c-0.447-0.417-0.563-0.95-0.585-1.688h1.451c-0.033,1.068,0.682,1.187,0.905,1.187v-1.892
		c-1.14-0.32-2.206-0.737-2.206-2.179c0-0.384,0.084-0.908,0.542-1.41c0.608-0.662,1.333-0.715,1.728-0.758v-0.896h0.587v0.875
		c0.564,0.043,1.204,0.139,1.705,0.642c0.513,0.512,0.522,1.11,0.534,1.463h-1.429c-0.032-0.791-0.362-0.93-0.833-0.983v1.901
		c1.194,0.299,2.336,0.663,2.336,2.19C21.688,17.647,21.197,18.213,20.782,18.513 M18.884,8.726c-4.326,0-7.834,3.514-7.834,7.848
		c0,1.688,0.534,3.252,1.439,4.533c0.186,0.262,0.798,0.842,1.013,1.078l3.684-2.494l3.271,4.573
		c0.915-0.188,1.771-0.533,2.539-1.01c-0.643-1.125-1.693-3.098-1.693-3.098s1.97-0.013,4.581-0.054
		c0.534-1.062,0.836-2.26,0.836-3.529C26.719,12.24,23.211,8.726,18.884,8.726"/>
	<path clip-path="url(#SVGID_2_)" fill="none" stroke="#FFFFFF" stroke-width="1.2703" stroke-miterlimit="10" d="M8.206,27.628
		c-0.379,0.287,8.29-5.701,8.29-5.701l3.334,5.501l5.889-3.943"/>
</g>
<polygon fill="#FFFFFF" points="22.871,21.161 29.938,20.952 26.586,27.186 "/>
</svg>
