<?xml version="1.0" encoding="utf-8"?>
<!-- Generator: Adobe Illustrator 16.0.3, SVG Export Plug-In . SVG Version: 6.00 Build 0)  -->
<!DOCTYPE svg PUBLIC "-//W3C//DTD SVG 1.1//EN" "http://www.w3.org/Graphics/SVG/1.1/DTD/svg11.dtd">
<svg version="1.1" id="icon-10" xmlns="http://www.w3.org/2000/svg" xmlns:xlink="http://www.w3.org/1999/xlink" x="0px" y="0px"
	 width="37.769px" height="37.844px" viewBox="0 0 37.769 37.844" enable-background="new 0 0 37.769 37.844" xml:space="preserve">
<g>
	<defs>
		<rect id="SVGID_1_" x="4.75" width="30.018" height="37.844"/>
	</defs>
	<clipPath id="SVGID_2_">
		<use xlink:href="#SVGID_1_"  overflow="visible"/>
	</clipPath>
	<path clip-path="url(#SVGID_2_)" fill="#FFFFFF" d="M18.034,19.928c0-1.185-0.004-2.362-0.025-3.537
		c-0.066-3.821-2.833-6.915-6.227-7.069c-3.567-0.161-6.599,2.521-6.897,6.407c-0.221,2.87-0.098,5.772-0.118,8.662
		c-0.002,0.446,0.05,0.894,0.086,1.49c0.622,0,1.159,0.063,1.679-0.014c1.077-0.158,1.336,0.37,1.309,1.478
		c-0.063,2.521-0.02,6.301-0.02,8.824v0.806v0.014v0.855h7.205V25.893h1.342C16.927,23.894,17.481,21.907,18.034,19.928"/>
	<path clip-path="url(#SVGID_2_)" fill="#FFFFFF" d="M25.791,0.665c2.305,0.026,4.063,1.812,4.054,4.12
		c-0.011,2.269-1.836,4.091-4.108,4.098c-2.246,0.007-4.123-1.851-4.136-4.094C21.589,2.467,23.445,0.639,25.791,0.665"/>
	<path clip-path="url(#SVGID_2_)" fill="#FFFFFF" d="M11.7,0c2.306,0.026,4.064,1.812,4.054,4.119
		c-0.009,2.269-1.836,4.091-4.108,4.099C9.4,8.225,7.523,6.367,7.511,4.124C7.499,1.802,9.355-0.026,11.7,0"/>
	<path clip-path="url(#SVGID_2_)" fill="#FFFFFF" d="M31.754,9.119c0,0-1.78-0.067-3.017-1.305c-1.238-1.238-0.321-2.226-0.059-2.48
		c0.557-0.536,1.639-0.505,2.401,0.658c0.988,1.508,0.784,3.192,0.784,3.192"/>
	<path clip-path="url(#SVGID_2_)" fill="#FFFFFF" d="M24.006,37.579c-0.698-3.894-1.111-6.767-1.111-10.543h-5.411
		c1.459-5.458,3.882-11.689,5.318-17.064c1.195,1.506,5.239,1.207,5.982,0c1.44,5.383,4.527,11.608,5.983,17.055h-5.399
		c0,3.769-0.365,6.793-1.109,10.552H24.006z"/>
</g>
</svg>
