<?xml version="1.0" encoding="utf-8"?>
<!-- Generator: Adobe Illustrator 16.0.3, SVG Export Plug-In . SVG Version: 6.00 Build 0)  -->
<!DOCTYPE svg PUBLIC "-//W3C//DTD SVG 1.1//EN" "http://www.w3.org/Graphics/SVG/1.1/DTD/svg11.dtd">
<svg version="1.1" id="icon-6" xmlns="http://www.w3.org/2000/svg" xmlns:xlink="http://www.w3.org/1999/xlink" x="0px" y="0px"
	 width="37.769px" height="37.844px" viewBox="0 0 37.769 37.844" enable-background="new 0 0 37.769 37.844" xml:space="preserve">
<g>
	<polygon fill="#FFFFFF" points="19.781,4.585 4.671,19.43 34.617,19.43 	"/>
	<g>
		<defs>
			<rect id="SVGID_1_" y="4.584" width="37.769" height="28.675"/>
		</defs>
		<clipPath id="SVGID_2_">
			<use xlink:href="#SVGID_1_"  overflow="visible"/>
		</clipPath>
		<path clip-path="url(#SVGID_2_)" fill="#FFFFFF" d="M0,33.089h10.472l4.782-14.521c0,0-0.505-5.631-2.627,0
			c-0.825,2.188-2.045,4.353-3.203,5.96C5.293,30.269,0,33.089,0,33.089"/>
		<path clip-path="url(#SVGID_2_)" fill="#FFFFFF" d="M14.919,33.259h7.008c0,0-0.205-1.016-1.123-10.094
			c-0.049-0.494-0.174-3.031-0.219-3.503c-0.774-8.198-1.336-13.14-1.336-13.14s-1.023,7.104-1.729,12.975
			c-0.178,1.467-0.477,3.145-0.658,4.324C15.967,29.726,14.919,33.259,14.919,33.259"/>
		<path clip-path="url(#SVGID_2_)" fill="#FFFFFF" d="M37.769,33.089H27.297l-4.781-14.521c0,0,0.503-5.631,2.626,0
			c0.826,2.188,2.047,4.353,3.203,5.96C32.476,30.269,37.769,33.089,37.769,33.089"/>
	</g>
</g>
</svg>
